<?xml version="1.0" encoding="utf-8"?>
<!-- Generator: Adobe Illustrator 22.0.0, SVG Export Plug-In . SVG Version: 6.00 Build 0)  -->
<svg version="1.1" id="Layer_1" xmlns="http://www.w3.org/2000/svg" xmlns:xlink="http://www.w3.org/1999/xlink" x="0px" y="0px"
	 width="46.083px" height="59.25px" viewBox="0 0 46.083 59.25" enable-background="new 0 0 46.083 59.25" xml:space="preserve">
<g>
	<g id="_x31_00_натурально">
		<path fill="#412E21" d="M11.289,51.449c-1.507,0-2.781-1.158-2.904-2.635c-0.005-0.065-0.01-1.24-0.01-1.898
			c0-0.536,0.435-0.972,0.972-0.972c0.536,0,0.972,0.435,0.972,0.972c0,0.599,0.003,1.649,0.005,1.779
			c0.038,0.437,0.462,0.811,0.966,0.811c0.536,0,0.972,0.435,0.972,0.972S11.826,51.449,11.289,51.449z"/>
		<path fill="#412E21" d="M29.301,27.221c-0.052-0.284-0.233-0.529-0.49-0.662c-0.255-0.132-0.56-0.14-0.823-0.017l-0.308,0.145
			c-2.494,1.185-8.437,4.218-9.764,6.765c-0.799,1.536-0.952,3.292-0.431,4.943c0.425,1.349,1.275,2.478,2.403,3.289l-1.097,2.108
			c-0.238,0.457-0.06,1.021,0.398,1.259c0.137,0.073,0.286,0.106,0.43,0.106c0.338,0,0.663-0.183,0.83-0.503l1.088-2.092
			c0.687,0.241,1.402,0.369,2.123,0.369c0.656,0,1.315-0.101,1.957-0.303c1.65-0.521,3-1.653,3.802-3.189
			C30.939,36.523,29.474,28.166,29.301,27.221z M22.553,31.665l0.963,3.052l-1.121,2.154l-1.305-4.139
			C21.522,32.388,22.002,32.031,22.553,31.665z M28.126,32.746l-1.768,0.557l1.529-2.937C27.983,31.141,28.066,31.947,28.126,32.746
			z M24.735,32.375l-0.544-1.726c0.656-0.386,1.336-0.771,2.036-1.141L24.735,32.375z M25.139,35.646l3.086-0.973
			c0.014,0.646,0.006,1.258-0.03,1.81L24.019,37.8L25.139,35.646z M19.574,34.315c0.009-0.017,0.03-0.038,0.04-0.056l1.562,4.955
			l-0.422,0.811C19.091,38.672,18.545,36.288,19.574,34.315z M25.056,40.849c-0.874,0.276-1.786,0.284-2.647,0.038l0.393-0.755
			c0.017-0.004,0.034-0.003,0.051-0.008l4.91-1.548v0.001C27.192,39.672,26.231,40.479,25.056,40.849z"/>
		<g>
			<path fill="#ED8726" d="M26.677,8.841c0,0.001,0,0.005,0,0.012c-0.082,1.073-0.323,2.126-0.702,3.147h0.245
				c1.608-1.967,2.656-4.285,3.07-6.78c-0.052,0.044-0.101,0.086-0.162,0.14c-0.45,0.405-1.065,0.961-2.224,0.961
				c-0.259,0-0.482-0.036-0.692-0.083c-0.061,0.554-0.152,1.105-0.258,1.653C26.391,7.994,26.707,8.381,26.677,8.841z"/>
			<path fill="#ED8726" d="M28.177,14.483c0-0.321-0.271-0.593-0.592-0.593h-4.13c-0.183,0.185-0.297,0.438-0.297,0.718
				c0,0.171,0.053,0.325,0.128,0.468h4.3C27.906,15.076,28.177,14.804,28.177,14.483z"/>
			<path fill="#ED8726" d="M38.192,53.627l1.943,0.578c0.688,0.203,1.426-0.154,1.75-0.85c0.188-0.455,0.192-1.021-0.004-1.518
				c-0.065-0.199-0.111-0.332-0.157-0.46c-0.066-0.185-0.115-0.324-0.157-0.47c-0.141-0.472-0.237-0.744-0.299-0.918
				c-0.069-0.131-0.108-0.279-0.108-0.435c0-0.054,0.004-0.119,0.009-0.211c0.018-0.255,0.035-0.526,0.052-0.957
				c0.144-3.976,0.066-8.027-0.01-11.943l-0.054-2.976c-0.051-3.104-0.709-7.556-3.561-11.15c-0.205-0.257-0.417-0.508-0.637-0.75
				c-2.467-2.718-5.964-4.655-9.689-4.62c-0.871,0.008-1.74,0.023-2.61,0.023v2.578c0,0.152-0.045,0.29-0.109,0.417
				c1.292,0.536,2.495,1.308,3.55,2.223c5.046,4.376,5.666,11.535,5.831,17.778c0.044,1.647,0.123,3.3,0.135,4.945
				c0.013,2.088-0.185,4.202,0.255,6.264c0.159,0.745,0.439,1.395,0.858,1.937C36.243,53.036,37.253,53.211,38.192,53.627z"/>
			<path fill="#412E21" d="M26.271,5.141c0.01-0.004,0.019-0.008,0.03-0.012c0.003-0.036,0.006-0.073,0.009-0.109
				C26.256,5.033,26.255,5.105,26.271,5.141z"/>
		</g>
		<path fill="#412E21" d="M36.471,51.449c-0.536,0-0.972-0.435-0.972-0.972s0.435-0.972,0.972-0.972c0.504,0,0.93-0.374,0.969-0.852
			c0.001-0.106,0.003-1.145,0.003-1.737c0-0.536,0.435-0.972,0.972-0.972c0.536,0,0.972,0.435,0.972,0.972
			c0,1.799-0.005,1.854-0.012,1.912C39.254,50.289,37.978,51.449,36.471,51.449z"/>
		<path fill="#412E21" d="M43.641,51.218c-0.048-0.155-0.101-0.31-0.174-0.516c-0.038-0.101-0.074-0.197-0.106-0.316
			c-0.154-0.513-0.258-0.811-0.324-0.998c0.013-0.194,0.031-0.482,0.048-0.939c0.148-4.029,0.069-8.106-0.008-12.048l-0.054-2.969
			c-0.08-4.864-1.451-9.111-3.967-12.281c-2.253-2.837-5.392-4.899-8.836-5.806c-0.066-0.017-0.174-0.038-0.295-0.057
			c0.088-0.254,0.145-0.522,0.145-0.804c0-1.091-0.711-2.009-1.691-2.342c1.645-2.359,2.634-5.098,2.869-8.002
			c0.031-0.39-0.192-0.736-0.529-0.889C30.553,3.098,30.334,3,30.089,3c-1.159,0-1.775,0.556-2.224,0.961
			c-0.376,0.339-0.544,0.477-0.961,0.477s-0.586-0.137-0.961-0.477C25.493,3.556,24.877,3,23.718,3s-1.773,0.557-2.223,0.963
			c-0.373,0.338-0.542,0.475-0.956,0.475c-0.416,0-0.584-0.137-0.957-0.475C19.132,3.557,18.517,3,17.359,3
			c-0.245,0-0.464,0.1-0.631,0.253c-0.336,0.154-0.558,0.499-0.526,0.889c0.236,2.906,1.224,5.643,2.869,8.002
			c-0.979,0.333-1.691,1.251-1.691,2.342c0,0.32,0.066,0.624,0.177,0.906c-1.886,0.5-3.735,1.323-5.399,2.448
			c-2.132,1.443-3.939,3.341-5.222,5.488c-1.075,1.789-1.794,3.899-2.197,6.45c-0.424,2.687-0.442,5.44-0.459,8.102l-0.013,1.539
			c-0.038,3.077-0.005,6.115,0.096,9.029c0.017,0.457,0.035,0.742,0.047,0.884c0,0.021,0,0.039,0.001,0.06
			c-0.07,0.194-0.174,0.492-0.323,0.996c-0.031,0.105-0.067,0.212-0.127,0.37c-0.053,0.153-0.108,0.308-0.127,0.381
			c-0.377,0.948-0.369,2.033,0.039,3.015c0.719,1.538,2.393,2.31,3.982,1.846l2.16-0.659c0.85-0.377,1.781-0.485,2.568-0.345
			c0.567,0.188,1.131,0.413,1.659,0.666c0.985,0.488,2.025,0.85,3.149,1.087c1.323,0.196,2.665,0.297,3.982,0.297
			c0.295,0,0.588-0.005,0.881-0.016h0.663c0.586-0.006,5.764-0.069,7.191-0.291c0.697-0.148,2.052-0.679,3.622-1.306
			c0.522-0.209,0.946-0.38,1.01-0.409c0.908-0.171,1.841-0.062,2.799,0.354l2.058,0.621c1.59,0.464,3.258-0.313,3.991-1.887
			C43.98,53.171,43.989,52.093,43.641,51.218z M19.273,14.483c0-0.321,0.271-0.593,0.592-0.593h7.72
			c0.321,0,0.592,0.271,0.592,0.593c0,0.323-0.271,0.593-0.592,0.593h-7.72C19.539,15.076,19.273,14.811,19.273,14.483z
			 M18.162,5.223c0.051,0.044,0.097,0.083,0.155,0.136c0.45,0.405,1.065,0.963,2.223,0.963s1.772-0.556,2.222-0.963
			c0.373-0.338,0.542-0.475,0.957-0.475c0.417,0,0.586,0.137,0.961,0.477c0.45,0.405,1.065,0.961,2.224,0.961
			s1.775-0.556,2.224-0.961c0.061-0.054,0.11-0.096,0.162-0.14c-0.415,2.494-1.463,4.814-3.07,6.78h-0.245
			c0.38-1.021,0.621-2.075,0.702-3.147c0-0.005,0-0.01,0-0.012c0.032-0.513-0.354-0.955-0.867-0.991
			c-0.481-0.044-0.955,0.348-0.996,0.86c-0.003,0.034-0.005,0.069-0.008,0.102h-0.001c0,0.009-0.001,0.018-0.001,0.027
			c-0.097,1.075-0.378,2.132-0.836,3.145c-0.003,0.004-0.001,0.009-0.003,0.014h-0.409c-0.013-0.084-0.022-0.168-0.06-0.249
			c-0.444-0.961-0.693-1.974-0.741-3.012c-0.023-0.516-0.469-0.903-0.975-0.89c-0.514,0.023-0.913,0.46-0.89,0.975
			c0.049,1.088,0.29,2.152,0.694,3.174h-0.355C19.624,10.036,18.576,7.717,18.162,5.223z M41.884,53.355
			c-0.324,0.696-1.061,1.053-1.75,0.85l-1.943-0.578c-1.2-0.53-2.513-0.684-3.914-0.408c-0.202,0.067-0.666,0.25-1.236,0.478
			c-1.017,0.405-2.722,1.087-3.268,1.205c-1.052,0.163-5.317,0.244-6.862,0.259h-0.684c-1.52,0.054-3.05-0.036-4.5-0.25
			c-0.915-0.193-1.807-0.504-2.665-0.929c-0.613-0.293-1.248-0.548-2.009-0.79c-1.279-0.242-2.594-0.089-3.683,0.4L7.325,54.21
			c-0.7,0.206-1.434-0.153-1.742-0.808c-0.206-0.499-0.211-1.071,0.014-1.647c0.036-0.122,0.083-0.251,0.127-0.376
			c0.06-0.154,0.11-0.307,0.155-0.459c0.152-0.516,0.251-0.792,0.31-0.953c0.035-0.095,0.058-0.161,0.074-0.219
			c0.041-0.149,0.048-0.334,0.013-0.486c-0.013-0.183-0.03-0.452-0.045-0.88c-0.101-2.885-0.133-5.892-0.095-8.94l0.013-1.549
			c0.017-2.592,0.032-5.274,0.435-7.822c0.364-2.31,1.003-4.2,1.954-5.782c1.146-1.916,2.759-3.61,4.669-4.902
			c0.956-0.646,1.981-1.192,3.052-1.621c1.292-0.517,2.571-0.86,3.986-0.816c0.19,0.006,2.549,0.088,2.549,0.019v2.578
			c0,0.516,0.417,0.934,0.934,0.934c0.517,0,0.934-0.418,0.934-0.934V16.97c0.871,0,1.74-0.014,2.61-0.023
			c3.724-0.035,7.222,1.9,9.689,4.62c0.22,0.244,0.433,0.494,0.637,0.75c2.853,3.594,3.511,8.046,3.561,11.15l0.054,2.976
			c0.076,3.916,0.154,7.967,0.01,11.943c-0.017,0.431-0.034,0.702-0.052,0.957c-0.005,0.092-0.009,0.157-0.009,0.211
			c0,0.157,0.039,0.304,0.108,0.435c0.063,0.175,0.158,0.447,0.299,0.918c0.041,0.146,0.091,0.286,0.157,0.47
			c0.045,0.13,0.092,0.26,0.157,0.46C42.077,52.332,42.072,52.9,41.884,53.355z"/>
	</g>
</g>
</svg>
