<?xml version="1.0" encoding="utf-8"?>
<!-- Generator: Adobe Illustrator 22.0.0, SVG Export Plug-In . SVG Version: 6.00 Build 0)  -->
<svg version="1.1" id="Layer_1" xmlns="http://www.w3.org/2000/svg" xmlns:xlink="http://www.w3.org/1999/xlink" x="0px" y="0px"
	 width="52px" height="50px" viewBox="0 0 52 50" enable-background="new 0 0 52 50" xml:space="preserve">
<g>
	<g id="мы_настоящие">
		<g>
			<path fill="#ED8726" d="M42.104,7.831c-0.713,1.151-2.29,2.503-3.307,3.438l0.151,0.152l5.626-3.517
				c0.27-0.171,0.499-0.399,0.669-0.669c0.632-1.002,0.333-2.327-0.669-2.96c-0.45-0.284-0.962-0.371-1.451-0.299
				C43.125,4,43.128,4.013,43.131,4.04C43.177,4.667,43.247,5.987,42.104,7.831z"/>
			
				<rect x="9.839" y="23.153" transform="matrix(0.7071 -0.7071 0.7071 0.7071 -10.3409 26.3745)" fill="#ED8726" width="33.654" height="5.033"/>
			<path fill="#412E21" d="M32.678,29.52c-0.355-0.358-0.933-0.359-1.291-0.003c-0.358,0.357-0.359,0.934-0.003,1.291l4.531,4.552
				c0.178,0.18,0.413,0.269,0.647,0.269s0.466-0.088,0.644-0.266c0.358-0.355,0.359-0.934,0.003-1.291L32.678,29.52z"/>
			<path fill="#412E21" d="M29.28,33.118c-0.352-0.347-0.917-0.345-1.265,0.008c-0.347,0.35-0.344,0.917,0.008,1.265l2.768,2.738
				c0.175,0.172,0.401,0.259,0.628,0.259c0.231,0,0.461-0.088,0.636-0.265c0.347-0.35,0.344-0.917-0.008-1.265L29.28,33.118z"/>
			<path fill="#412E21" d="M36.025,26.375c-0.359-0.355-0.937-0.352-1.291,0.008c-0.354,0.359-0.352,0.937,0.008,1.291l2.768,2.738
				c0.178,0.176,0.411,0.264,0.642,0.264c0.236,0,0.471-0.09,0.649-0.271c0.354-0.359,0.352-0.937-0.008-1.291L36.025,26.375z"/>
		</g>
		<path fill="#412E21" d="M45.555,10.822c-0.126-0.123-0.474-0.462-0.783-0.759l0.833-0.52c1.912-1.194,2.493-3.713,1.297-5.625
			C46.156,2.723,44.846,1.999,43.438,2c-1.408-0.004-2.718,0.722-3.462,1.917l-3.281,5.245l-2.044-2.044
			c-0.378-0.378-0.991-0.378-1.369,0c-0.647,0.647-1.272,1.326-1.947,1.941c0.177-0.161-1.936-1.181-2.162-1.266
			c-0.857-0.324-1.741-0.569-2.641-0.734c-1.78-0.323-3.615-0.32-5.393,0.009c-1.718,0.318-3.376,0.94-4.886,1.82
			c-7.181,4.195-9.611,13.451-5.395,20.653l-2.742,2.742c-0.378,0.378-0.378,0.991,0,1.369l2.04,2.047L4.909,38.98
			c-1.912,1.196-2.492,3.713-1.296,5.625c1.196,1.912,3.714,2.492,5.625,1.296c0.525-0.328,0.967-0.771,1.296-1.296l1.078-1.721
			c0.902,0.368,2.589,1.519,3.238,2.154c1.899,1.855,4.371,2.868,6.987,2.868c0.079,0,0.158-0.001,0.237-0.003
			c2.697-0.064,5.206-1.197,7.064-3.19c0.157-0.168,0.308-0.342,0.455-0.521c1.188-1.46,2.932-2.322,4.785-2.365
			c2.657-0.06,5.138-1.163,6.99-3.104c1.909-2.001,2.924-4.644,2.855-7.442c-0.006-0.231-0.019-0.463-0.04-0.695
			c-0.172-1.907,0.466-3.791,1.752-5.171C49.762,21.312,49.603,14.776,45.555,10.822z M41.616,4.944
			c0.632-1.002,1.957-1.303,2.959-0.669c1.002,0.633,1.303,1.958,0.669,2.96c-0.171,0.27-0.399,0.5-0.669,0.669l-5.627,3.516
			l-0.847-0.847L41.616,4.944z M17.177,10.468c3.972-2.319,8.775-2.427,12.852-0.291c0.049,0.026,0.103,0.029,0.154,0.045
			L12.207,28.197C8.837,21.945,10.999,14.077,17.177,10.468z M33.969,9.176l6.374,6.374L16.547,39.347l-6.374-6.374L33.969,9.176z
			 M8.9,43.579c-0.633,1.002-1.958,1.303-2.96,0.669c-1.002-0.632-1.303-1.958-0.669-2.959c0.171-0.27,0.399-0.5,0.669-0.669
			l5.626-3.517l0.847,0.847L8.9,43.579z M42.366,30.752c0.018,0.192,0.028,0.386,0.033,0.577c0.057,2.309-0.779,4.488-2.351,6.136
			c-1.515,1.588-3.542,2.489-5.71,2.538c-2.389,0.055-4.635,1.162-6.16,3.036c-0.121,0.148-0.245,0.29-0.374,0.43
			c-1.52,1.632-3.57,2.559-5.771,2.61c-2.207,0.038-4.306-0.781-5.906-2.345c-0.728-0.713-2.378-1.859-3.536-2.412l1.227-1.961
			l2.044,2.044c0.378,0.378,0.991,0.378,1.369,0L42.396,16.24c0.378-0.378,0.378-0.991,0-1.369l-2.04-2.047l2.817-1.761
			c0.268,0.249,0.927,0.893,1.133,1.093c3.317,3.241,3.449,8.631,0.294,12.016C42.961,25.932,42.147,28.33,42.366,30.752z"/>
	</g>
</g>
</svg>
