<?xml version="1.0" encoding="utf-8"?>
<!-- Generator: Adobe Illustrator 22.0.0, SVG Export Plug-In . SVG Version: 6.00 Build 0)  -->
<svg version="1.1" id="Layer_1" xmlns="http://www.w3.org/2000/svg" xmlns:xlink="http://www.w3.org/1999/xlink" x="0px" y="0px"
	 width="60.833px" height="55.333px" viewBox="0 0 60.833 55.333" enable-background="new 0 0 60.833 55.333" xml:space="preserve">
<g>
	<g id="ручная_работа">
		<g>
			<path fill="#ED8726" d="M29.558,15.351c-1.713-1.851-4.842-1.409-5.242,1.191c0.976,1.253,2.448,2.542,3.659,3.601
				c0.494,0.431,0.969,0.847,1.382,1.232c0.404-0.396,0.87-0.824,1.353-1.267c1.499-1.375,3.41-3.129,4.203-4.679
				C33.849,13.533,30.801,13.467,29.558,15.351z"/>
			<path fill="#412E21" d="M29.387,23.809l-0.625-0.665c-0.456-0.484-1.152-1.092-1.889-1.736c-2.458-2.146-5.516-4.816-5.283-7.471
				c0.123-1.927,1.206-3.42,2.895-3.972c1.589-0.522,3.389-0.118,4.728,0.999c1.239-1.145,2.989-1.607,4.605-1.156
				c1.782,0.497,2.951,1.977,3.127,3.96c0.296,2.627-2.695,5.372-5.099,7.576c-0.722,0.663-1.403,1.288-1.847,1.783L29.387,23.809z
				 M25.919,11.416c-0.31,0-0.617,0.047-0.913,0.143c-1.043,0.342-1.663,1.231-1.744,2.505c-0.16,1.824,2.657,4.283,4.714,6.08
				c0.494,0.431,0.969,0.847,1.382,1.232c0.404-0.396,0.87-0.824,1.353-1.267c2.011-1.845,4.766-4.371,4.564-6.172
				c-0.116-1.297-0.809-2.207-1.907-2.512c-1.256-0.349-2.64,0.154-3.444,1.252l-0.632,0.864l-0.688-0.821
				C27.903,11.886,26.902,11.416,25.919,11.416z"/>
		</g>
		<g>
			<g>
				<path fill="#ED8726" d="M37.734,34.725l-4.172,0.528c3.663-0.016,7.252-0.953,10.491-2.749l4.67-2.591
					c0.217-0.12,0.364-0.318,0.418-0.559c0.055-0.24,0.006-0.483-0.139-0.685c-0.028-0.038-0.068-0.063-0.1-0.095l-9.112,4.803
					C39.35,34.099,38.6,34.616,37.734,34.725z"/>
				<path fill="#ED8726" d="M39.876,30.629l3.591-1.889c0.191-0.109,0.33-0.286,0.389-0.502c0.063-0.224,0.029-0.456-0.09-0.656
					c-0.008-0.014-0.022-0.021-0.031-0.035l-4.437,2.338C39.528,30.104,39.73,30.348,39.876,30.629z"/>
				<path fill="#ED8726" d="M38.566,27.478c0.234-0.127,0.396-0.34,0.454-0.601c0.047-0.208,0.002-0.41-0.09-0.595l-5.373,2.832
					h1.985L38.566,27.478z"/>
			</g>
			<path fill="#412E21" d="M12.045,33.836c0.21,0,0.412-0.075,0.576-0.213c0.147-0.121,0.942-0.76,2.133-1.47
				c0.204-0.121,0.348-0.314,0.406-0.544c0.058-0.231,0.024-0.468-0.098-0.672c-0.25-0.42-0.795-0.559-1.217-0.309
				c-1.004,0.599-1.739,1.14-2.112,1.431H6.909c-0.489,0-0.886,0.398-0.886,0.888v0.852l4.373,0.035
				C10.396,33.836,12.045,33.836,12.045,33.836z"/>
			<path fill="#412E21" d="M54.092,29.768c-0.748-0.989-2.028-1.385-3.189-1.007c-0.064-0.406-0.219-0.792-0.459-1.127
				c-0.762-1.063-2.208-1.406-3.363-0.796l-1.454,0.765c-0.052-0.333-0.17-0.653-0.342-0.94c-0.722-1.19-2.247-1.607-3.472-0.942
				l-1.025,0.554c-0.065-0.43-0.233-0.836-0.493-1.189c-0.793-1.075-2.224-1.404-3.407-0.787l-9.026,4.727
				c-1.034-0.387-4.32-1.428-8.116-0.725c-1.052,0.196-2.144,0.526-3.243,0.984c-0.452,0.189-0.666,0.709-0.477,1.16
				c0.09,0.219,0.261,0.389,0.479,0.48c0.221,0.091,0.461,0.09,0.681,0c0.984-0.41,1.955-0.706,2.886-0.878
				c4.003-0.745,7.443,0.75,7.517,0.78c0.024,0.009,0.05,0.019,0.106,0.034c0.027,0.007,0.054,0.013,0.114,0.022
				c0.033,0.003,0.065,0.006,0.107,0.007h9.466c0.574,0,1.043,0.467,1.043,1.042c0,0.523-0.392,0.968-0.912,1.034l-12.002,1.517
				c-0.444,0.056-0.778,0.436-0.776,0.883c0.001,0.447,0.337,0.824,0.78,0.878l5.098,0.614c4.976,0.597,9.92-0.37,14.3-2.802
				l6.365-3.533c0.486-0.249,1.072-0.116,1.4,0.316c0.194,0.259,0.267,0.588,0.199,0.905c-0.069,0.317-0.27,0.587-0.555,0.742
				l-10.875,5.925c-4.104,2.271-8.759,4.838-13.242,4.446L12.12,41.422c-0.024-0.002-0.05-0.003-0.077-0.003l-6.021-0.001v0.89
				c0,0.489,0.397,0.887,0.886,0.887h5.089l16.049,1.431c0.359,0.03,0.729,0.047,1.102,0.047c4.646,0,9.166-2.5,13.153-4.707
				l10.868-5.921c0.739-0.402,1.265-1.104,1.442-1.925C54.79,31.297,54.601,30.44,54.092,29.768z M43.857,28.239
				c-0.059,0.215-0.198,0.391-0.389,0.502l-3.591,1.889c-0.267-0.51-0.687-0.929-1.195-1.195l3.974-2.151
				c0.391-0.215,0.879-0.08,1.111,0.3C43.887,27.782,43.919,28.015,43.857,28.239z M49.139,29.353
				c-0.055,0.241-0.203,0.44-0.418,0.559l-4.67,2.591c-3.238,1.797-6.827,2.733-10.491,2.749l4.172-0.528
				c1.188-0.15,2.164-1.06,2.405-2.228l4.091-2.152h0.136v-0.072l3.543-1.864c0.376-0.196,0.844-0.085,1.092,0.259
				C49.144,28.869,49.193,29.113,49.139,29.353z M39.021,26.877c-0.058,0.261-0.219,0.474-0.454,0.601l-3.024,1.636h-4.023
				l6.191-3.242c0.401-0.208,0.886-0.098,1.154,0.267C39.024,26.353,39.079,26.615,39.021,26.877z"/>
		</g>
	</g>
</g>
</svg>
