<?xml version="1.0" encoding="utf-8"?>
<!-- Generator: Adobe Illustrator 22.0.0, SVG Export Plug-In . SVG Version: 6.00 Build 0)  -->
<svg version="1.1" id="Layer_1" xmlns="http://www.w3.org/2000/svg" xmlns:xlink="http://www.w3.org/1999/xlink" x="0px" y="0px"
	 width="56px" height="61.5px" viewBox="0 0 56 61.5" enable-background="new 0 0 56 61.5" xml:space="preserve">
<g>
	<g id="печем_сами">
		<g>
			<polygon fill="#ED8726" points="28.731,29.31 26.971,31.337 29.386,34.441 33.189,34.441 			"/>
			<path fill="#ED8726" d="M15.88,11.839c-0.222,0-0.444-0.082-0.617-0.247l-2.105-2.008L13.1,9.64
				c-0.547,0.531-0.83,1.218-0.798,1.936c0.031,0.72,0.375,1.383,0.967,1.868l11.396,9.319c0.018,0.015,0.026,0.038,0.042,0.054
				c0.103-0.537,0.311-1.036,0.602-1.476l-6.757-6.572c-0.354-0.344-0.361-0.91-0.018-1.263c0.022-0.022,0.052-0.032,0.075-0.052
				l-2.044-1.952c-0.016,0.02-0.021,0.043-0.038,0.061C16.351,11.745,16.116,11.839,15.88,11.839z"/>
			<path fill="#ED8726" d="M42.003,35.38l2.171,2.07l0.189-0.184c0.546-0.53,0.83-1.218,0.798-1.936
				c-0.031-0.719-0.375-1.383-0.967-1.867l-11.396-9.32c-0.026-0.021-0.037-0.053-0.06-0.077c-0.059,0.497-0.204,0.962-0.426,1.388
				l6.939,6.746c0.34,0.331,0.352,0.862,0.048,1.218l1.901,1.75C41.479,35.11,41.78,35.168,42.003,35.38z"/>
			<path fill="#ED8726" d="M46.554,37.193c0.206-0.3,0.313-0.644,0.324-0.993C46.816,36.544,46.699,36.875,46.554,37.193z"/>
			<path fill="#ED8726" d="M29.49,21.443c-0.245-0.09-0.506-0.146-0.782-0.146c-0.537,0-1.025,0.193-1.416,0.504
				c-0.528,0.42-0.875,1.061-0.875,1.787c0,0.393,0.108,0.757,0.284,1.082c0.359,0.662,1.029,1.125,1.817,1.191
				c0.973-0.594,1.601-1.713,1.518-2.967C29.994,22.288,29.793,21.814,29.49,21.443z"/>
			<path fill="#ED8726" d="M31.965,47.932c0-1.256-0.774-2.332-1.871-2.781h-0.001c-1.401,0.541-2.383,1.807-2.383,3.283v6.39h4.255
				C31.965,54.824,31.965,47.932,31.965,47.932z"/>
		</g>
		<path fill="#412E21" d="M34.775,23.453l10.55-8.628c0.992-0.811,1.567-1.938,1.621-3.172c0.053-1.235-0.422-2.406-1.34-3.298
			l-1.353-1.313c-0.912-0.884-2.118-1.34-3.357-1.289c-1.255,0.052-2.403,0.607-3.234,1.562l-4.747,5.463
			c-1.271-0.76-2.688-1.181-4.214-1.181c-1.456,0-2.87,0.425-4.146,1.193l-4.758-5.475c-0.831-0.956-1.979-1.511-3.234-1.562
			c-1.26-0.048-2.446,0.406-3.357,1.289l-1.353,1.314c-0.918,0.891-1.394,2.062-1.34,3.298c0.054,1.234,0.629,2.361,1.621,3.172
			l7.519,6.148c-0.034,0.079-0.07,0.159-0.081,0.249l-0.596,5.259c0,0.001,0,0.002,0,0.004l-6.842,5.595
			c-0.992,0.81-1.567,1.936-1.621,3.171c-0.054,1.235,0.422,2.406,1.34,3.298l1.354,1.314c0.86,0.833,1.984,1.293,3.166,1.293
			l0.189-0.004c0.28-0.011,0.552-0.057,0.819-0.117l-2.416,12.908c-0.138,0.737,0.052,1.482,0.517,2.044
			c0.423,0.509,1.034,0.801,1.674,0.801h23.055c0.638-0.001,1.246-0.29,1.669-0.796c0.466-0.557,0.658-1.298,0.525-2.032
			l-2.333-12.926c0.267,0.06,0.538,0.106,0.817,0.117l0.195,0.005c1.181,0,2.306-0.46,3.166-1.293l1.354-1.315
			c0.918-0.891,1.393-2.061,1.34-3.296c-0.054-1.234-0.629-2.361-1.621-3.172L34.775,23.453z M39.011,8.49
			c0.505-0.581,1.201-0.918,1.959-0.949c0.662-0.027,1.298,0.197,1.821,0.615l-2.023,1.93c-0.358,0.34-0.37,0.906-0.029,1.263
			c0.176,0.184,0.411,0.277,0.646,0.277c0.222,0,0.444-0.082,0.617-0.247l2.093-1.996l0.267,0.259
			c0.546,0.53,0.83,1.218,0.798,1.936c-0.031,0.719-0.375,1.383-0.967,1.867l-11.396,9.32c-0.036,0.029-0.053,0.074-0.084,0.107
			c-0.092-0.516-0.283-0.994-0.551-1.423l7.087-6.891c0.354-0.344,0.361-0.91,0.018-1.263s-0.91-0.361-1.263-0.018l-7.09,6.895
			c-0.461-0.299-0.986-0.499-1.55-0.591c0.012-0.012,0.029-0.016,0.042-0.029L39.011,8.49z M28.731,29.31l4.459,5.131h-8.917
			L28.731,29.31z M28.708,25.878c-1.263,0-2.291-1.027-2.291-2.291s1.027-2.291,2.291-2.291s2.291,1.027,2.291,2.291
			S29.971,25.878,28.708,25.878z M28.792,13.386c1.02,0,2.019,0.267,2.939,0.758l-2.999,3.452l-2.988-3.44
			C26.671,13.657,27.693,13.386,28.792,13.386z M12.303,11.576c-0.032-0.718,0.252-1.405,0.798-1.936l0.058-0.057l2.105,2.008
			c0.173,0.165,0.395,0.247,0.617,0.247c0.236,0,0.471-0.093,0.646-0.277c0.34-0.358,0.328-0.923-0.029-1.263l-2.055-1.96
			l0.012-0.012c0.527-0.511,1.203-0.789,1.92-0.789c0.039,0,0.079,0,0.118,0.002c0.758,0.031,1.454,0.367,1.959,0.949l9.605,11.057
			c0.01,0.011,0.026,0.015,0.036,0.026c-0.537,0.082-1.037,0.267-1.485,0.538l-6.81-6.622c-0.353-0.343-0.919-0.336-1.263,0.018
			c-0.344,0.354-0.336,0.919,0.018,1.263l6.757,6.572c-0.291,0.44-0.499,0.939-0.602,1.476c-0.017-0.016-0.025-0.039-0.042-0.054
			l-11.397-9.32C12.676,12.958,12.333,12.295,12.303,11.576z M21.254,22.281l1.433,1.173l-1.727,1.412L21.254,22.281z M16.376,39.37
			c-0.715,0-1.397-0.28-1.921-0.789l-0.09-0.087l2.132-2.034c0.358-0.34,0.37-0.907,0.029-1.263s-0.906-0.369-1.263-0.029
			l-2.182,2.081c-0.533-0.527-0.812-1.204-0.78-1.915c0.031-0.719,0.375-1.383,0.967-1.866l11.396-9.32
			c0.007-0.006,0.011-0.017,0.018-0.023c0.069,0.519,0.234,1.002,0.478,1.439l-6.61,6.428c-0.354,0.344-0.361,0.91-0.018,1.263
			c0.176,0.179,0.408,0.27,0.64,0.27c0.225,0,0.45-0.084,0.623-0.253l6.551-6.37c0.45,0.321,0.962,0.559,1.522,0.676l-9.419,10.84
			C17.945,38.998,17.251,39.335,16.376,39.37z M25.949,54.824v-6.89c0-1.659,1.35-3.009,3.009-3.009
			c1.659,0,3.009,1.351,3.009,3.009v6.89H25.949z M40.649,54.276c0.037,0.209-0.015,0.422-0.138,0.569
			c-0.059,0.071-0.159,0.156-0.299,0.156h-6.461v-7.068c0-2.645-2.151-4.796-4.796-4.796s-4.796,2.151-4.796,4.796v7.068h-7.002
			c-0.14,0-0.24-0.085-0.3-0.157c-0.124-0.149-0.175-0.364-0.135-0.573l2.679-14.307c0.134-0.122,0.275-0.234,0.396-0.374
			l2.92-3.361h12.023l2.92,3.361c0.123,0.143,0.267,0.257,0.404,0.381L40.649,54.276z M44.362,37.267l-0.189,0.184l-2.171-2.07
			c-0.358-0.34-0.923-0.327-1.263,0.029c-0.34,0.358-0.328,0.923,0.029,1.263l2.108,2.012c-0.509,0.435-1.157,0.671-1.907,0.682
			c-0.758-0.031-1.453-0.367-1.958-0.949l-9.429-10.853c0.584-0.128,1.114-0.388,1.574-0.739l6.847,6.658
			c0.173,0.168,0.398,0.253,0.623,0.253c0.232,0,0.466-0.091,0.64-0.27c0.344-0.354,0.336-0.919-0.018-1.263l-6.939-6.746
			c0.221-0.425,0.367-0.891,0.426-1.388c0.023,0.023,0.034,0.055,0.06,0.077l11.396,9.32c0.592,0.484,0.935,1.147,0.967,1.867
			C45.192,36.049,44.908,36.737,44.362,37.267z"/>
	</g>
</g>
</svg>
