<?xml version="1.0" encoding="utf-8"?>
<!-- Generator: Adobe Illustrator 22.0.0, SVG Export Plug-In . SVG Version: 6.00 Build 0)  -->
<svg version="1.1" id="Layer_1" xmlns="http://www.w3.org/2000/svg" xmlns:xlink="http://www.w3.org/1999/xlink" x="0px" y="0px"
	 width="65.5px" height="70px" viewBox="0 0 65.5 70" enable-background="new 0 0 65.5 70" xml:space="preserve">
<image display="none" overflow="visible" opacity="0.31" width="439" height="81" xlink:href="../../../Cтраницы исходники/ЛЛ/nn.jpg"  transform="matrix(1 0 0 1 -12.0625 -7.3229)">
</image>
<g>
	<g>
		<path fill="#412E21" d="M0.781,58.826h0.663l0.144,0.702h0.052c0.32-0.572,0.823-0.858,1.508-0.858s1.198,0.256,1.54,0.768
			c0.343,0.511,0.514,1.348,0.514,2.509c0,0.546-0.057,1.038-0.169,1.476s-0.272,0.811-0.48,1.118s-0.462,0.541-0.761,0.701
			c-0.299,0.161-0.631,0.241-0.994,0.241c-0.252,0-0.451-0.016-0.599-0.046s-0.308-0.093-0.48-0.188v2.678H0.781V58.826z
			 M1.717,64.299c0.121,0.104,0.258,0.187,0.409,0.247s0.353,0.091,0.604,0.091c0.459,0,0.823-0.233,1.092-0.701
			c0.269-0.469,0.403-1.136,0.403-2.002c0-0.364-0.024-0.693-0.071-0.988c-0.048-0.295-0.124-0.548-0.228-0.761
			c-0.104-0.212-0.236-0.377-0.396-0.494c-0.161-0.117-0.357-0.175-0.592-0.175c-0.633,0-1.04,0.386-1.222,1.156V64.299z"/>
		<path fill="#412E21" d="M7.917,63.026l0.273,1.261h0.064l0.195-1.261l0.988-4.199h0.949L8.84,64.663
			c-0.121,0.468-0.242,0.905-0.363,1.313c-0.122,0.407-0.254,0.76-0.396,1.06c-0.144,0.299-0.304,0.532-0.481,0.701
			s-0.388,0.254-0.63,0.254c-0.243,0-0.455-0.039-0.638-0.117l0.156-0.884c0.121,0.043,0.242,0.052,0.364,0.026
			c0.121-0.026,0.235-0.101,0.345-0.222c0.107-0.121,0.208-0.301,0.299-0.539s0.171-0.549,0.24-0.93l-2.106-6.5h1.066L7.917,63.026z
			"/>
		<path fill="#412E21" d="M11.83,58.826v1.898c0,0.216,0.011,0.411,0.032,0.585c0.021,0.173,0.063,0.322,0.124,0.448
			c0.061,0.126,0.146,0.221,0.26,0.286c0.112,0.064,0.26,0.098,0.442,0.098c0.303,0,0.55-0.039,0.74-0.117s0.338-0.165,0.442-0.26
			v-2.938h0.936v6.5h-0.936v-2.73c-0.104,0.078-0.267,0.163-0.487,0.254c-0.222,0.091-0.519,0.137-0.891,0.137
			c-0.252,0-0.477-0.032-0.676-0.098c-0.2-0.065-0.366-0.171-0.501-0.318s-0.238-0.347-0.312-0.598
			c-0.074-0.252-0.111-0.568-0.111-0.949v-2.197H11.83z"/>
		<path fill="#412E21" d="M19.527,62.427h-2.249v2.899h-0.937v-6.5h0.937v2.756h2.249v-2.756h0.936v6.5h-0.936V62.427z"/>
		<path fill="#412E21" d="M21.918,59.216c0.251-0.155,0.557-0.277,0.917-0.363c0.359-0.087,0.738-0.13,1.137-0.13
			c0.364,0,0.657,0.054,0.878,0.162s0.395,0.256,0.52,0.442c0.126,0.186,0.208,0.398,0.247,0.637s0.059,0.487,0.059,0.747
			c0,0.521-0.011,1.027-0.033,1.521s-0.033,0.962-0.033,1.403c0,0.33,0.011,0.636,0.033,0.917s0.063,0.548,0.124,0.8h-0.732
			l-0.228-0.768h-0.052c-0.129,0.226-0.318,0.421-0.567,0.585c-0.249,0.165-0.585,0.247-1.007,0.247
			c-0.464,0-0.845-0.162-1.142-0.487s-0.445-0.773-0.445-1.346c0-0.372,0.063-0.685,0.188-0.936
			c0.124-0.252,0.301-0.455,0.528-0.611s0.499-0.267,0.813-0.331c0.313-0.065,0.664-0.098,1.051-0.098c0.086,0,0.172,0,0.258,0
			s0.176,0.004,0.271,0.013c0.025-0.269,0.039-0.507,0.039-0.715c0-0.494-0.073-0.841-0.219-1.04
			c-0.146-0.199-0.413-0.299-0.799-0.299c-0.241,0-0.503,0.037-0.786,0.11s-0.52,0.167-0.708,0.279L21.918,59.216z M24.713,62.363
			c-0.086-0.009-0.171-0.016-0.257-0.02s-0.171-0.007-0.257-0.007c-0.205,0-0.406,0.018-0.604,0.052
			c-0.197,0.035-0.373,0.096-0.526,0.183c-0.154,0.087-0.276,0.203-0.366,0.351s-0.135,0.334-0.135,0.56
			c0,0.347,0.083,0.615,0.25,0.806s0.383,0.286,0.648,0.286c0.359,0,0.638-0.087,0.835-0.26c0.197-0.174,0.334-0.364,0.411-0.572
			V62.363z"/>
		<path fill="#412E21" d="M29.822,62.635l-0.793,0.156l-1.313,2.535h-1.105l1.209-2.236l0.416-0.468
			c-0.355-0.069-0.656-0.251-0.903-0.546s-0.37-0.693-0.37-1.196c0-0.779,0.21-1.343,0.63-1.689
			c0.421-0.347,0.995-0.521,1.723-0.521c0.269,0,0.522,0.02,0.761,0.059s0.466,0.085,0.683,0.137v6.461h-0.937V62.635z
			 M29.822,62.037v-2.405c-0.086-0.043-0.186-0.073-0.299-0.091c-0.112-0.018-0.212-0.025-0.299-0.025
			c-0.416,0-0.734,0.108-0.955,0.324c-0.222,0.217-0.332,0.546-0.332,0.988c0,0.398,0.126,0.709,0.377,0.93
			c0.252,0.221,0.585,0.323,1.001,0.306L29.822,62.037z"/>
		<path fill="#412E21" d="M34.97,58.826h0.663l0.143,0.702h0.052c0.32-0.572,0.823-0.858,1.508-0.858s1.198,0.256,1.541,0.768
			c0.342,0.511,0.514,1.348,0.514,2.509c0,0.546-0.057,1.038-0.169,1.476c-0.113,0.438-0.273,0.811-0.481,1.118
			s-0.461,0.541-0.761,0.701c-0.299,0.161-0.63,0.241-0.994,0.241c-0.251,0-0.451-0.016-0.598-0.046
			c-0.147-0.03-0.308-0.093-0.481-0.188v2.678H34.97V58.826z M35.906,64.299c0.121,0.104,0.258,0.187,0.409,0.247
			c0.152,0.061,0.354,0.091,0.604,0.091c0.46,0,0.823-0.233,1.093-0.701c0.269-0.469,0.402-1.136,0.402-2.002
			c0-0.364-0.023-0.693-0.071-0.988s-0.123-0.548-0.228-0.761c-0.104-0.212-0.236-0.377-0.396-0.494s-0.357-0.175-0.592-0.175
			c-0.632,0-1.04,0.386-1.222,1.156V64.299z"/>
		<path fill="#412E21" d="M40.56,59.216c0.251-0.155,0.557-0.277,0.916-0.363c0.359-0.087,0.739-0.13,1.138-0.13
			c0.364,0,0.656,0.054,0.877,0.162c0.222,0.108,0.395,0.256,0.521,0.442c0.125,0.186,0.208,0.398,0.247,0.637
			s0.059,0.487,0.059,0.747c0,0.521-0.012,1.027-0.034,1.521c-0.021,0.494-0.033,0.962-0.033,1.403c0,0.33,0.012,0.636,0.033,0.917
			c0.022,0.281,0.064,0.548,0.125,0.8h-0.733l-0.227-0.768h-0.052c-0.129,0.226-0.318,0.421-0.567,0.585
			c-0.25,0.165-0.585,0.247-1.007,0.247c-0.465,0-0.846-0.162-1.142-0.487c-0.297-0.325-0.445-0.773-0.445-1.346
			c0-0.372,0.062-0.685,0.187-0.936c0.125-0.252,0.301-0.455,0.529-0.611c0.228-0.156,0.498-0.267,0.812-0.331
			c0.314-0.065,0.664-0.098,1.051-0.098c0.086,0,0.172,0,0.258,0s0.177,0.004,0.271,0.013c0.025-0.269,0.038-0.507,0.038-0.715
			c0-0.494-0.073-0.841-0.219-1.04s-0.412-0.299-0.799-0.299c-0.24,0-0.502,0.037-0.785,0.11c-0.284,0.073-0.52,0.167-0.709,0.279
			L40.56,59.216z M43.355,62.363c-0.086-0.009-0.172-0.016-0.257-0.02c-0.086-0.004-0.172-0.007-0.257-0.007
			c-0.206,0-0.407,0.018-0.604,0.052c-0.196,0.035-0.372,0.096-0.526,0.183s-0.276,0.203-0.366,0.351s-0.135,0.334-0.135,0.56
			c0,0.347,0.084,0.615,0.251,0.806s0.383,0.286,0.648,0.286c0.359,0,0.638-0.087,0.835-0.26c0.196-0.174,0.334-0.364,0.411-0.572
			V62.363z"/>
		<path fill="#412E21" d="M46.383,59.932c0.226-0.408,0.477-0.689,0.754-0.846s0.624-0.233,1.04-0.233
			c0.642,0,1.138,0.251,1.488,0.754c0.352,0.503,0.526,1.278,0.526,2.327c0,1.204-0.203,2.097-0.61,2.678s-0.976,0.871-1.703,0.871
			c-0.39,0-0.73-0.076-1.021-0.228s-0.533-0.391-0.729-0.715c-0.194-0.325-0.342-0.748-0.441-1.268
			c-0.1-0.521-0.149-1.148-0.149-1.886c0-0.745,0.032-1.382,0.098-1.91c0.064-0.529,0.155-0.976,0.272-1.34
			c0.117-0.363,0.258-0.654,0.423-0.87c0.164-0.217,0.351-0.389,0.559-0.514c0.208-0.126,0.436-0.215,0.683-0.267
			s0.509-0.096,0.786-0.13c0.364-0.044,0.654-0.096,0.871-0.156s0.391-0.165,0.521-0.313l0.064,0.897
			c-0.069,0.073-0.147,0.136-0.233,0.186c-0.087,0.051-0.19,0.095-0.313,0.131c-0.121,0.037-0.262,0.067-0.422,0.09
			c-0.161,0.022-0.35,0.044-0.565,0.062c-0.295,0.026-0.553,0.083-0.773,0.169c-0.222,0.087-0.412,0.228-0.572,0.423
			s-0.288,0.462-0.384,0.8s-0.16,0.767-0.195,1.287H46.383z M46.513,62.089c0,0.355,0.026,0.688,0.078,0.995
			s0.135,0.576,0.247,0.806c0.112,0.229,0.254,0.412,0.423,0.546c0.169,0.135,0.37,0.201,0.604,0.201
			c0.45,0,0.788-0.212,1.014-0.637c0.226-0.425,0.338-1.083,0.338-1.976c0-0.711-0.096-1.276-0.286-1.696
			c-0.19-0.421-0.503-0.631-0.936-0.631c-0.512,0-0.887,0.208-1.125,0.624S46.513,61.326,46.513,62.089z"/>
		<path fill="#412E21" d="M51.154,62.076c0-1.17,0.202-2.03,0.604-2.58c0.403-0.551,0.978-0.826,1.723-0.826
			c0.798,0,1.385,0.282,1.762,0.846s0.565,1.417,0.565,2.561c0,1.179-0.204,2.041-0.611,2.587s-0.979,0.819-1.716,0.819
			c-0.797,0-1.385-0.282-1.762-0.846C51.342,64.075,51.154,63.22,51.154,62.076z M52.129,62.076c0,0.382,0.023,0.728,0.071,1.04
			c0.048,0.312,0.125,0.581,0.234,0.806c0.107,0.226,0.249,0.401,0.422,0.526c0.174,0.126,0.382,0.188,0.624,0.188
			c0.45,0,0.789-0.201,1.014-0.604c0.226-0.402,0.339-1.055,0.339-1.956c0-0.372-0.024-0.717-0.072-1.033s-0.125-0.587-0.233-0.813
			s-0.249-0.401-0.423-0.526c-0.174-0.126-0.382-0.188-0.624-0.188c-0.441,0-0.777,0.203-1.008,0.61
			C52.243,60.534,52.129,61.184,52.129,62.076z"/>
		<path fill="#412E21" d="M60.28,59.671h-1.599v5.655h-0.937v-5.655h-1.599v-0.845h4.134V59.671z"/>
		<path fill="#412E21" d="M60.994,59.216c0.251-0.155,0.557-0.277,0.917-0.363c0.359-0.087,0.738-0.13,1.137-0.13
			c0.364,0,0.657,0.054,0.878,0.162c0.221,0.108,0.395,0.256,0.52,0.442c0.126,0.186,0.208,0.398,0.247,0.637
			s0.059,0.487,0.059,0.747c0,0.521-0.011,1.027-0.033,1.521s-0.033,0.962-0.033,1.403c0,0.33,0.011,0.636,0.033,0.917
			s0.063,0.548,0.124,0.8H64.11l-0.228-0.768H63.83c-0.129,0.226-0.318,0.421-0.567,0.585c-0.249,0.165-0.585,0.247-1.007,0.247
			c-0.464,0-0.845-0.162-1.142-0.487s-0.445-0.773-0.445-1.346c0-0.372,0.063-0.685,0.188-0.936
			c0.124-0.252,0.301-0.455,0.528-0.611s0.499-0.267,0.813-0.331c0.313-0.065,0.664-0.098,1.051-0.098c0.086,0,0.172,0,0.258,0
			s0.176,0.004,0.271,0.013c0.025-0.269,0.039-0.507,0.039-0.715c0-0.494-0.073-0.841-0.219-1.04
			c-0.146-0.199-0.413-0.299-0.799-0.299c-0.241,0-0.503,0.037-0.786,0.11s-0.52,0.167-0.708,0.279L60.994,59.216z M63.789,62.363
			c-0.086-0.009-0.171-0.016-0.257-0.02s-0.171-0.007-0.257-0.007c-0.205,0-0.406,0.018-0.604,0.052
			c-0.197,0.035-0.373,0.096-0.526,0.183c-0.154,0.087-0.276,0.203-0.366,0.351s-0.135,0.334-0.135,0.56
			c0,0.347,0.083,0.615,0.25,0.806s0.383,0.286,0.648,0.286c0.359,0,0.638-0.087,0.835-0.26c0.197-0.174,0.334-0.364,0.411-0.572
			V62.363z"/>
	</g>
	<g id="ручная_работа">
		<g>
			<path fill="#ED8726" d="M32.327,8.842c-1.471-1.59-4.158-1.21-4.502,1.023c0.838,1.076,2.102,2.183,3.142,3.092
				c0.424,0.37,0.832,0.727,1.187,1.058c0.347-0.34,0.747-0.708,1.162-1.088c1.287-1.181,2.928-2.687,3.609-4.018
				C36.012,7.281,33.394,7.224,32.327,8.842z"/>
			<path fill="#412E21" d="M32.18,16.105l-0.537-0.571c-0.392-0.416-0.989-0.938-1.622-1.491c-2.111-1.843-4.737-4.136-4.537-6.416
				c0.106-1.655,1.036-2.937,2.486-3.411c1.365-0.448,2.91-0.101,4.06,0.858c1.064-0.983,2.567-1.38,3.955-0.993
				c1.53,0.427,2.534,1.698,2.685,3.401c0.254,2.256-2.314,4.613-4.379,6.506c-0.62,0.569-1.205,1.106-1.586,1.531L32.18,16.105z
				 M29.202,5.463c-0.266,0-0.53,0.04-0.784,0.123C27.522,5.88,26.99,6.643,26.92,7.737c-0.137,1.566,2.282,3.678,4.048,5.221
				c0.424,0.37,0.832,0.727,1.187,1.058c0.347-0.34,0.747-0.708,1.162-1.088c1.727-1.584,4.093-3.754,3.919-5.3
				c-0.1-1.114-0.695-1.895-1.638-2.157c-1.079-0.3-2.267,0.132-2.958,1.075l-0.543,0.742l-0.591-0.705
				C30.906,5.866,30.046,5.463,29.202,5.463z"/>
		</g>
		<g>
			<g>
				<path fill="#ED8726" d="M39.348,25.48l-3.583,0.453c3.146-0.014,6.228-0.818,9.009-2.361l4.01-2.225
					c0.186-0.103,0.313-0.273,0.359-0.48c0.047-0.206,0.005-0.415-0.119-0.588c-0.024-0.033-0.058-0.054-0.086-0.082l-7.825,4.125
					C40.736,24.942,40.092,25.386,39.348,25.48z"/>
				<path fill="#ED8726" d="M41.188,21.962l3.084-1.622c0.164-0.094,0.283-0.246,0.334-0.431c0.054-0.192,0.025-0.392-0.077-0.563
					c-0.007-0.012-0.019-0.018-0.027-0.03l-3.81,2.008C40.889,21.511,41.062,21.721,41.188,21.962z"/>
				<path fill="#ED8726" d="M40.063,19.256c0.201-0.109,0.34-0.292,0.39-0.516c0.04-0.179,0.002-0.352-0.077-0.511l-4.614,2.432
					h1.705L40.063,19.256z"/>
			</g>
			<path fill="#412E21" d="M17.287,24.716c0.18,0,0.354-0.064,0.495-0.183c0.126-0.104,0.809-0.653,1.832-1.262
				c0.175-0.104,0.299-0.27,0.349-0.467c0.05-0.198,0.021-0.402-0.084-0.577c-0.215-0.361-0.683-0.48-1.045-0.265
				c-0.862,0.514-1.493,0.979-1.814,1.229h-4.143c-0.42,0-0.761,0.342-0.761,0.763v0.732l3.755,0.03H17.287z"/>
			<path fill="#412E21" d="M53.396,21.223c-0.642-0.849-1.742-1.189-2.739-0.865c-0.055-0.349-0.188-0.68-0.394-0.968
				c-0.654-0.913-1.896-1.207-2.888-0.684l-1.249,0.657c-0.045-0.286-0.146-0.561-0.294-0.807c-0.62-1.022-1.93-1.38-2.982-0.809
				l-0.88,0.476c-0.056-0.369-0.2-0.718-0.423-1.021c-0.681-0.923-1.91-1.206-2.926-0.676l-7.751,4.059
				c-0.888-0.332-3.71-1.226-6.97-0.623c-0.903,0.168-1.841,0.452-2.785,0.845c-0.388,0.162-0.572,0.609-0.41,0.996
				c0.077,0.188,0.224,0.334,0.411,0.412c0.19,0.078,0.396,0.077,0.585,0c0.845-0.352,1.679-0.606,2.478-0.754
				c3.438-0.64,6.392,0.644,6.455,0.67c0.021,0.008,0.043,0.016,0.091,0.029c0.023,0.006,0.046,0.011,0.098,0.019
				c0.028,0.003,0.056,0.005,0.092,0.006h8.129c0.493,0,0.896,0.401,0.896,0.895c0,0.449-0.337,0.831-0.783,0.888L28.85,25.271
				c-0.381,0.048-0.668,0.374-0.666,0.758c0.001,0.384,0.289,0.708,0.67,0.754l4.378,0.527c4.273,0.513,8.519-0.318,12.28-2.406
				l5.466-3.034c0.417-0.214,0.921-0.1,1.202,0.271c0.167,0.222,0.229,0.505,0.171,0.777c-0.059,0.272-0.232,0.504-0.477,0.637
				l-9.339,5.088c-3.524,1.95-7.522,4.155-11.372,3.818l-13.811-1.23c-0.021-0.002-0.043-0.003-0.066-0.003l-5.171-0.001v0.764
				c0,0.42,0.341,0.762,0.761,0.762l4.37,0l13.782,1.229c0.308,0.026,0.626,0.04,0.946,0.04c3.99,0,7.871-2.147,11.295-4.042
				l9.333-5.085c0.635-0.345,1.086-0.948,1.238-1.653C53.995,22.536,53.833,21.8,53.396,21.223z M44.606,19.91
				c-0.051,0.185-0.17,0.336-0.334,0.431l-3.084,1.622c-0.229-0.438-0.59-0.798-1.026-1.026l3.413-1.847
				c0.336-0.185,0.755-0.069,0.954,0.258C44.632,19.517,44.66,19.717,44.606,19.91z M49.142,20.866
				c-0.047,0.207-0.174,0.378-0.359,0.48l-4.01,2.225c-2.781,1.543-5.863,2.347-9.009,2.361l3.583-0.453
				c1.02-0.129,1.858-0.91,2.065-1.913l3.513-1.848l0.117,0v-0.062l3.043-1.601c0.323-0.168,0.725-0.073,0.938,0.222
				C49.147,20.451,49.189,20.66,49.142,20.866z M40.453,18.74c-0.05,0.224-0.188,0.407-0.39,0.516l-2.597,1.405h-3.455l5.317-2.784
				c0.344-0.179,0.761-0.084,0.991,0.229C40.456,18.29,40.503,18.515,40.453,18.74z"/>
		</g>
	</g>
</g>
</svg>
