<?xml version="1.0" encoding="utf-8"?>
<!-- Generator: Adobe Illustrator 22.0.0, SVG Export Plug-In . SVG Version: 6.00 Build 0)  -->
<svg version="1.1" id="Layer_1" xmlns="http://www.w3.org/2000/svg" xmlns:xlink="http://www.w3.org/1999/xlink" x="0px" y="0px"
	 width="56px" height="70px" viewBox="0 0 56 70" enable-background="new 0 0 56 70" xml:space="preserve">
<image display="none" overflow="visible" opacity="0.31" width="439" height="81" xlink:href="../../../Cтраницы исходники/ЛЛ/nn.jpg"  transform="matrix(1 0 0 1 -12.0625 -7.3229)">
</image>
<g>
	<g>
		<path fill="#412E21" d="M5.155,59.462H2.971v5.655H2.035v-6.5h4.056v6.5H5.155V59.462z"/>
		<path fill="#412E21" d="M11.551,64.675c-0.208,0.191-0.472,0.339-0.793,0.442s-0.659,0.156-1.014,0.156
			c-0.408,0-0.761-0.08-1.06-0.241c-0.299-0.16-0.546-0.39-0.741-0.688c-0.195-0.299-0.338-0.656-0.429-1.072
			c-0.091-0.416-0.137-0.885-0.137-1.404c0-1.109,0.204-1.954,0.611-2.535c0.407-0.58,0.984-0.871,1.729-0.871
			c0.243,0,0.483,0.03,0.722,0.091c0.238,0.062,0.453,0.183,0.644,0.364c0.19,0.183,0.344,0.438,0.461,0.768
			c0.117,0.329,0.176,0.758,0.176,1.286c0,0.147-0.007,0.306-0.02,0.475c-0.013,0.169-0.028,0.345-0.046,0.526H8.353
			c0,0.373,0.03,0.711,0.091,1.015S8.6,63.547,8.73,63.759s0.297,0.377,0.5,0.494s0.457,0.175,0.761,0.175
			c0.234,0,0.465-0.043,0.695-0.13c0.229-0.086,0.405-0.19,0.526-0.312L11.551,64.675z M10.823,61.192
			c0.018-0.65-0.074-1.127-0.273-1.431c-0.199-0.303-0.472-0.454-0.819-0.454c-0.399,0-0.715,0.151-0.949,0.454
			c-0.234,0.304-0.373,0.78-0.416,1.431H10.823z"/>
		<path fill="#412E21" d="M13.709,58.618v1.898c0,0.216,0.011,0.411,0.033,0.585c0.021,0.173,0.063,0.322,0.124,0.448
			c0.061,0.126,0.147,0.221,0.26,0.286c0.113,0.064,0.26,0.098,0.442,0.098c0.303,0,0.55-0.039,0.741-0.117s0.338-0.165,0.442-0.26
			v-2.938h0.936v6.5H15.75v-2.73c-0.104,0.078-0.266,0.163-0.487,0.254s-0.518,0.137-0.891,0.137c-0.251,0-0.477-0.032-0.676-0.098
			c-0.2-0.065-0.366-0.171-0.5-0.318c-0.135-0.147-0.239-0.347-0.312-0.598c-0.074-0.252-0.111-0.568-0.111-0.949v-2.197H13.709z"/>
		<path fill="#412E21" d="M22.146,64.675c-0.208,0.191-0.472,0.339-0.793,0.442s-0.659,0.156-1.014,0.156
			c-0.408,0-0.761-0.08-1.06-0.241c-0.299-0.16-0.546-0.39-0.741-0.688c-0.195-0.299-0.338-0.656-0.429-1.072
			c-0.091-0.416-0.137-0.885-0.137-1.404c0-1.109,0.204-1.954,0.611-2.535c0.407-0.58,0.984-0.871,1.729-0.871
			c0.243,0,0.483,0.03,0.722,0.091c0.238,0.062,0.453,0.183,0.644,0.364c0.19,0.183,0.344,0.438,0.461,0.768
			c0.117,0.329,0.176,0.758,0.176,1.286c0,0.147-0.007,0.306-0.02,0.475c-0.013,0.169-0.028,0.345-0.046,0.526h-3.302
			c0,0.373,0.03,0.711,0.091,1.015s0.156,0.562,0.286,0.773s0.297,0.377,0.5,0.494s0.457,0.175,0.761,0.175
			c0.234,0,0.465-0.043,0.695-0.13c0.229-0.086,0.405-0.19,0.526-0.312L22.146,64.675z M21.418,61.192
			c0.018-0.65-0.074-1.127-0.273-1.431c-0.199-0.303-0.472-0.454-0.819-0.454c-0.399,0-0.715,0.151-0.949,0.454
			c-0.234,0.304-0.373,0.78-0.416,1.431H21.418z"/>
		<path fill="#412E21" d="M27.983,61.256l0.091-1.234h-0.052l-0.39,1.104l-1.209,2.496h-0.338l-1.261-2.496l-0.351-1.104h-0.065
			l0.104,1.222v3.874h-0.845v-6.5h0.936l1.417,2.821l0.286,0.845h0.026l0.312-0.871l1.313-2.795h0.962v6.5h-0.936V61.256z"/>
		<path fill="#412E21" d="M36.875,64.792c-0.217,0.165-0.464,0.286-0.741,0.364s-0.567,0.117-0.871,0.117
			c-0.416,0-0.767-0.08-1.053-0.241c-0.286-0.16-0.518-0.39-0.695-0.688c-0.178-0.299-0.308-0.658-0.39-1.079
			c-0.083-0.42-0.124-0.886-0.124-1.397c0-1.109,0.197-1.954,0.591-2.535c0.395-0.58,0.96-0.871,1.697-0.871
			c0.338,0,0.628,0.03,0.871,0.091c0.242,0.062,0.45,0.14,0.624,0.234l-0.26,0.819c-0.347-0.199-0.724-0.299-1.131-0.299
			c-0.468,0-0.821,0.205-1.06,0.617c-0.238,0.411-0.357,1.06-0.357,1.943c0,0.355,0.026,0.689,0.078,1.001
			c0.052,0.313,0.138,0.583,0.26,0.813c0.121,0.229,0.277,0.412,0.468,0.546c0.19,0.135,0.429,0.201,0.715,0.201
			c0.225,0,0.436-0.038,0.63-0.116c0.195-0.078,0.353-0.169,0.475-0.273L36.875,64.792z"/>
		<path fill="#412E21" d="M37.889,59.007c0.251-0.155,0.557-0.277,0.917-0.363c0.359-0.087,0.739-0.13,1.137-0.13
			c0.364,0,0.657,0.054,0.877,0.162c0.221,0.108,0.395,0.256,0.52,0.442c0.125,0.186,0.208,0.398,0.247,0.637
			s0.059,0.487,0.059,0.747c0,0.521-0.011,1.027-0.034,1.521c-0.022,0.494-0.033,0.962-0.033,1.403c0,0.33,0.011,0.636,0.033,0.917
			c0.022,0.281,0.064,0.548,0.125,0.8h-0.733l-0.227-0.768h-0.052c-0.129,0.226-0.318,0.421-0.567,0.585
			c-0.25,0.165-0.585,0.247-1.007,0.247c-0.464,0-0.845-0.162-1.142-0.487c-0.297-0.325-0.445-0.773-0.445-1.346
			c0-0.372,0.062-0.685,0.187-0.936c0.125-0.252,0.301-0.455,0.529-0.611c0.228-0.156,0.499-0.267,0.812-0.331
			c0.314-0.065,0.664-0.098,1.051-0.098c0.086,0,0.172,0,0.258,0s0.176,0.004,0.271,0.013c0.025-0.269,0.039-0.507,0.039-0.715
			c0-0.494-0.073-0.841-0.219-1.04c-0.146-0.199-0.413-0.299-0.799-0.299c-0.241,0-0.502,0.037-0.786,0.11
			c-0.284,0.073-0.52,0.167-0.708,0.279L37.889,59.007z M40.684,62.154c-0.086-0.009-0.171-0.016-0.257-0.02
			c-0.086-0.004-0.171-0.007-0.257-0.007c-0.206,0-0.407,0.018-0.604,0.052c-0.197,0.035-0.373,0.096-0.526,0.183
			c-0.154,0.087-0.276,0.203-0.366,0.351s-0.135,0.334-0.135,0.56c0,0.347,0.083,0.615,0.25,0.806
			c0.167,0.19,0.383,0.286,0.648,0.286c0.359,0,0.638-0.087,0.835-0.26c0.197-0.174,0.334-0.364,0.411-0.572V62.154z"/>
		<path fill="#412E21" d="M47.508,61.256l0.091-1.234h-0.052l-0.39,1.104l-1.209,2.496h-0.338l-1.261-2.496l-0.351-1.104h-0.065
			l0.104,1.222v3.874h-0.845v-6.5h0.936l1.417,2.821l0.286,0.845h0.026l0.312-0.871l1.313-2.795h0.962v6.5h-0.936V61.256z"/>
		<path fill="#412E21" d="M53.254,61.373l0.078-0.988H53.28l-0.455,1.093l-2.197,3.64h-0.611v-6.5h0.936v3.861l-0.078,0.948h0.052
			l0.429-1.065l2.223-3.744h0.611v6.5h-0.936V61.373z"/>
	</g>
	<g id="печем_сами">
		<g>
			<polygon fill="#ED8726" points="25.941,20.026 24.509,21.675 26.474,24.201 29.568,24.201 			"/>
			<path fill="#ED8726" d="M15.485,5.811c-0.181,0-0.361-0.067-0.502-0.201L13.27,3.976l-0.047,0.046
				c-0.445,0.432-0.675,0.991-0.649,1.575c0.025,0.586,0.305,1.125,0.787,1.52l9.272,7.582c0.015,0.012,0.021,0.031,0.034,0.044
				c0.084-0.437,0.253-0.843,0.49-1.201l-5.498-5.347c-0.288-0.28-0.294-0.74-0.015-1.028c0.018-0.018,0.042-0.026,0.061-0.042
				l-1.663-1.588c-0.013,0.016-0.017,0.035-0.031,0.05C15.868,5.735,15.677,5.811,15.485,5.811z"/>
			<path fill="#ED8726" d="M36.739,24.965l1.766,1.684l0.154-0.15c0.444-0.431,0.675-0.991,0.649-1.575
				c-0.025-0.585-0.305-1.125-0.787-1.519l-9.272-7.583c-0.021-0.017-0.03-0.043-0.049-0.063c-0.048,0.404-0.166,0.783-0.347,1.129
				l5.646,5.489c0.277,0.269,0.286,0.701,0.039,0.991l1.547,1.424C36.313,24.745,36.558,24.792,36.739,24.965z"/>
			<path fill="#ED8726" d="M40.442,26.44c0.168-0.244,0.255-0.524,0.264-0.808C40.655,25.912,40.56,26.181,40.442,26.44z"/>
			<path fill="#ED8726" d="M26.558,13.625c-0.199-0.073-0.412-0.119-0.636-0.119c-0.437,0-0.834,0.157-1.152,0.41
				c-0.43,0.342-0.712,0.863-0.712,1.454c0,0.32,0.088,0.616,0.231,0.88c0.292,0.539,0.837,0.915,1.478,0.969
				c0.792-0.483,1.303-1.394,1.235-2.414C26.968,14.313,26.805,13.927,26.558,13.625z"/>
			<path fill="#ED8726" d="M28.572,35.178c0-1.022-0.63-1.897-1.522-2.263c0,0-0.001,0-0.001,0c-1.14,0.44-1.939,1.47-1.939,2.671
				v5.199h3.462V35.178z"/>
		</g>
		<path fill="#412E21" d="M30.858,15.261l8.584-7.02c0.807-0.66,1.275-1.577,1.319-2.581c0.043-1.005-0.343-1.958-1.09-2.683
			L38.57,1.909c-0.742-0.719-1.723-1.09-2.731-1.049c-1.021,0.042-1.955,0.494-2.631,1.271l-3.862,4.445
			c-1.034-0.618-2.187-0.961-3.429-0.961c-1.185,0-2.335,0.346-3.373,0.971l-3.871-4.455c-0.676-0.778-1.61-1.229-2.631-1.271
			c-1.025-0.039-1.99,0.33-2.731,1.049L12.21,2.978c-0.747,0.725-1.134,1.678-1.09,2.683c0.044,1.004,0.512,1.921,1.319,2.581
			l6.118,5.002c-0.028,0.064-0.057,0.129-0.066,0.203l-0.485,4.279c0,0.001,0,0.002,0,0.003l-5.567,4.552
			c-0.807,0.659-1.275,1.575-1.319,2.58c-0.044,1.005,0.343,1.958,1.09,2.683l1.102,1.069c0.7,0.678,1.614,1.052,2.576,1.052
			l0.154-0.003c0.228-0.009,0.449-0.046,0.666-0.095l-1.966,10.502c-0.112,0.6,0.042,1.206,0.421,1.663
			c0.344,0.414,0.841,0.652,1.362,0.652h18.758c0.519-0.001,1.014-0.236,1.358-0.648c0.379-0.453,0.535-1.056,0.427-1.653
			L35.17,29.566c0.217,0.049,0.438,0.086,0.665,0.095l0.159,0.004c0.961,0,1.876-0.374,2.576-1.052l1.102-1.07
			c0.747-0.725,1.133-1.677,1.09-2.682c-0.044-1.004-0.512-1.921-1.319-2.581L30.858,15.261z M34.305,3.086
			c0.411-0.473,0.977-0.747,1.594-0.772c0.539-0.022,1.056,0.16,1.482,0.5l-1.646,1.57c-0.291,0.277-0.301,0.737-0.024,1.028
			c0.143,0.15,0.334,0.225,0.526,0.225c0.181,0,0.361-0.067,0.502-0.201l1.703-1.624l0.217,0.211
			c0.444,0.431,0.675,0.991,0.649,1.575c-0.025,0.585-0.305,1.125-0.787,1.519l-9.272,7.583c-0.029,0.024-0.043,0.06-0.068,0.087
			c-0.075-0.42-0.23-0.809-0.448-1.158l5.766-5.607c0.288-0.28,0.294-0.74,0.015-1.028c-0.279-0.288-0.74-0.294-1.028-0.015
			l-5.769,5.61c-0.375-0.243-0.802-0.406-1.261-0.481c0.01-0.01,0.024-0.013,0.034-0.024L34.305,3.086z M25.941,20.026l3.628,4.175
			h-7.255L25.941,20.026z M25.922,17.234c-1.028,0-1.864-0.836-1.864-1.864s0.836-1.864,1.864-1.864s1.864,0.836,1.864,1.864
			S26.95,17.234,25.922,17.234z M25.99,7.07c0.83,0,1.643,0.217,2.391,0.617l-2.44,2.809l-2.431-2.799
			C24.265,7.29,25.096,7.07,25.99,7.07z M12.574,5.597c-0.026-0.584,0.205-1.143,0.649-1.575l0.047-0.046l1.713,1.634
			c0.141,0.134,0.321,0.201,0.502,0.201c0.192,0,0.383-0.076,0.526-0.225c0.277-0.291,0.267-0.751-0.024-1.028l-1.672-1.595
			l0.01-0.01c0.429-0.416,0.979-0.642,1.562-0.642c0.032,0,0.064,0,0.096,0.002c0.617,0.025,1.183,0.299,1.594,0.772l7.815,8.996
			c0.008,0.009,0.021,0.012,0.029,0.021c-0.437,0.067-0.844,0.217-1.208,0.438l-5.541-5.388c-0.287-0.279-0.748-0.273-1.028,0.015
			c-0.28,0.288-0.273,0.748,0.015,1.028l5.498,5.347c-0.237,0.358-0.406,0.764-0.49,1.201c-0.014-0.013-0.02-0.032-0.034-0.044
			L13.36,7.116C12.878,6.722,12.599,6.182,12.574,5.597z M19.857,14.307l1.166,0.954l-1.405,1.149L19.857,14.307z M15.888,28.211
			c-0.582,0-1.137-0.228-1.563-0.642l-0.073-0.071l1.735-1.655c0.291-0.277,0.301-0.738,0.024-1.028
			c-0.277-0.29-0.737-0.3-1.028-0.024l-1.775,1.693c-0.434-0.429-0.661-0.98-0.635-1.558c0.025-0.585,0.305-1.125,0.787-1.518
			l9.272-7.583c0.006-0.005,0.009-0.014,0.015-0.019c0.056,0.422,0.19,0.815,0.389,1.171l-5.378,5.23
			c-0.288,0.28-0.294,0.74-0.015,1.028c0.143,0.146,0.332,0.22,0.521,0.22c0.183,0,0.366-0.068,0.507-0.206l5.33-5.183
			c0.366,0.261,0.783,0.455,1.238,0.55l-7.664,8.82C17.165,27.909,16.6,28.183,15.888,28.211z M23.677,40.785v-5.606
			c0-1.35,1.098-2.448,2.448-2.448s2.448,1.099,2.448,2.448v5.606H23.677z M35.638,40.339c0.03,0.17-0.012,0.343-0.112,0.463
			c-0.048,0.058-0.129,0.127-0.243,0.127h-5.257v-5.751c0-2.152-1.75-3.902-3.902-3.902s-3.902,1.75-3.902,3.902v5.751h-5.697
			c-0.114,0-0.195-0.069-0.244-0.128c-0.101-0.121-0.142-0.296-0.11-0.466l2.18-11.641c0.109-0.099,0.224-0.19,0.322-0.304
			l2.376-2.735h9.782l2.376,2.735c0.1,0.116,0.217,0.209,0.329,0.31L35.638,40.339z M38.659,26.5l-0.154,0.15l-1.766-1.684
			c-0.291-0.277-0.751-0.266-1.028,0.024c-0.277,0.291-0.267,0.751,0.024,1.028l1.715,1.637c-0.414,0.354-0.941,0.546-1.552,0.555
			c-0.617-0.025-1.182-0.299-1.593-0.772l-7.672-8.83c0.475-0.104,0.906-0.316,1.281-0.601l5.571,5.417
			c0.141,0.137,0.324,0.206,0.507,0.206c0.189,0,0.379-0.074,0.521-0.22c0.28-0.288,0.273-0.748-0.015-1.028l-5.646-5.489
			c0.18-0.346,0.299-0.725,0.347-1.129c0.019,0.019,0.028,0.045,0.049,0.063l9.272,7.583c0.482,0.394,0.761,0.933,0.787,1.519
			C39.334,25.509,39.103,26.069,38.659,26.5z"/>
	</g>
</g>
</svg>
