<?xml version="1.0" encoding="utf-8"?>
<!-- Generator: Adobe Illustrator 22.0.0, SVG Export Plug-In . SVG Version: 6.00 Build 0)  -->
<svg version="1.1" id="Layer_1" xmlns="http://www.w3.org/2000/svg" xmlns:xlink="http://www.w3.org/1999/xlink" x="0px" y="0px"
	 width="67px" height="70px" viewBox="0 0 67 70" enable-background="new 0 0 67 70" xml:space="preserve">
<image display="none" overflow="visible" opacity="0.31" width="439" height="81" xlink:href="../../../Cтраницы исходники/ЛЛ/nn.jpg"  transform="matrix(1 0 0 1 -5.3958 -7.3229)">
</image>
<g>
	<g>
		<path fill="#412E21" d="M5.348,61.131l0.091-1.234H5.387l-0.39,1.104l-1.209,2.496H3.45l-1.261-2.496l-0.351-1.104H1.773
			l0.104,1.222v3.874H1.032v-6.5h0.936l1.417,2.821l0.286,0.845h0.026l0.312-0.871l1.313-2.795h0.962v6.5H5.348V61.131z"/>
		<path fill="#412E21" d="M8.793,60.976c0.173-0.035,0.338-0.059,0.494-0.072c0.156-0.013,0.304-0.02,0.442-0.02
			c0.355,0,0.654,0.051,0.897,0.149c0.242,0.101,0.436,0.236,0.578,0.41c0.143,0.173,0.245,0.379,0.306,0.617
			s0.091,0.492,0.091,0.761c0,0.789-0.176,1.36-0.527,1.716s-0.934,0.533-1.749,0.533c-0.502,0-0.992-0.026-1.469-0.078v-6.5h0.936
			V60.976z M8.793,64.148c0.26,0.052,0.498,0.078,0.715,0.078c0.416,0,0.706-0.111,0.871-0.332c0.165-0.221,0.247-0.539,0.247-0.955
			c0-0.391-0.081-0.695-0.241-0.917c-0.16-0.221-0.444-0.331-0.852-0.331c-0.113,0-0.234,0.006-0.364,0.02
			c-0.13,0.013-0.256,0.037-0.377,0.071V64.148z M12.381,58.493h0.936v6.5h-0.936V58.493z"/>
		<path fill="#412E21" d="M20.87,62.093h-2.249v2.899h-0.936v-6.5h0.936v2.756h2.249v-2.756h0.936v6.5H20.87V62.093z"/>
		<path fill="#412E21" d="M23.301,58.882c0.251-0.155,0.557-0.277,0.917-0.363c0.359-0.087,0.739-0.13,1.137-0.13
			c0.364,0,0.657,0.054,0.877,0.162c0.221,0.108,0.395,0.256,0.52,0.442c0.125,0.186,0.208,0.398,0.247,0.637
			s0.059,0.487,0.059,0.747c0,0.521-0.011,1.027-0.034,1.521c-0.022,0.494-0.033,0.962-0.033,1.403c0,0.33,0.011,0.636,0.033,0.917
			c0.022,0.281,0.064,0.548,0.125,0.8h-0.733l-0.227-0.768h-0.052c-0.129,0.226-0.318,0.421-0.567,0.585
			c-0.25,0.165-0.585,0.247-1.007,0.247c-0.464,0-0.845-0.162-1.142-0.487c-0.297-0.325-0.445-0.773-0.445-1.346
			c0-0.372,0.062-0.685,0.187-0.936c0.125-0.252,0.301-0.455,0.529-0.611c0.228-0.156,0.499-0.267,0.812-0.331
			c0.314-0.065,0.664-0.098,1.051-0.098c0.086,0,0.172,0,0.258,0s0.176,0.004,0.271,0.013c0.025-0.269,0.039-0.507,0.039-0.715
			c0-0.494-0.073-0.841-0.219-1.04c-0.146-0.199-0.413-0.299-0.799-0.299c-0.241,0-0.502,0.037-0.786,0.11
			c-0.284,0.073-0.52,0.167-0.708,0.279L23.301,58.882z M26.096,62.029c-0.086-0.009-0.171-0.016-0.257-0.02
			c-0.086-0.004-0.171-0.007-0.257-0.007c-0.206,0-0.407,0.018-0.604,0.052c-0.197,0.035-0.373,0.096-0.526,0.183
			c-0.154,0.087-0.276,0.203-0.366,0.351s-0.135,0.334-0.135,0.56c0,0.347,0.083,0.615,0.25,0.806
			c0.167,0.19,0.383,0.286,0.648,0.286c0.359,0,0.638-0.087,0.835-0.26c0.197-0.174,0.334-0.364,0.411-0.572V62.029z"/>
		<path fill="#412E21" d="M32.192,64.667c-0.217,0.165-0.464,0.286-0.741,0.364s-0.567,0.117-0.871,0.117
			c-0.416,0-0.767-0.08-1.053-0.241c-0.286-0.16-0.518-0.39-0.695-0.688c-0.178-0.299-0.308-0.658-0.39-1.079
			c-0.083-0.42-0.124-0.886-0.124-1.397c0-1.109,0.197-1.954,0.591-2.535c0.395-0.58,0.96-0.871,1.697-0.871
			c0.338,0,0.628,0.03,0.871,0.091c0.242,0.062,0.45,0.14,0.624,0.234l-0.26,0.819c-0.347-0.199-0.724-0.299-1.131-0.299
			c-0.468,0-0.821,0.205-1.06,0.617c-0.238,0.411-0.357,1.06-0.357,1.943c0,0.355,0.026,0.689,0.078,1.001
			c0.052,0.313,0.138,0.583,0.26,0.813c0.121,0.229,0.277,0.412,0.468,0.546c0.19,0.135,0.429,0.201,0.715,0.201
			c0.225,0,0.436-0.038,0.63-0.116c0.195-0.078,0.353-0.169,0.475-0.273L32.192,64.667z"/>
		<path fill="#412E21" d="M36.521,59.337h-1.599v5.655h-0.936v-5.655h-1.599v-0.845h4.134V59.337z"/>
		<path fill="#412E21" d="M36.898,61.743c0-1.17,0.202-2.03,0.604-2.58c0.403-0.551,0.977-0.826,1.723-0.826
			c0.797,0,1.384,0.282,1.761,0.846s0.565,1.417,0.565,2.561c0,1.179-0.204,2.041-0.611,2.587c-0.407,0.546-0.979,0.819-1.716,0.819
			c-0.797,0-1.385-0.282-1.762-0.846C37.087,63.741,36.898,62.886,36.898,61.743z M37.874,61.743c0,0.382,0.024,0.728,0.071,1.04
			c0.048,0.312,0.125,0.581,0.234,0.806c0.108,0.226,0.249,0.401,0.422,0.526c0.173,0.126,0.381,0.188,0.624,0.188
			c0.45,0,0.789-0.201,1.014-0.604c0.226-0.402,0.338-1.055,0.338-1.956c0-0.372-0.024-0.717-0.072-1.033s-0.125-0.587-0.234-0.813
			s-0.249-0.401-0.422-0.526c-0.174-0.126-0.382-0.188-0.624-0.188c-0.442,0-0.778,0.203-1.008,0.61
			C37.988,60.2,37.874,60.85,37.874,61.743z"/>
		<path fill="#412E21" d="M45.478,62.301l-0.793,0.156l-1.313,2.535h-1.105l1.209-2.236l0.416-0.468
			c-0.355-0.069-0.656-0.251-0.903-0.546s-0.371-0.693-0.371-1.196c0-0.779,0.21-1.343,0.63-1.689s0.995-0.521,1.723-0.521
			c0.269,0,0.522,0.02,0.761,0.059c0.238,0.039,0.466,0.085,0.682,0.137v6.461h-0.936V62.301z M45.478,61.703v-2.405
			c-0.086-0.043-0.186-0.073-0.299-0.091s-0.212-0.025-0.299-0.025c-0.416,0-0.734,0.108-0.956,0.324
			c-0.221,0.217-0.332,0.546-0.332,0.988c0,0.398,0.125,0.709,0.377,0.93s0.585,0.323,1.001,0.306L45.478,61.703z"/>
		<path fill="#412E21" d="M54.851,66.644h-0.65l-0.156-1.651h-6.136v-6.5h0.936v5.655h1.69v-5.655h0.936v5.655h1.69v-5.655h0.936
			v5.655h0.754V66.644z"/>
		<path fill="#412E21" d="M59.102,61.248l0.078-0.988h-0.052l-0.455,1.093l-2.197,3.64h-0.611v-6.5h0.936v3.861l-0.078,0.948h0.052
			l0.429-1.065l2.223-3.744h0.611v6.5h-0.936V61.248z"/>
		<path fill="#412E21" d="M65.498,64.55c-0.208,0.191-0.472,0.339-0.793,0.442s-0.659,0.156-1.014,0.156
			c-0.408,0-0.761-0.08-1.06-0.241c-0.299-0.16-0.546-0.39-0.741-0.688c-0.195-0.299-0.338-0.656-0.429-1.072
			c-0.091-0.416-0.137-0.885-0.137-1.404c0-1.109,0.204-1.954,0.611-2.535c0.407-0.58,0.984-0.871,1.729-0.871
			c0.243,0,0.483,0.03,0.722,0.091c0.238,0.062,0.453,0.183,0.644,0.364c0.19,0.183,0.344,0.438,0.461,0.768
			c0.117,0.329,0.176,0.758,0.176,1.286c0,0.147-0.007,0.306-0.02,0.475c-0.013,0.169-0.028,0.345-0.046,0.526H62.3
			c0,0.373,0.03,0.711,0.091,1.015s0.156,0.562,0.286,0.773s0.297,0.377,0.5,0.494s0.457,0.175,0.761,0.175
			c0.234,0,0.465-0.043,0.695-0.13c0.229-0.086,0.405-0.19,0.526-0.312L65.498,64.55z M64.77,61.067
			c0.018-0.65-0.074-1.127-0.273-1.431c-0.199-0.303-0.472-0.454-0.819-0.454c-0.399,0-0.715,0.151-0.949,0.454
			c-0.234,0.304-0.373,0.78-0.416,1.431H64.77z"/>
	</g>
	<g id="мы_настоящие">
		<g>
			<path fill="#ED8726" d="M43.664,8.142c-0.568,0.916-1.823,1.993-2.633,2.737L41.151,11l4.479-2.8
				c0.215-0.136,0.397-0.318,0.533-0.533c0.503-0.798,0.265-1.853-0.533-2.357c-0.358-0.226-0.766-0.295-1.155-0.238
				c0.002,0.02,0.004,0.031,0.006,0.052C44.518,5.623,44.574,6.674,43.664,8.142z"/>
			
				<rect x="17.976" y="20.342" transform="matrix(0.7071 -0.7071 0.7071 0.7071 -6.6114 28.7282)" fill="#ED8726" width="26.794" height="4.007"/>
			<path fill="#412E21" d="M36.159,25.41c-0.283-0.285-0.743-0.286-1.028-0.002s-0.286,0.744-0.002,1.028l3.607,3.624
				c0.142,0.143,0.329,0.214,0.515,0.214c0.186,0,0.371-0.07,0.513-0.212c0.285-0.283,0.286-0.744,0.002-1.028L36.159,25.41z"/>
			<path fill="#412E21" d="M33.454,28.275c-0.28-0.276-0.73-0.275-1.007,0.006c-0.276,0.279-0.274,0.73,0.006,1.007l2.204,2.18
				c0.139,0.137,0.319,0.206,0.5,0.206c0.184,0,0.367-0.07,0.506-0.211c0.276-0.279,0.274-0.73-0.006-1.007L33.454,28.275z"/>
			<path fill="#412E21" d="M38.824,22.906c-0.286-0.283-0.746-0.28-1.028,0.006c-0.282,0.286-0.28,0.746,0.006,1.028l2.204,2.18
				c0.142,0.14,0.327,0.21,0.511,0.21c0.188,0,0.375-0.072,0.517-0.216c0.282-0.286,0.28-0.746-0.006-1.028L38.824,22.906z"/>
		</g>
		<path fill="#412E21" d="M46.411,10.524c-0.1-0.098-0.377-0.368-0.623-0.604l0.663-0.414c1.522-0.951,1.985-2.956,1.033-4.478
			C46.89,4.076,45.847,3.499,44.726,3.5c-1.121-0.003-2.164,0.575-2.756,1.526l-2.612,4.176l-1.627-1.627
			c-0.301-0.301-0.789-0.301-1.09,0c-0.515,0.515-1.013,1.056-1.55,1.545c0.141-0.128-1.541-0.94-1.721-1.008
			c-0.682-0.258-1.386-0.453-2.103-0.584c-1.417-0.257-2.878-0.255-4.294,0.007c-1.368,0.253-2.688,0.748-3.89,1.449
			c-5.717,3.34-7.652,10.709-4.295,16.443l-2.183,2.183c-0.301,0.301-0.301,0.789,0,1.09l1.624,1.63l-4.178,2.612
			c-1.522,0.952-1.984,2.956-1.032,4.478c0.952,1.522,2.957,1.984,4.478,1.032c0.418-0.261,0.77-0.614,1.032-1.032l0.858-1.37
			c0.718,0.293,2.061,1.209,2.578,1.715c1.512,1.477,3.48,2.283,5.563,2.283c0.063,0,0.126-0.001,0.189-0.002
			c2.147-0.051,4.145-0.953,5.624-2.54c0.125-0.134,0.245-0.272,0.362-0.415c0.946-1.162,2.334-1.849,3.81-1.883
			c2.115-0.048,4.091-0.926,5.565-2.471c1.52-1.593,2.328-3.697,2.273-5.925c-0.005-0.184-0.015-0.369-0.032-0.553
			c-0.137-1.518,0.371-3.018,1.395-4.117C49.761,18.875,49.634,13.672,46.411,10.524z M43.275,5.844
			c0.503-0.798,1.558-1.037,2.356-0.533c0.798,0.504,1.037,1.559,0.533,2.357c-0.136,0.215-0.318,0.398-0.533,0.533L41.151,11
			l-0.674-0.674L43.275,5.844z M23.818,10.242c3.162-1.846,6.986-1.932,10.232-0.232c0.039,0.021,0.082,0.023,0.123,0.036
			L19.861,24.357C17.178,19.379,18.899,13.115,23.818,10.242z M37.187,9.213l5.075,5.075L23.316,33.234l-5.075-5.075L37.187,9.213z
			 M17.228,36.603c-0.504,0.798-1.559,1.037-2.357,0.533c-0.798-0.503-1.037-1.559-0.533-2.356c0.136-0.215,0.318-0.398,0.533-0.533
			l4.479-2.8l0.674,0.674L17.228,36.603z M43.872,26.391c0.014,0.153,0.022,0.307,0.026,0.459c0.045,1.838-0.62,3.573-1.872,4.885
			c-1.206,1.264-2.82,1.982-4.546,2.021c-1.902,0.044-3.69,0.925-4.904,2.417c-0.096,0.118-0.195,0.231-0.298,0.342
			c-1.21,1.299-2.842,2.037-4.595,2.078c-1.757,0.03-3.428-0.622-4.702-1.867c-0.58-0.568-1.893-1.48-2.815-1.92l0.977-1.561
			l1.627,1.627c0.301,0.301,0.789,0.301,1.09,0l20.036-20.035c0.301-0.301,0.301-0.789,0-1.09l-1.624-1.63l2.243-1.402
			c0.213,0.198,0.738,0.711,0.902,0.87c2.641,2.58,2.746,6.872,0.234,9.567C44.346,22.554,43.698,24.463,43.872,26.391z"/>
	</g>
</g>
</svg>
