<?xml version="1.0" encoding="utf-8"?>
<!-- Generator: Adobe Illustrator 22.0.0, SVG Export Plug-In . SVG Version: 6.00 Build 0)  -->
<svg version="1.1" id="Layer_1" xmlns="http://www.w3.org/2000/svg" xmlns:xlink="http://www.w3.org/1999/xlink" x="0px" y="0px"
	 width="80.833px" height="70px" viewBox="0 0 80.833 70" enable-background="new 0 0 80.833 70" xml:space="preserve">
<image display="none" overflow="visible" opacity="0.31" width="439" height="81" xlink:href="../../../Cтраницы исходники/ЛЛ/nn.jpg"  transform="matrix(1 0 0 1 -12.0625 -7.3229)">
</image>
<g>
	<g>
		<path fill="#412E21" d="M1.059,64.398h1.469v-6.354l0.117-0.77l-0.442,0.624l-1.092,0.884l-0.494-0.585l2.366-2.21h0.48v8.411
			h1.417v0.845H1.059V64.398z"/>
		<path fill="#412E21" d="M6.181,60.693c0-0.832,0.052-1.547,0.155-2.146c0.104-0.598,0.261-1.085,0.469-1.462
			s0.463-0.654,0.767-0.832s0.65-0.267,1.04-0.267c0.416,0,0.777,0.089,1.086,0.267c0.307,0.178,0.561,0.455,0.76,0.832
			s0.347,0.864,0.442,1.462c0.095,0.599,0.143,1.313,0.143,2.146c0,0.841-0.052,1.558-0.155,2.151
			c-0.104,0.594-0.261,1.079-0.469,1.456c-0.208,0.377-0.461,0.654-0.76,0.832c-0.3,0.178-0.644,0.267-1.034,0.267
			c-0.425,0-0.791-0.091-1.099-0.273c-0.308-0.182-0.561-0.463-0.76-0.845c-0.2-0.382-0.347-0.869-0.442-1.463
			C6.228,62.225,6.181,61.516,6.181,60.693z M7.156,60.693c0,1.239,0.116,2.192,0.35,2.859c0.232,0.668,0.608,1.001,1.126,1.001
			c0.5,0,0.864-0.305,1.094-0.916c0.229-0.611,0.343-1.593,0.343-2.944c0-1.23-0.11-2.182-0.33-2.854s-0.598-1.008-1.133-1.008
			c-0.5,0-0.867,0.304-1.1,0.91C7.272,58.348,7.156,59.332,7.156,60.693z"/>
		<path fill="#412E21" d="M12.031,60.693c0-0.832,0.052-1.547,0.156-2.146c0.104-0.598,0.26-1.085,0.468-1.462
			s0.464-0.654,0.767-0.832c0.304-0.178,0.65-0.267,1.04-0.267c0.416,0,0.778,0.089,1.086,0.267s0.561,0.455,0.761,0.832
			c0.199,0.377,0.347,0.864,0.441,1.462c0.096,0.599,0.144,1.313,0.144,2.146c0,0.841-0.052,1.558-0.156,2.151
			c-0.104,0.594-0.26,1.079-0.468,1.456c-0.208,0.377-0.462,0.654-0.761,0.832s-0.644,0.267-1.033,0.267
			c-0.425,0-0.791-0.091-1.099-0.273c-0.308-0.182-0.562-0.463-0.761-0.845c-0.199-0.382-0.347-0.869-0.441-1.463
			C12.079,62.225,12.031,61.516,12.031,60.693z M13.007,60.693c0,1.239,0.116,2.192,0.349,2.859
			c0.233,0.668,0.608,1.001,1.126,1.001c0.501,0,0.865-0.305,1.094-0.916c0.229-0.611,0.343-1.593,0.343-2.944
			c0-1.23-0.109-2.182-0.33-2.854c-0.22-0.672-0.597-1.008-1.132-1.008c-0.501,0-0.867,0.304-1.101,0.91
			C13.123,58.348,13.007,59.332,13.007,60.693z"/>
		<path fill="#412E21" d="M18.102,58.197c0-0.398,0.041-0.739,0.122-1.021c0.082-0.281,0.198-0.512,0.349-0.689
			c0.15-0.177,0.327-0.305,0.528-0.383c0.202-0.078,0.42-0.117,0.652-0.117c0.231,0,0.449,0.037,0.651,0.11
			c0.201,0.074,0.378,0.195,0.528,0.364s0.267,0.396,0.349,0.683c0.081,0.285,0.122,0.637,0.122,1.053s-0.041,0.767-0.122,1.053
			c-0.082,0.286-0.198,0.514-0.349,0.683s-0.327,0.29-0.528,0.364c-0.202,0.073-0.42,0.11-0.651,0.11
			c-0.232,0-0.45-0.037-0.652-0.11c-0.201-0.074-0.378-0.195-0.528-0.364s-0.267-0.396-0.349-0.683
			C18.143,58.963,18.102,58.613,18.102,58.197z M24.121,55.974l0.611,0.39l-5.538,9.035l-0.611-0.391L24.121,55.974z M18.934,58.197
			c0,0.563,0.076,0.953,0.229,1.17c0.152,0.217,0.352,0.325,0.596,0.325c0.122,0,0.233-0.021,0.334-0.065
			c0.101-0.043,0.186-0.119,0.256-0.228s0.124-0.26,0.164-0.455c0.039-0.194,0.059-0.443,0.059-0.747c0-0.295-0.02-0.54-0.059-0.734
			c-0.04-0.195-0.094-0.349-0.164-0.462c-0.07-0.112-0.155-0.19-0.256-0.233c-0.101-0.044-0.212-0.065-0.334-0.065
			c-0.131,0-0.247,0.021-0.347,0.065c-0.101,0.043-0.186,0.121-0.256,0.233c-0.069,0.113-0.124,0.267-0.164,0.462
			C18.954,57.657,18.934,57.902,18.934,58.197z M21.924,63.02c0-0.398,0.04-0.739,0.122-1.021c0.082-0.282,0.198-0.512,0.349-0.689
			s0.326-0.306,0.528-0.384c0.202-0.077,0.42-0.116,0.651-0.116c0.232,0,0.449,0.036,0.651,0.11
			c0.202,0.073,0.379,0.194,0.529,0.363c0.15,0.17,0.267,0.397,0.348,0.683c0.082,0.286,0.123,0.638,0.123,1.054
			s-0.041,0.767-0.123,1.053c-0.081,0.286-0.197,0.514-0.348,0.683s-0.327,0.29-0.529,0.364c-0.202,0.073-0.419,0.11-0.651,0.11
			c-0.231,0-0.449-0.037-0.651-0.11c-0.202-0.074-0.378-0.195-0.528-0.364s-0.267-0.396-0.349-0.683
			C21.965,63.786,21.924,63.436,21.924,63.02z M22.757,63.02c0,0.563,0.076,0.953,0.229,1.17c0.153,0.217,0.352,0.325,0.597,0.325
			c0.122,0,0.233-0.022,0.334-0.065s0.186-0.119,0.256-0.228c0.069-0.108,0.124-0.26,0.163-0.455c0.04-0.195,0.06-0.444,0.06-0.747
			c0-0.295-0.02-0.54-0.06-0.734c-0.039-0.195-0.094-0.35-0.163-0.462c-0.07-0.112-0.155-0.19-0.256-0.234
			c-0.101-0.043-0.212-0.064-0.334-0.064c-0.131,0-0.247,0.021-0.348,0.064c-0.101,0.044-0.186,0.122-0.255,0.234
			c-0.07,0.112-0.125,0.267-0.164,0.462C22.776,62.48,22.757,62.725,22.757,63.02z"/>
		<path fill="#412E21" d="M32.376,62.343h-2.249v2.899h-0.936v-6.5h0.936v2.756h2.249v-2.756h0.937v6.5h-0.937V62.343z"/>
		<path fill="#412E21" d="M34.768,59.132c0.251-0.155,0.557-0.277,0.916-0.363c0.359-0.087,0.739-0.13,1.138-0.13
			c0.364,0,0.656,0.054,0.877,0.162c0.222,0.108,0.395,0.256,0.521,0.442c0.125,0.186,0.208,0.398,0.247,0.637
			s0.059,0.487,0.059,0.747c0,0.521-0.012,1.027-0.034,1.521c-0.021,0.494-0.033,0.962-0.033,1.403c0,0.33,0.012,0.636,0.033,0.917
			c0.022,0.281,0.064,0.548,0.125,0.8h-0.733l-0.227-0.768h-0.052c-0.129,0.226-0.318,0.421-0.567,0.585
			c-0.25,0.165-0.585,0.247-1.007,0.247c-0.465,0-0.846-0.162-1.142-0.487c-0.297-0.325-0.445-0.773-0.445-1.346
			c0-0.372,0.062-0.685,0.187-0.936c0.125-0.252,0.301-0.455,0.529-0.611c0.228-0.156,0.498-0.267,0.812-0.331
			c0.314-0.065,0.664-0.098,1.051-0.098c0.086,0,0.172,0,0.258,0s0.177,0.004,0.271,0.013c0.025-0.269,0.038-0.507,0.038-0.715
			c0-0.494-0.073-0.841-0.219-1.04s-0.412-0.299-0.799-0.299c-0.24,0-0.502,0.037-0.785,0.11c-0.284,0.073-0.52,0.167-0.709,0.279
			L34.768,59.132z M37.563,62.279c-0.086-0.009-0.172-0.016-0.257-0.02c-0.086-0.004-0.172-0.007-0.257-0.007
			c-0.206,0-0.407,0.018-0.604,0.052c-0.196,0.035-0.372,0.096-0.526,0.183s-0.276,0.203-0.366,0.351s-0.135,0.334-0.135,0.56
			c0,0.347,0.084,0.615,0.251,0.806s0.383,0.286,0.648,0.286c0.359,0,0.638-0.087,0.835-0.26c0.196-0.174,0.334-0.364,0.411-0.572
			V62.279z"/>
		<path fill="#412E21" d="M43.413,59.587h-1.6v5.655h-0.936v-5.655h-1.599v-0.845h4.134V59.587z"/>
		<path fill="#412E21" d="M45.804,62.942l0.272,1.261h0.065l0.195-1.261l0.987-4.199h0.949l-1.547,5.837
			c-0.121,0.468-0.243,0.905-0.364,1.313c-0.121,0.407-0.253,0.76-0.396,1.06c-0.143,0.299-0.304,0.532-0.48,0.701
			c-0.178,0.169-0.389,0.254-0.631,0.254s-0.455-0.039-0.637-0.117l0.156-0.884c0.121,0.043,0.242,0.052,0.363,0.026
			c0.121-0.026,0.236-0.101,0.345-0.222s0.208-0.301,0.299-0.539s0.171-0.549,0.24-0.93l-2.105-6.5h1.066L45.804,62.942z"/>
		<path fill="#412E21" d="M49.08,58.743h0.663l0.144,0.702h0.052c0.32-0.572,0.823-0.858,1.508-0.858s1.198,0.256,1.54,0.768
			c0.343,0.511,0.514,1.348,0.514,2.509c0,0.546-0.057,1.038-0.169,1.476s-0.272,0.811-0.48,1.118s-0.462,0.541-0.761,0.701
			c-0.299,0.161-0.631,0.241-0.994,0.241c-0.252,0-0.451-0.016-0.599-0.046s-0.308-0.093-0.48-0.188v2.678H49.08V58.743z
			 M50.016,64.215c0.121,0.104,0.258,0.187,0.409,0.247s0.353,0.091,0.604,0.091c0.459,0,0.823-0.233,1.092-0.701
			c0.269-0.469,0.403-1.136,0.403-2.002c0-0.364-0.024-0.693-0.071-0.988c-0.048-0.295-0.124-0.548-0.228-0.761
			c-0.104-0.212-0.236-0.377-0.396-0.494c-0.161-0.117-0.357-0.175-0.592-0.175c-0.633,0-1.04,0.386-1.222,1.156V64.215z"/>
		<path fill="#412E21" d="M54.67,59.132c0.251-0.155,0.557-0.277,0.917-0.363c0.359-0.087,0.738-0.13,1.137-0.13
			c0.364,0,0.657,0.054,0.878,0.162s0.395,0.256,0.52,0.442c0.126,0.186,0.208,0.398,0.247,0.637s0.059,0.487,0.059,0.747
			c0,0.521-0.011,1.027-0.033,1.521s-0.033,0.962-0.033,1.403c0,0.33,0.011,0.636,0.033,0.917s0.063,0.548,0.124,0.8h-0.732
			l-0.228-0.768h-0.052c-0.129,0.226-0.318,0.421-0.567,0.585c-0.249,0.165-0.585,0.247-1.007,0.247
			c-0.464,0-0.845-0.162-1.142-0.487s-0.445-0.773-0.445-1.346c0-0.372,0.063-0.685,0.188-0.936
			c0.124-0.252,0.301-0.455,0.528-0.611s0.499-0.267,0.813-0.331c0.313-0.065,0.664-0.098,1.051-0.098c0.086,0,0.172,0,0.258,0
			s0.176,0.004,0.271,0.013c0.025-0.269,0.039-0.507,0.039-0.715c0-0.494-0.073-0.841-0.219-1.04
			c-0.146-0.199-0.413-0.299-0.799-0.299c-0.241,0-0.503,0.037-0.786,0.11s-0.52,0.167-0.708,0.279L54.67,59.132z M57.465,62.279
			c-0.086-0.009-0.171-0.016-0.257-0.02s-0.171-0.007-0.257-0.007c-0.205,0-0.406,0.018-0.604,0.052
			c-0.197,0.035-0.373,0.096-0.526,0.183c-0.154,0.087-0.276,0.203-0.366,0.351s-0.135,0.334-0.135,0.56
			c0,0.347,0.083,0.615,0.25,0.806s0.383,0.286,0.648,0.286c0.359,0,0.638-0.087,0.835-0.26c0.197-0.174,0.334-0.364,0.411-0.572
			V62.279z"/>
		<path fill="#412E21" d="M62.756,59.587h-1.417c-0.026,0.737-0.061,1.45-0.104,2.139c-0.043,0.689-0.119,1.298-0.228,1.826
			c-0.108,0.529-0.262,0.952-0.461,1.268c-0.199,0.316-0.464,0.475-0.793,0.475c-0.147,0-0.273-0.008-0.377-0.025
			c-0.104-0.017-0.2-0.047-0.286-0.09l0.143-0.808c0.183,0.052,0.345,0.041,0.488-0.032c0.143-0.074,0.266-0.3,0.37-0.678
			c0.104-0.378,0.188-0.956,0.253-1.733c0.065-0.777,0.111-1.839,0.137-3.186h3.211v6.5h-0.936V59.587z"/>
		<path fill="#412E21" d="M66.162,61.226c0.173-0.035,0.338-0.059,0.493-0.072c0.156-0.013,0.304-0.02,0.442-0.02
			c0.364,0,0.672,0.051,0.923,0.149c0.252,0.101,0.455,0.236,0.611,0.41c0.156,0.173,0.269,0.379,0.338,0.617
			s0.104,0.492,0.104,0.761c0,0.789-0.191,1.36-0.572,1.716c-0.382,0.355-0.979,0.533-1.794,0.533c-0.512,0-1.006-0.026-1.482-0.078
			v-6.5h0.937V61.226z M66.162,64.398c0.26,0.052,0.498,0.078,0.715,0.078c0.814,0,1.222-0.43,1.222-1.287
			c0-0.391-0.096-0.695-0.286-0.917c-0.19-0.221-0.494-0.331-0.91-0.331c-0.112,0-0.233,0.006-0.363,0.02
			c-0.13,0.013-0.256,0.037-0.377,0.071V64.398z"/>
		<path fill="#412E21" d="M73.311,62.343h-2.249v2.899h-0.936v-6.5h0.936v2.756h2.249v-2.756h0.937v6.5h-0.937V62.343z"/>
		<path fill="#412E21" d="M75.482,61.993c0-1.17,0.202-2.03,0.604-2.58c0.403-0.551,0.978-0.826,1.723-0.826
			c0.798,0,1.385,0.282,1.762,0.846s0.565,1.417,0.565,2.561c0,1.179-0.204,2.041-0.611,2.587s-0.979,0.819-1.716,0.819
			c-0.797,0-1.385-0.282-1.762-0.846C75.671,63.991,75.482,63.136,75.482,61.993z M76.458,61.993c0,0.382,0.023,0.728,0.071,1.04
			c0.048,0.312,0.125,0.581,0.234,0.806c0.107,0.226,0.249,0.401,0.422,0.526c0.174,0.126,0.382,0.188,0.624,0.188
			c0.45,0,0.789-0.201,1.014-0.604c0.226-0.402,0.339-1.055,0.339-1.956c0-0.372-0.024-0.717-0.072-1.033s-0.125-0.587-0.233-0.813
			s-0.249-0.401-0.423-0.526c-0.174-0.126-0.382-0.188-0.624-0.188c-0.441,0-0.777,0.203-1.008,0.61
			C76.572,60.45,76.458,61.1,76.458,61.993z"/>
	</g>
	<g id="_x31_00_натурально">
		<path fill="#412E21" d="M27.626,38.062c-1.163,0-2.147-0.894-2.242-2.034c-0.004-0.05-0.008-0.957-0.008-1.465
			c0-0.414,0.336-0.75,0.75-0.75s0.75,0.336,0.75,0.75c0,0.462,0.002,1.273,0.004,1.373c0.029,0.337,0.357,0.626,0.746,0.626
			c0.414,0,0.75,0.336,0.75,0.75S28.04,38.062,27.626,38.062z"/>
		<path fill="#412E21" d="M41.53,19.36c-0.04-0.219-0.18-0.408-0.378-0.511c-0.197-0.102-0.432-0.108-0.635-0.013l-0.238,0.112
			c-1.925,0.915-6.513,3.256-7.537,5.222c-0.617,1.186-0.735,2.541-0.333,3.816c0.328,1.041,0.984,1.913,1.855,2.539l-0.847,1.627
			c-0.184,0.353-0.046,0.788,0.307,0.972c0.106,0.056,0.221,0.082,0.332,0.082c0.261,0,0.512-0.141,0.641-0.388l0.84-1.615
			c0.53,0.186,1.082,0.285,1.639,0.285c0.506,0,1.015-0.078,1.511-0.234c1.274-0.402,2.316-1.276,2.935-2.462
			C42.794,26.54,41.663,20.089,41.53,19.36z M36.321,22.79l0.743,2.356l-0.865,1.663l-1.007-3.195
			C35.525,23.348,35.895,23.073,36.321,22.79z M40.623,23.625l-1.365,0.43l1.18-2.267C40.512,22.386,40.576,23.008,40.623,23.625z
			 M38.005,23.338l-0.42-1.332c0.506-0.298,1.031-0.595,1.572-0.881L38.005,23.338z M38.317,25.863l2.382-0.751
			c0.011,0.499,0.005,0.971-0.023,1.397l-3.224,1.017L38.317,25.863z M34.021,24.836c0.007-0.013,0.023-0.029,0.031-0.043
			l1.206,3.825l-0.326,0.626C33.648,28.199,33.227,26.359,34.021,24.836z M38.253,29.88c-0.675,0.213-1.379,0.219-2.043,0.029
			l0.303-0.583c0.013-0.003,0.026-0.002,0.039-0.006l3.79-1.195c0,0,0,0.001,0,0.001C39.902,28.971,39.16,29.594,38.253,29.88z"/>
		<g>
			<path fill="#ED8726" d="M39.504,5.172c0,0.001,0,0.004,0,0.009c-0.063,0.828-0.249,1.641-0.542,2.429h0.189
				c1.241-1.518,2.05-3.308,2.37-5.234c-0.04,0.034-0.078,0.066-0.125,0.108c-0.347,0.313-0.822,0.742-1.717,0.742
				c-0.2,0-0.372-0.028-0.534-0.064c-0.047,0.428-0.117,0.853-0.199,1.276C39.283,4.518,39.527,4.817,39.504,5.172z"/>
			<path fill="#ED8726" d="M40.662,9.527c0-0.248-0.209-0.458-0.457-0.458h-3.188c-0.141,0.143-0.229,0.338-0.229,0.554
				c0,0.132,0.041,0.251,0.099,0.361h3.319C40.453,9.985,40.662,9.775,40.662,9.527z"/>
			<path fill="#ED8726" d="M48.393,39.743l1.5,0.446c0.531,0.157,1.101-0.119,1.351-0.656c0.145-0.351,0.148-0.788-0.003-1.172
				c-0.05-0.154-0.086-0.256-0.121-0.355c-0.051-0.143-0.089-0.25-0.121-0.363c-0.109-0.364-0.183-0.574-0.231-0.709
				c-0.053-0.101-0.083-0.215-0.083-0.336c0-0.042,0.003-0.092,0.007-0.163c0.014-0.197,0.027-0.406,0.04-0.739
				c0.111-3.069,0.051-6.196-0.008-9.219l-0.042-2.297c-0.039-2.396-0.547-5.833-2.749-8.607c-0.158-0.198-0.322-0.392-0.492-0.579
				c-1.904-2.098-4.604-3.593-7.479-3.566c-0.672,0.006-1.343,0.018-2.015,0.018v1.99c0,0.117-0.035,0.224-0.084,0.322
				c0.997,0.414,1.926,1.01,2.74,1.716c3.895,3.378,4.374,8.904,4.501,13.723c0.034,1.271,0.095,2.547,0.104,3.817
				c0.01,1.612-0.143,3.244,0.197,4.835c0.123,0.575,0.339,1.077,0.662,1.495C46.888,39.287,47.668,39.422,48.393,39.743z"/>
			<path fill="#412E21" d="M39.191,2.316c0.008-0.003,0.015-0.006,0.023-0.009c0.002-0.028,0.005-0.056,0.007-0.084
				C39.179,2.232,39.178,2.288,39.191,2.316z"/>
		</g>
		<path fill="#412E21" d="M47.064,38.062c-0.414,0-0.75-0.336-0.75-0.75s0.336-0.75,0.75-0.75c0.389,0,0.718-0.289,0.748-0.658
			c0.001-0.082,0.002-0.884,0.002-1.341c0-0.414,0.336-0.75,0.75-0.75s0.75,0.336,0.75,0.75c0,1.389-0.004,1.431-0.009,1.476
			C49.213,37.167,48.228,38.062,47.064,38.062z"/>
		<path fill="#412E21" d="M52.599,37.884c-0.037-0.12-0.078-0.239-0.134-0.398c-0.029-0.078-0.057-0.152-0.082-0.244
			c-0.119-0.396-0.199-0.626-0.25-0.77c0.01-0.15,0.024-0.372,0.037-0.725c0.114-3.11,0.053-6.257-0.006-9.3l-0.042-2.292
			c-0.062-3.755-1.12-7.033-3.062-9.48c-1.739-2.19-4.162-3.782-6.821-4.482c-0.051-0.013-0.134-0.029-0.228-0.044
			c0.068-0.196,0.112-0.403,0.112-0.621c0-0.842-0.549-1.551-1.305-1.808c1.27-1.821,2.033-3.935,2.215-6.177
			c0.024-0.301-0.148-0.568-0.408-0.686c-0.129-0.118-0.298-0.194-0.487-0.194c-0.895,0-1.37,0.429-1.717,0.742
			c-0.29,0.262-0.42,0.368-0.742,0.368s-0.452-0.106-0.742-0.368c-0.347-0.313-0.822-0.742-1.717-0.742s-1.369,0.43-1.716,0.743
			c-0.288,0.261-0.418,0.367-0.738,0.367c-0.321,0-0.451-0.106-0.739-0.367c-0.347-0.313-0.822-0.743-1.716-0.743
			c-0.189,0-0.358,0.077-0.487,0.195c-0.259,0.119-0.431,0.385-0.406,0.686c0.182,2.243,0.945,4.356,2.215,6.177
			c-0.756,0.257-1.305,0.966-1.305,1.808c0,0.247,0.051,0.482,0.137,0.699c-1.456,0.386-2.883,1.021-4.168,1.89
			c-1.646,1.114-3.041,2.579-4.031,4.236c-0.83,1.381-1.385,3.01-1.696,4.979c-0.327,2.074-0.341,4.199-0.354,6.254l-0.01,1.188
			c-0.029,2.375-0.004,4.72,0.074,6.97c0.013,0.353,0.027,0.573,0.036,0.682c0,0.016,0,0.03,0.001,0.046
			c-0.054,0.15-0.134,0.38-0.249,0.769c-0.024,0.081-0.052,0.164-0.098,0.286c-0.041,0.118-0.083,0.238-0.098,0.294
			c-0.291,0.732-0.285,1.569,0.03,2.327c0.555,1.187,1.847,1.783,3.074,1.425l1.667-0.509c0.656-0.291,1.375-0.374,1.982-0.266
			c0.438,0.145,0.873,0.319,1.281,0.514c0.76,0.377,1.563,0.656,2.431,0.839c1.021,0.151,2.057,0.229,3.074,0.229
			c0.228,0,0.454-0.004,0.68-0.012h0.512c0.452-0.005,4.449-0.053,5.551-0.225c0.538-0.114,1.584-0.524,2.796-1.008
			c0.403-0.161,0.73-0.293,0.78-0.316c0.701-0.132,1.421-0.048,2.161,0.273l1.589,0.479c1.227,0.358,2.515-0.242,3.081-1.457
			C52.861,39.391,52.868,38.559,52.599,37.884z M33.789,9.527c0-0.248,0.209-0.458,0.457-0.458h5.959
			c0.248,0,0.457,0.209,0.457,0.458s-0.209,0.458-0.457,0.458h-5.959C33.994,9.985,33.789,9.78,33.789,9.527z M32.931,2.379
			c0.039,0.034,0.075,0.064,0.12,0.105c0.347,0.313,0.822,0.743,1.716,0.743s1.368-0.429,1.715-0.743
			c0.288-0.261,0.418-0.367,0.739-0.367c0.322,0,0.452,0.106,0.742,0.368c0.347,0.313,0.822,0.742,1.717,0.742
			s1.37-0.429,1.717-0.742c0.047-0.042,0.085-0.074,0.125-0.108c-0.32,1.925-1.129,3.716-2.37,5.234h-0.189
			c0.293-0.788,0.479-1.602,0.542-2.429c0-0.004,0-0.008,0-0.009c0.025-0.396-0.273-0.737-0.669-0.765
			c-0.371-0.034-0.737,0.269-0.769,0.664c-0.002,0.026-0.004,0.053-0.006,0.079H38.06c0,0.007-0.001,0.014-0.001,0.021
			c-0.075,0.83-0.292,1.646-0.645,2.428c-0.002,0.003-0.001,0.007-0.002,0.011h-0.316c-0.01-0.065-0.017-0.13-0.046-0.192
			c-0.343-0.742-0.535-1.524-0.572-2.325c-0.018-0.398-0.362-0.697-0.753-0.687c-0.397,0.018-0.705,0.355-0.687,0.753
			C35.076,6,35.262,6.821,35.574,7.61H35.3C34.06,6.094,33.251,4.304,32.931,2.379z M51.243,39.533
			c-0.25,0.537-0.819,0.813-1.351,0.656l-1.5-0.446c-0.926-0.409-1.94-0.528-3.021-0.315c-0.156,0.052-0.514,0.193-0.954,0.369
			c-0.785,0.313-2.101,0.839-2.523,0.93c-0.812,0.126-4.104,0.188-5.297,0.2h-0.528c-1.173,0.042-2.354-0.028-3.474-0.193
			c-0.706-0.149-1.395-0.389-2.057-0.717c-0.473-0.226-0.963-0.423-1.551-0.61c-0.987-0.187-2.002-0.069-2.843,0.309l-1.578,0.477
			c-0.54,0.159-1.107-0.118-1.345-0.624c-0.159-0.385-0.163-0.827,0.011-1.271c0.028-0.094,0.064-0.194,0.098-0.29
			c0.046-0.119,0.085-0.237,0.12-0.354c0.117-0.398,0.194-0.611,0.239-0.736c0.027-0.073,0.045-0.124,0.057-0.169
			c0.032-0.115,0.037-0.258,0.01-0.375c-0.01-0.141-0.023-0.349-0.035-0.679c-0.078-2.227-0.103-4.548-0.073-6.901l0.01-1.196
			c0.013-2.001,0.025-4.071,0.336-6.038c0.281-1.783,0.774-3.242,1.508-4.463c0.885-1.479,2.13-2.787,3.604-3.784
			c0.738-0.499,1.529-0.92,2.356-1.251c0.997-0.399,1.985-0.664,3.077-0.63c0.147,0.005,1.968,0.068,1.968,0.015v1.99
			c0,0.398,0.322,0.721,0.721,0.721s0.721-0.323,0.721-0.721c0,0,0-1.99,0-1.99c0.672,0,1.343-0.011,2.015-0.018
			c2.875-0.027,5.575,1.467,7.479,3.566c0.17,0.188,0.334,0.381,0.492,0.579c2.202,2.774,2.71,6.211,2.749,8.607l0.042,2.297
			c0.059,3.023,0.119,6.15,0.008,9.219c-0.013,0.333-0.026,0.542-0.04,0.739c-0.004,0.071-0.007,0.121-0.007,0.163
			c0,0.121,0.03,0.235,0.083,0.336c0.049,0.135,0.122,0.345,0.231,0.709c0.032,0.113,0.07,0.221,0.121,0.363
			c0.035,0.1,0.071,0.201,0.121,0.355C51.392,38.744,51.388,39.182,51.243,39.533z"/>
	</g>
</g>
</svg>
