<svg xmlns="http://www.w3.org/2000/svg" viewBox="0 0 55.25 25.46"><defs><style>.cls-1{fill:#ee8826;}.cls-2{fill:#402e21;}</style></defs><title>Пироги</title><g id="Слой_2" data-name="Слой 2"><g id="Layer_2" data-name="Layer 2"><path class="cls-1" d="M38,13.76a4.24,4.24,0,0,0,.29-4,7.06,7.06,0,0,0-6.38-3.93H23.17a7.05,7.05,0,0,0-6.38,3.95,4.24,4.24,0,0,0,.27,4L23.15,24.1H31.8Z"/><path class="cls-1" d="M15.11,24.1h5.26L15,15a6.82,6.82,0,0,1-.91-2.59.35.35,0,0,0-.48-.3,6.86,6.86,0,0,0-1.94,1.46,2.81,2.81,0,0,0-.5,3.57l.59,1,.42.74a1.2,1.2,0,0,1-.46,1.63,1.16,1.16,0,0,1-.59.16,1.22,1.22,0,0,1-1-.61c-.4-.73-.84-1.45-1.2-2.2l-6,5.23a2.55,2.55,0,0,0-.56,1h12.8Z"/><path class="cls-1" d="M42.73,23.94h10a2.64,2.64,0,0,0-.63-1.09L48.2,19.44a23.63,23.63,0,0,0-2-1.73,1.37,1.37,0,0,1-1.24,1,1.26,1.26,0,0,1-.59-.15,1.21,1.21,0,0,1-.46-1.64,2.83,2.83,0,0,0-.49-3.58,7.24,7.24,0,0,0-2.14-1.55.31.31,0,0,0-.42.27,7.07,7.07,0,0,1-1,2.75l-5.47,9.11h8.3Z"/><path class="cls-2" d="M50.5,25.46l.63-.06a4.37,4.37,0,0,0,2.7-7.59l-7.12-6.2v-.07a5.27,5.27,0,0,0-1.53-3.17c-.67-.69-2.46-2.32-4.47-2.42H40.6l0-.11a5,5,0,0,0-.26-.63A9.27,9.27,0,0,0,31.92,0H23.17a9.29,9.29,0,0,0-8.39,5.22c-.08.17-.16.37-.25.62l0,.11h-.12a7.69,7.69,0,0,0-4.32,2.41,5.2,5.2,0,0,0-1.52,3.17v.07l-7.2,6.28a4.48,4.48,0,0,0-1,4.72A4.47,4.47,0,0,0,4.11,25.4l.65.06ZM21.9,23.09c-3.1,0-3.28,0-3.34,0h0a2.86,2.86,0,0,1-3-1.46L14.34,19.5a1,1,0,0,0-.62-.48,1,1,0,0,0-.77.09,1,1,0,0,0-.39,1.4l1.19,2.1a1.45,1.45,0,0,0,.12.22l.23.38-9.26.2-.52-.05a2.49,2.49,0,0,1-2.15-1.55,2.39,2.39,0,0,1,.58-2.43L8.94,14l.16.35c0,.09.07.18.12.27l1,1.78a1,1,0,0,0,1.88-.23,1,1,0,0,0-.1-.78l-.86-1.53L11,13.59h0a3,3,0,0,1,.52-3.79A6.53,6.53,0,0,1,14,8.13l.21-.07,0,.22a6.84,6.84,0,0,0,.93,3L21.42,22a9,9,0,0,0,.62.86l.23.28Zm5.65.18H27.4a4.9,4.9,0,0,1-4.21-2.36L16.91,10.23a4.38,4.38,0,0,1-.27-4.13,7.21,7.21,0,0,1,6.53-4h8.75a7.21,7.21,0,0,1,6.53,4,4.39,4.39,0,0,1-.29,4.16l-6.42,10.7A4.88,4.88,0,0,1,27.55,23.27Zm9.13-.15c-.06,0-.25,0-3.63,0h-.37l.24-.28A7.3,7.3,0,0,0,33.5,22l6.42-10.7a6.79,6.79,0,0,0,1-3.07V8l.21.05a6.88,6.88,0,0,1,2.6,1.73,3,3,0,0,1,.52,3.79,1,1,0,0,0,.39,1.4A1.06,1.06,0,0,0,46,14.6c0-.09.09-.18.13-.27l.16-.35,6.09,5.3a2.32,2.32,0,0,1-1.48,4.08l-.5.05-9.27-.2L41.3,23l.07-.11.09-.16L44.11,18a1,1,0,0,0,.09-.78,1,1,0,0,0-.48-.62,1,1,0,0,0-1.4.39l-2.67,4.74A2.82,2.82,0,0,1,36.68,23.12Z"/></g></g></svg>