<?xml version="1.0" encoding="UTF-8"?>
<svg xmlns="http://www.w3.org/2000/svg" xmlns:xlink="http://www.w3.org/1999/xlink" width="56pt" height="26pt" viewBox="0 0 56 26" version="1.1">
<g id="surface1">
<path style=" stroke:none;fill-rule:nonzero;fill:rgb(93.333333%,53.333333%,14.901961%);fill-opacity:1;" d="M 38.261719 13.996094 C 39.058594 12.800781 39.160156 11.304688 38.5625 9.910156 C 37.367188 7.421875 34.875 5.925781 32.085938 5.925781 L 23.21875 5.925781 C 20.425781 5.925781 17.9375 7.421875 16.738281 9.910156 C 16.140625 11.207031 16.242188 12.699219 17.039062 13.898438 L 23.21875 24.359375 L 31.984375 24.359375 Z M 38.261719 13.996094 "/>
<path style=" stroke:none;fill-rule:nonzero;fill:rgb(93.333333%,53.333333%,14.901961%);fill-opacity:1;" d="M 15.144531 24.558594 L 20.425781 24.558594 L 15.144531 15.292969 C 14.648438 14.496094 14.347656 13.597656 14.25 12.699219 C 14.25 12.5 14.050781 12.402344 13.851562 12.402344 L 13.75 12.402344 C 13.054688 12.800781 12.355469 13.300781 11.757812 13.898438 C 10.761719 14.792969 10.5625 16.386719 11.261719 17.484375 L 11.859375 18.480469 L 12.257812 19.179688 C 12.554688 19.777344 12.355469 20.472656 11.757812 20.773438 C 11.558594 20.871094 11.359375 20.972656 11.160156 20.972656 C 10.761719 20.972656 10.363281 20.773438 10.164062 20.375 C 9.765625 19.675781 9.265625 18.878906 8.867188 18.179688 L 2.789062 23.460938 C 2.492188 23.761719 2.292969 24.058594 2.191406 24.460938 Z M 15.144531 24.558594 "/>
<path style=" stroke:none;fill-rule:nonzero;fill:rgb(93.333333%,53.333333%,14.901961%);fill-opacity:1;" d="M 43.046875 24.359375 L 53.109375 24.359375 C 53.011719 23.960938 52.8125 23.5625 52.511719 23.261719 L 48.527344 19.777344 C 47.929688 19.179688 47.230469 18.578125 46.535156 17.980469 C 46.335938 18.578125 45.835938 18.980469 45.238281 18.980469 C 45.039062 18.980469 44.839844 18.878906 44.640625 18.78125 C 44.042969 18.480469 43.84375 17.683594 44.140625 17.085938 C 44.839844 15.890625 44.640625 14.394531 43.644531 13.5 C 43.046875 12.898438 42.347656 12.300781 41.550781 11.902344 C 41.351562 11.804688 41.253906 11.902344 41.152344 12.101562 C 41.152344 12.101562 41.152344 12.203125 41.152344 12.203125 C 41.054688 13.199219 40.65625 14.097656 40.15625 14.992188 L 34.578125 24.261719 Z M 43.046875 24.359375 "/>
<path style=" stroke:none;fill-rule:nonzero;fill:rgb(25.098039%,18.039216%,12.941176%);fill-opacity:1;" d="M 50.917969 25.855469 L 51.515625 25.753906 C 53.90625 25.554688 55.800781 23.460938 55.601562 21.070312 C 55.5 19.976562 55.003906 18.878906 54.207031 18.082031 L 47.03125 11.804688 C 46.933594 10.609375 46.335938 9.511719 45.539062 8.617188 C 44.339844 7.320312 42.746094 6.421875 41.054688 6.222656 L 40.953125 6.222656 L 40.953125 6.023438 C 40.855469 5.824219 40.753906 5.625 40.65625 5.425781 C 39.058594 2.140625 35.773438 0.144531 32.183594 0.144531 L 23.316406 0.144531 C 19.730469 0.144531 16.441406 2.140625 14.847656 5.425781 C 14.746094 5.625 14.648438 5.824219 14.546875 6.023438 L 14.546875 6.125 L 14.449219 6.125 C 12.753906 6.421875 11.261719 7.320312 10.0625 8.515625 C 9.167969 9.414062 8.667969 10.507812 8.570312 11.703125 L 8.570312 11.804688 L 1.195312 18.179688 C 0 19.476562 -0.398438 21.269531 0.199219 22.964844 C 0.796875 24.558594 2.292969 25.65625 3.984375 25.753906 L 4.683594 25.855469 Z M 22.019531 23.460938 L 18.632812 23.460938 C 17.4375 23.660156 16.140625 23.0625 15.542969 21.96875 L 14.25 19.777344 C 14.148438 19.578125 13.851562 19.378906 13.652344 19.277344 C 13.351562 19.179688 13.152344 19.277344 12.855469 19.378906 C 12.355469 19.675781 12.257812 20.273438 12.554688 20.773438 L 13.75 22.863281 C 13.75 22.964844 13.851562 22.964844 13.851562 23.0625 L 14.050781 23.460938 L 4.683594 23.660156 L 4.285156 23.660156 C 3.289062 23.5625 2.492188 22.964844 2.09375 22.066406 C 1.792969 21.171875 1.992188 20.273438 2.691406 19.578125 L 8.96875 14.097656 L 9.167969 14.496094 C 9.167969 14.59375 9.265625 14.695312 9.265625 14.792969 L 10.261719 16.585938 C 10.460938 17.085938 11.058594 17.285156 11.558594 17.085938 C 12.058594 16.785156 12.257812 16.089844 11.957031 15.589844 L 11.058594 13.996094 L 10.960938 13.898438 C 10.164062 12.699219 10.460938 11.105469 11.460938 10.109375 C 12.15625 9.3125 13.054688 8.816406 13.949219 8.417969 L 14.148438 8.316406 L 14.148438 8.515625 C 14.25 9.511719 14.546875 10.609375 15.046875 11.503906 L 21.324219 22.367188 C 21.523438 22.664062 21.722656 22.964844 21.921875 23.261719 L 22.121094 23.5625 Z M 27.699219 23.660156 L 27.5 23.660156 C 25.808594 23.660156 24.113281 22.765625 23.21875 21.269531 L 16.941406 10.507812 C 16.140625 9.214844 16.042969 7.71875 16.640625 6.324219 C 17.835938 3.832031 20.425781 2.238281 23.21875 2.238281 L 32.085938 2.238281 C 34.875 2.238281 37.464844 3.832031 38.660156 6.324219 C 39.261719 7.71875 39.160156 9.3125 38.363281 10.507812 L 31.886719 21.371094 C 31.089844 22.863281 29.496094 23.761719 27.699219 23.660156 Z M 36.96875 23.5625 L 32.882812 23.5625 L 33.179688 23.261719 C 33.378906 22.964844 33.578125 22.664062 33.78125 22.464844 L 40.257812 11.605469 C 40.855469 10.707031 41.152344 9.613281 41.253906 8.515625 L 41.253906 8.21875 L 41.453125 8.21875 C 42.449219 8.617188 43.445312 9.214844 44.140625 10.011719 C 45.238281 11.007812 45.4375 12.601562 44.640625 13.796875 C 44.339844 14.296875 44.539062 14.894531 44.941406 15.191406 C 45.4375 15.390625 46.035156 15.292969 46.335938 14.792969 C 46.335938 14.695312 46.433594 14.59375 46.433594 14.496094 L 46.632812 14.195312 L 52.8125 19.578125 C 53.808594 20.375 53.90625 21.867188 53.109375 22.863281 C 52.710938 23.363281 52.015625 23.660156 51.316406 23.660156 L 50.820312 23.660156 L 41.453125 23.460938 L 41.75 23.164062 L 41.851562 22.964844 L 44.539062 18.179688 C 44.640625 17.980469 44.738281 17.683594 44.640625 17.382812 C 44.539062 17.085938 44.339844 16.886719 44.140625 16.785156 C 43.644531 16.488281 43.046875 16.6875 42.746094 17.183594 L 39.957031 22.066406 C 39.359375 23.164062 38.164062 23.761719 36.96875 23.5625 Z M 36.96875 23.5625 "/>
</g>
</svg>
