<?xml version="1.0" encoding="UTF-8"?>
<svg xmlns="http://www.w3.org/2000/svg" xmlns:xlink="http://www.w3.org/1999/xlink" width="55pt" height="27pt" viewBox="0 0 55 27" version="1.1">
<g id="surface1">
<path style=" stroke:none;fill-rule:nonzero;fill:rgb(93.333333%,53.333333%,14.901961%);fill-opacity:1;" d="M 48.933594 23.296875 L 5.46875 23.296875 C 4.277344 23.296875 3.28125 21.605469 2.785156 19.515625 C 3.28125 19.617188 3.878906 19.816406 4.277344 20.113281 C 5.371094 20.710938 6.664062 21.109375 7.957031 21.007812 C 9.25 21.007812 10.542969 20.710938 11.636719 20.113281 C 12.433594 19.617188 13.425781 19.316406 14.421875 19.417969 C 15.414062 19.417969 16.3125 19.617188 17.207031 20.113281 C 18.300781 20.710938 19.59375 21.109375 20.886719 21.007812 C 22.179688 21.007812 23.472656 20.710938 24.566406 20.113281 C 25.363281 19.617188 26.355469 19.417969 27.25 19.417969 C 28.246094 19.417969 29.140625 19.617188 30.035156 20.113281 C 31.128906 20.710938 32.421875 21.109375 33.714844 21.007812 C 35.007812 21.007812 36.300781 20.710938 37.394531 20.113281 C 39.085938 19.121094 41.175781 19.121094 42.867188 20.113281 C 45.152344 21.40625 47.9375 21.40625 50.324219 20.113281 C 50.625 19.914062 50.921875 19.816406 51.320312 19.617188 C 50.921875 21.707031 50.324219 23.296875 48.933594 23.296875 Z M 48.933594 23.296875 "/>
<path style=" stroke:none;fill-rule:nonzero;fill:rgb(93.333333%,53.333333%,14.901961%);fill-opacity:1;" d="M 9.347656 13.25 L 45.75 13.25 C 47.839844 13.351562 49.730469 12.15625 50.523438 10.269531 C 50.625 9.871094 50.722656 9.570312 50.722656 9.273438 C 50.523438 8.875 50.226562 8.578125 49.925781 8.277344 C 47.339844 5.59375 43.660156 4.101562 39.882812 4.199219 C 37.792969 4.199219 35.804688 4.597656 33.914062 5.394531 C 32.421875 6.089844 31.03125 7.085938 29.835938 8.277344 C 29.4375 8.675781 29.242188 9.171875 29.042969 9.671875 C 28.84375 10.167969 28.34375 10.367188 27.847656 10.167969 C 27.351562 9.96875 27.152344 9.371094 27.351562 8.976562 C 27.550781 8.476562 27.75 7.980469 28.046875 7.582031 C 27.949219 7.582031 27.847656 7.582031 27.75 7.582031 C 27.351562 7.382812 27.152344 6.785156 27.351562 6.390625 C 27.648438 5.691406 28.046875 4.996094 28.542969 4.5 L 28.84375 4.199219 C 28.34375 4.199219 27.847656 4.199219 27.351562 4.199219 C 25.363281 4.199219 23.472656 4.597656 21.683594 5.394531 C 19.992188 6.089844 18.5 7.085938 17.304688 8.378906 C 16.90625 8.777344 16.511719 9.371094 16.3125 9.871094 C 16.113281 10.367188 15.613281 10.566406 15.117188 10.367188 C 14.621094 10.167969 14.421875 9.570312 14.621094 9.171875 C 14.820312 8.675781 15.117188 8.179688 15.515625 7.78125 L 15.316406 7.78125 C 14.820312 7.582031 14.621094 7.085938 14.820312 6.585938 C 15.117188 5.792969 15.613281 5.195312 16.210938 4.597656 L 16.511719 4.199219 C 16.113281 4.199219 15.714844 4.199219 15.316406 4.199219 C 11.4375 4.199219 7.855469 5.59375 5.074219 8.277344 C 4.773438 8.578125 4.476562 8.976562 4.277344 9.371094 C 4.277344 9.671875 4.375 9.96875 4.476562 10.167969 C 5.371094 12.058594 7.261719 13.25 9.347656 13.25 Z M 9.347656 13.25 "/>
<path style=" stroke:none;fill-rule:nonzero;fill:rgb(25.098039%,18.039216%,12.941176%);fill-opacity:1;" d="M 52.414062 14.246094 C 52.414062 13.449219 52.015625 12.753906 51.519531 12.15625 C 51.816406 11.757812 52.015625 11.363281 52.117188 10.964844 C 53.011719 8.777344 52.414062 6.191406 50.625 4.597656 C 47.640625 1.714844 43.761719 0.222656 39.585938 0.222656 C 37.496094 0.222656 35.40625 0.621094 33.417969 1.414062 C 29.539062 -0.175781 25.261719 -0.175781 21.382812 1.21875 C 19.492188 0.621094 17.503906 0.222656 15.414062 0.222656 C 11.339844 0.121094 7.359375 1.714844 4.375 4.597656 C 2.585938 6.191406 1.988281 8.777344 2.882812 10.964844 C 3.082031 11.363281 3.28125 11.757812 3.480469 12.15625 C 2.882812 12.65625 2.585938 13.449219 2.585938 14.144531 C 1.09375 14.445312 0.0976562 15.738281 0.0976562 17.230469 C 0.0976562 18.621094 1.09375 19.816406 2.488281 20.113281 C 2.785156 23.792969 6.265625 26.679688 10.542969 26.679688 L 43.960938 26.679688 C 48.238281 26.679688 51.71875 23.792969 52.015625 20.113281 C 53.609375 20.015625 54.902344 18.621094 54.800781 16.929688 C 54.800781 15.636719 53.804688 14.542969 52.414062 14.246094 Z M 5.570312 5.691406 C 8.253906 3.207031 11.835938 1.8125 15.515625 1.8125 C 16.707031 1.8125 17.902344 2.011719 19.097656 2.210938 C 18.101562 2.808594 17.105469 3.503906 16.3125 4.300781 C 15.714844 4.898438 15.21875 5.492188 14.917969 6.289062 C 14.71875 6.6875 14.820312 7.183594 15.21875 7.484375 C 15.613281 7.683594 16.113281 7.582031 16.410156 7.183594 C 16.410156 7.085938 16.511719 7.085938 16.511719 6.984375 C 16.707031 6.488281 17.105469 5.992188 17.503906 5.59375 C 18.699219 4.398438 20.191406 3.503906 21.78125 2.808594 C 24.863281 1.613281 28.144531 1.414062 31.328125 2.3125 C 30.335938 2.90625 29.4375 3.503906 28.644531 4.300781 C 28.144531 4.796875 27.648438 5.492188 27.449219 6.191406 C 27.351562 6.6875 27.75 7.183594 28.246094 7.183594 C 28.542969 7.183594 28.84375 7.085938 29.042969 6.886719 C 29.242188 6.390625 29.539062 5.992188 29.835938 5.691406 C 31.03125 4.597656 32.421875 3.605469 33.914062 3.007812 C 35.804688 2.210938 37.695312 1.8125 39.78125 1.8125 C 43.464844 1.714844 47.042969 3.105469 49.730469 5.691406 C 51.023438 6.785156 51.417969 8.578125 50.722656 10.167969 C 49.925781 12.058594 48.039062 13.25 45.949219 13.152344 L 9.347656 13.152344 C 7.261719 13.25 5.46875 12.058594 4.574219 10.167969 C 3.878906 8.675781 4.375 6.886719 5.570312 5.691406 Z M 50.625 14.046875 C 50.625 15.242188 47.738281 16.832031 43.960938 16.832031 C 40.777344 16.832031 38.589844 15.9375 37.695312 15.042969 L 45.75 15.042969 C 47.441406 15.042969 49.03125 14.445312 50.324219 13.449219 C 50.523438 13.550781 50.625 13.847656 50.625 14.046875 Z M 33.816406 15.042969 C 32.921875 15.9375 30.730469 16.832031 27.550781 16.832031 C 24.367188 16.832031 22.179688 15.9375 21.285156 15.042969 Z M 17.40625 15.042969 C 16.511719 15.9375 14.320312 16.832031 11.140625 16.832031 C 7.261719 16.832031 4.476562 15.4375 4.476562 14.046875 C 4.476562 13.75 4.574219 13.449219 4.773438 13.25 C 6.066406 14.246094 7.660156 14.84375 9.347656 14.84375 Z M 43.960938 25.1875 L 10.640625 25.1875 C 7.660156 25.386719 4.972656 23.394531 4.277344 20.511719 C 4.773438 20.710938 5.269531 20.910156 5.769531 21.207031 C 6.761719 22.003906 7.957031 22.402344 9.25 22.402344 C 10.542969 22.402344 11.734375 22.003906 12.730469 21.207031 C 13.425781 20.609375 14.421875 20.3125 15.316406 20.3125 C 16.210938 20.3125 17.207031 20.609375 17.902344 21.207031 C 19.992188 22.699219 22.875 22.699219 24.964844 21.207031 C 26.554688 20.015625 28.644531 20.015625 30.136719 21.207031 C 32.222656 22.699219 35.109375 22.699219 37.195312 21.207031 C 38.789062 20.015625 40.878906 20.015625 42.367188 21.207031 C 44.457031 22.699219 47.339844 22.699219 49.429688 21.207031 C 49.730469 21.007812 50.027344 20.808594 50.324219 20.710938 C 49.730469 23.195312 47.144531 25.085938 43.960938 25.085938 Z M 51.917969 18.722656 L 51.617188 18.722656 C 50.523438 18.921875 49.429688 19.316406 48.535156 19.914062 C 47.839844 20.511719 46.84375 20.808594 45.949219 20.808594 C 44.953125 20.808594 44.058594 20.511719 43.363281 19.914062 C 41.273438 18.421875 38.390625 18.421875 36.300781 19.914062 C 34.710938 21.109375 32.621094 21.109375 31.128906 19.914062 C 29.042969 18.421875 26.15625 18.421875 24.070312 19.914062 C 22.476562 21.109375 20.390625 21.109375 18.898438 19.914062 C 17.902344 19.121094 16.707031 18.722656 15.414062 18.722656 C 14.121094 18.722656 12.929688 19.121094 11.933594 19.914062 C 10.441406 21.207031 8.253906 21.109375 6.761719 19.816406 C 5.769531 19.21875 4.773438 18.921875 3.679688 18.722656 C 2.882812 18.523438 1.988281 18.222656 1.988281 17.128906 C 1.988281 16.433594 2.585938 15.835938 3.382812 15.835938 C 3.480469 16.035156 3.582031 16.234375 3.78125 16.335938 C 5.570312 18.023438 8.054688 18.921875 10.441406 18.722656 C 11.238281 18.722656 12.035156 18.621094 12.828125 18.523438 C 14.320312 18.421875 15.714844 18.125 17.007812 17.527344 C 18.101562 17.128906 18.996094 16.335938 19.492188 15.339844 C 19.992188 16.335938 20.886719 17.128906 21.980469 17.527344 C 23.273438 18.125 24.566406 18.421875 25.957031 18.523438 L 29.4375 18.523438 C 30.832031 18.421875 32.125 18.023438 33.417969 17.527344 C 34.511719 17.128906 35.308594 16.335938 35.902344 15.339844 C 36.402344 16.335938 37.195312 17.03125 38.191406 17.429688 L 38.292969 17.429688 C 39.683594 18.125 41.273438 18.523438 42.867188 18.523438 C 47.144531 18.921875 50.625 17.429688 51.816406 16.234375 C 51.917969 16.035156 52.117188 15.9375 52.214844 15.738281 C 53.011719 15.738281 53.609375 16.433594 53.609375 17.230469 C 53.609375 18.125 52.910156 18.421875 52.214844 18.621094 Z M 51.917969 18.722656 "/>
</g>
</svg>
