<svg xmlns="http://www.w3.org/2000/svg" viewBox="0 0 40.66 35.44"><defs><style>.cls-1{fill:#ee8826;}.cls-2{fill:#402e21;}</style></defs><title>Улитка</title><g id="Слой_2" data-name="Слой 2"><g id="Layer_2" data-name="Layer 2"><g id="Улитка"><path class="cls-1" d="M34.19,25.61l-.06,0c-2.23.92-3.76,0-5-.77-1-.62-1.67-1-2.57-.77l-.09,0c-.49.08-.68.6-1,2.15-.41,2.05-1,5.16-5.17,5.34h-.09c-4-.17-4.68-3.25-5.12-5.29-.3-1.47-.5-2.12-1-2.2l-.09,0c-.89-.22-1.56.15-2.56.77-1.23.75-2.76,1.69-5,.77l-.06,0c-.17-.09-.34-.18-.49-.28h0c1.87,4.56,7.85,8,15,8.15,8.53-.22,15.41-5,15.67-10.85a4.55,4.55,0,0,1-2.4,3Z"/><path id="улитка-2" data-name="улитка" class="cls-2" d="M40.4,13.39c-.57-2-2.11-4.42-4.58-7.17C32,2.08,27.23,0,20.29,0c-6.36,0-12,2.18-15.82,6.18C-1.76,12.72-.12,16.67,1.37,18.1a4.81,4.81,0,0,0,.67.52v3.67C2,25.87,4,29.21,7.51,31.7a22.29,22.29,0,0,0,12.78,3.74A22.24,22.24,0,0,0,33.07,31.7c3.53-2.49,5.48-5.83,5.48-9.41V18.68h0a4,4,0,0,0,1.31-1.1,4.54,4.54,0,0,0,.53-4.19ZM6.4,25.61l.06,0c2.23.92,3.76,0,5-.77,1-.62,1.67-1,2.56-.77l.09,0c.53.08.73.73,1,2.2.44,2,1.09,5.12,5.12,5.29h.09c4.15-.18,4.76-3.29,5.17-5.34.3-1.55.49-2.07,1-2.15l.09,0c.9-.22,1.56.15,2.57.77,1.22.75,2.75,1.69,5,.77l.06,0a4.55,4.55,0,0,0,2.4-3c-.27,6-7.47,10.86-16.3,10.86S4.4,28.74,4,22.8A4.46,4.46,0,0,0,6.4,25.61Zm32.21-9.82a2,2,0,0,1-1.37,1.33c-1.71.52-2,2.2-2.23,3.55-.27,1.59-.51,2.6-1.66,3.17s-2,.11-3.18-.63a5,5,0,0,0-4-1c-1.89.32-2.26,2.19-2.56,3.69-.44,2.25-.84,3.64-3.3,3.77-2.36-.12-2.77-1.51-3.24-3.75-.32-1.51-.72-3.39-2.6-3.71a5,5,0,0,0-4,1c-1.2.74-1.95,1.13-3.18.63s-1.41-1.53-1.67-3c-.22-1.27-.51-2.84-2.08-3.67a2.34,2.34,0,0,1-1.4-1.62c-.2-1.07,0-3.51,4.14-8.06h0C9.19,4.07,14.57,2,20.29,2c6.34,0,11.31,2,14,5.49l0,0,0,0c.28.31,3.31,4.53.66,7.16-2,2-6.39,3.49-11.73,3.85-4.87.33-9.68-.34-11.94-1.66s-3.66-3.14-3.66-5,1.3-3.6,3.66-5a16.48,16.48,0,0,1,15,0c1.39.82,2.16,1.84,2.16,2.89s-.77,2.07-2.16,2.88a10.31,10.31,0,0,1-9.25,0c-.77-.45-1.21-1-1.21-1.54A2,2,0,0,1,17.1,9.58c1.47-.86,4.12-1.07,5.47-.06a.88.88,0,0,1,.42.7.53.53,0,0,1-.33.38c-.46.23-1.75.36-2.09-.29a1,1,0,0,0-1.74.9c.93,1.78,3.37,1.8,4.7,1.14a2.41,2.41,0,0,0,1.4-2A2.75,2.75,0,0,0,23.74,8c-2.1-1.56-5.59-1.25-7.63-.06a3.83,3.83,0,0,0-2.18,3.23,3.84,3.84,0,0,0,2.18,3.23,12.15,12.15,0,0,0,11.22,0c2-1.18,3.14-2.8,3.14-4.57s-1.12-3.4-3.14-4.57a17.13,17.13,0,0,0-8.49-2.07,17.09,17.09,0,0,0-8.48,2.07c-3,1.73-4.63,4.1-4.63,6.66s1.64,4.93,4.63,6.67c2.18,1.27,6.11,2,10.45,2,.86,0,1.73,0,2.6-.09,5.9-.4,10.63-2,13-4.44a6.19,6.19,0,0,0,1.72-3.15,4.46,4.46,0,0,1,.48,2.92Z"/></g></g></g></svg>