<svg xmlns="http://www.w3.org/2000/svg" viewBox="0 0 32.85 41.68"><defs><style>.cls-1{fill:#ee8826;}.cls-2{fill:#402e21;}</style></defs><title>Напитки</title><g id="Слой_2" data-name="Слой 2"><g id="Layer_2" data-name="Layer 2"><path class="cls-1" d="M20.6,40.9H12.35c-1.84,0-5.68-.47-6.06-1.39,0,0-2.7-16.56-2.27-16.9,2.71-2.17,6.89-4.32,14.14,3.24,8.41,8.77,10.06,1.48,10.06,1.48L26,39.85C25.65,40.8,22.48,40.9,20.6,40.9Z"/><path class="cls-1" d="M28.72,5a.69.69,0,0,0-.67-.7L4.77,2.58a.68.68,0,0,0-.6.7V5.66H28.72Z"/><path class="cls-2" d="M30.18,4.55h-.37V3.92a2.39,2.39,0,0,0-2.33-2.4h0L25.8,1.4,19.68,1,5.44,0A2.41,2.41,0,0,0,3,2.4V4.55H2.66A2.67,2.67,0,0,0,0,7.21v3.4a2.67,2.67,0,0,0,2.66,2.66h.09l2.57,26a2.41,2.41,0,0,0,2.41,2.4H25.16a2.41,2.41,0,0,0,.93-.19,2.34,2.34,0,0,0,1.47-2.13l2.58-26.09h0a2.67,2.67,0,0,0,2.67-2.66V7.21A2.67,2.67,0,0,0,30.18,4.55ZM4.81,2.4a.63.63,0,0,1,.57-.63l22,1.52a.63.63,0,0,1,.63.63v.63H4.81Zm23.3,13.27L25.79,39.28a.63.63,0,0,1-.63.62H7.73a.47.47,0,0,1-.24,0,.69.69,0,0,1-.39-.66l0-.12-.25-2.62L4.9,16.86l-.37-3.59H28.35l-.24,2.4Zm3-5.06a.89.89,0,0,1-.89.89H2.66a.89.89,0,0,1-.88-.89V7.21a.89.89,0,0,1,.88-.89H30.18a.89.89,0,0,1,.89.89Z"/><path class="cls-2" d="M16.87,31.92a.93.93,0,0,1-.69-.31c-.49-.53-1.25-1.2-2.06-1.91-2.68-2.36-6-5.31-5.74-8.22a4.71,4.71,0,0,1,3.21-4.36,5.54,5.54,0,0,1,5.18,1.11A5.37,5.37,0,0,1,21.82,17a4.74,4.74,0,0,1,3.42,4.38c.31,2.89-3,5.88-5.63,8.29-.79.72-1.54,1.39-2,1.93a1,1,0,0,1-.7.32ZM13.15,18.78a3.28,3.28,0,0,0-1,.15,2.82,2.82,0,0,0-1.9,2.7c-.18,2,2.88,4.68,5.11,6.65.53.47,1,.92,1.48,1.34.44-.43.95-.89,1.47-1.36,2.21-2,5.23-4.74,5-6.7a2.89,2.89,0,0,0-2.05-2.73,3.52,3.52,0,0,0-3.74,1.34,1,1,0,0,1-.74.38.94.94,0,0,1-.75-.34A3.84,3.84,0,0,0,13.15,18.78Z"/></g></g></svg>