<?xml version="1.0" encoding="UTF-8"?>
<svg xmlns="http://www.w3.org/2000/svg" xmlns:xlink="http://www.w3.org/1999/xlink" width="42pt" height="39pt" viewBox="0 0 42 39" version="1.1">
<g id="surface1">
<path style=" stroke:none;fill-rule:nonzero;fill:rgb(93.333333%,53.333333%,14.901961%);fill-opacity:1;" d="M 13.867188 30.722656 C 13.867188 30.722656 10.574219 28.230469 10.476562 25.035156 C 10.375 21.84375 13.367188 19.25 13.367188 19.25 C 13.367188 19.25 16.761719 21.746094 16.859375 24.9375 C 16.960938 28.128906 13.867188 30.722656 13.867188 30.722656 Z M 13.867188 30.722656 "/>
<path style=" stroke:none;fill-rule:nonzero;fill:rgb(93.333333%,53.333333%,14.901961%);fill-opacity:1;" d="M 31.125 26.234375 C 31.125 26.234375 29.230469 28.925781 26.738281 29.128906 C 24.242188 29.328125 22.046875 26.933594 21.949219 26.933594 C 21.949219 26.933594 23.84375 24.140625 26.335938 24.039062 C 28.832031 23.9375 31.125 26.234375 31.125 26.234375 Z M 31.125 26.234375 "/>
<path style=" stroke:none;fill-rule:nonzero;fill:rgb(93.333333%,53.333333%,14.901961%);fill-opacity:1;" d="M 24.742188 33.816406 C 24.742188 33.816406 21.75 36.210938 18.753906 35.613281 C 15.761719 35.011719 14.066406 31.519531 13.964844 31.519531 C 13.964844 31.519531 17.058594 28.925781 19.953125 29.625 C 22.84375 30.324219 24.742188 33.816406 24.742188 33.816406 Z M 24.742188 33.816406 "/>
<path style=" stroke:none;fill-rule:nonzero;fill:rgb(93.333333%,53.333333%,14.901961%);fill-opacity:1;" d="M 30.628906 11.167969 C 30.628906 11.167969 30.925781 7.679688 33.121094 6.082031 C 35.316406 4.484375 38.707031 5.484375 38.707031 5.484375 C 38.707031 5.484375 38.507812 9.074219 36.3125 10.671875 C 34.019531 12.167969 30.628906 11.167969 30.628906 11.167969 Z M 30.628906 11.167969 "/>
<path style=" stroke:none;fill-rule:nonzero;fill:rgb(25.098039%,18.039216%,12.941176%);fill-opacity:1;" d="M 41.699219 5.285156 C 41.601562 5.085938 41.402344 4.984375 41.203125 4.984375 C 40.804688 4.886719 36.3125 3.6875 33.121094 5.980469 C 32.921875 6.082031 32.722656 6.28125 32.523438 6.480469 C 32.722656 4.984375 32.820312 3.386719 32.820312 1.792969 C 32.722656 1.292969 32.222656 0.992188 31.722656 1.09375 C 31.425781 1.195312 31.125 1.394531 31.027344 1.792969 C 31.027344 2.589844 31.027344 3.488281 30.925781 4.285156 C 29.230469 1.59375 25.738281 0.394531 25.140625 0.195312 C 24.742188 0.0976562 24.242188 0.195312 24.042969 0.59375 C 23.84375 0.894531 21.949219 4.585938 22.84375 7.878906 L 22.644531 7.878906 C 22.445312 7.878906 22.246094 8.078125 22.148438 8.175781 C 21.949219 8.476562 19.554688 11.570312 19.753906 14.960938 C 19.253906 14.5625 18.65625 14.164062 18.058594 13.863281 C 17.859375 13.761719 17.65625 13.761719 17.457031 13.761719 C 17.257812 13.761719 17.058594 13.964844 16.960938 14.0625 C 15.664062 15.757812 14.863281 17.753906 14.566406 19.847656 C 14.167969 19.449219 13.765625 19.050781 13.269531 18.652344 C 13.070312 18.550781 12.871094 18.453125 12.667969 18.453125 C 12.46875 18.453125 12.269531 18.550781 12.070312 18.652344 C 11.773438 18.851562 8.378906 22.144531 8.378906 25.933594 C 8.480469 28.828125 10.375 31.023438 11.574219 32.21875 C 8.082031 33.914062 4.289062 35.011719 0.398438 35.414062 C -0.101562 35.511719 -0.398438 36.011719 -0.199219 36.507812 C -0.101562 36.808594 0.199219 37.007812 0.5 37.109375 L 0.597656 37.109375 C 4.789062 36.609375 8.878906 35.414062 12.667969 33.617188 C 13.46875 34.914062 15.5625 37.804688 18.65625 38.503906 C 19.15625 38.605469 19.652344 38.703125 20.152344 38.703125 C 22.546875 38.503906 24.742188 37.707031 26.636719 36.210938 C 26.738281 36.210938 26.835938 36.109375 26.835938 36.011719 C 27.035156 35.710938 27.035156 35.414062 26.9375 35.113281 C 26.039062 33.316406 24.742188 31.722656 23.046875 30.523438 C 24.242188 31.121094 25.4375 31.421875 26.738281 31.519531 L 27.136719 31.519531 C 30.828125 31.320312 33.519531 27.929688 34.019531 27.230469 C 34.117188 27.132812 34.117188 27.03125 34.21875 27.03125 C 34.316406 26.734375 34.316406 26.433594 34.019531 26.132812 C 33.019531 25.136719 31.925781 24.339844 30.628906 23.640625 C 31.722656 23.640625 32.820312 23.339844 33.820312 22.84375 C 37.113281 21.144531 38.210938 16.957031 38.410156 16.058594 C 38.410156 15.957031 38.410156 15.859375 38.410156 15.757812 C 38.410156 15.460938 38.210938 15.160156 37.910156 14.960938 C 37.113281 14.660156 36.214844 14.363281 35.316406 14.164062 C 36.214844 13.964844 37.113281 13.664062 37.910156 13.066406 C 41.003906 10.96875 41.5 6.28125 41.5 5.582031 C 41.800781 5.683594 41.800781 5.484375 41.699219 5.285156 Z M 31.324219 14.363281 C 30.925781 14.460938 30.628906 14.5625 30.328125 14.761719 L 30.527344 14.261719 C 30.726562 14.261719 31.027344 14.363281 31.324219 14.363281 Z M 25.339844 1.992188 C 26.535156 2.492188 29.128906 3.789062 30.027344 5.980469 C 30.925781 8.175781 29.929688 10.871094 29.332031 12.066406 C 28.433594 11.769531 27.632812 11.269531 26.9375 10.769531 C 26.535156 10.371094 26.136719 9.972656 25.640625 9.574219 C 25.238281 9.074219 24.941406 8.574219 24.742188 8.078125 C 23.941406 5.78125 24.839844 3.1875 25.339844 1.992188 Z M 28.832031 13.664062 L 28.730469 14.0625 C 28.730469 13.964844 28.632812 13.761719 28.632812 13.664062 Z M 23.144531 9.773438 C 23.644531 10.074219 24.042969 10.371094 24.441406 10.671875 C 24.839844 11.070312 25.339844 11.46875 25.738281 11.867188 C 26.4375 12.566406 26.9375 13.464844 27.136719 14.460938 C 27.632812 16.757812 26.238281 19.25 25.4375 20.347656 C 24.34375 19.648438 22.046875 17.953125 21.546875 15.558594 C 21.050781 13.164062 22.445312 10.96875 23.144531 9.773438 Z M 23.742188 21.246094 L 24.542969 21.84375 C 24.242188 22.242188 23.941406 22.742188 23.542969 23.140625 C 23.742188 22.441406 23.742188 21.84375 23.742188 21.246094 Z M 17.957031 15.859375 C 19.15625 16.558594 21.449219 18.253906 21.949219 20.546875 C 22.445312 22.84375 21.050781 25.335938 20.25 26.433594 C 19.15625 25.734375 16.859375 24.039062 16.359375 21.644531 C 15.960938 19.25 17.257812 16.957031 17.957031 15.859375 Z M 10.277344 26.132812 C 10.175781 23.738281 11.972656 21.644531 12.871094 20.648438 C 13.867188 21.546875 15.863281 23.539062 15.960938 25.933594 C 16.0625 28.328125 14.167969 30.425781 13.269531 31.421875 C 12.171875 30.523438 10.375 28.527344 10.277344 26.132812 Z M 17.558594 26.535156 C 18.058594 26.933594 18.554688 27.332031 19.054688 27.628906 C 18.257812 28.328125 17.457031 28.925781 16.660156 29.527344 C 17.160156 28.628906 17.457031 27.628906 17.558594 26.535156 Z M 25.339844 35.414062 C 24.242188 36.109375 21.648438 37.507812 19.253906 37.007812 C 16.859375 36.410156 15.164062 34.214844 14.464844 33.019531 C 15.5625 32.320312 18.15625 30.722656 20.550781 31.320312 C 22.84375 31.921875 24.640625 34.316406 25.339844 35.414062 Z M 20.851562 29.726562 C 20.453125 29.625 19.953125 29.527344 19.554688 29.527344 C 19.851562 29.328125 20.152344 29.027344 20.453125 28.726562 C 21.050781 29.226562 21.648438 29.726562 22.347656 30.125 C 21.847656 29.925781 21.347656 29.824219 20.851562 29.726562 Z M 27.335938 30.023438 C 24.941406 30.125 22.746094 28.527344 21.75 27.628906 C 22.644531 26.632812 24.640625 24.539062 26.9375 24.4375 C 29.230469 24.339844 31.523438 26.035156 32.523438 26.933594 C 31.722656 27.929688 29.730469 29.925781 27.335938 30.023438 Z M 36.914062 16.457031 C 36.511719 17.65625 35.515625 20.347656 33.421875 21.445312 C 31.226562 22.542969 28.632812 21.945312 27.335938 21.546875 C 27.734375 20.25 28.632812 17.554688 30.828125 16.457031 C 32.921875 15.359375 35.613281 16.058594 36.914062 16.457031 Z M 37.3125 11.867188 C 35.316406 13.164062 32.523438 12.867188 31.226562 12.566406 C 31.425781 11.269531 32.125 8.574219 34.117188 7.179688 C 36.113281 5.78125 38.90625 6.082031 40.105469 6.28125 C 39.804688 7.777344 39.207031 10.570312 37.3125 11.867188 Z M 37.3125 11.867188 "/>
</g>
</svg>
