<?xml version="1.0" encoding="UTF-8"?>
<svg xmlns="http://www.w3.org/2000/svg" xmlns:xlink="http://www.w3.org/1999/xlink" width="38pt" height="36pt" viewBox="0 0 38 36" version="1.1">
<g id="surface1">
<path style=" stroke:none;fill-rule:nonzero;fill:rgb(93.333333%,53.333333%,14.901961%);fill-opacity:1;" d="M 20.5 20.351562 L 32.699219 31.148438 C 32.699219 31.148438 32.699219 31.550781 32.699219 31.550781 C 33.5 32.351562 33.398438 33.648438 32.601562 34.449219 C 32.199219 34.851562 31.699219 35.050781 31.101562 35.050781 C 30.601562 35.050781 30.101562 34.75 29.699219 34.351562 L 29.601562 34.25 C 29.601562 34.25 19.199219 23.148438 19 22.75 C 18.601562 22.148438 20.199219 20.148438 20.5 20.351562 Z M 20.5 20.351562 "/>
<path style=" stroke:none;fill-rule:nonzero;fill:rgb(93.333333%,53.333333%,14.901961%);fill-opacity:1;" d="M 24.199219 16.25 L 7.398438 35.050781 C 7.398438 35.148438 7.300781 35.148438 7.300781 35.148438 C 6.5 35.949219 5.199219 35.949219 4.398438 35.148438 C 3.601562 34.351562 3.601562 33.050781 4.398438 32.25 L 4.5 32.148438 C 4.5 32.148438 22.601562 15.949219 23 15.75 C 23.699219 15.449219 24.5 15.949219 24.199219 16.25 Z M 24.199219 16.25 "/>
<path style=" stroke:none;fill-rule:nonzero;fill:rgb(100%,100%,100%);fill-opacity:1;" d="M 31 32.648438 C 31 32.949219 30.699219 33.25 30.398438 33.25 C 30.101562 33.25 29.800781 33.050781 29.800781 32.75 C 29.800781 32.449219 30 32.148438 30.300781 32.148438 C 30.300781 32.148438 30.398438 32.148438 30.398438 32.148438 C 30.699219 32.050781 31 32.351562 31 32.648438 Z M 31 32.648438 "/>
<path style=" stroke:none;fill-rule:nonzero;fill:rgb(25.098039%,18.039216%,12.941176%);fill-opacity:1;" d="M 29 16.148438 L 37.699219 7.449219 C 38 7.148438 38.101562 6.648438 37.800781 6.351562 C 37.5 6.050781 37 5.949219 36.699219 6.25 C 36.699219 6.25 36.601562 6.351562 36.601562 6.351562 L 30.601562 12.351562 C 30.101562 12.25 29.699219 12.148438 29.199219 11.949219 L 35.800781 5.351562 C 36.101562 5.050781 36.101562 4.550781 35.699219 4.25 C 35.398438 3.949219 35 3.949219 34.699219 4.25 L 27.800781 11.050781 C 27.5 10.75 27.199219 10.449219 26.898438 10.148438 L 33.800781 3.25 C 34.101562 2.949219 34.101562 2.449219 33.800781 2.148438 C 33.5 1.851562 33 1.851562 32.699219 2.148438 L 26.101562 8.648438 C 25.898438 8.25 25.800781 7.851562 25.800781 7.351562 L 31.699219 1.449219 C 32 1.050781 31.898438 0.550781 31.601562 0.25 C 31.300781 -0.0507812 30.898438 -0.0507812 30.601562 0.25 L 21.898438 8.949219 C 20.601562 10.351562 20.101562 12.25 20.699219 14.148438 L 18.199219 16.351562 L 15.800781 14.25 C 17.101562 11.550781 16.601562 8.449219 14.5 6.351562 C 12.601562 4.351562 10.199219 2.949219 7.601562 2.148438 C 5 1.449219 2.800781 1.851562 1.5 3.25 C 0.199219 4.648438 -0.300781 6.75 0.300781 9.25 C 1.101562 11.851562 2.5 14.25 4.5 16.148438 C 6.601562 18.25 9.800781 18.75 12.5 17.449219 C 12.800781 17.75 13.800781 18.851562 14.398438 19.550781 L 10.898438 22.851562 L 3.398438 29.550781 L 3.199219 29.75 C 1.898438 31.25 2 33.550781 3.5 34.949219 C 4.898438 36.148438 7 36.148438 8.398438 34.949219 L 8.601562 34.75 L 18.300781 23.851562 L 27.898438 34.75 L 28.101562 34.949219 C 29.398438 36.449219 31.699219 36.550781 33.300781 35.25 C 34.800781 33.949219 34.898438 31.648438 33.601562 30.050781 C 33.5 29.949219 33.398438 29.851562 33.300781 29.75 L 33.101562 29.550781 L 22 19.648438 L 24 17.351562 C 25.601562 17.949219 27.601562 17.449219 29 16.148438 Z M 32 30.851562 C 32.800781 31.648438 32.800781 32.949219 32 33.75 C 31.199219 34.550781 29.898438 34.550781 29.101562 33.75 L 29 33.648438 L 19.199219 22.648438 L 20.699219 20.949219 L 31.898438 30.851562 Z M 29.101562 13.648438 L 27.800781 14.949219 C 26.800781 15.949219 25.199219 16.25 23.898438 15.648438 C 23.601562 15.449219 23.199219 15.550781 23 15.851562 L 7.199219 33.648438 L 7.101562 33.75 C 6.300781 34.550781 5 34.550781 4.199219 33.75 C 3.398438 32.949219 3.398438 31.648438 4.199219 30.851562 L 4.300781 30.75 L 22.101562 14.949219 C 22.398438 14.75 22.398438 14.351562 22.300781 14.050781 C 21.699219 12.75 21.898438 11.148438 23 10.148438 L 24.300781 8.851562 C 25 11.148438 26.800781 12.949219 29.101562 13.648438 Z M 14 13.949219 C 13.800781 14.25 13.898438 14.75 14.199219 14.949219 L 16.898438 17.351562 L 15.601562 18.449219 L 13.199219 15.75 C 13 15.550781 12.800781 15.449219 12.601562 15.449219 C 12.5 15.449219 12.300781 15.449219 12.199219 15.550781 C 10.101562 16.851562 7.398438 16.550781 5.601562 14.75 C 3.800781 13.050781 2.5 10.949219 1.800781 8.550781 C 1.398438 6.949219 1.601562 5.351562 2.601562 4.351562 C 3.601562 3.351562 5.199219 3.148438 7 3.648438 C 9.300781 4.351562 11.5 5.648438 13.199219 7.449219 C 14.898438 9.148438 15.300781 11.851562 14 13.949219 Z M 14 13.949219 "/>
<path style=" stroke:none;fill-rule:nonzero;fill:rgb(25.098039%,18.039216%,12.941176%);fill-opacity:1;" d="M 5.800781 33.851562 C 4.898438 33.851562 4.101562 33.148438 4 32.148438 C 3.898438 31.148438 4.699219 30.449219 5.699219 30.351562 C 6.601562 30.351562 7.398438 31.050781 7.5 32.050781 C 7.5 33.050781 6.699219 33.851562 5.800781 33.851562 Z M 5.800781 31.75 C 5.5 31.75 5.300781 31.949219 5.300781 32.25 C 5.300781 32.550781 5.5 32.75 5.800781 32.75 C 6.101562 32.75 6.300781 32.550781 6.300781 32.25 C 6.300781 31.949219 6.101562 31.75 5.800781 31.75 Z M 5.800781 31.75 "/>
<path style=" stroke:none;fill-rule:nonzero;fill:rgb(25.098039%,18.039216%,12.941176%);fill-opacity:1;" d="M 30.398438 33.851562 C 29.5 33.851562 28.699219 33.148438 28.601562 32.148438 C 28.601562 31.25 29.300781 30.449219 30.300781 30.351562 C 31.199219 30.351562 32 31.050781 32.101562 32.050781 C 32.101562 32.050781 32.101562 32.148438 32.101562 32.148438 C 32 33.148438 31.300781 33.851562 30.398438 33.851562 Z M 30.398438 31.75 C 30.101562 31.75 29.898438 31.949219 29.898438 32.25 C 29.898438 32.550781 30.101562 32.75 30.398438 32.75 C 30.699219 32.75 30.898438 32.550781 30.898438 32.25 C 30.800781 31.949219 30.601562 31.75 30.398438 31.75 Z M 30.398438 31.75 "/>
</g>
</svg>
