<?xml version="1.0" encoding="UTF-8"?>
<svg xmlns="http://www.w3.org/2000/svg" xmlns:xlink="http://www.w3.org/1999/xlink" width="30pt" height="38pt" viewBox="0 0 30 38" version="1.1">
<g id="surface1">
<path style=" stroke:none;fill-rule:nonzero;fill:rgb(93.333333%,53.333333%,14.901961%);fill-opacity:1;" d="M 18.839844 37.300781 L 11.359375 37.300781 C 9.664062 37.300781 6.171875 36.902344 5.875 36.003906 C 5.875 36.003906 3.378906 20.945312 3.78125 20.546875 C 6.273438 18.550781 10.0625 16.554688 16.644531 23.539062 C 24.324219 31.515625 25.820312 24.933594 25.820312 24.933594 L 23.828125 36.304688 C 23.527344 37.203125 20.636719 37.300781 18.839844 37.300781 Z M 18.839844 37.300781 "/>
<path style=" stroke:none;fill-rule:nonzero;fill:rgb(93.333333%,53.333333%,14.901961%);fill-opacity:1;" d="M 26.320312 4.589844 C 26.320312 4.289062 26.019531 3.988281 25.722656 3.988281 L 4.476562 2.394531 C 4.078125 2.394531 3.878906 2.691406 3.878906 2.992188 L 3.878906 5.1875 L 26.21875 5.1875 L 26.21875 4.589844 Z M 26.320312 4.589844 "/>
<path style=" stroke:none;fill-rule:nonzero;fill:rgb(25.098039%,18.039216%,12.941176%);fill-opacity:1;" d="M 27.617188 4.1875 L 27.316406 4.1875 L 27.316406 3.589844 C 27.316406 2.394531 26.421875 1.394531 25.222656 1.394531 L 23.726562 1.296875 L 18.042969 0.898438 L 5.074219 0 C 3.878906 0 2.882812 0.996094 2.78125 2.195312 L 2.78125 4.1875 L 2.484375 4.1875 C 1.1875 4.1875 0.0898438 5.285156 0.0898438 6.582031 L 0.0898438 9.675781 C 0.0898438 10.972656 1.1875 12.066406 2.484375 12.066406 L 2.582031 12.066406 L 4.875 35.804688 C 4.875 37.003906 5.875 38 7.070312 38 L 23.027344 38 C 23.328125 38 23.628906 37.898438 23.925781 37.800781 C 24.722656 37.5 25.222656 36.703125 25.222656 35.90625 L 27.617188 12.066406 C 28.914062 12.066406 30.011719 10.972656 30.011719 9.675781 L 30.011719 6.582031 C 30.011719 5.285156 28.914062 4.1875 27.617188 4.1875 Z M 4.476562 2.195312 C 4.476562 1.894531 4.675781 1.695312 4.976562 1.597656 L 25.023438 2.992188 C 25.324219 2.992188 25.621094 3.292969 25.621094 3.589844 L 25.621094 4.1875 L 4.476562 4.1875 Z M 25.722656 14.261719 L 23.628906 35.804688 C 23.628906 36.105469 23.328125 36.402344 23.027344 36.402344 L 7.171875 36.402344 C 7.070312 36.402344 7.070312 36.402344 6.972656 36.402344 C 6.773438 36.304688 6.570312 36.105469 6.570312 35.804688 L 6.570312 35.707031 L 6.371094 33.3125 L 4.578125 15.359375 L 4.277344 12.066406 L 26.019531 12.066406 Z M 28.414062 9.675781 C 28.414062 10.074219 28.015625 10.472656 27.617188 10.472656 L 2.484375 10.472656 C 2.085938 10.472656 1.683594 10.074219 1.683594 9.675781 L 1.683594 6.582031 C 1.683594 6.183594 2.085938 5.785156 2.484375 5.785156 L 27.617188 5.785156 C 28.015625 5.785156 28.414062 6.183594 28.414062 6.582031 Z M 28.414062 9.675781 "/>
<path style=" stroke:none;fill-rule:nonzero;fill:rgb(25.098039%,18.039216%,12.941176%);fill-opacity:1;" d="M 15.449219 29.125 C 15.25 29.125 14.949219 29.023438 14.851562 28.824219 C 14.453125 28.324219 13.753906 27.726562 12.957031 27.128906 C 10.460938 24.933594 7.46875 22.242188 7.769531 19.648438 C 7.769531 17.851562 8.964844 16.257812 10.660156 15.660156 C 12.257812 15.160156 14.050781 15.558594 15.347656 16.65625 C 16.546875 15.558594 18.339844 15.058594 19.9375 15.558594 C 21.730469 16.058594 23.027344 17.652344 23.027344 19.546875 C 23.328125 22.140625 20.335938 24.933594 17.941406 27.128906 C 17.34375 27.726562 16.644531 28.226562 16.148438 28.925781 C 15.949219 29.023438 15.746094 29.125 15.449219 29.125 Z M 12.058594 17.15625 C 11.757812 17.15625 11.460938 17.15625 11.160156 17.253906 C 10.0625 17.652344 9.363281 18.652344 9.464844 19.746094 C 9.265625 21.542969 12.058594 24.035156 14.152344 25.832031 C 14.652344 26.230469 15.050781 26.628906 15.546875 27.027344 C 15.949219 26.628906 16.445312 26.230469 16.84375 25.832031 C 18.839844 24.035156 21.632812 21.542969 21.433594 19.746094 C 21.433594 18.652344 20.734375 17.652344 19.636719 17.253906 C 18.339844 16.957031 17.042969 17.453125 16.246094 18.453125 C 16.046875 18.652344 15.847656 18.75 15.546875 18.75 C 15.25 18.75 15.050781 18.652344 14.851562 18.453125 C 14.050781 17.652344 13.15625 17.15625 12.058594 17.15625 Z M 12.058594 17.15625 "/>
</g>
</svg>
