<svg xmlns="http://www.w3.org/2000/svg" viewBox="0 0 44.18 41.85"><defs><style>.cls-1{fill:#ee8826;}.cls-2{fill:#fff;}.cls-3{fill:#402e21;}</style></defs><title>Меню</title><g id="Слой_2" data-name="Слой 2"><g id="Layer_2" data-name="Layer 2"><g id="Меню"><path class="cls-1" d="M23.85,23.74,38,36.36c.05,0,0,.43,0,.48a2.37,2.37,0,0,1-1.83,4,2.41,2.41,0,0,1-1.65-.76l-.14-.17S22.26,27,22,26.49C21.71,25.75,23.55,23.45,23.85,23.74Z"/><path class="cls-1" d="M28.23,18.86,8.61,40.8c0,.06-.09.1-.13.15a2.37,2.37,0,1,1-3.35-3.36l.16-.15s21.1-18.9,21.58-19.14C27.6,18,28.5,18.55,28.23,18.86Z"/><path class="cls-2" d="M36.1,38a.67.67,0,0,1-.69.65.66.66,0,1,1,0-1.31A.67.67,0,0,1,36.1,38Z"/><path class="cls-3" d="M33.77,18.77,43.91,8.62A.94.94,0,1,0,42.58,7.3l-7,7A6.4,6.4,0,0,1,34,13.81l7.73-7.73a.94.94,0,0,0-1.32-1.33l-8.06,8.06a7.09,7.09,0,0,1-1-1.08l8-8a1,1,0,0,0,0-1.33A.94.94,0,0,0,38,2.4L30.35,10A6.35,6.35,0,0,1,30,8.52L36.89,1.6A.94.94,0,0,0,35.56.28L25.42,10.42a5.94,5.94,0,0,0-1.43,6l-2.94,2.61-2.82-2.49A8.07,8.07,0,0,0,16.68,7.3a18.14,18.14,0,0,0-8-4.89C5.77,1.69,3.3,2.18,1.7,3.79S-.4,7.86.33,10.72a18.08,18.08,0,0,0,4.88,8,8.09,8.09,0,0,0,9.29,1.55c.3.35,1.46,1.64,2.21,2.5L12.58,26.6,3.82,34.37l-.25.23a4.25,4.25,0,0,0,6,6l.23-.25L21.05,27.7,32.28,40.36l.23.25a4.25,4.25,0,1,0,6-6l-.25-.23L25.33,22.88l2.38-2.69A6,6,0,0,0,33.77,18.77ZM37.2,35.93a2.37,2.37,0,1,1-3.36,3.35l-.15-.16L22.3,26.29l1.78-2,13,11.5h0Zm-3.27-20-1.49,1.5a4.06,4.06,0,0,1-4.59.79.94.94,0,0,0-1.1.22L8.39,39.14l-.14.14a2.36,2.36,0,0,1-3.35,0,2.35,2.35,0,0,1,0-3.35l.16-.15L25.73,17.43a.94.94,0,0,0,.23-1.1,4,4,0,0,1,.78-4.59l1.54-1.53A8.68,8.68,0,0,0,33.93,15.94Zm-17.68.36a.93.93,0,0,0,.18,1.19l3.2,2.85-1.46,1.29L15.4,18.52a.92.92,0,0,0-.7-.32,1,1,0,0,0-.49.14,6.2,6.2,0,0,1-7.67-.9,16.32,16.32,0,0,1-4.4-7.17c-.55-2.21-.24-4,.88-5.16s3-1.43,5.16-.88a16.33,16.33,0,0,1,7.17,4.39A6.22,6.22,0,0,1,16.25,16.3Z"/><path class="cls-3" d="M6.75,39.42a2,2,0,1,1,1.95-2A2,2,0,0,1,6.75,39.42Zm0-2.5a.54.54,0,0,0-.55.55.55.55,0,0,0,.55.55.55.55,0,0,0,.55-.55A.55.55,0,0,0,6.75,36.92Z"/><path class="cls-3" d="M35.35,39.44a2,2,0,1,1,1.95-1.95A2,2,0,0,1,35.35,39.44Zm0-2.5a.55.55,0,0,0-.55.55.55.55,0,0,0,1.1,0A.55.55,0,0,0,35.35,36.94Z"/></g></g></g></svg>