<svg xmlns="http://www.w3.org/2000/svg" viewBox="0 0 47.47 43.8"><defs><style>.cls-1{fill:#ee8826;}.cls-2{fill:#402e21;}</style></defs><title>Пшеница</title><g id="Слой_2" data-name="Слой 2"><g id="Layer_2" data-name="Layer 2"><g id="Пшеница"><path class="cls-1" d="M15.82,34.65h0s-3.7-2.8-3.79-6.38,3.31-6.58,3.32-6.59h0s3.85,2.8,4,6.37S15.82,34.65,15.82,34.65Z"/><path class="cls-1" d="M35.38,29.48h0s-2.15,3-5,3.17-5.31-2.49-5.32-2.5h0S27.2,27,30,26.86,35.38,29.48,35.38,29.48Z"/><path class="cls-1" d="M28.21,38.11h0s-3.45,2.74-6.76,2-5.29-4.6-5.3-4.61h0s3.49-2.89,6.8-2.14S28.21,38.11,28.21,38.11Z"/><path class="cls-1" d="M34.76,12.52h0s.29-4,2.82-5.72,6.29-.7,6.31-.69h0s-.22,4.08-2.75,5.82S34.76,12.52,34.76,12.52Z"/><path id="Пшеница-2" data-name="Пшеница" class="cls-2" d="M47.3,5.83a.93.93,0,0,0-.57-.38c-.44-.12-5.56-1.41-9.15,1.06a6.87,6.87,0,0,0-.66.52,41.58,41.58,0,0,0,.34-5.25,1,1,0,0,0-1.94,0c0,1,0,1.91-.1,2.86-2-3-5.9-4.37-6.58-4.58a1,1,0,0,0-1.19.47C27.25.9,25.14,5,26.09,8.79a1,1,0,0,0-.25,0,1,1,0,0,0-.56.37c-.26.34-2.89,3.86-2.69,7.7a16.3,16.3,0,0,0-1.94-1.2,1,1,0,0,0-.68-.1,1,1,0,0,0-.56.35,14,14,0,0,0-2.68,6.5,14.46,14.46,0,0,0-1.47-1.29,1,1,0,0,0-.64-.23,1,1,0,0,0-.64.26c-.34.31-4.22,3.9-4.1,8.26.08,3.17,2.27,5.77,3.65,7.1A38.27,38.27,0,0,1,.87,40.11,1,1,0,0,0,1,42.05h.1a40.23,40.23,0,0,0,13.65-4c.87,1.42,3.24,4.73,6.79,5.53a7.64,7.64,0,0,0,1.7.19A13.44,13.44,0,0,0,30.58,41a.83.83,0,0,0,.24-.22,1,1,0,0,0,.11-1,14.75,14.75,0,0,0-4.36-5.13,9.31,9.31,0,0,0,4.21,1.11h.4c4.15-.23,7.24-4.08,7.83-4.86a1,1,0,0,0,.17-.28,1,1,0,0,0-.18-1,14.77,14.77,0,0,0-3.74-2.89,8.62,8.62,0,0,0,3.55-.89c3.7-1.91,4.95-6.68,5.16-7.63a1.13,1.13,0,0,0,.05-.32,1,1,0,0,0-.58-.86,15.74,15.74,0,0,0-2.93-.89,8,8,0,0,0,2.9-1.21c3.51-2.41,4-7.62,4.06-8.42A1,1,0,0,0,47.3,5.83ZM35.62,16.17a7.13,7.13,0,0,0-1.15.4c.07-.19.15-.39.22-.59C34.94,16,35.26,16.11,35.62,16.17Zm-6.81-14c1.41.56,4.32,2,5.28,4.48s-.15,5.5-.77,6.86A13,13,0,0,1,30.61,12a13.77,13.77,0,0,0-1.44-1.35,6,6,0,0,1-1-1.65C27.21,6.49,28.23,3.53,28.81,2.18Zm4,13.24-.13.36c0-.16-.08-.31-.13-.47ZM26.36,11a13.42,13.42,0,0,1,1.48,1c.58.47,1,.9,1.44,1.34a6.26,6.26,0,0,1,1.57,2.91c.55,2.62-1,5.41-1.87,6.65-1.25-.79-3.79-2.68-4.35-5.31S25.56,12.27,26.36,11ZM27,23.94c.33.24.64.45.9.62-.35.48-.71,1-1.08,1.42A9.17,9.17,0,0,0,27,23.94ZM20.47,17.8c1.3.78,3.94,2.66,4.49,5.27s-1,5.41-1.87,6.65c-1.25-.79-3.79-2.67-4.34-5.31S19.68,19.05,20.47,17.8ZM11.81,29.38c-.07-2.67,1.88-5.11,2.89-6.19,1.14,1,3.4,3.32,3.47,6s-2,5.13-3,6.2C14,34.39,11.89,32.07,11.81,29.38Zm8.27.5a13.89,13.89,0,0,0,1.7,1.29c-.87.74-1.78,1.44-2.71,2.11A9,9,0,0,0,20.08,29.88Zm8.71,10.05c-1.26.83-4.13,2.41-6.85,1.79s-4.64-3.2-5.45-4.47c1.27-.87,4.18-2.55,6.87-1.94S28,38.62,28.79,39.93Zm-5-6.51a7.25,7.25,0,0,0-1.52-.18c.34-.28.69-.57,1-.87A15.25,15.25,0,0,0,25.36,34,6.79,6.79,0,0,0,23.79,33.42Zm7.28.4c-2.66.15-5.16-1.73-6.27-2.7,1-1.17,3.22-3.49,5.89-3.64s5.19,1.84,6.29,2.85C36,31.45,33.76,33.67,31.07,33.82ZM41.89,18.51c-.43,1.41-1.57,4.36-4,5.6s-5.43.53-6.84.09c.41-1.46,1.52-4.5,3.9-5.73S40.47,18,41.89,18.51Zm.42-5.18c-2.21,1.52-5.39,1.13-6.86.83.25-1.45,1-4.52,3.23-6.05s5.31-1.21,6.76-1C45.22,8.65,44.51,11.81,42.31,13.33Z"/></g></g></g></svg>