<svg xmlns="http://www.w3.org/2000/svg" viewBox="0 0 59.72 28.95"><defs><style>.cls-1{fill:#ee8826;}.cls-2{fill:#402e21;}</style></defs><title>Сендвичи</title><g id="Слой_2" data-name="Слой 2"><g id="Layer_2" data-name="Layer 2"><path class="cls-1" d="M53.25,25.23H5.82c-1.32,0-2.39-1.82-2.93-4.18a6.4,6.4,0,0,1,1.68.66,7.69,7.69,0,0,0,4,1,7.66,7.66,0,0,0,4.05-1,5.57,5.57,0,0,1,3-.79,5.57,5.57,0,0,1,3,.79,7.66,7.66,0,0,0,4,1,7.69,7.69,0,0,0,4.05-1,5.57,5.57,0,0,1,3-.79,5.51,5.51,0,0,1,3,.79,7.69,7.69,0,0,0,4.05,1,7.73,7.73,0,0,0,4.06-1,6.13,6.13,0,0,1,6,0,8.43,8.43,0,0,0,8.11,0,9.31,9.31,0,0,1,1.07-.49C55.46,23.5,54.84,25.23,53.25,25.23Z"/><path class="cls-1" d="M10,14.17H49.81A5.47,5.47,0,0,0,55,10.89a4.85,4.85,0,0,0,.25-1A5.31,5.31,0,0,0,54.4,8.8a15.41,15.41,0,0,0-11-4.5,15.72,15.72,0,0,0-6.5,1.39h0a15.18,15.18,0,0,0-4.47,3.1,5.1,5.1,0,0,0-.9,1.54,1,1,0,0,1-1.28.55,1.05,1.05,0,0,1-.51-1.35A7.8,7.8,0,0,1,30.52,8a.93.93,0,0,1-.33-.07,1,1,0,0,1-.51-1.25A6.37,6.37,0,0,1,31,4.59c.07-.07.16-.13.24-.2a14.7,14.7,0,0,0-1.63-.09A15.67,15.67,0,0,0,23.4,5.56h0A15.31,15.31,0,0,0,18.6,8.8a5.29,5.29,0,0,0-1.12,1.66,1,1,0,0,1-1.29.52,1.05,1.05,0,0,1-.5-1.35,7.2,7.2,0,0,1,1-1.59.58.58,0,0,1-.18,0A1,1,0,0,1,16,6.75,6.94,6.94,0,0,1,17.5,4.59l.28-.23c-.44,0-.89-.06-1.34-.06a15.38,15.38,0,0,0-11,4.5h0A5.46,5.46,0,0,0,4.55,10a4.41,4.41,0,0,0,.25.91A5.47,5.47,0,0,0,10,14.17Z"/><path class="cls-2" d="M57.05,15.31a.43.43,0,0,1,0-.05,3.25,3.25,0,0,0-1-2.24,6.33,6.33,0,0,0,.69-1.28,6.24,6.24,0,0,0-1.59-7A17.34,17.34,0,0,0,43.09,0a18.13,18.13,0,0,0-6.75,1.29,18.24,18.24,0,0,0-13.19-.11A18,18,0,0,0,16.71,0,17.37,17.37,0,0,0,4.61,4.73a6.22,6.22,0,0,0-1.58,7A7.5,7.5,0,0,0,3.71,13a3.28,3.28,0,0,0-1,2.21A3.32,3.32,0,0,0,0,18.54a3.27,3.27,0,0,0,2.59,3.2c.32,4,4.15,7.21,8.83,7.21H47.84c4.68,0,8.51-3.19,8.82-7.22a3.24,3.24,0,0,0,.39-6.42ZM5.93,6h0a15.51,15.51,0,0,1,10.78-4.2,16.06,16.06,0,0,1,3.92.48A16.8,16.8,0,0,0,17.5,4.59,6.94,6.94,0,0,0,16,6.75,1,1,0,0,0,16.46,8a1,1,0,0,0,1.26-.48A5.07,5.07,0,0,1,18.82,6a15,15,0,0,1,4.66-3h0a16.26,16.26,0,0,1,10.42-.59A16.42,16.42,0,0,0,31,4.59a6.37,6.37,0,0,0-1.32,2.07,1,1,0,0,0,1.76.75A4.67,4.67,0,0,1,32.31,6a15,15,0,0,1,4.38-2.89h0a16,16,0,0,1,6.37-1.3A15.47,15.47,0,0,1,53.86,6,4.39,4.39,0,0,1,55,10.89a5.47,5.47,0,0,1-5.19,3.28H10A5.47,5.47,0,0,1,4.8,10.89,4.38,4.38,0,0,1,5.93,6Zm49.22,9.15c0,1.39-3.13,3-7.32,3-3.47,0-5.9-1-6.86-2h8.84a7.74,7.74,0,0,0,5-1.77A1.3,1.3,0,0,1,55.15,15.12Zm-18.4,1c-1,1-3.39,2-6.85,2s-5.9-1-6.85-2Zm-17.93,0c-1,1-3.39,2-6.85,2-4.19,0-7.32-1.56-7.32-3A1.3,1.3,0,0,1,5,14.31a7.72,7.72,0,0,0,5,1.77Zm29,11.08H11.42c-3.54,0-6.46-2.21-7-5.07a5.17,5.17,0,0,1,1.59.8,6.16,6.16,0,0,0,3.83,1.26,6.17,6.17,0,0,0,3.84-1.26,4.4,4.4,0,0,1,2.84-.95,4.42,4.42,0,0,1,2.84.95,6.47,6.47,0,0,0,7.67,0,4.72,4.72,0,0,1,5.68,0,6.47,6.47,0,0,0,7.67,0,4.4,4.4,0,0,1,2.84-.95,4.45,4.45,0,0,1,2.85.95,6.47,6.47,0,0,0,7.67,0,8,8,0,0,1,1-.59C54.16,25.06,51.29,27.16,47.84,27.16Zm8.66-7.11-.31.07a9.77,9.77,0,0,0-3.42,1.28,4.45,4.45,0,0,1-2.85,1,4.4,4.4,0,0,1-2.84-1,6.47,6.47,0,0,0-7.67,0,4.74,4.74,0,0,1-5.69,0,6.45,6.45,0,0,0-7.66,0,4.74,4.74,0,0,1-5.69,0,6.13,6.13,0,0,0-3.83-1.26,6.11,6.11,0,0,0-3.83,1.26,4.45,4.45,0,0,1-2.85,1A4.44,4.44,0,0,1,7,21.4a10.17,10.17,0,0,0-3.35-1.24c-.91-.22-1.88-.59-1.88-1.7A1.49,1.49,0,0,1,3.25,17a3.28,3.28,0,0,0,.42.56A10,10,0,0,0,11,20.18,21.37,21.37,0,0,0,13.64,20a13,13,0,0,0,4.59-1.13,5.26,5.26,0,0,0,2.7-2.42,5.32,5.32,0,0,0,2.71,2.42A13.56,13.56,0,0,0,28,20h3.77a13.57,13.57,0,0,0,4.37-1.13,5.28,5.28,0,0,0,2.7-2.41,4.58,4.58,0,0,0,2.48,2.27l.09,0c1.16.54,1.86.87,5,1.18,4.61.45,8.47-1.2,9.75-2.52a2.9,2.9,0,0,0,.4-.54,1.6,1.6,0,0,1,1.5,1.64C58.08,19.44,57.26,19.84,56.5,20.05Z"/></g></g></svg>