<?xml version="1.0" encoding="UTF-8"?>
<svg xmlns="http://www.w3.org/2000/svg" xmlns:xlink="http://www.w3.org/1999/xlink" width="39pt" height="34pt" viewBox="0 0 39 34" version="1.1">
<g id="surface1">
<path style=" stroke:none;fill-rule:nonzero;fill:rgb(93.333333%,53.333333%,14.901961%);fill-opacity:1;" d="M 32.75 24.601562 C 30.550781 25.5 29.050781 24.601562 27.851562 23.898438 C 26.851562 23.300781 26.25 22.898438 25.351562 23.199219 L 25.25 23.199219 C 24.75 23.300781 24.550781 23.800781 24.25 25.300781 C 23.851562 27.300781 23.25 30.300781 19.351562 30.398438 L 19.25 30.398438 C 15.449219 30.199219 14.75 27.300781 14.351562 25.300781 C 14.050781 23.898438 13.851562 23.300781 13.351562 23.199219 L 13.25 23.199219 C 12.351562 23 11.75 23.300781 10.851562 23.898438 C 9.648438 24.601562 8.25 25.5 6.050781 24.601562 L 6.148438 24.601562 C 5.949219 24.5 5.851562 24.398438 5.648438 24.300781 C 7.449219 28.699219 13.148438 32 20.050781 32.101562 C 28.25 31.898438 34.851562 27.300781 35.050781 21.699219 C 34.75 23 33.851562 24.101562 32.75 24.601562 Z M 32.75 24.601562 "/>
<path style=" stroke:none;fill-rule:nonzero;fill:rgb(25.098039%,18.039216%,12.941176%);fill-opacity:1;" d="M 38.75 12.898438 C 38.25 11 36.75 8.699219 34.351562 6 C 30.75 2 26.148438 0 19.550781 0 C 13.351562 0 8.050781 2.101562 4.351562 5.898438 C -1.648438 12.199219 -0.0507812 16 1.351562 17.398438 C 1.550781 17.601562 1.75 17.800781 1.949219 17.898438 L 1.949219 21.398438 C 1.949219 24.800781 3.851562 28.101562 7.148438 30.398438 C 10.75 32.800781 15.050781 34 19.351562 33.898438 C 23.648438 34 27.949219 32.800781 31.550781 30.398438 C 34.949219 28 36.851562 24.800781 36.851562 21.398438 L 36.851562 18 C 37.351562 17.699219 37.75 17.398438 38.148438 16.898438 C 39.050781 15.699219 39.25 14.199219 38.75 12.898438 Z M 6.148438 24.601562 C 8.351562 25.5 9.75 24.601562 10.949219 23.898438 C 11.949219 23.300781 12.550781 22.898438 13.449219 23.199219 L 13.550781 23.199219 C 14.050781 23.300781 14.25 23.898438 14.550781 25.300781 C 14.949219 27.199219 15.550781 30.199219 19.449219 30.398438 L 19.550781 30.398438 C 23.550781 30.199219 24.148438 27.199219 24.449219 25.300781 C 24.75 23.800781 24.949219 23.300781 25.449219 23.199219 L 25.550781 23.199219 C 26.449219 23 27.050781 23.300781 28.050781 23.898438 C 29.25 24.601562 30.648438 25.5 32.851562 24.601562 L 32.949219 24.601562 C 34.050781 24 34.949219 23 35.25 21.699219 C 35.050781 27.398438 28.148438 32.101562 19.648438 32.101562 C 11.148438 32.101562 4.25 27.601562 3.851562 21.898438 C 4.25 23.101562 5.050781 24.101562 6.148438 24.601562 Z M 37.050781 15.199219 C 36.851562 15.800781 36.351562 16.300781 35.75 16.5 C 34.148438 17 33.851562 18.601562 33.648438 19.898438 C 33.351562 21.398438 33.148438 22.398438 32.050781 22.898438 C 30.949219 23.398438 30.148438 23 29.050781 22.300781 C 27.949219 21.398438 26.550781 21.101562 25.25 21.300781 C 23.449219 21.601562 23.050781 23.398438 22.75 24.800781 C 22.351562 27 21.949219 28.300781 19.550781 28.398438 C 17.25 28.300781 16.949219 27 16.449219 24.800781 C 16.148438 23.300781 15.75 21.5 13.949219 21.300781 C 12.550781 21.101562 11.25 21.398438 10.148438 22.300781 C 8.949219 23 8.25 23.398438 7.148438 22.898438 C 5.949219 22.398438 5.75 21.398438 5.550781 20 C 5.351562 18.800781 5.050781 17.300781 3.550781 16.5 C 2.851562 16.199219 2.351562 15.601562 2.25 14.898438 C 2.050781 13.898438 2.25 11.5 6.25 7.199219 C 8.851562 3.898438 14.050781 1.898438 19.449219 1.898438 C 25.550781 1.898438 30.25 3.800781 32.851562 7.199219 C 33.148438 7.5 36.050781 11.601562 33.449219 14.101562 C 31.550781 16 27.351562 17.5 22.25 17.800781 C 17.550781 18.101562 12.949219 17.5 10.851562 16.199219 C 8.648438 14.898438 7.351562 13.199219 7.351562 11.398438 C 7.351562 9.601562 8.550781 7.898438 10.851562 6.601562 C 15.351562 4.300781 20.75 4.300781 25.25 6.601562 C 26.550781 7.398438 27.351562 8.398438 27.351562 9.398438 C 27.351562 10.398438 26.648438 11.398438 25.25 12.199219 C 22.449219 13.601562 19.148438 13.601562 16.449219 12.199219 C 15.75 11.800781 15.25 11.199219 15.25 10.699219 C 15.351562 10 15.851562 9.5 16.449219 9.300781 C 17.851562 8.5 20.351562 8.300781 21.648438 9.199219 C 21.949219 9.300781 22.050781 9.5 22.050781 9.800781 C 22.050781 10 21.851562 10.101562 21.75 10.199219 C 21.351562 10.398438 20.050781 10.5 19.75 9.898438 C 19.449219 9.5 18.851562 9.398438 18.351562 9.800781 C 18.050781 10 17.949219 10.5 18.050781 10.800781 C 18.949219 12.5 21.25 12.5 22.550781 11.898438 C 23.25 11.5 23.75 10.800781 23.851562 10 C 23.851562 9.101562 23.449219 8.300781 22.75 7.699219 C 20.75 6.199219 17.351562 6.5 15.449219 7.601562 C 14.25 8.199219 13.449219 9.398438 13.351562 10.699219 C 13.449219 12 14.25 13.199219 15.449219 13.800781 C 18.851562 15.601562 22.851562 15.601562 26.148438 13.800781 C 28.050781 12.699219 29.148438 11.101562 29.148438 9.398438 C 29.148438 7.699219 28.050781 6.101562 26.148438 5 C 23.648438 3.601562 20.851562 3 18.050781 3 C 15.25 3 12.449219 3.699219 9.949219 5.101562 C 7.148438 6.699219 5.550781 9 5.550781 11.5 C 5.550781 14 7.148438 16.199219 9.949219 17.898438 C 12.050781 19.101562 15.75 19.800781 19.949219 19.800781 C 20.75 19.800781 21.648438 19.800781 22.449219 19.699219 C 28.148438 19.300781 32.648438 17.800781 34.851562 15.398438 C 35.648438 14.601562 36.25 13.5 36.550781 12.398438 C 37.050781 13.300781 37.148438 14.300781 37.050781 15.199219 Z M 37.050781 15.199219 "/>
</g>
</svg>
