<?xml version="1.0" encoding="UTF-8"?>
<svg xmlns="http://www.w3.org/2000/svg" xmlns:xlink="http://www.w3.org/1999/xlink" width="33pt" height="42pt" viewBox="0 0 33 42" version="1.1">
<g id="surface1">
<path style=" stroke:none;fill-rule:nonzero;fill:#ee8826;fill-opacity:1;" d="M 31.625 29.804688 L 1.394531 38.195312 L 1.492188 35.28125 L 31.753906 27.015625 Z M 31.625 29.804688 "/>
<path style=" stroke:none;fill-rule:nonzero;fill:#ee8826;fill-opacity:1;" d="M 18.785156 7.726562 C 19.652344 7.722656 20.355469 7.015625 20.355469 6.144531 C 20.367188 6.082031 20.367188 6.015625 20.355469 5.949219 C 20.15625 5.535156 19.800781 5.21875 19.371094 5.070312 C 18.9375 4.917969 18.464844 4.945312 18.050781 5.148438 C 17.699219 5.316406 17.414062 5.597656 17.242188 5.949219 L 17.242188 6.144531 C 17.246094 7.003906 17.929688 7.703125 18.785156 7.726562 Z M 18.785156 7.726562 "/>
<path style=" stroke:none;fill-rule:nonzero;fill:#402e21;fill-opacity:1;" d="M 7.839844 18.730469 C 8.265625 19.03125 8.722656 19.285156 9.203125 19.484375 C 10.003906 19.828125 10.824219 20.117188 11.664062 20.34375 C 13.605469 20.835938 15.597656 21.089844 17.597656 21.105469 L 17.914062 21.105469 C 19.910156 21.113281 21.902344 20.882812 23.84375 20.421875 C 24.792969 20.1875 25.722656 19.875 26.625 19.492188 L 26.878906 19.382812 C 27.269531 19.234375 27.640625 19.050781 27.996094 18.839844 C 28.492188 18.546875 28.871094 18.085938 29.066406 17.542969 C 29.183594 17.09375 29.222656 16.625 29.183594 16.160156 C 29.15625 15.777344 29.085938 15.394531 28.976562 15.023438 C 28.679688 14.171875 28.183594 13.402344 27.53125 12.78125 L 27.285156 12.5625 L 26.8125 12.207031 C 26.980469 11.648438 27.007812 11.058594 26.890625 10.484375 C 26.414062 8.125 23.863281 7.261719 21.898438 6.738281 C 21.9375 6.542969 21.957031 6.34375 21.957031 6.144531 C 21.9375 5.101562 21.414062 4.132812 20.554688 3.546875 C 21.355469 2.121094 22.285156 1.964844 22.699219 1.964844 C 23.050781 1.960938 23.402344 2.03125 23.726562 2.171875 C 24 2.328125 24.34375 2.300781 24.585938 2.101562 C 24.804688 1.941406 24.925781 1.679688 24.902344 1.410156 C 24.882812 1.144531 24.726562 0.90625 24.488281 0.777344 C 23.949219 0.496094 23.347656 0.34375 22.738281 0.34375 C 21.652344 0.363281 20.628906 0.859375 19.941406 1.699219 C 19.597656 2.089844 19.308594 2.523438 19.082031 2.992188 C 18 2.910156 16.953125 3.378906 16.292969 4.238281 C 16.203125 4.125 16.132812 4.003906 16.074219 3.871094 C 15.882812 3.472656 15.40625 3.304688 15.007812 3.496094 C 13.5625 4.273438 12.402344 5.484375 11.683594 6.957031 C 11.226562 7.816406 10.949219 8.761719 10.875 9.734375 C 9.574219 10.285156 8.699219 11.527344 8.621094 12.9375 C 8.605469 13.355469 8.640625 13.773438 8.71875 14.183594 C 8.320312 14.398438 7.933594 14.648438 7.574219 14.925781 C 7.207031 15.277344 6.941406 15.726562 6.8125 16.21875 C 6.710938 16.582031 6.710938 16.964844 6.8125 17.328125 C 7.035156 17.871094 7.386719 18.355469 7.839844 18.730469 Z M 17.242188 5.949219 C 17.367188 5.144531 18.082031 4.574219 18.894531 4.625 C 19.703125 4.675781 20.339844 5.335938 20.367188 6.144531 C 20.398438 7 19.75 7.722656 18.898438 7.785156 C 18.046875 7.847656 17.300781 7.222656 17.210938 6.375 L 17.210938 6.144531 C 17.21875 6.078125 17.226562 6.011719 17.242188 5.949219 Z M 8.480469 16.320312 C 8.859375 15.871094 9.378906 15.566406 9.957031 15.457031 C 10.894531 15.269531 13.40625 14.738281 16.152344 13.945312 C 16.355469 13.886719 16.53125 13.753906 16.636719 13.570312 C 16.734375 13.382812 16.757812 13.164062 16.707031 12.957031 C 16.570312 12.546875 16.132812 12.320312 15.71875 12.445312 C 13.453125 13.085938 11.398438 13.5625 10.242188 13.796875 C 9.996094 12.695312 10.5625 11.574219 11.597656 11.117188 C 12.699219 10.765625 13.832031 10.503906 14.976562 10.335938 L 15.453125 10.257812 C 15.660156 10.21875 15.84375 10.101562 15.964844 9.933594 C 16.089844 9.757812 16.136719 9.539062 16.09375 9.328125 C 16.015625 8.902344 15.605469 8.617188 15.175781 8.695312 L 14.640625 8.796875 C 13.890625 8.925781 13.179688 9.0625 12.546875 9.199219 C 12.773438 7.582031 13.691406 6.140625 15.054688 5.246094 C 15.179688 5.402344 15.308594 5.550781 15.453125 5.691406 L 15.621094 5.859375 L 15.621094 6.085938 C 15.574219 7.429688 16.382812 8.65625 17.636719 9.144531 C 18.886719 9.632812 20.3125 9.273438 21.1875 8.25 C 21.90625 8.398438 22.609375 8.605469 23.292969 8.875 C 23.300781 8.910156 23.300781 8.949219 23.292969 8.984375 C 23.234375 9.171875 22.699219 10.191406 18.101562 11.742188 C 17.695312 11.882812 17.472656 12.320312 17.597656 12.730469 C 17.761719 13.113281 18.179688 13.324219 18.585938 13.234375 C 19.945312 12.800781 21.269531 12.261719 22.539062 11.613281 C 23.441406 11.199219 24.195312 10.527344 24.714844 9.683594 C 25.042969 9.992188 25.269531 10.386719 25.367188 10.820312 C 25.441406 11.847656 25.015625 12.847656 24.222656 13.5 C 23.917969 13.8125 23.917969 14.308594 24.222656 14.617188 C 24.371094 14.765625 24.574219 14.839844 24.785156 14.824219 C 24.992188 14.816406 25.191406 14.730469 25.339844 14.578125 C 25.613281 14.289062 25.863281 13.980469 26.089844 13.648438 C 26.902344 14.25 27.4375 15.15625 27.5625 16.160156 C 27.5625 16.386719 27.53125 16.609375 27.464844 16.824219 C 27.398438 17.03125 27.257812 17.210938 27.066406 17.328125 C 24.21875 18.726562 21.066406 19.40625 17.894531 19.304688 L 17.796875 19.304688 C 19.289062 18.582031 21.96875 17.269531 22.984375 16.605469 C 23.160156 16.488281 23.285156 16.308594 23.332031 16.101562 C 23.417969 15.683594 23.15625 15.269531 22.738281 15.171875 C 22.53125 15.125 22.3125 15.167969 22.136719 15.289062 C 19.710938 16.71875 17.207031 18 14.632812 19.125 L 13.375 18.917969 C 12.085938 18.679688 10.828125 18.292969 9.628906 17.761719 C 9.289062 17.628906 8.957031 17.476562 8.640625 17.296875 C 8.472656 17.203125 8.339844 17.050781 8.265625 16.871094 C 8.242188 16.664062 8.324219 16.457031 8.480469 16.320312 Z M 8.480469 16.320312 "/>
<path style=" stroke:none;fill-rule:nonzero;fill:#402e21;fill-opacity:1;" d="M 32.988281 20.113281 C 32.972656 19.75 32.734375 19.4375 32.386719 19.324219 L 29.066406 17.523438 C 28.785156 18.015625 28.417969 18.453125 27.988281 18.820312 L 29.777344 19.808594 L 2.621094 26.730469 L 7.800781 18.730469 C 7.390625 18.339844 7.054688 17.878906 6.8125 17.367188 C 6.8125 17.296875 6.703125 17.464844 6.664062 17.523438 L 0.15625 27.539062 C 0.0078125 27.941406 -0.046875 28.371094 0 28.796875 L 0 40.660156 L 0.117188 41.003906 C 0.191406 41.398438 0.53125 41.683594 0.929688 41.6875 L 1.15625 41.6875 L 32.378906 32.859375 C 32.75 32.742188 32.992188 32.386719 32.96875 32 Z M 1.679688 28.796875 L 1.679688 28.707031 L 31.339844 21.105469 L 31.339844 25.652344 L 1.699219 33.957031 Z M 1.75 39.757812 L 1.75 35.667969 L 31.410156 27.382812 L 31.410156 31.40625 Z M 1.75 39.757812 "/>
</g>
</svg>
