<svg xmlns="http://www.w3.org/2000/svg" viewBox="0 0 38.15 47.81"><defs><style>.cls-1{fill:#ee8826;}.cls-2{fill:#402e21;}</style></defs><title>тортик 2</title><g id="Слой_2" data-name="Слой 2"><g id="Layer_2" data-name="Layer 2"><g id="тортик_2" data-name="тортик 2"><polygon class="cls-1" points="36.57 34.09 1.59 43.8 1.7 40.42 36.72 30.86 36.57 34.09"/><path class="cls-1" d="M21.72,8.54a1.83,1.83,0,0,0,1.82-1.83,1.8,1.8,0,0,0,0-.22,2,2,0,0,0-3.6,0,1.92,1.92,0,0,0,0,.22A1.83,1.83,0,0,0,21.72,8.54Z"/><g id="Тортик_2-2" data-name="Тортик 2"><path class="cls-2" d="M9.05,21.28a8,8,0,0,0,1.57.86,19.83,19.83,0,0,0,2.85,1,28.57,28.57,0,0,0,6.84.88h.37a29,29,0,0,0,6.87-.79,21.32,21.32,0,0,0,3.22-1.07l.3-.13a8.35,8.35,0,0,0,1.29-.63,2.86,2.86,0,0,0,1.24-1.5,4.66,4.66,0,0,0,.14-1.59A6,6,0,0,0,33.5,17a6.57,6.57,0,0,0-1.67-2.6l-.29-.25L31,13.72a4.08,4.08,0,0,0,.09-2C30.54,9,27.59,8,25.31,7.4a3.17,3.17,0,0,0,.07-.69,3.71,3.71,0,0,0-1.62-3c.92-1.65,2-1.83,2.48-1.83a2.63,2.63,0,0,1,1.23.24.91.91,0,0,0,1-.08.88.88,0,0,0,.36-.8.91.91,0,0,0-.48-.74A4.52,4.52,0,0,0,26.24,0,4.31,4.31,0,0,0,23,1.57a7,7,0,0,0-1,1.49,3.73,3.73,0,0,0-3.22,1.45,2.39,2.39,0,0,1-.25-.43.93.93,0,0,0-1.28-.41,9.09,9.09,0,0,0-3.85,4,8.12,8.12,0,0,0-.8,3.2A4.27,4.27,0,0,0,10,14.57a6.82,6.82,0,0,0,.06,1.49,10.36,10.36,0,0,0-1.32.86,3.19,3.19,0,0,0-.89,1.5,2.61,2.61,0,0,0,0,1.28A4.35,4.35,0,0,0,9.05,21.28ZM19.92,6.49a1.82,1.82,0,0,1,3.62.22,1.83,1.83,0,1,1-3.65,0A1.92,1.92,0,0,1,19.92,6.49Zm-10.13,12a2.86,2.86,0,0,1,1.7-1c1.09-.22,4-.83,7.18-1.75a.93.93,0,0,0,.55-.44.91.91,0,0,0,.08-.7A.92.92,0,0,0,18.17,14c-2.62.75-5,1.29-6.33,1.57a2.72,2.72,0,0,1,1.56-3.1,23.81,23.81,0,0,1,3.92-.9l.55-.1a.91.91,0,0,0,.59-.38.89.89,0,0,0,.15-.69.91.91,0,0,0-.38-.59.94.94,0,0,0-.69-.15l-.61.12c-.87.15-1.7.31-2.43.47a6.58,6.58,0,0,1,2.91-4.52,5.47,5.47,0,0,0,.45.51l.2.2v.26A3.66,3.66,0,0,0,24.49,9.1a15.57,15.57,0,0,1,2.43.73.17.17,0,0,1,0,.12c-.07.22-.68,1.4-6,3.19a.92.92,0,0,0-.58,1.16,1,1,0,0,0,1.17.58A29.43,29.43,0,0,0,26.06,13a5.75,5.75,0,0,0,2.49-2.19,2.5,2.5,0,0,1,.75,1.32c.18.92-.26,2-1.32,3.1a.91.91,0,0,0,.05,1.3.91.91,0,0,0,.66.24,1,1,0,0,0,.64-.29,8.23,8.23,0,0,0,.86-1.07,4.17,4.17,0,0,1,1.67,2.9,2.32,2.32,0,0,1-.11.77,1,1,0,0,1-.46.58A22.46,22.46,0,0,1,20.68,22h-.07c1.73-.84,4.83-2.36,6-3.13a.89.89,0,0,0,.4-.58.92.92,0,0,0-.72-1.09.9.9,0,0,0-.69.14,79.94,79.94,0,0,1-8.7,4.4c-.54-.07-1-.15-1.45-.24a19.5,19.5,0,0,1-4.33-1.33A8.88,8.88,0,0,1,10,19.63a1,1,0,0,1-.44-.49A.74.74,0,0,1,9.79,18.49Z"/><path class="cls-2" d="M38.14,22.92a1,1,0,0,0-.69-.91L33.6,19.88a5.74,5.74,0,0,1-1.24,1.5s2.07,1.14,2.07,1.14L3,30.56l6-9.28A5.46,5.46,0,0,1,7.87,19.7c0-.08-.13.11-.18.18L.16,31.47A3.07,3.07,0,0,0,0,32.92L0,46.44c0,.06,0,.11,0,.16L.13,47a1,1,0,0,0,.44.64.91.91,0,0,0,.5.15,1.09,1.09,0,0,0,.26,0L37.46,37.58a1,1,0,0,0,.69-1Zm-36.22,10a.44.44,0,0,0,0-.1L36.23,24v5.28L1.94,38.89ZM2,45.61V40.87l34.29-9.58v4.65Z"/></g></g></g></g></svg>