<?xml version="1.0" encoding="utf-8"?>
<!-- Generator: Adobe Illustrator 22.0.0, SVG Export Plug-In . SVG Version: 6.00 Build 0)  -->
<svg version="1.1" id="Layer_1" xmlns="http://www.w3.org/2000/svg" xmlns:xlink="http://www.w3.org/1999/xlink" x="0px" y="0px"
	 viewBox="0 0 384 384" style="enable-background:new 0 0 384 384;" xml:space="preserve">
<style type="text/css">
	.st0{fill:#FF7239;}
</style>
<g>
	<g>
		<polygon class="st0" points="358.6,358.7 25.4,358.7 25.4,25.3 358.6,25.3 358.6,179.3 356.4,179.3 356.4,27.4 27.6,27.4 
			27.6,356.6 356.4,356.6 356.4,204.6 358.6,204.6 		"/>
	</g>
	<g>
		<path class="st0" d="M358.3,197.7c-0.3,0-0.6-0.1-0.8-0.3c-0.4-0.4-0.4-1.1,0.1-1.5l4.2-3.9l-4.3-4.1c-0.4-0.4-0.5-1.1-0.1-1.5
			c0.4-0.4,1.1-0.5,1.5,0l5.2,4.8c0.2,0.2,0.3,0.5,0.3,0.8s-0.1,0.6-0.3,0.8l-5,4.7C358.9,197.6,358.6,197.7,358.3,197.7z"/>
	</g>
</g>
</svg>
