<?xml version="1.0" encoding="UTF-8" standalone="no"?>
<svg
   xmlns:dc="http://purl.org/dc/elements/1.1/"
   xmlns:cc="http://creativecommons.org/ns#"
   xmlns:rdf="http://www.w3.org/1999/02/22-rdf-syntax-ns#"
   xmlns:svg="http://www.w3.org/2000/svg"
   xmlns="http://www.w3.org/2000/svg"
   xmlns:sodipodi="http://sodipodi.sourceforge.net/DTD/sodipodi-0.dtd"
   xmlns:inkscape="http://www.inkscape.org/namespaces/inkscape"
   width="303pt"
   style=" stroke:none;fill-rule:nonzero;fill:rgb(0%,0%,0%);fill-opacity:1;"
   height="138pt"
   viewBox="0 0 303 138"
   version="1.1"
   id="svg4205"
   inkscape:version="0.91 r13725"
   sodipodi:docname="loader (1).svg">
  <metadata
     id="metadata4220">
    <rdf:RDF>
      <cc:Work
         rdf:about="">
        <dc:format>image/svg+xml</dc:format>
        <dc:type
           rdf:resource="http://purl.org/dc/dcmitype/StillImage" />
      </cc:Work>
    </rdf:RDF>
  </metadata>
  <defs
     id="defs4218" />
  <sodipodi:namedview
     pagecolor="#ffffff"
     bordercolor="#666666"
     borderopacity="1"
     objecttolerance="10"
     gridtolerance="10"
     guidetolerance="10"
     inkscape:pageopacity="0"
     inkscape:pageshadow="2"
     inkscape:window-width="1223"
     inkscape:window-height="763"
     id="namedview4216"
     showgrid="false"
     inkscape:object-paths="true"
     inkscape:zoom="1.1575081"
     inkscape:cx="166.68299"
     inkscape:cy="-47.329788"
     inkscape:window-x="115"
     inkscape:window-y="53"
     inkscape:window-maximized="0"
     inkscape:current-layer="svg4205" />
  <g
     id="surface1"
     style="fill:#ffffff;fill-opacity:1">
    <path
       style="fill:#ee8826;fill-opacity:1;fill-rule:nonzero;stroke:none"
       d="m 275.24219,138 3.41015,-0.32422 c 9.4961,-0.53906 17.75,-6.73047 20.9375,-15.71094 3.1875,-8.98046 0.69141,-19.0039 -6.33203,-25.429684 l -38.51562,-33.605468 0,-0.378907 C 254.03125,56.042969 251.10937,49.976562 246.46484,45.367188 242.83984,41.628906 233.15625,32.792969 222.28516,32.25 l -0.59766,0 0,-0.59375 c -0.39063,-1.171875 -0.85938,-2.3125 -1.40625,-3.417969 C 211.80859,10.808594 194.08203,-0.179688 174.73437,0 l -47.33203,0 c -19.29687,-0.0820312 -36.93359,10.914062 -45.386715,28.292969 -0.433594,0.921875 -0.867187,2.007812 -1.355469,3.363281 l 0,0.59375 -0.648437,0 C 71,33.90625 62.785156,38.5 56.644531,45.3125 51.996094,49.910156 49.085938,55.984375 48.421875,62.496094 l 0,0.378906 -38.949219,34.039062 c -6.625,6.742188 -8.734375,16.726568 -5.410156,25.582028 3.359375,8.46875 11.175781,14.33594 20.230469,15.17969 L 27.808594,138 Z"
       id="path4214"
       inkscape:connector-curvature="0"
       sodipodi:nodetypes="ccscccccccccccccccccccccc" />
  </g>
  <g
     id="g4796"
     transform="translate(-0.69113985,-1.2918965e-6)">
    <path
       id="path4798"
       d="m 207.625,74.582031 c 4.11719,-6.507812 4.70312,-14.648437 1.56641,-21.679687 -6.48438,-13.136719 -19.88672,-21.410156 -34.51172,-21.300782 l -47.27735,0 C 112.74609,31.5 99.332031,39.820312 92.886719,53.011719 89.71875,60.027344 90.265625,68.164062 94.347656,74.691406 l 32.945314,55.937504 46.79297,0 z m 0,0"
       style="fill:#ee8826;fill-opacity:1;fill-rule:nonzero;stroke:none"
       inkscape:connector-curvature="0" />
    <path
       id="path4800"
       d="m 83.800781,130.62891 28.453129,0 L 83.203125,81.304688 C 80.632812,76.945312 78.960938,72.117188 78.28125,67.101562 78.238281,66.503906 77.898438,65.964844 77.375,65.671875 76.855469,65.375 76.21875,65.363281 75.683594,65.640625 c -3.929688,2.003906 -7.480469,4.683594 -10.492188,7.914063 -5.457031,4.941406 -6.597656,13.09375 -2.707031,19.347656 l 3.191406,5.421875 2.273438,4.011721 c 1.742187,3.1289 0.628906,7.07812 -2.488281,8.83203 -0.96875,0.57031 -2.070313,0.87109 -3.191407,0.86719 -2.246093,-0.10547 -4.285156,-1.35157 -5.410156,-3.30469 -2.164063,-3.95703 -4.542969,-7.85938 -6.492187,-11.925782 L 17.910156,125.15234 c -1.40625,1.55469 -2.441406,3.41016 -3.027344,5.42188 l 69.242188,0 z m 0,0"
       style="fill:#ee8826;fill-opacity:1;fill-rule:nonzero;stroke:none"
       inkscape:connector-curvature="0" />
    <path
       id="path4802"
       d="m 233.21094,129.76172 54.09765,0 c -0.64453,-2.21484 -1.8164,-4.24219 -3.41015,-5.91016 l -21.09766,-18.48047 c -3.42969,-3.32812 -7.03906,-6.457028 -10.81641,-9.378902 -0.85156,3.058593 -3.54687,5.234372 -6.71093,5.421872 -1.11328,-0.008 -2.20703,-0.28515 -3.19141,-0.8125 -3.12109,-1.777341 -4.23047,-5.746091 -2.48828,-8.890622 3.89062,-6.265626 2.77734,-14.417969 -2.64844,-19.40625 -3.32422,-3.5 -7.26562,-6.347657 -11.63281,-8.398438 -0.49219,-0.171875 -1.03125,-0.101562 -1.46875,0.183594 -0.43359,0.289062 -0.71094,0.757812 -0.75,1.277344 -0.74609,5.292968 -2.58594,10.371093 -5.40625,14.90625 l -29.59375,49.378902 44.90234,0 z m 0,0"
       style="fill:#ee8826;fill-opacity:1;fill-rule:nonzero;stroke:none"
       inkscape:connector-curvature="0" />
    <path
       id="path4804"
       d="m 275.24219,138 3.41015,-0.32422 c 9.4961,-0.53906 17.75,-6.73047 20.9375,-15.71094 3.1875,-8.98046 0.69141,-19.0039 -6.33203,-25.429684 l -38.51562,-33.605468 0,-0.378907 C 254.03125,56.042969 251.10937,49.976562 246.46484,45.367188 242.83984,41.628906 233.15625,32.792969 222.28516,32.25 l -0.59766,0 0,-0.59375 c -0.39063,-1.171875 -0.85938,-2.3125 -1.40625,-3.417969 C 211.80859,10.808594 194.08203,-0.179688 174.73437,0 l -47.33203,0 c -19.29687,-0.0820312 -36.93359,10.914062 -45.386715,28.292969 -0.433594,0.921875 -0.867187,2.007812 -1.355469,3.363281 l 0,0.59375 -0.648437,0 C 71,33.90625 62.785156,38.5 56.644531,45.3125 51.996094,49.910156 49.085938,55.984375 48.421875,62.496094 l 0,0.378906 -38.949219,34.039062 c -6.625,6.742188 -8.734375,16.726568 -5.410156,25.582028 3.359375,8.46875 11.175781,14.33594 20.230469,15.17969 L 27.808594,138 Z M 120.53125,125.15234 c -16.76953,0 -17.74609,0 -18.07031,0 -6.542971,1.125 -13.074221,-2.05859 -16.226565,-7.91015 l -6.601563,-11.54688 c -0.714843,-1.28906 -1.929687,-2.22656 -3.351562,-2.60156 -1.398438,-0.40625 -2.898438,-0.23047 -4.167969,0.48828 -1.3125,0.69531 -2.285156,1.90235 -2.683593,3.33985 -0.398438,1.43359 -0.191407,2.97265 0.574218,4.24609 l 6.4375,11.38281 c 0.183594,0.41797 0.398438,0.81641 0.648438,1.19531 l 1.246094,2.0586 -50.09375,1.08203 -2.8125,-0.26953 c -5.164063,-0.32813 -9.6875,-3.59375 -11.628907,-8.40235 -1.511719,-4.63281 -0.296875,-9.71875 3.136719,-13.17187 l 33.484375,-29.160158 0.867187,1.898438 c 0,0.488281 0.378907,0.976562 0.648438,1.464844 l 5.410156,9.644531 c 1.003906,2.09375 3.230469,3.3125 5.53125,3.03125 2.300782,-0.28125 4.164063,-2.003906 4.636719,-4.277344 0.40625,-1.421875 0.210937,-2.949219 -0.539063,-4.226562 L 62.324219,75.125 61.566406,73.660156 c -4.105468,-6.636718 -2.925781,-15.257812 2.8125,-20.542968 3.714844,-4.015626 8.304688,-7.113282 13.414063,-9.050782 l 1.136719,-0.378906 0,1.191406 c 0.398437,5.738282 2.117187,11.304688 5.03125,16.261719 l 33.972652,58.105465 c 1.02735,1.61719 2.14454,3.17579 3.35547,4.66016 l 1.24219,1.51953 z m 30.5625,0.97657 -0.8125,0 c -9.30469,0.0391 -17.94922,-4.81641 -22.77344,-12.79297 L 93.535156,55.449219 C 89.339844,48.703125 88.792969,40.300781 92.074219,33.0625 98.730469,19.652344 112.45313,11.230469 127.40234,11.382812 l 47.33203,0 c 14.94922,-0.152343 28.66797,8.269532 35.32422,21.679688 3.30078,7.300781 2.71094,15.777344 -1.57031,22.550781 l -34.72656,57.996099 c -4.85547,7.85156 -13.44922,12.59765 -22.66797,12.51953 z m 49.39062,-0.8125 c -0.32421,0 -1.35156,0 -19.63671,0 l -2.00391,0 1.30078,-1.51563 c 1.14844,-1.44531 2.19922,-2.96484 3.13672,-4.55469 L 218.01172,61.25 c 3.10937,-5.03125 4.96484,-10.738281 5.41015,-16.640625 l 0,-1.246094 1.13282,0.269531 c 5.34375,2.003907 10.15625,5.210938 14.0664,9.378907 5.73828,5.28125 6.91797,13.90625 2.8125,20.542969 -0.76562,1.273437 -0.97656,2.8125 -0.57422,4.246093 0.39844,1.4375 1.36719,2.644531 2.6836,3.339844 2.60547,1.300781 5.76953,0.4375 7.35937,-2.003906 0,-0.488281 0.48438,-0.976563 0.70313,-1.464844 l 0.86328,-1.898437 32.94531,28.730472 c 3.96094,3.40625 5.40235,8.91015 3.6211,13.82812 -1.77735,4.91406 -6.41016,8.21485 -11.62891,8.28516 l -2.70313,0.26953 -50.14843,-1.08203 0.92187,-1.13672 0.37891,-0.59766 0.48437,-0.86718 14.33594,-25.636724 c 0.73047,-1.285156 0.90625,-2.8125 0.48828,-4.230468 -0.375,-1.425782 -1.3125,-2.640626 -2.59765,-3.359376 -1.27344,-0.769531 -2.8086,-0.976562 -4.24219,-0.578124 -1.42969,0.402343 -2.63672,1.375 -3.33203,2.691406 l -14.44141,25.691406 c -3.19922,5.69531 -9.65625,8.72266 -16.06641,7.53516 z m 0,0"
       style="fill:#3f2d1f;fill-opacity:1;fill-rule:nonzero;stroke:none"
       inkscape:connector-curvature="0" />
  </g>
</svg>
