<?xml version="1.0" encoding="utf-8"?>
<!-- Generator: Adobe Illustrator 22.0.0, SVG Export Plug-In . SVG Version: 6.00 Build 0)  -->
<svg version="1.1" id="Layer_1" xmlns="http://www.w3.org/2000/svg" xmlns:xlink="http://www.w3.org/1999/xlink" x="0px" y="0px"
	 width="106px" height="143.3px" viewBox="0 0 106 143.3" enable-background="new 0 0 106 143.3" xml:space="preserve">
<g>
	<g opacity="0.4">
		<circle fill="#FFFFFF" cx="52.9" cy="52.5" r="52.5"/>
	</g>
	<g>
		<path fill="#412E21" d="M9.9,131.6l0.1-1.9H9.9l-0.6,1.7l-1.9,3.8H6.9L5,131.4l-0.5-1.7H4.4l0.2,1.9v6H3.3v-10h1.4l2.2,4.3
			l0.4,1.3l0,0l0.5-1.3l2-4.3h1.5v10H9.9V131.6z"/>
		<path fill="#412E21" d="M15.2,131.4c0.3-0.1,0.5-0.1,0.8-0.1c0.2,0,0.5,0,0.7,0c0.5,0,1,0.1,1.4,0.2c0.4,0.2,0.7,0.4,0.9,0.6
			c0.2,0.3,0.4,0.6,0.5,1s0.1,0.8,0.1,1.2c0,1.2-0.3,2.1-0.8,2.6s-1.4,0.8-2.7,0.8c-0.8,0-1.5,0-2.3-0.1v-10h1.4V131.4z M15.2,136.3
			c0.4,0.1,0.8,0.1,1.1,0.1c0.6,0,1.1-0.2,1.3-0.5c0.3-0.3,0.4-0.8,0.4-1.5c0-0.6-0.1-1.1-0.4-1.4s-0.7-0.5-1.3-0.5
			c-0.2,0-0.4,0-0.6,0s-0.4,0.1-0.6,0.1v3.7L15.2,136.3L15.2,136.3z M20.7,127.6h1.4v10h-1.4V127.6z"/>
		<path fill="#412E21" d="M33.8,133.1h-3.5v4.5h-1.4v-10h1.4v4.2h3.5v-4.2h1.4v10h-1.4V133.1z"/>
		<path fill="#412E21" d="M37.5,128.2c0.4-0.2,0.9-0.4,1.4-0.6c0.6-0.1,1.1-0.2,1.8-0.2c0.6,0,1,0.1,1.3,0.3s0.6,0.4,0.8,0.7
			s0.3,0.6,0.4,1c0.1,0.4,0.1,0.8,0.1,1.2c0,0.8,0,1.6-0.1,2.3c0,0.8-0.1,1.5-0.1,2.2c0,0.5,0,1,0.1,1.4c0,0.4,0.1,0.8,0.2,1.2h-1.1
			l-0.3-1.2h-0.1c-0.2,0.3-0.5,0.6-0.9,0.9s-0.9,0.4-1.5,0.4c-0.7,0-1.3-0.3-1.8-0.8s-0.7-1.2-0.7-2.1c0-0.6,0.1-1.1,0.3-1.4
			s0.5-0.7,0.8-0.9c0.4-0.2,0.8-0.4,1.2-0.5c0.5-0.1,1-0.1,1.6-0.1c0.1,0,0.3,0,0.4,0s0.3,0,0.4,0c0-0.4,0.1-0.8,0.1-1.1
			c0-0.8-0.1-1.3-0.3-1.6s-0.6-0.5-1.2-0.5c-0.4,0-0.8,0.1-1.2,0.2c-0.4,0.1-0.8,0.3-1.1,0.4L37.5,128.2z M41.8,133
			c-0.1,0-0.3,0-0.4,0s-0.3,0-0.4,0c-0.3,0-0.6,0-0.9,0.1c-0.3,0.1-0.6,0.1-0.8,0.3c-0.2,0.1-0.4,0.3-0.6,0.5
			c-0.1,0.2-0.2,0.5-0.2,0.9c0,0.5,0.1,0.9,0.4,1.2c0.3,0.3,0.6,0.4,1,0.4c0.6,0,1-0.1,1.3-0.4s0.5-0.6,0.6-0.9
			C41.8,135.1,41.8,133,41.8,133z"/>
		<path fill="#412E21" d="M51.2,137.1c-0.3,0.3-0.7,0.4-1.1,0.6c-0.4,0.1-0.9,0.2-1.3,0.2c-0.6,0-1.2-0.1-1.6-0.4
			c-0.4-0.2-0.8-0.6-1.1-1.1s-0.5-1-0.6-1.7c-0.1-0.6-0.2-1.4-0.2-2.2c0-1.7,0.3-3,0.9-3.9c0.6-0.9,1.5-1.3,2.6-1.3
			c0.5,0,1,0,1.3,0.1c0.4,0.1,0.7,0.2,1,0.4l-0.4,1.3c-0.5-0.3-1.1-0.5-1.7-0.5c-0.7,0-1.3,0.3-1.6,1c-0.4,0.6-0.5,1.6-0.5,3
			c0,0.5,0,1.1,0.1,1.5c0.1,0.5,0.2,0.9,0.4,1.3c0.2,0.4,0.4,0.6,0.7,0.8s0.7,0.3,1.1,0.3c0.3,0,0.7-0.1,1-0.2
			c0.3-0.1,0.5-0.3,0.7-0.4L51.2,137.1z"/>
		<path fill="#412E21" d="M57.9,128.9h-2.5v8.7H54v-8.7h-2.5v-1.3h6.4V128.9z"/>
		<path fill="#412E21" d="M58.5,132.6c0-1.8,0.3-3.1,0.9-4c0.6-0.9,1.5-1.3,2.6-1.3c1.2,0,2.1,0.4,2.7,1.3c0.6,0.9,0.9,2.2,0.9,3.9
			c0,1.8-0.3,3.1-0.9,4c-0.6,0.8-1.5,1.3-2.6,1.3c-1.2,0-2.1-0.4-2.7-1.3C58.7,135.6,58.5,134.3,58.5,132.6z M60,132.6
			c0,0.6,0,1.1,0.1,1.6s0.2,0.9,0.4,1.2s0.4,0.6,0.6,0.8s0.6,0.3,1,0.3c0.7,0,1.2-0.3,1.6-0.9c0.4-0.6,0.5-1.6,0.5-3
			c0-0.6,0-1.1-0.1-1.6s-0.2-0.9-0.4-1.3c-0.2-0.3-0.4-0.6-0.7-0.8s-0.6-0.3-1-0.3c-0.7,0-1.2,0.3-1.5,0.9
			C60.1,130.2,60,131.2,60,132.6z"/>
		<path fill="#412E21" d="M71.7,133.4l-1.2,0.2l-2,3.9h-1.7l1.9-3.4l0.6-0.7c-0.5-0.1-1-0.4-1.4-0.8c-0.4-0.5-0.6-1.1-0.6-1.8
			c0-1.2,0.3-2.1,1-2.6c0.6-0.5,1.5-0.8,2.6-0.8c0.4,0,0.8,0,1.2,0.1c0.4,0.1,0.7,0.1,1.1,0.2v9.9h-1.4L71.7,133.4L71.7,133.4z
			 M71.7,132.5v-3.7c-0.1-0.1-0.3-0.1-0.5-0.1s-0.3,0-0.5,0c-0.6,0-1.1,0.2-1.5,0.5c-0.3,0.3-0.5,0.8-0.5,1.5c0,0.6,0.2,1.1,0.6,1.4
			s0.9,0.5,1.5,0.5L71.7,132.5z"/>
		<path fill="#412E21" d="M86.1,140.1h-1l-0.2-2.5h-9.4v-10h1.4v8.7h2.6v-8.7h1.4v8.7h2.6v-8.7h1.4v8.7h1.2V140.1z"/>
		<path fill="#412E21" d="M92.6,131.8l0.1-1.5h-0.1l-0.7,1.7l-3.4,5.6h-0.9v-10H89v5.9l-0.1,1.5H89l0.7-1.6l3.4-5.8H94v10h-1.4
			V131.8z"/>
		<path fill="#412E21" d="M102.5,136.9c-0.3,0.3-0.7,0.5-1.2,0.7s-1,0.2-1.6,0.2s-1.2-0.1-1.6-0.4c-0.5-0.2-0.8-0.6-1.1-1.1
			c-0.3-0.5-0.5-1-0.7-1.6c-0.1-0.6-0.2-1.4-0.2-2.2c0-1.7,0.3-3,0.9-3.9c0.6-0.9,1.5-1.3,2.7-1.3c0.4,0,0.7,0,1.1,0.1
			s0.7,0.3,1,0.6c0.3,0.3,0.5,0.7,0.7,1.2s0.3,1.2,0.3,2c0,0.2,0,0.5,0,0.7c0,0.3,0,0.5-0.1,0.8h-5.1c0,0.6,0,1.1,0.1,1.6
			s0.2,0.9,0.4,1.2c0.2,0.3,0.5,0.6,0.8,0.8s0.7,0.3,1.2,0.3c0.4,0,0.7-0.1,1.1-0.2c0.4-0.1,0.6-0.3,0.8-0.5L102.5,136.9z
			 M101.3,131.5c0-1-0.1-1.7-0.4-2.2s-0.7-0.7-1.3-0.7c-0.6,0-1.1,0.2-1.5,0.7s-0.6,1.2-0.6,2.2H101.3z"/>
	</g>
	<g id="мы_настоящие_1_">
		<g>
			<path fill="#ED8726" d="M68.19,36.288c-0.675,1.089-2.166,2.368-3.13,3.253l0.144,0.144l5.323-3.327
				c0.256-0.161,0.472-0.378,0.634-0.634c0.598-0.948,0.315-2.202-0.634-2.8c-0.425-0.268-0.911-0.35-1.372-0.283
				c0.002,0.023,0.005,0.037,0.007,0.062C69.205,33.295,69.271,34.544,68.19,36.288z"/>

				<rect x="37.662" y="50.786" transform="matrix(0.7071 -0.7071 0.7071 0.7071 -21.9009 53.4606)" fill="#ED8726" width="31.841" height="4.761"/>
			<path fill="#412E21" d="M59.27,56.81c-0.336-0.339-0.883-0.339-1.221-0.003c-0.338,0.337-0.339,0.884-0.003,1.221l4.286,4.307
				c0.169,0.17,0.391,0.255,0.612,0.255c0.221,0,0.441-0.084,0.609-0.252c0.338-0.337,0.339-0.884,0.003-1.221L59.27,56.81z"/>
			<path fill="#412E21" d="M56.056,60.214c-0.332-0.328-0.868-0.327-1.197,0.007c-0.328,0.332-0.326,0.868,0.007,1.197l2.619,2.591
				c0.165,0.163,0.38,0.244,0.595,0.244c0.218,0,0.436-0.084,0.602-0.251c0.328-0.332,0.326-0.868-0.007-1.197L56.056,60.214z"/>
			<path fill="#412E21" d="M62.438,53.834c-0.339-0.336-0.886-0.332-1.222,0.007c-0.335,0.339-0.332,0.886,0.007,1.222l2.619,2.59
				c0.168,0.167,0.388,0.25,0.608,0.25c0.223,0,0.445-0.085,0.615-0.256c0.335-0.339,0.332-0.886-0.007-1.222L62.438,53.834z"/>
		</g>
		<path fill="#412E21" d="M71.454,39.119c-0.119-0.116-0.448-0.437-0.74-0.718l0.787-0.492c1.809-1.13,2.359-3.513,1.228-5.322
			c-0.706-1.13-1.946-1.816-3.278-1.815c-1.332-0.003-2.571,0.683-3.275,1.814l-3.104,4.963l-1.933-1.933
			c-0.358-0.358-0.937-0.358-1.295,0c-0.612,0.612-1.204,1.255-1.842,1.836c0.167-0.152-1.831-1.117-2.045-1.198
			c-0.81-0.306-1.647-0.539-2.499-0.694c-1.684-0.306-3.42-0.303-5.103,0.008c-1.626,0.301-3.195,0.889-4.622,1.723
			c-6.794,3.969-9.093,12.727-5.105,19.541l-2.594,2.594c-0.358,0.358-0.358,0.937,0,1.295l1.93,1.937l-4.965,3.104
			c-1.808,1.131-2.358,3.513-1.227,5.322c1.131,1.808,3.514,2.357,5.322,1.226c0.496-0.31,0.916-0.73,1.226-1.226l1.019-1.628
			c0.853,0.348,2.449,1.436,3.063,2.038c1.797,1.755,4.136,2.713,6.611,2.713c0.075,0,0.15-0.001,0.225-0.002
			c2.552-0.06,4.926-1.133,6.684-3.019c0.149-0.159,0.291-0.324,0.43-0.493c1.124-1.381,2.774-2.197,4.528-2.238
			c2.513-0.057,4.862-1.1,6.614-2.936c1.806-1.893,2.766-4.394,2.702-7.042c-0.006-0.219-0.018-0.438-0.038-0.657
			c-0.163-1.803,0.441-3.587,1.657-4.892C75.435,49.043,75.285,42.86,71.454,39.119z M67.727,33.558
			c0.598-0.948,1.852-1.232,2.8-0.634c0.948,0.598,1.232,1.852,0.634,2.8c-0.161,0.256-0.378,0.472-0.634,0.634l-5.323,3.327
			l-0.801-0.801L67.727,33.558z M44.605,38.784c3.757-2.193,8.302-2.296,12.16-0.276c0.047,0.025,0.097,0.027,0.146,0.043
			L39.903,55.558C36.714,49.642,38.759,42.198,44.605,38.784z M60.492,37.562l6.031,6.031L44.008,66.108l-6.031-6.031L60.492,37.562
			z M36.774,70.112c-0.598,0.948-1.852,1.232-2.801,0.634c-0.948-0.598-1.232-1.852-0.634-2.8c0.161-0.256,0.378-0.472,0.634-0.634
			l5.323-3.327l0.801,0.801L36.774,70.112z M68.437,57.975c0.016,0.182,0.026,0.364,0.031,0.545
			c0.053,2.185-0.736,4.246-2.224,5.805c-1.433,1.502-3.352,2.356-5.403,2.402c-2.261,0.052-4.385,1.099-5.828,2.872
			c-0.114,0.14-0.232,0.275-0.354,0.406c-1.438,1.544-3.377,2.421-5.46,2.47c-2.088,0.036-4.074-0.739-5.587-2.219
			c-0.689-0.675-2.25-1.759-3.345-2.281l1.162-1.855l1.933,1.933c0.358,0.358,0.937,0.358,1.295,0l23.81-23.81
			c0.358-0.358,0.358-0.937,0-1.295l-1.93-1.937l2.666-1.666c0.253,0.236,0.877,0.845,1.072,1.034
			c3.138,3.066,3.263,8.166,0.278,11.37C69,53.415,68.23,55.684,68.437,57.975z"/>
	</g>
</g>
</svg>
