<?xml version="1.0" encoding="utf-8"?>
<!-- Generator: Adobe Illustrator 22.0.0, SVG Export Plug-In . SVG Version: 6.00 Build 0)  -->
<svg version="1.1" id="Layer_1" xmlns="http://www.w3.org/2000/svg" xmlns:xlink="http://www.w3.org/1999/xlink" x="0px" y="0px"
	 width="105.5px" height="143.333px" viewBox="0 0 105.5 143.333" enable-background="new 0 0 105.5 143.333" xml:space="preserve">
<g>
	<g opacity="0.6">
		<circle fill="#FFFFFF" cx="52.85" cy="52.533" r="52.5"/>
	</g>
	<g>
		<path fill="#fff" d="M3.25,128.133h1l0.2,1.1h0.1c0.5-0.9,1.3-1.3,2.3-1.3c1.1,0,1.8,0.4,2.4,1.2c0.5,0.8,0.8,2.1,0.8,3.9
			c0,0.8-0.1,1.6-0.3,2.3s-0.4,1.2-0.7,1.7s-0.7,0.8-1.2,1.1c-0.5,0.2-1,0.4-1.5,0.4c-0.4,0-0.7,0-0.9-0.1s-0.5-0.1-0.7-0.3v4.1
			h-1.4v-14.1H3.25z M4.75,136.533c0.2,0.2,0.4,0.3,0.6,0.4c0.2,0.1,0.5,0.1,0.9,0.1c0.7,0,1.3-0.4,1.7-1.1c0.4-0.7,0.6-1.7,0.6-3.1
			c0-0.6,0-1.1-0.1-1.5c-0.1-0.5-0.2-0.8-0.3-1.2c-0.2-0.3-0.4-0.6-0.6-0.8s-0.5-0.3-0.9-0.3c-1,0-1.6,0.6-1.9,1.8V136.533z"/>
		<path fill="#fff" d="M14.35,134.533l0.4,1.9h0.1l0.3-1.9l1.5-6.5h1.5l-2.4,9c-0.2,0.7-0.4,1.4-0.6,2s-0.4,1.2-0.6,1.6
			c-0.2,0.5-0.5,0.8-0.7,1.1s-0.6,0.4-1,0.4s-0.7-0.1-1-0.2l0.2-1.4c0.2,0.1,0.4,0.1,0.6,0s0.4-0.2,0.5-0.3s0.3-0.5,0.5-0.8
			c0.1-0.4,0.3-0.8,0.4-1.4l-3.2-10h1.6L14.35,134.533z"/>
		<path fill="#fff" d="M20.35,128.133v2.9c0,0.3,0,0.6,0,0.9s0.1,0.5,0.2,0.7c0.1,0.2,0.2,0.3,0.4,0.4c0.2,0.1,0.4,0.1,0.7,0.1
			c0.5,0,0.8-0.1,1.1-0.2c0.3-0.1,0.5-0.3,0.7-0.4v-4.5h1.4v10h-1.4v-4.2c-0.2,0.1-0.4,0.3-0.8,0.4c-0.3,0.1-0.8,0.2-1.4,0.2
			c-0.4,0-0.7-0.1-1-0.2s-0.6-0.3-0.8-0.5s-0.4-0.5-0.5-0.9s-0.2-0.9-0.2-1.5v-3.4h1.6V128.133z"/>
		<path fill="#fff" d="M32.25,133.633h-3.5v4.5h-1.4v-10h1.4v4.2h3.5v-4.2h1.4v10h-1.4V133.633z"/>
		<path fill="#fff" d="M36.05,128.733c0.4-0.2,0.9-0.4,1.4-0.6c0.6-0.1,1.1-0.2,1.8-0.2c0.6,0,1,0.1,1.3,0.3s0.6,0.4,0.8,0.7
			s0.3,0.6,0.4,1c0.1,0.4,0.1,0.8,0.1,1.2c0,0.8,0,1.6-0.1,2.3c0,0.8-0.1,1.5-0.1,2.2c0,0.5,0,1,0.1,1.4c0,0.4,0.1,0.8,0.2,1.2h-1.1
			l-0.3-1.2h-0.1c-0.2,0.3-0.5,0.6-0.9,0.9s-0.9,0.4-1.5,0.4c-0.7,0-1.3-0.3-1.8-0.8s-0.7-1.2-0.7-2.1c0-0.6,0.1-1.1,0.3-1.4
			c0.2-0.4,0.5-0.7,0.8-0.9c0.4-0.2,0.8-0.4,1.3-0.5s1-0.1,1.6-0.1c0.1,0,0.3,0,0.4,0c0.1,0,0.3,0,0.4,0c0-0.4,0.1-0.8,0.1-1.1
			c0-0.8-0.1-1.3-0.3-1.6s-0.6-0.5-1.2-0.5c-0.4,0-0.8,0.1-1.2,0.2c-0.4,0.1-0.8,0.3-1.1,0.4L36.05,128.733z M40.35,133.533
			c-0.1,0-0.3,0-0.4,0s-0.3,0-0.4,0c-0.3,0-0.6,0-0.9,0.1c-0.3,0.1-0.6,0.1-0.8,0.3c-0.2,0.1-0.4,0.3-0.6,0.5
			c-0.1,0.2-0.2,0.5-0.2,0.9c0,0.5,0.1,0.9,0.4,1.2c0.3,0.3,0.6,0.4,1,0.4c0.6,0,1-0.1,1.3-0.4c0.3-0.3,0.5-0.6,0.6-0.9
			L40.35,133.533L40.35,133.533z"/>
		<path fill="#fff" d="M48.25,133.933l-1.2,0.2l-2,3.9h-1.7l1.9-3.4l0.6-0.7c-0.5-0.1-1-0.4-1.4-0.8c-0.4-0.5-0.6-1.1-0.6-1.8
			c0-1.2,0.3-2.1,1-2.6c0.6-0.5,1.5-0.8,2.7-0.8c0.4,0,0.8,0,1.2,0.1c0.4,0.1,0.7,0.1,1,0.2v9.9h-1.4v-4.2H48.25z M48.25,133.033
			v-3.7c-0.1-0.1-0.3-0.1-0.5-0.1s-0.3,0-0.5,0c-0.6,0-1.1,0.2-1.5,0.5c-0.3,0.3-0.5,0.8-0.5,1.5c0,0.6,0.2,1.1,0.6,1.4
			s0.9,0.5,1.5,0.5L48.25,133.033z"/>
		<path fill="#fff" d="M56.25,128.133h1l0.2,1.1h0.1c0.5-0.9,1.3-1.3,2.3-1.3c1.1,0,1.8,0.4,2.4,1.2c0.5,0.8,0.8,2.1,0.8,3.9
			c0,0.8-0.1,1.6-0.3,2.3s-0.4,1.2-0.7,1.7s-0.7,0.8-1.2,1.1c-0.5,0.2-1,0.4-1.5,0.4c-0.4,0-0.7,0-0.9-0.1s-0.5-0.1-0.7-0.3v4.1
			h-1.4v-14.1H56.25z M57.75,136.533c0.2,0.2,0.4,0.3,0.6,0.4c0.2,0.1,0.5,0.1,0.9,0.1c0.7,0,1.3-0.4,1.7-1.1
			c0.4-0.7,0.6-1.7,0.6-3.1c0-0.6,0-1.1-0.1-1.5c-0.1-0.5-0.2-0.8-0.4-1.2c-0.2-0.3-0.4-0.6-0.6-0.8c-0.2-0.2-0.6-0.3-0.9-0.3
			c-1,0-1.6,0.6-1.9,1.8v5.7H57.75z"/>
		<path fill="#fff" d="M64.95,128.733c0.4-0.2,0.9-0.4,1.4-0.6c0.6-0.1,1.1-0.2,1.8-0.2c0.6,0,1,0.1,1.3,0.3s0.6,0.4,0.8,0.7
			s0.3,0.6,0.4,1c0.1,0.4,0.1,0.8,0.1,1.2c0,0.8,0,1.6-0.1,2.3s-0.1,1.5-0.1,2.2c0,0.5,0,1,0.1,1.4c0,0.4,0.1,0.8,0.2,1.2h-1.1
			l-0.3-1.2h-0.1c-0.2,0.3-0.5,0.6-0.9,0.9s-0.9,0.4-1.5,0.4c-0.7,0-1.3-0.3-1.8-0.8s-0.7-1.2-0.7-2.1c0-0.6,0.1-1.1,0.3-1.4
			c0.2-0.4,0.5-0.7,0.8-0.9s0.8-0.4,1.2-0.5c0.5-0.1,1-0.1,1.6-0.1c0.1,0,0.3,0,0.4,0c0.1,0,0.3,0,0.4,0c0-0.4,0.1-0.8,0.1-1.1
			c0-0.8-0.1-1.3-0.3-1.6s-0.6-0.5-1.2-0.5c-0.4,0-0.8,0.1-1.2,0.2c-0.4,0.1-0.8,0.3-1.1,0.4L64.95,128.733z M69.25,133.533
			c-0.1,0-0.3,0-0.4,0s-0.3,0-0.4,0c-0.3,0-0.6,0-0.9,0.1c-0.3,0.1-0.6,0.1-0.8,0.3c-0.2,0.1-0.4,0.3-0.6,0.5
			c-0.1,0.2-0.2,0.5-0.2,0.9c0,0.5,0.1,0.9,0.4,1.2c0.3,0.3,0.6,0.4,1,0.4c0.6,0,1-0.1,1.3-0.4c0.3-0.3,0.5-0.6,0.6-0.9
			L69.25,133.533L69.25,133.533z"/>
		<path fill="#fff" d="M73.95,129.833c0.3-0.6,0.7-1.1,1.2-1.3c0.4-0.2,1-0.4,1.6-0.4c1,0,1.8,0.4,2.3,1.2s0.8,2,0.8,3.6
			c0,1.9-0.3,3.2-0.9,4.1c-0.6,0.9-1.5,1.3-2.6,1.3c-0.6,0-1.1-0.1-1.6-0.4c-0.4-0.2-0.8-0.6-1.1-1.1s-0.5-1.2-0.7-2
			s-0.2-1.8-0.2-2.9c0-1.1,0-2.1,0.2-2.9c0.1-0.8,0.2-1.5,0.4-2.1s0.4-1,0.6-1.3c0.3-0.3,0.5-0.6,0.9-0.8c0.3-0.2,0.7-0.3,1-0.4
			s0.8-0.1,1.2-0.2c0.6-0.1,1-0.1,1.3-0.2c0.3-0.1,0.6-0.3,0.8-0.5l0.1,1.4c-0.1,0.1-0.2,0.2-0.4,0.3c-0.1,0.1-0.3,0.1-0.5,0.2
			c-0.2,0.1-0.4,0.1-0.7,0.1s-0.5,0.1-0.9,0.1c-0.5,0-0.8,0.1-1.2,0.3c-0.3,0.1-0.6,0.4-0.9,0.7c-0.2,0.3-0.4,0.7-0.6,1.2
			C74.05,128.333,73.95,129.033,73.95,129.833L73.95,129.833z M74.15,133.133c0,0.5,0,1.1,0.1,1.5c0.1,0.5,0.2,0.9,0.4,1.2
			c0.2,0.4,0.4,0.6,0.7,0.8s0.6,0.3,0.9,0.3c0.7,0,1.2-0.3,1.6-1s0.5-1.7,0.5-3c0-1.1-0.1-2-0.4-2.6c-0.3-0.6-0.8-1-1.4-1
			c-0.8,0-1.4,0.3-1.7,1C74.35,131.033,74.15,131.933,74.15,133.133z"/>
		<path fill="#fff" d="M81.35,133.133c0-1.8,0.3-3.1,0.9-4s1.5-1.3,2.7-1.3s2.1,0.4,2.7,1.3c0.6,0.9,0.9,2.2,0.9,3.9
			c0,1.8-0.3,3.1-0.9,4c-0.6,0.8-1.5,1.3-2.6,1.3c-1.2,0-2.1-0.4-2.7-1.3C81.65,136.133,81.35,134.833,81.35,133.133z
			 M82.85,133.133c0,0.6,0,1.1,0.1,1.6s0.2,0.9,0.4,1.2s0.4,0.6,0.7,0.8s0.6,0.3,1,0.3c0.7,0,1.2-0.3,1.6-0.9s0.5-1.6,0.5-3
			c0-0.6,0-1.1-0.1-1.6s-0.2-0.9-0.4-1.3c-0.2-0.3-0.4-0.6-0.7-0.8s-0.6-0.3-1-0.3c-0.7,0-1.2,0.3-1.5,0.9
			C83.05,130.733,82.85,131.733,82.85,133.133z"/>
		<path fill="#fff" d="M95.45,129.433h-2.5v8.7h-1.4v-8.7h-2.5v-1.3h6.4V129.433z"/>
		<path fill="#fff" d="M96.65,128.733c0.4-0.2,0.9-0.4,1.4-0.6c0.6-0.1,1.1-0.2,1.8-0.2c0.6,0,1,0.1,1.3,0.3s0.6,0.4,0.8,0.7
			s0.3,0.6,0.4,1c0.1,0.4,0.1,0.8,0.1,1.2c0,0.8,0,1.6-0.1,2.3c0,0.8-0.1,1.5-0.1,2.2c0,0.5,0,1,0.1,1.4c0,0.4,0.1,0.8,0.2,1.2h-1.1
			l-0.3-1.2h-0.1c-0.2,0.3-0.5,0.6-0.9,0.9s-0.9,0.4-1.5,0.4c-0.7,0-1.3-0.3-1.8-0.8s-0.7-1.2-0.7-2.1c0-0.6,0.1-1.1,0.3-1.4
			c0.2-0.4,0.5-0.7,0.8-0.9c0.4-0.2,0.8-0.4,1.3-0.5s1-0.1,1.6-0.1c0.1,0,0.3,0,0.4,0c0.1,0,0.3,0,0.4,0c0-0.4,0.1-0.8,0.1-1.1
			c0-0.8-0.1-1.3-0.3-1.6s-0.6-0.5-1.2-0.5c-0.4,0-0.8,0.1-1.2,0.2c-0.4,0.1-0.8,0.3-1.1,0.4L96.65,128.733z M100.95,133.533
			c-0.1,0-0.3,0-0.4,0s-0.3,0-0.4,0c-0.3,0-0.6,0-0.9,0.1c-0.3,0.1-0.6,0.1-0.8,0.3c-0.2,0.1-0.4,0.3-0.6,0.5
			c-0.1,0.2-0.2,0.5-0.2,0.9c0,0.5,0.1,0.9,0.4,1.2c0.3,0.3,0.6,0.4,1,0.4c0.6,0,1-0.1,1.3-0.4c0.3-0.3,0.5-0.6,0.6-0.9
			L100.95,133.533L100.95,133.533z"/>
	</g>
</g>
<g id="ручная_работа_1_">
	<g>
		<path fill="#ED8726" d="M54.116,38.349c-1.748-1.889-4.941-1.438-5.35,1.216c0.995,1.279,2.497,2.594,3.734,3.675
			c0.504,0.439,0.989,0.863,1.41,1.257c0.412-0.404,0.888-0.841,1.381-1.293c1.529-1.404,3.48-3.193,4.289-4.775
			C58.495,36.494,55.384,36.426,54.116,38.349z"/>
		<path fill="#412E21" d="M53.94,46.981l-0.638-0.679c-0.465-0.494-1.176-1.114-1.928-1.772c-2.509-2.19-5.63-4.915-5.392-7.624
			c0.126-1.966,1.231-3.49,2.955-4.054c1.622-0.532,3.458-0.12,4.824,1.02c1.265-1.169,3.051-1.64,4.7-1.18
			c1.819,0.507,3.012,2.018,3.19,4.042c0.302,2.681-2.75,5.482-5.204,7.731c-0.737,0.676-1.432,1.314-1.885,1.82L53.94,46.981z
			 M50.402,34.334c-0.316,0-0.63,0.048-0.932,0.146c-1.064,0.349-1.697,1.256-1.78,2.556c-0.162,1.861,2.712,4.371,4.81,6.204
			c0.504,0.439,0.989,0.863,1.41,1.257c0.412-0.404,0.888-0.841,1.381-1.293c2.052-1.883,4.864-4.462,4.657-6.298
			c-0.118-1.324-0.826-2.251-1.946-2.564c-1.282-0.357-2.694,0.157-3.515,1.277l-0.645,0.881l-0.702-0.837
			C52.427,34.813,51.405,34.334,50.402,34.334z"/>
	</g>
	<g>
		<g>
			<path fill="#ED8726" d="M62.459,58.121l-4.258,0.538c3.738-0.017,7.401-0.972,10.706-2.806l4.765-2.644
				c0.22-0.122,0.371-0.325,0.427-0.571c0.056-0.245,0.006-0.493-0.142-0.699c-0.029-0.04-0.068-0.065-0.102-0.098l-9.299,4.902
				C64.109,57.482,63.343,58.009,62.459,58.121z"/>
			<path fill="#ED8726" d="M64.646,53.941l3.665-1.928c0.195-0.112,0.337-0.292,0.397-0.512c0.064-0.229,0.03-0.466-0.092-0.668
				c-0.009-0.014-0.023-0.022-0.032-0.035l-4.528,2.387C64.291,53.405,64.496,53.654,64.646,53.941z"/>
			<path fill="#ED8726" d="M63.309,50.725c0.239-0.129,0.404-0.348,0.463-0.613c0.047-0.213,0.002-0.419-0.092-0.607l-5.483,2.89
				h2.026L63.309,50.725z"/>
		</g>
		<path fill="#412E21" d="M36.243,57.214c0.214,0,0.421-0.076,0.588-0.217c0.15-0.124,0.961-0.776,2.177-1.5
			c0.208-0.124,0.355-0.321,0.414-0.555c0.059-0.235,0.024-0.478-0.1-0.686c-0.255-0.429-0.811-0.571-1.242-0.314
			c-1.025,0.611-1.774,1.163-2.156,1.461h-4.923c-0.499,0-0.904,0.407-0.904,0.906v0.87l4.462,0.035H36.243z"/>
		<path fill="#412E21" d="M79.154,53.063c-0.762-1.008-2.07-1.414-3.255-1.028c-0.065-0.414-0.224-0.808-0.468-1.15
			c-0.778-1.085-2.254-1.434-3.432-0.812l-1.484,0.78c-0.053-0.339-0.173-0.667-0.349-0.959c-0.737-1.214-2.293-1.64-3.544-0.961
			l-1.046,0.566c-0.066-0.439-0.238-0.854-0.503-1.213c-0.809-1.097-2.27-1.433-3.477-0.803l-9.211,4.823
			c-1.055-0.394-4.409-1.456-8.283-0.74c-1.073,0.2-2.188,0.537-3.31,1.004c-0.461,0.192-0.68,0.724-0.487,1.184
			c0.092,0.223,0.266,0.397,0.489,0.49c0.226,0.093,0.471,0.092,0.695-0.001c1.004-0.418,1.995-0.72,2.944-0.896
			c4.086-0.761,7.596,0.765,7.671,0.797c0.026,0.01,0.051,0.019,0.108,0.034c0.028,0.008,0.055,0.013,0.116,0.022
			c0.034,0.003,0.066,0.006,0.109,0.007h9.66c0.586,0,1.064,0.477,1.064,1.063c0,0.534-0.4,0.988-0.931,1.055l-12.247,1.548
			c-0.453,0.057-0.794,0.444-0.791,0.901c0.001,0.457,0.344,0.842,0.796,0.896l5.203,0.626c5.078,0.609,10.123-0.378,14.593-2.859
			l6.495-3.605c0.496-0.255,1.094-0.118,1.429,0.323c0.198,0.263,0.273,0.6,0.203,0.923c-0.07,0.324-0.276,0.599-0.566,0.757
			l-11.098,6.047c-4.188,2.318-8.939,4.938-13.514,4.537l-16.412-1.462c-0.026-0.002-0.051-0.003-0.079-0.003l-6.145-0.002v0.908
			c0,0.499,0.405,0.905,0.904,0.905l5.193-0.001l16.378,1.461c0.366,0.031,0.744,0.048,1.125,0.048
			c4.742,0,9.354-2.551,13.423-4.803l11.091-6.043c0.754-0.41,1.29-1.126,1.472-1.965C79.865,54.623,79.672,53.748,79.154,53.063z
			 M68.708,51.502c-0.06,0.219-0.202,0.4-0.397,0.512l-3.665,1.928c-0.273-0.52-0.701-0.948-1.22-1.22l4.056-2.195
			c0.399-0.219,0.897-0.082,1.134,0.307C68.738,51.036,68.772,51.273,68.708,51.502z M74.098,52.638
			c-0.056,0.246-0.207,0.449-0.427,0.571l-4.765,2.644c-3.305,1.834-6.968,2.789-10.706,2.806l4.258-0.538
			c1.212-0.153,2.208-1.082,2.454-2.273l4.174-2.196l0.139-0.074l3.616-1.902c0.384-0.2,0.861-0.087,1.114,0.264
			C74.104,52.146,74.154,52.393,74.098,52.638z M63.772,50.112c-0.059,0.266-0.224,0.484-0.463,0.613l-3.086,1.67h-4.106
			l6.319-3.308c0.409-0.213,0.904-0.1,1.178,0.272C63.776,49.577,63.831,49.845,63.772,50.112z"/>
	</g>
</g>
</svg>
