<?xml version="1.0" encoding="utf-8"?>
<!-- Generator: Adobe Illustrator 22.0.0, SVG Export Plug-In . SVG Version: 6.00 Build 0)  -->
<svg version="1.1" id="Layer_1" xmlns="http://www.w3.org/2000/svg" xmlns:xlink="http://www.w3.org/1999/xlink" x="0px" y="0px"
	 width="124.5px" height="143.3px" viewBox="0 0 124.5 143.3" enable-background="new 0 0 124.5 143.3" xml:space="preserve">
<g>
	<g opacity="0.4">
		<circle fill="#FFFFFF" cx="62.3" cy="52.5" r="52.5"/>
	</g>
	<g>
		<path fill="#412E21" d="M1.7,136.5H4v-9.8l0.2-1.2l-0.7,1l-1.7,1.4L1,127l3.6-3.4h0.7v12.9h2.2v1.3h-6v-1.3H1.7z"/>
		<path fill="#412E21" d="M9.7,130.8c0-1.3,0.1-2.4,0.2-3.3c0.1-0.9,0.4-1.7,0.7-2.3s0.7-1,1.2-1.3s1-0.4,1.6-0.4s1.2,0.1,1.7,0.4
			s0.9,0.7,1.2,1.3c0.3,0.6,0.5,1.3,0.7,2.3c0.1,0.9,0.2,2,0.2,3.3s-0.1,2.4-0.2,3.3c-0.2,0.9-0.4,1.7-0.7,2.2s-0.7,1-1.2,1.3
			s-1,0.4-1.6,0.4c-0.7,0-1.2-0.1-1.7-0.4c-0.5-0.3-0.9-0.7-1.2-1.3s-0.5-1.3-0.7-2.3C9.7,133.2,9.7,132.1,9.7,130.8z M11.2,130.8
			c0,1.9,0.2,3.4,0.5,4.4c0.4,1,0.9,1.5,1.7,1.5s1.3-0.5,1.7-1.4s0.5-2.5,0.5-4.5c0-1.9-0.2-3.4-0.5-4.4s-0.9-1.6-1.7-1.6
			s-1.3,0.5-1.7,1.4C11.3,127.2,11.2,128.7,11.2,130.8z"/>
		<path fill="#412E21" d="M18.7,130.8c0-1.3,0.1-2.4,0.2-3.3c0.1-0.9,0.4-1.7,0.7-2.3s0.7-1,1.2-1.3s1-0.4,1.6-0.4s1.2,0.1,1.7,0.4
			s0.9,0.7,1.2,1.3s0.5,1.3,0.7,2.3s0.2,2,0.2,3.3s-0.1,2.4-0.2,3.3c-0.2,0.9-0.4,1.7-0.7,2.2c-0.3,0.6-0.7,1-1.2,1.3
			s-1,0.4-1.6,0.4c-0.7,0-1.2-0.1-1.7-0.4c-0.5-0.3-0.9-0.7-1.2-1.3s-0.5-1.3-0.7-2.3C18.8,133.2,18.7,132.1,18.7,130.8z
			 M20.2,130.8c0,1.9,0.2,3.4,0.5,4.4c0.4,1,0.9,1.5,1.7,1.5s1.3-0.5,1.7-1.4s0.5-2.5,0.5-4.5c0-1.9-0.2-3.4-0.5-4.4
			s-0.9-1.6-1.7-1.6s-1.3,0.5-1.7,1.4C20.3,127.2,20.2,128.7,20.2,130.8z"/>
		<path fill="#412E21" d="M28,127c0-0.6,0.1-1.1,0.2-1.6c0.1-0.4,0.3-0.8,0.5-1.1s0.5-0.5,0.8-0.6s0.6-0.2,1-0.2s0.7,0.1,1,0.2
			s0.6,0.3,0.8,0.6s0.4,0.6,0.5,1s0.2,1,0.2,1.6s-0.1,1.2-0.2,1.6c-0.1,0.4-0.3,0.8-0.5,1s-0.5,0.4-0.8,0.6c-0.3,0.1-0.6,0.2-1,0.2
			s-0.7-0.1-1-0.2c-0.3-0.1-0.6-0.3-0.8-0.6s-0.4-0.6-0.5-1S28,127.6,28,127z M37.3,123.5l0.9,0.6L29.8,138l-0.9-0.6L37.3,123.5z
			 M29.3,127c0,0.9,0.1,1.5,0.4,1.8s0.5,0.5,0.9,0.5c0.2,0,0.4,0,0.5-0.1c0.2-0.1,0.3-0.2,0.4-0.4s0.2-0.4,0.3-0.7
			c0.1-0.3,0.1-0.7,0.1-1.1c0-0.5,0-0.8-0.1-1.1s-0.1-0.5-0.3-0.7c-0.1-0.2-0.2-0.3-0.4-0.4c-0.2-0.1-0.3-0.1-0.5-0.1
			s-0.4,0-0.5,0.1c-0.2,0.1-0.3,0.2-0.4,0.4c-0.1,0.2-0.2,0.4-0.3,0.7S29.3,126.5,29.3,127z M34,134.4c0-0.6,0.1-1.1,0.2-1.6
			c0.1-0.4,0.3-0.8,0.5-1.1s0.5-0.5,0.8-0.6s0.6-0.2,1-0.2s0.7,0.1,1,0.2c0.3,0.1,0.6,0.3,0.8,0.6s0.4,0.6,0.5,1s0.2,1,0.2,1.6
			s-0.1,1.2-0.2,1.6c-0.1,0.4-0.3,0.8-0.5,1c-0.2,0.3-0.5,0.4-0.8,0.6c-0.3,0.1-0.6,0.2-1,0.2s-0.7-0.1-1-0.2
			c-0.3-0.1-0.6-0.3-0.8-0.6s-0.4-0.6-0.5-1C34,135.6,34,135,34,134.4z M35.3,134.4c0,0.9,0.1,1.5,0.4,1.8c0.2,0.3,0.5,0.5,0.9,0.5
			c0.2,0,0.4,0,0.5-0.1c0.2-0.1,0.3-0.2,0.4-0.4c0.1-0.2,0.2-0.4,0.3-0.7s0.1-0.7,0.1-1.2s0-0.8-0.1-1.1s-0.1-0.5-0.3-0.7
			c-0.1-0.2-0.2-0.3-0.4-0.4c-0.2-0.1-0.3-0.1-0.5-0.1s-0.4,0-0.5,0.1c-0.2,0.1-0.3,0.2-0.4,0.4c-0.1,0.2-0.2,0.4-0.3,0.7
			S35.3,133.9,35.3,134.4z"/>
		<path fill="#412E21" d="M50.2,133.3h-3.5v4.5h-1.4v-10h1.4v4.2h3.5v-4.2h1.4v10h-1.4V133.3z"/>
		<path fill="#412E21" d="M53.8,128.4c0.4-0.2,0.9-0.4,1.4-0.6c0.6-0.1,1.1-0.2,1.8-0.2c0.6,0,1,0.1,1.3,0.3s0.6,0.4,0.8,0.7
			s0.3,0.6,0.4,1c0.1,0.4,0.1,0.8,0.1,1.2c0,0.8,0,1.6-0.1,2.3c0,0.8-0.1,1.5-0.1,2.2c0,0.5,0,1,0.1,1.4c0,0.4,0.1,0.8,0.2,1.2h-1.1
			l-0.3-1.2h-0.1c-0.2,0.3-0.5,0.6-0.9,0.9s-0.9,0.4-1.5,0.4c-0.7,0-1.3-0.3-1.8-0.8s-0.7-1.2-0.7-2.1c0-0.6,0.1-1.1,0.3-1.4
			c0.2-0.4,0.5-0.7,0.8-0.9c0.4-0.2,0.8-0.4,1.3-0.5s1-0.1,1.6-0.1c0.1,0,0.3,0,0.4,0c0.1,0,0.3,0,0.4,0c0-0.4,0.1-0.8,0.1-1.1
			c0-0.8-0.1-1.3-0.3-1.6s-0.6-0.5-1.2-0.5c-0.4,0-0.8,0.1-1.2,0.2c-0.4,0.1-0.8,0.3-1.1,0.4L53.8,128.4z M58.2,133.2
			c-0.1,0-0.3,0-0.4,0s-0.3,0-0.4,0c-0.3,0-0.6,0-0.9,0.1c-0.3,0.1-0.6,0.1-0.8,0.3c-0.2,0.1-0.4,0.3-0.6,0.5
			c-0.1,0.2-0.2,0.5-0.2,0.9c0,0.5,0.1,0.9,0.4,1.2c0.3,0.3,0.6,0.4,1,0.4c0.6,0,1-0.1,1.3-0.4c0.3-0.3,0.5-0.6,0.6-0.9L58.2,133.2
			L58.2,133.2z"/>
		<path fill="#412E21" d="M67.3,129.1h-2.5v8.7h-1.4v-8.7h-2.5v-1.3h6.4V129.1z"/>
		<path fill="#412E21" d="M71,134.3l0.4,1.9h0.1l0.3-1.9l1.5-6.5h1.5l-2.4,9c-0.2,0.7-0.4,1.4-0.6,2s-0.4,1.2-0.6,1.6
			c-0.2,0.5-0.5,0.8-0.7,1.1s-0.6,0.4-1,0.4s-0.7-0.1-1-0.2l0.2-1.4c0.2,0.1,0.4,0.1,0.6,0s0.4-0.2,0.5-0.3s0.3-0.5,0.5-0.8
			c0.1-0.4,0.3-0.8,0.4-1.4l-3.2-10H69L71,134.3z"/>
		<path fill="#412E21" d="M76,127.8h1l0.2,1.1h0.1c0.5-0.9,1.3-1.3,2.3-1.3c1.1,0,1.8,0.4,2.4,1.2c0.5,0.8,0.8,2.1,0.8,3.9
			c0,0.8-0.1,1.6-0.3,2.3s-0.4,1.2-0.7,1.7s-0.7,0.8-1.2,1.1c-0.5,0.2-1,0.4-1.5,0.4c-0.4,0-0.7,0-0.9-0.1s-0.5-0.1-0.7-0.3v4.1
			h-1.4L76,127.8L76,127.8z M77.5,136.2c0.2,0.2,0.4,0.3,0.6,0.4c0.2,0.1,0.5,0.1,0.9,0.1c0.7,0,1.3-0.4,1.7-1.1
			c0.4-0.7,0.6-1.7,0.6-3.1c0-0.6,0-1.1-0.1-1.5c-0.1-0.5-0.2-0.8-0.3-1.2c-0.2-0.3-0.4-0.6-0.6-0.8s-0.5-0.3-0.9-0.3
			c-1,0-1.6,0.6-1.9,1.8C77.5,130.5,77.5,136.2,77.5,136.2z"/>
		<path fill="#412E21" d="M84.8,128.4c0.4-0.2,0.9-0.4,1.4-0.6c0.6-0.1,1.1-0.2,1.8-0.2c0.6,0,1,0.1,1.3,0.3s0.6,0.4,0.8,0.7
			s0.3,0.6,0.4,1s0.1,0.8,0.1,1.2c0,0.8,0,1.6-0.1,2.3c0,0.8-0.1,1.5-0.1,2.2c0,0.5,0,1,0.1,1.4c0,0.4,0.1,0.8,0.2,1.2h-1.1
			l-0.3-1.2h-0.1c-0.2,0.3-0.5,0.6-0.9,0.9s-0.9,0.4-1.5,0.4c-0.7,0-1.3-0.3-1.8-0.8s-0.7-1.2-0.7-2.1c0-0.6,0.1-1.1,0.3-1.4
			c0.2-0.4,0.5-0.7,0.8-0.9c0.4-0.2,0.8-0.4,1.3-0.5s1-0.1,1.6-0.1c0.1,0,0.3,0,0.4,0s0.3,0,0.4,0c0-0.4,0.1-0.8,0.1-1.1
			c0-0.8-0.1-1.3-0.3-1.6s-0.6-0.5-1.2-0.5c-0.4,0-0.8,0.1-1.2,0.2c-0.4,0.1-0.8,0.3-1.1,0.4L84.8,128.4z M89,133.2
			c-0.1,0-0.3,0-0.4,0s-0.3,0-0.4,0c-0.3,0-0.6,0-0.9,0.1s-0.6,0.1-0.8,0.3c-0.2,0.1-0.4,0.3-0.6,0.5c-0.1,0.2-0.2,0.5-0.2,0.9
			c0,0.5,0.1,0.9,0.4,1.2s0.6,0.4,1,0.4c0.6,0,1-0.1,1.3-0.4c0.3-0.3,0.5-0.6,0.6-0.9V133.2L89,133.2z"/>
		<path fill="#412E21" d="M97.3,129.1H95c0,1.1-0.1,2.2-0.2,3.3s-0.2,2-0.3,2.8c-0.2,0.8-0.4,1.5-0.7,1.9c-0.3,0.5-0.7,0.7-1.2,0.7
			c-0.2,0-0.4,0-0.6,0s-0.3-0.1-0.4-0.1l0.2-1.2c0.3,0.1,0.5,0.1,0.8-0.1c0.2-0.1,0.4-0.5,0.6-1s0.3-1.5,0.4-2.7s0.2-2.8,0.2-4.9
			h4.9v10h-1.5v-8.7H97.3z"/>
		<path fill="#412E21" d="M102.5,131.6c0.3-0.1,0.5-0.1,0.8-0.1c0.2,0,0.5,0,0.7,0c0.6,0,1,0.1,1.4,0.2s0.7,0.4,0.9,0.6
			s0.4,0.6,0.5,1s0.2,0.8,0.2,1.2c0,1.2-0.3,2.1-0.9,2.6s-1.5,0.8-2.8,0.8c-0.8,0-1.5,0-2.3-0.1v-10h1.4L102.5,131.6L102.5,131.6z
			 M102.5,136.5c0.4,0.1,0.8,0.1,1.1,0.1c1.3,0,1.9-0.7,1.9-2c0-0.6-0.1-1.1-0.4-1.4c-0.3-0.3-0.8-0.5-1.4-0.5c-0.2,0-0.4,0-0.6,0
			s-0.4,0.1-0.6,0.1V136.5z"/>
		<path fill="#412E21" d="M113.7,133.3h-3.5v4.5h-1.4v-10h1.4v4.2h3.5v-4.2h1.4v10h-1.4V133.3z"/>
		<path fill="#412E21" d="M117,132.8c0-1.8,0.3-3.1,0.9-4c0.6-0.9,1.5-1.3,2.6-1.3c1.2,0,2.1,0.4,2.7,1.3c0.6,0.9,0.9,2.2,0.9,3.9
			c0,1.8-0.3,3.1-0.9,4c-0.6,0.8-1.5,1.3-2.6,1.3c-1.2,0-2.1-0.4-2.7-1.3C117.3,135.9,117,134.6,117,132.8z M118.5,132.8
			c0,0.6,0,1.1,0.1,1.6s0.2,0.9,0.4,1.2s0.4,0.6,0.6,0.8s0.6,0.3,1,0.3c0.7,0,1.2-0.3,1.6-0.9s0.5-1.6,0.5-3c0-0.6,0-1.1-0.1-1.6
			s-0.2-0.9-0.4-1.3s-0.4-0.6-0.7-0.8s-0.6-0.3-1-0.3c-0.7,0-1.2,0.3-1.5,0.9S118.5,131.4,118.5,132.8z"/>
	</g>
</g>
<g id="_x31_00_натурально_1_">
	<path fill="#412E21" d="M50.952,71.711c-1.368,0-2.526-1.051-2.638-2.393c-0.005-0.059-0.009-1.126-0.009-1.723
		c0-0.487,0.395-0.882,0.882-0.882s0.882,0.395,0.882,0.882c0,0.543,0.002,1.498,0.005,1.615c0.034,0.396,0.421,0.736,0.878,0.736
		c0.487,0,0.882,0.395,0.882,0.882S51.439,71.711,50.952,71.711z"/>
	<path fill="#412E21" d="M67.311,49.708c-0.047-0.258-0.211-0.48-0.445-0.601c-0.232-0.12-0.508-0.127-0.747-0.016l-0.28,0.132
		c-2.265,1.077-7.662,3.831-8.867,6.144c-0.726,1.395-0.865,2.99-0.392,4.489c0.386,1.225,1.158,2.251,2.182,2.987l-0.997,1.915
		c-0.216,0.415-0.054,0.927,0.361,1.143c0.125,0.065,0.26,0.096,0.391,0.096c0.307,0,0.602-0.166,0.754-0.457l0.989-1.899
		c0.624,0.219,1.273,0.336,1.928,0.336c0.595,0,1.194-0.091,1.777-0.275c1.499-0.473,2.725-1.502,3.453-2.896
		C68.797,58.155,67.467,50.565,67.311,49.708z M61.182,53.743l0.874,2.772l-1.018,1.956l-1.185-3.758
		C60.246,54.399,60.681,54.076,61.182,53.743z M66.243,54.725l-1.606,0.506l1.389-2.668C66.113,53.268,66.188,54,66.243,54.725z
		 M63.164,54.388l-0.494-1.567c0.595-0.351,1.213-0.7,1.85-1.037L63.164,54.388z M63.53,57.359l2.803-0.883
		c0.013,0.587,0.006,1.142-0.028,1.643l-3.793,1.196L63.53,57.359z M58.475,56.151c0.008-0.016,0.027-0.035,0.036-0.051l1.418,4.5
		l-0.383,0.736C58.037,60.106,57.542,57.943,58.475,56.151z M63.455,62.085c-0.794,0.251-1.623,0.257-2.403,0.034l0.357-0.685
		c0.015-0.004,0.031-0.002,0.046-0.007l4.458-1.406c0,0,0,0.001-0.001,0.001C65.395,61.015,64.522,61.748,63.455,62.085z"/>
	<g>
		<path fill="#ED8726" d="M64.927,33.015c0,0.001,0,0.005,0,0.01c-0.075,0.974-0.293,1.931-0.638,2.858h0.223
			c1.46-1.786,2.412-3.892,2.788-6.158c-0.047,0.04-0.091,0.078-0.147,0.127c-0.408,0.368-0.967,0.873-2.02,0.873
			c-0.235,0-0.438-0.032-0.628-0.076c-0.055,0.504-0.138,1.004-0.234,1.501C64.666,32.246,64.954,32.598,64.927,33.015z"/>
		<path fill="#ED8726" d="M66.289,38.14c0-0.292-0.246-0.538-0.538-0.538H62c-0.166,0.168-0.269,0.398-0.269,0.652
			c0,0.155,0.048,0.296,0.116,0.425h3.904C66.043,38.678,66.289,38.431,66.289,38.14z"/>
		<path fill="#ED8726" d="M75.384,73.688l1.765,0.525c0.625,0.185,1.295-0.14,1.589-0.772c0.17-0.412,0.175-0.927-0.003-1.379
			c-0.059-0.182-0.101-0.301-0.142-0.418c-0.06-0.168-0.105-0.294-0.142-0.427c-0.129-0.429-0.215-0.676-0.272-0.834
			c-0.062-0.118-0.098-0.253-0.098-0.395c0-0.049,0.003-0.108,0.008-0.192c0.016-0.232,0.032-0.478,0.047-0.87
			c0.131-3.611,0.06-7.289-0.009-10.846l-0.049-2.702c-0.046-2.818-0.643-6.863-3.234-10.126c-0.185-0.233-0.378-0.461-0.579-0.681
			c-2.24-2.469-5.417-4.227-8.799-4.195c-0.79,0.007-1.58,0.021-2.37,0.021v2.342c0,0.138-0.041,0.263-0.099,0.379
			c1.173,0.488,2.265,1.188,3.223,2.019c4.583,3.974,5.146,10.475,5.296,16.145c0.039,1.495,0.112,2.996,0.122,4.491
			c0.012,1.896-0.168,3.817,0.232,5.688c0.144,0.676,0.399,1.267,0.779,1.759C73.614,73.152,74.532,73.311,75.384,73.688z"/>
	</g>
	<path fill="#412E21" d="M73.821,71.711c-0.487,0-0.882-0.395-0.882-0.882s0.395-0.882,0.882-0.882c0.457,0,0.844-0.34,0.88-0.774
		c0.001-0.097,0.002-1.04,0.002-1.577c0-0.487,0.395-0.882,0.882-0.882c0.487,0,0.882,0.395,0.882,0.882
		c0,1.634-0.005,1.683-0.01,1.736C76.349,70.658,75.19,71.711,73.821,71.711z"/>
	<path fill="#412E21" d="M80.333,71.502c-0.044-0.141-0.092-0.281-0.157-0.469c-0.034-0.092-0.067-0.179-0.097-0.287
		c-0.14-0.466-0.234-0.736-0.294-0.905c0.011-0.177,0.029-0.438,0.044-0.853c0.134-3.659,0.062-7.361-0.007-10.941l-0.049-2.697
		c-0.072-4.418-1.318-8.275-3.602-11.153c-2.046-2.576-4.897-4.449-8.025-5.274c-0.06-0.016-0.157-0.034-0.269-0.052
		c0.08-0.231,0.132-0.474,0.132-0.731c0-0.99-0.646-1.824-1.535-2.127c1.494-2.143,2.392-4.629,2.606-7.267
		c0.029-0.354-0.175-0.668-0.48-0.808c-0.152-0.139-0.35-0.229-0.573-0.229c-1.052,0-1.612,0.505-2.02,0.873
		c-0.341,0.308-0.494,0.433-0.873,0.433c-0.379,0-0.532-0.125-0.873-0.433c-0.408-0.368-0.967-0.873-2.02-0.873
		c-1.052,0-1.611,0.506-2.019,0.874c-0.339,0.307-0.492,0.431-0.869,0.431c-0.378,0-0.531-0.125-0.87-0.432
		c-0.408-0.369-0.967-0.874-2.019-0.874c-0.222,0-0.421,0.09-0.573,0.229c-0.304,0.14-0.507,0.453-0.478,0.807
		c0.214,2.639,1.112,5.125,2.606,7.267c-0.889,0.303-1.535,1.137-1.535,2.127c0,0.291,0.06,0.567,0.161,0.823
		c-1.713,0.454-3.391,1.201-4.903,2.224c-1.937,1.31-3.578,3.034-4.743,4.984c-0.977,1.625-1.629,3.541-1.996,5.858
		c-0.385,2.44-0.401,4.94-0.416,7.358l-0.011,1.397c-0.034,2.794-0.005,5.553,0.087,8.2c0.015,0.415,0.032,0.674,0.043,0.802
		c0,0.018,0,0.036,0.001,0.054c-0.063,0.177-0.157,0.447-0.293,0.904c-0.029,0.095-0.061,0.193-0.115,0.337
		c-0.048,0.139-0.098,0.28-0.115,0.346c-0.342,0.862-0.335,1.846,0.036,2.738c0.653,1.396,2.173,2.098,3.617,1.676l1.961-0.599
		c0.772-0.342,1.618-0.44,2.332-0.313c0.516,0.17,1.027,0.376,1.507,0.604c0.894,0.443,1.839,0.772,2.86,0.987
		c1.202,0.178,2.42,0.269,3.617,0.269c0.268,0,0.534-0.005,0.8-0.014h0.602c0.532-0.006,5.235-0.062,6.531-0.264
		c0.633-0.134,1.864-0.617,3.289-1.186c0.475-0.19,0.859-0.345,0.918-0.372c0.825-0.155,1.672-0.056,2.543,0.322l1.869,0.563
		c1.443,0.422,2.958-0.285,3.625-1.714C80.642,73.274,80.65,72.295,80.333,71.502z M58.203,38.14c0-0.292,0.246-0.538,0.538-0.538
		h7.011c0.292,0,0.538,0.246,0.538,0.538c0,0.292-0.246,0.538-0.538,0.538h-7.011C58.444,38.678,58.203,38.437,58.203,38.14z
		 M57.193,29.729c0.046,0.039,0.088,0.075,0.141,0.124c0.408,0.369,0.967,0.874,2.019,0.874s1.61-0.505,2.018-0.874
		c0.339-0.307,0.492-0.432,0.87-0.432c0.379,0,0.532,0.125,0.873,0.433c0.408,0.368,0.967,0.873,2.02,0.873
		c1.052,0,1.612-0.505,2.02-0.873c0.055-0.05,0.1-0.087,0.147-0.127c-0.376,2.265-1.328,4.372-2.788,6.158h-0.223
		c0.345-0.927,0.563-1.884,0.638-2.858c0-0.005,0-0.009,0-0.01c0.03-0.465-0.322-0.867-0.787-0.9
		c-0.437-0.04-0.867,0.316-0.904,0.781c-0.002,0.031-0.005,0.062-0.007,0.093h-0.001c0,0.008-0.001,0.017-0.001,0.025
		c-0.088,0.977-0.344,1.937-0.758,2.856c-0.002,0.004-0.001,0.009-0.003,0.013h-0.372c-0.012-0.076-0.02-0.153-0.054-0.226
		c-0.403-0.873-0.63-1.793-0.673-2.735c-0.021-0.468-0.426-0.82-0.886-0.808c-0.468,0.021-0.83,0.418-0.808,0.886
		c0.045,0.989,0.264,1.955,0.631,2.883h-0.322C58.522,34.101,57.57,31.994,57.193,29.729z M78.738,73.441
		c-0.294,0.632-0.964,0.957-1.589,0.772l-1.765-0.525c-1.089-0.481-2.283-0.622-3.555-0.371c-0.184,0.061-0.604,0.227-1.123,0.434
		c-0.924,0.369-2.471,0.987-2.969,1.094c-0.955,0.148-4.829,0.221-6.232,0.236h-0.622c-1.38,0.049-2.769-0.033-4.087-0.227
		c-0.831-0.176-1.641-0.457-2.42-0.843c-0.556-0.265-1.133-0.497-1.825-0.718c-1.162-0.219-2.355-0.082-3.345,0.363l-1.857,0.561
		c-0.635,0.187-1.303-0.139-1.582-0.734c-0.187-0.453-0.192-0.973,0.013-1.495c0.033-0.11,0.076-0.229,0.115-0.341
		c0.054-0.14,0.1-0.279,0.141-0.417c0.138-0.469,0.229-0.719,0.281-0.866c0.032-0.086,0.053-0.146,0.067-0.199
		c0.038-0.136,0.044-0.303,0.011-0.441c-0.011-0.165-0.028-0.41-0.041-0.799c-0.092-2.62-0.121-5.351-0.086-8.119l0.011-1.407
		c0.015-2.355,0.03-4.79,0.395-7.104c0.331-2.098,0.911-3.814,1.774-5.251c1.041-1.74,2.506-3.279,4.24-4.452
		c0.868-0.587,1.798-1.083,2.771-1.472c1.173-0.47,2.335-0.781,3.62-0.741c0.173,0.005,2.315,0.08,2.315,0.018v2.342
		c0,0.468,0.379,0.848,0.848,0.848c0.469,0,0.848-0.38,0.848-0.848c0,0,0-2.342,0-2.342c0.79,0,1.58-0.013,2.37-0.021
		c3.382-0.032,6.559,1.726,8.799,4.195c0.2,0.221,0.393,0.448,0.579,0.681c2.591,3.264,3.188,7.308,3.234,10.126l0.049,2.702
		c0.069,3.557,0.14,7.235,0.009,10.846c-0.015,0.392-0.031,0.638-0.047,0.87c-0.005,0.084-0.008,0.142-0.008,0.192
		c0,0.142,0.036,0.277,0.098,0.395c0.057,0.159,0.144,0.406,0.272,0.834c0.038,0.133,0.083,0.26,0.142,0.427
		c0.041,0.117,0.084,0.237,0.142,0.418C78.913,72.514,78.908,73.028,78.738,73.441z"/>
</g>
</svg>
