<?xml version="1.0" encoding="utf-8"?>
<!-- Generator: Adobe Illustrator 22.0.0, SVG Export Plug-In . SVG Version: 6.00 Build 0)  -->
<svg version="1.1" id="Layer_1" xmlns="http://www.w3.org/2000/svg" xmlns:xlink="http://www.w3.org/1999/xlink" x="0px" y="0px"
	 width="104.8px" height="143.3px" viewBox="0 0 104.8 143.3" enable-background="new 0 0 104.8 143.3" xml:space="preserve">
<g>
	<g opacity="0.6">
		<circle fill="#FFFFFF" cx="52.6" cy="52.5" r="52.5"/>
	</g>
	<g>
		<path fill="#fff" d="M16.3,129h-3.4v8.7h-1.4v-10h6.2v10h-1.4L16.3,129L16.3,129z"/>
		<path fill="#fff" d="M26.1,137c-0.3,0.3-0.7,0.5-1.2,0.7s-1,0.2-1.6,0.2s-1.2-0.1-1.6-0.4c-0.5-0.2-0.8-0.6-1.1-1.1
			s-0.5-1-0.7-1.6c-0.1-0.6-0.2-1.4-0.2-2.2c0-1.7,0.3-3,0.9-3.9c0.6-0.9,1.5-1.3,2.7-1.3c0.4,0,0.7,0,1.1,0.1s0.7,0.3,1,0.6
			c0.3,0.3,0.5,0.7,0.7,1.2s0.3,1.2,0.3,2c0,0.2,0,0.5,0,0.7c0,0.3,0,0.5-0.1,0.8h-5.1c0,0.6,0,1.1,0.1,1.6s0.2,0.9,0.4,1.2
			s0.5,0.6,0.8,0.8s0.7,0.3,1.2,0.3c0.4,0,0.7-0.1,1.1-0.2c0.4-0.1,0.6-0.3,0.8-0.5L26.1,137z M25,131.6c0-1-0.1-1.7-0.4-2.2
			s-0.7-0.7-1.3-0.7s-1.1,0.2-1.5,0.7s-0.6,1.2-0.6,2.2H25z"/>
		<path fill="#fff" d="M29.5,127.7v2.9c0,0.3,0,0.6,0,0.9s0.1,0.5,0.2,0.7s0.2,0.3,0.4,0.4c0.2,0.1,0.4,0.1,0.7,0.1
			c0.5,0,0.8-0.1,1.1-0.2c0.3-0.1,0.5-0.3,0.7-0.4v-4.5H34v10h-1.4v-4.2c-0.2,0.1-0.4,0.3-0.8,0.4c-0.3,0.1-0.8,0.2-1.4,0.2
			c-0.4,0-0.7-0.1-1-0.2c-0.3-0.1-0.6-0.3-0.8-0.5s-0.4-0.5-0.5-0.9s-0.2-0.9-0.2-1.5v-3.4h1.6V127.7z"/>
		<path fill="#fff" d="M42.4,137c-0.3,0.3-0.7,0.5-1.2,0.7s-1,0.2-1.6,0.2s-1.2-0.1-1.6-0.4c-0.5-0.2-0.8-0.6-1.1-1.1
			s-0.5-1-0.7-1.6c-0.1-0.6-0.2-1.4-0.2-2.2c0-1.7,0.3-3,0.9-3.9c0.6-0.9,1.5-1.3,2.7-1.3c0.4,0,0.7,0,1.1,0.1
			c0.4,0.1,0.7,0.3,1,0.6c0.3,0.3,0.5,0.7,0.7,1.2s0.3,1.2,0.3,2c0,0.2,0,0.5,0,0.7c0,0.3,0,0.5-0.1,0.8h-5.1c0,0.6,0,1.1,0.1,1.6
			s0.2,0.9,0.4,1.2s0.5,0.6,0.8,0.8s0.7,0.3,1.2,0.3c0.4,0,0.7-0.1,1.1-0.2c0.4-0.1,0.6-0.3,0.8-0.5L42.4,137z M41.3,131.6
			c0-1-0.1-1.7-0.4-2.2c-0.3-0.5-0.7-0.7-1.3-0.7s-1.1,0.2-1.5,0.7s-0.6,1.2-0.6,2.2H41.3z"/>
		<path fill="#fff" d="M51.4,131.7l0.1-1.9h-0.1l-0.6,1.7l-1.9,3.8h-0.5l-1.9-3.8l-0.5-1.7h-0.1l0.2,1.9v6h-1.3v-10h1.4l2.2,4.3
			l0.4,1.3l0,0l0.5-1.3l2-4.3h1.5v10h-1.4C51.4,137.7,51.4,131.7,51.4,131.7z"/>
		<path fill="#fff" d="M65.1,137.2c-0.3,0.3-0.7,0.4-1.1,0.6c-0.4,0.1-0.9,0.2-1.3,0.2c-0.6,0-1.2-0.1-1.6-0.4
			c-0.4-0.2-0.8-0.6-1.1-1.1s-0.5-1-0.6-1.7c-0.1-0.6-0.2-1.4-0.2-2.2c0-1.7,0.3-3,0.9-3.9c0.6-0.9,1.5-1.3,2.6-1.3
			c0.5,0,1,0,1.3,0.1c0.4,0.1,0.7,0.2,1,0.4l-0.4,1.3c-0.5-0.3-1.1-0.5-1.7-0.5c-0.7,0-1.3,0.3-1.6,1c-0.4,0.6-0.5,1.6-0.5,3
			c0,0.5,0,1.1,0.1,1.5c0.1,0.5,0.2,0.9,0.4,1.3c0.2,0.4,0.4,0.6,0.7,0.8s0.7,0.3,1.1,0.3c0.3,0,0.7-0.1,1-0.2
			c0.3-0.1,0.5-0.3,0.7-0.4L65.1,137.2z"/>
		<path fill="#fff" d="M66.7,128.3c0.4-0.2,0.9-0.4,1.4-0.6c0.6-0.1,1.1-0.2,1.8-0.2c0.6,0,1,0.1,1.3,0.3s0.6,0.4,0.8,0.7
			c0.2,0.3,0.3,0.6,0.4,1s0.1,0.8,0.1,1.2c0,0.8,0,1.6-0.1,2.3c0,0.8-0.1,1.5-0.1,2.2c0,0.5,0,1,0.1,1.4c0,0.4,0.1,0.8,0.2,1.2h-1.1
			l-0.3-1.2h-0.1c-0.2,0.3-0.5,0.6-0.9,0.9s-0.9,0.4-1.5,0.4c-0.7,0-1.3-0.3-1.8-0.8s-0.7-1.2-0.7-2.1c0-0.6,0.1-1.1,0.3-1.4
			s0.5-0.7,0.8-0.9c0.4-0.2,0.8-0.4,1.2-0.5c0.5-0.1,1-0.1,1.6-0.1c0.1,0,0.3,0,0.4,0s0.3,0,0.4,0c0-0.4,0.1-0.8,0.1-1.1
			c0-0.8-0.1-1.3-0.3-1.6c-0.2-0.3-0.6-0.5-1.2-0.5c-0.4,0-0.8,0.1-1.2,0.2c-0.4,0.1-0.8,0.3-1.1,0.4L66.7,128.3z M71,133.1
			c-0.1,0-0.3,0-0.4,0s-0.3,0-0.4,0c-0.3,0-0.6,0-0.9,0.1s-0.6,0.1-0.8,0.3c-0.2,0.1-0.4,0.3-0.6,0.5c-0.1,0.2-0.2,0.5-0.2,0.9
			c0,0.5,0.1,0.9,0.4,1.2s0.6,0.4,1,0.4c0.6,0,1-0.1,1.3-0.4s0.5-0.6,0.6-0.9V133.1z"/>
		<path fill="#fff" d="M81.5,131.7l0.1-1.9h-0.1l-0.6,1.7l-1.9,3.8h-0.5l-1.9-3.8l-0.5-1.7H76l0.2,1.9v6h-1.4v-10h1.4l2.2,4.3
			l0.4,1.3l0,0l0.5-1.3l2-4.3h1.5v10h-1.4v-6H81.5z"/>
		<path fill="#fff" d="M90.3,131.9l0.1-1.5h-0.1l-0.7,1.7l-3.4,5.6h-0.9v-10h1.4v5.9l-0.1,1.5h0.1l0.7-1.6l3.4-5.8h0.9v10h-1.4
			V131.9z"/>
	</g>
	<g id="печем_сами_1_">
		<g>
			<polygon fill="#ED8726" points="51.779,50.643 50.077,52.602 52.413,55.605 56.09,55.605 			"/>
			<path fill="#ED8726" d="M39.354,33.75c-0.215,0-0.429-0.079-0.597-0.239l-2.035-1.942l-0.056,0.055
				c-0.529,0.513-0.803,1.177-0.772,1.871c0.03,0.696,0.362,1.337,0.935,1.806l11.019,9.01c0.017,0.014,0.025,0.037,0.041,0.052
				c0.1-0.519,0.3-1.001,0.582-1.427l-6.534-6.354c-0.342-0.333-0.35-0.88-0.017-1.222c0.021-0.022,0.05-0.031,0.073-0.05
				l-1.976-1.888c-0.015,0.019-0.021,0.042-0.037,0.059C39.809,33.66,39.582,33.75,39.354,33.75z"/>
			<path fill="#ED8726" d="M64.612,56.513l2.098,2.002l0.183-0.178c0.528-0.512,0.803-1.177,0.772-1.871
				c-0.03-0.696-0.362-1.336-0.935-1.805l-11.019-9.011c-0.025-0.02-0.036-0.052-0.058-0.074c-0.057,0.48-0.198,0.93-0.412,1.342
				l6.709,6.523c0.329,0.32,0.34,0.834,0.046,1.177l1.839,1.692C64.106,56.251,64.397,56.307,64.612,56.513z"/>
			<path fill="#ED8726" d="M69.012,58.265c0.199-0.29,0.303-0.623,0.314-0.96C69.266,57.638,69.153,57.957,69.012,58.265z"/>
			<path fill="#ED8726" d="M52.513,43.036c-0.237-0.087-0.49-0.142-0.756-0.142c-0.519,0-0.991,0.187-1.369,0.487
				c-0.511,0.406-0.846,1.025-0.846,1.728c0,0.38,0.105,0.733,0.274,1.045c0.347,0.641,0.994,1.087,1.756,1.151
				c0.941-0.574,1.548-1.657,1.467-2.869C53,43.854,52.806,43.395,52.513,43.036z"/>
			<path fill="#ED8726" d="M54.906,68.65c0-1.214-0.749-2.255-1.808-2.69c0,0-0.001,0-0.001,0c-1.354,0.523-2.304,1.747-2.304,3.174
				v6.179h4.114V68.65z"/>
		</g>
		<path fill="#412E21" d="M57.623,44.98l10.202-8.343c0.959-0.785,1.515-1.874,1.567-3.067c0.052-1.195-0.408-2.327-1.295-3.188
			l-1.31-1.27c-0.881-0.855-2.047-1.295-3.245-1.246c-1.213,0.05-2.323,0.587-3.127,1.511l-4.59,5.282
			c-1.229-0.735-2.599-1.142-4.075-1.142c-1.408,0-2.775,0.411-4.008,1.154l-4.6-5.295c-0.803-0.924-1.914-1.461-3.127-1.511
			c-1.219-0.046-2.365,0.392-3.245,1.246l-1.31,1.27c-0.888,0.862-1.348,1.994-1.295,3.188c0.052,1.194,0.609,2.283,1.567,3.067
			l7.27,5.945c-0.034,0.077-0.068,0.153-0.078,0.241l-0.576,5.085c0,0.001,0.001,0.003,0,0.004l-6.615,5.41
			c-0.959,0.783-1.516,1.872-1.568,3.066c-0.053,1.195,0.407,2.327,1.295,3.188l1.31,1.271c0.832,0.806,1.918,1.25,3.061,1.25
			l0.183-0.004c0.271-0.011,0.534-0.055,0.792-0.113l-2.337,12.48c-0.133,0.713,0.05,1.433,0.501,1.976
			c0.409,0.492,0.999,0.775,1.619,0.775h22.292c0.617-0.001,1.205-0.281,1.614-0.771c0.451-0.538,0.636-1.255,0.508-1.965
			L62.747,61.98c0.258,0.058,0.52,0.102,0.79,0.113l0.189,0.005c1.142,0,2.229-0.444,3.062-1.25l1.31-1.271
			c0.887-0.862,1.347-1.993,1.295-3.187c-0.052-1.194-0.609-2.283-1.567-3.067L57.623,44.98z M61.72,30.511
			c0.488-0.562,1.161-0.888,1.894-0.918c0.641-0.027,1.255,0.19,1.761,0.594l-1.956,1.866c-0.345,0.329-0.358,0.876-0.028,1.221
			c0.169,0.178,0.397,0.268,0.625,0.268c0.215,0,0.429-0.079,0.597-0.239l2.023-1.93l0.258,0.25
			c0.528,0.512,0.803,1.177,0.772,1.872c-0.03,0.695-0.362,1.336-0.935,1.805l-11.019,9.011c-0.035,0.029-0.052,0.071-0.081,0.104
			c-0.089-0.499-0.274-0.961-0.532-1.376l6.853-6.663c0.342-0.333,0.35-0.88,0.017-1.222c-0.332-0.342-0.88-0.349-1.222-0.017
			l-6.856,6.666c-0.446-0.289-0.954-0.483-1.498-0.572c0.012-0.012,0.029-0.016,0.04-0.029L61.72,30.511z M51.779,50.643
			l4.311,4.962h-8.622L51.779,50.643z M51.757,47.325c-1.221,0-2.215-0.994-2.215-2.215c0-1.221,0.994-2.215,2.215-2.215
			s2.215,0.993,2.215,2.215C53.972,46.331,52.978,47.325,51.757,47.325z M51.838,35.246c0.986,0,1.952,0.257,2.841,0.734l-2.9,3.338
			l-2.889-3.326C49.788,35.508,50.775,35.246,51.838,35.246z M35.894,33.495c-0.031-0.694,0.243-1.358,0.772-1.871l0.056-0.055
			l2.035,1.942c0.168,0.16,0.382,0.239,0.597,0.239c0.228,0,0.456-0.09,0.625-0.268c0.33-0.345,0.317-0.892-0.028-1.221
			l-1.987-1.896l0.012-0.012c0.509-0.494,1.164-0.762,1.856-0.762c0.038,0,0.076,0.001,0.114,0.002
			c0.733,0.03,1.406,0.356,1.894,0.918l9.288,10.69c0.01,0.011,0.024,0.014,0.035,0.025c-0.519,0.08-1.003,0.258-1.435,0.52
			l-6.585-6.403c-0.341-0.332-0.889-0.324-1.222,0.017c-0.332,0.342-0.325,0.889,0.017,1.222l6.534,6.354
			c-0.282,0.425-0.483,0.908-0.582,1.427c-0.016-0.015-0.023-0.038-0.041-0.052l-11.019-9.01
			C36.256,34.832,35.924,34.191,35.894,33.495z M44.55,43.847l1.386,1.133l-1.669,1.365L44.55,43.847z M39.833,60.37
			c-0.691,0-1.351-0.271-1.857-0.762l-0.087-0.084l2.062-1.967c0.345-0.33,0.358-0.877,0.029-1.222
			c-0.33-0.345-0.876-0.357-1.222-0.029l-2.109,2.011c-0.516-0.51-0.785-1.165-0.755-1.851c0.03-0.696,0.362-1.336,0.935-1.804
			l11.019-9.012c0.008-0.006,0.01-0.016,0.018-0.022c0.067,0.501,0.225,0.968,0.462,1.392l-6.391,6.216
			c-0.342,0.332-0.35,0.88-0.017,1.221c0.169,0.174,0.395,0.262,0.62,0.262c0.217,0,0.435-0.081,0.602-0.244l6.334-6.16
			c0.435,0.311,0.93,0.54,1.471,0.654l-9.108,10.482C41.351,60.011,40.679,60.337,39.833,60.37z M49.088,75.312V68.65
			c0-1.604,1.305-2.909,2.909-2.909s2.909,1.306,2.909,2.909v6.663H49.088z M63.304,74.783c0.036,0.202-0.014,0.407-0.133,0.55
			c-0.057,0.068-0.154,0.151-0.288,0.151h-6.248V68.65c0-2.557-2.08-4.638-4.637-4.638c-2.557,0-4.637,2.08-4.637,4.638v6.834h-6.77
			c-0.135,0-0.232-0.082-0.29-0.152c-0.12-0.144-0.169-0.352-0.131-0.554l2.59-13.834c0.129-0.118,0.266-0.226,0.383-0.361
			l2.824-3.25h11.625l2.824,3.25c0.119,0.137,0.258,0.248,0.39,0.368L63.304,74.783z M66.894,58.336l-0.183,0.178l-2.098-2.002
			c-0.345-0.33-0.892-0.316-1.221,0.028c-0.33,0.345-0.317,0.892,0.028,1.221l2.039,1.945c-0.492,0.421-1.119,0.649-1.845,0.659
			c-0.733-0.03-1.405-0.356-1.893-0.917l-9.117-10.493c0.564-0.124,1.076-0.376,1.522-0.714l6.621,6.437
			c0.168,0.163,0.385,0.244,0.602,0.244c0.225,0,0.45-0.088,0.62-0.262c0.332-0.342,0.325-0.889-0.017-1.222l-6.709-6.523
			c0.214-0.411,0.355-0.862,0.412-1.342c0.022,0.023,0.033,0.054,0.058,0.074l11.019,9.011c0.573,0.468,0.905,1.109,0.935,1.805
			C67.696,57.159,67.422,57.824,66.894,58.336z"/>
	</g>
</g>
</svg>
