<?xml version="1.0" encoding="utf-8"?>
<!-- Generator: Adobe Illustrator 23.0.3, SVG Export Plug-In . SVG Version: 6.00 Build 0)  -->
<svg version="1.1" id="Layer_1" xmlns="http://www.w3.org/2000/svg" xmlns:xlink="http://www.w3.org/1999/xlink" x="0px" y="0px"
	 width="67.613px" height="53.871px" viewBox="0 0 67.613 53.871" enable-background="new 0 0 67.613 53.871" xml:space="preserve">
<g id="коллетив">
	<g>
		<path fill="#ED8726" d="M41.613,44.841c-0.746,0-1.405,0.339-1.855,0.864c-0.023,0.135-0.042,0.271-0.042,0.412
			c0,1.338,1.089,2.427,2.427,2.427c0.769,0,1.447-0.366,1.892-0.925c0.014-0.107,0.032-0.213,0.032-0.324
			C44.067,45.94,42.968,44.841,41.613,44.841z"/>
		<g>
			<path fill="#412E21" d="M42.143,41.947c-2.3,0-4.171,1.871-4.171,4.171c0,2.3,1.87,4.17,4.171,4.17c2.3,0,4.17-1.871,4.17-4.17
				C46.313,43.818,44.443,41.947,42.143,41.947z M44.035,47.619c-0.445,0.559-1.123,0.925-1.892,0.925
				c-1.338,0-2.427-1.089-2.427-2.427c0-0.141,0.019-0.278,0.042-0.412c0.197-1.142,1.188-2.015,2.386-2.015
				c1.338,0,2.427,1.089,2.427,2.427C44.57,46.687,44.364,47.205,44.035,47.619z"/>
		</g>
	</g>
	<path fill="#ED8726" d="M17.544,29.311c-4.144-0.697-7.065-4.336-7.172-8.363l-1.103,0.884c-0.065,0.053-0.13,0.106-0.195,0.159
		c-0.016,0.62,0.097,1.373,0.321,2.157c0.213,0.745,0.543,1.449,0.982,2.094c0.853,1.253,2.103,2.231,3.518,2.754
		c1.007,0.371,2.103,0.516,3.162,0.425c0.426-0.04,0.775,0.232,0.892,0.616C18.44,29.877,18.726,29.51,17.544,29.311z"/>
	<path fill="#412E21" d="M17.949,30.037c-0.117-0.383-0.466-0.655-0.892-0.616c-1.059,0.091-2.155-0.053-3.162-0.425
		c-1.415-0.523-2.665-1.501-3.518-2.754c-0.439-0.645-0.769-1.349-0.982-2.094c-0.224-0.784-0.337-1.536-0.321-2.157
		c0.065-0.053,0.13-0.106,0.195-0.159l1.103-0.884l5.554-4.455c0.376-0.301,0.436-0.85,0.135-1.226
		c-0.3-0.375-0.848-0.436-1.225-0.136l-7.03,5.639c-0.214,0.165-0.418,0.38-0.456,0.825c-0.097,1.104,0.147,2.258,0.368,3.031
		c0.264,0.923,0.674,1.797,1.218,2.595c0.857,1.259,2.048,2.276,3.4,2.967c-0.064,0.972-0.301,1.704-0.771,2.295
		c-0.484,0.608-1.225,0.915-2.264,1.214c-1.336,0.384-2.436,0.784-3.459,1.486c-1.745,1.196-3.013,2.921-3.568,4.86
		c-0.043,0.148-0.081,0.297-0.114,0.442c-0.145,0.626-0.218,1.272-0.218,1.918v2.048c0,0.481,0.39,0.872,0.872,0.872
		s0.872-0.39,0.872-0.872v-2.048c0-0.515,0.059-1.027,0.175-1.529c0.027-0.119,0.058-0.238,0.091-0.353
		c0.443-1.548,1.464-2.933,2.876-3.899c0.831-0.569,1.783-0.911,2.956-1.248c1.152-0.331,2.331-0.778,3.147-1.804
		c0.597-0.75,0.957-1.626,1.103-2.702c0.779,0.213,1.583,0.322,2.4,0.322c0.261,0,0.518-0.011,0.774-0.033
		c0.48-0.041,0.835-0.463,0.794-0.943C17.995,30.151,17.967,30.096,17.949,30.037z"/>
	<g>
		<path fill="#ED8726" d="M31.629,32.797c-0.363-0.037-0.724-0.092-1.076-0.164c-0.312-0.064-0.621-0.145-0.926-0.236
			c-0.154,1.381-0.577,2.499-1.324,3.438c-0.675,0.849-1.549,1.35-2.436,1.702c0.489,0.573,1.006,1.078,1.54,1.527
			c1.181-0.498,2.262-1.613,2.926-2.594c0.753-1.113,1.081-2.389,1.416-3.674c-0.01,0-0.02,0.006-0.03,0.006
			C31.689,32.802,31.66,32.8,31.629,32.797z"/>
		<path fill="#412E21" d="M50.725,44.296c-0.041-0.178-0.087-0.354-0.137-0.532c-0.666-2.325-2.188-4.396-4.285-5.832
			c-1.234-0.845-2.561-1.327-4.173-1.79c-1.308-0.376-2.243-0.766-2.866-1.549c-0.341-0.431-0.59-0.913-0.757-1.474
			c-0.137-0.461-0.619-0.724-1.085-0.586c-0.461,0.137-0.723,0.623-0.586,1.084c0.229,0.768,0.587,1.461,1.064,2.061
			c0.678,0.853,1.557,1.355,2.45,1.707c-1.917,2.489-4.378,3.891-7.014,3.945c-2.094,0.06-4.125-0.746-5.928-2.266
			c-0.534-0.45-1.051-0.955-1.54-1.527c0.888-0.352,1.761-0.853,2.436-1.702c0.747-0.939,1.17-2.057,1.324-3.438
			c0.306,0.091,0.614,0.173,0.926,0.236c0.352,0.072,0.712,0.127,1.076,0.164c0.03,0.003,0.06,0.005,0.089,0.005
			c0.01,0,0.02-0.005,0.03-0.006c0.428-0.015,0.792-0.34,0.836-0.778c0.049-0.479-0.3-0.907-0.779-0.956
			c-0.307-0.031-0.608-0.077-0.905-0.137c-0.453-0.092-0.9-0.22-1.332-0.38c-3.573-1.32-5.975-4.767-5.975-8.579v-0.053
			c2.732-0.39,4.634-2.609,4.634-5.563c0-0.481-0.39-0.872-0.872-0.872c-0.481,0-0.871,0.39-0.871,0.872
			c0,2.284-1.547,3.88-3.763,3.88c-0.481,0-0.872,0.39-0.872,0.872v0.864c0,4.158,2.403,7.945,6.077,9.761
			c-0.072,1.274-0.38,2.256-0.99,3.022c-0.623,0.783-1.558,1.174-2.866,1.549c-1.612,0.463-2.939,0.945-4.173,1.79
			c-2.097,1.436-3.618,3.508-4.283,5.831c-0.052,0.178-0.097,0.357-0.139,0.535c-0.174,0.751-0.262,1.525-0.262,2.302v2.504
			c0,0.481,0.39,0.872,0.872,0.872c0.481,0,0.871-0.39,0.871-0.872v-2.504c0-0.644,0.074-1.285,0.218-1.909
			c0.034-0.149,0.073-0.296,0.116-0.445c0.553-1.935,1.829-3.666,3.591-4.874c0.926-0.634,1.972-1.037,3.21-1.412
			c2.511,3.198,5.706,4.96,9.077,4.96c0.066,0,0.133-0.001,0.201-0.002c3.357-0.069,6.441-1.891,8.726-5.118
			c1.242,0.375,2.292,0.779,3.221,1.415c1.762,1.207,3.038,2.938,3.592,4.871c0.043,0.15,0.081,0.301,0.116,0.45
			c0.145,0.623,0.217,1.265,0.217,1.908v2.505c0,0.481,0.39,0.872,0.871,0.872c0.482,0,0.872-0.39,0.872-0.872v-2.505
			C50.987,45.824,50.9,45.05,50.725,44.296z"/>
	</g>
	<path fill="#412E21" d="M22.821,8.032c-1.866-1.31-4.019-2.002-6.228-2.002c-6.334,0-11.504,5.665-11.768,12.736
		c-0.001,0.016-0.009,0.029-0.01,0.045c-0.001,0.047,0.002,0.093,0.001,0.14C4.813,19.078,4.8,19.201,4.8,19.329
		c0,0.038,0.017,0.07,0.022,0.107C4.82,24.696,5.812,30.04,7.723,34.933c0.134,0.344,0.463,0.555,0.812,0.555
		c0.106,0,0.213-0.019,0.318-0.06c0.448-0.175,0.67-0.681,0.494-1.129C7.456,29.456,6.495,24.151,6.56,18.95
		c0.176-6.195,4.603-11.177,10.034-11.177c1.848,0,3.655,0.583,5.226,1.685c0.392,0.277,0.938,0.182,1.214-0.213
		C23.311,8.852,23.215,8.308,22.821,8.032z"/>
	<path fill="#ED8726" d="M49.063,32.372c-0.32-0.375-0.653-0.764-0.945-1.204c-2.505-3.772-2.775-8.562-2.703-12.757
		c-0.063-7.835-5.638-14.188-12.48-14.188c-1.535,0-3.061,0.342-4.485,0.971c-0.846,1.054-1.226,2.448-0.867,3.98
		c0.213,0.906,0.521,1.814,0.91,2.698c0.07-0.052,0.14-0.104,0.226-0.134c0.454-0.159,0.953,0.08,1.112,0.533
		c1.928,5.492,7.672,7.214,12.5,6.489c0.232-0.035,0.472,0.027,0.659,0.165c0.209,0.156,0.336,0.387,0.376,0.688
		c0.123,0.525,0.188,1.109,0.223,1.704c1.126,0.401,1.906,1.498,1.906,2.721c0,1.593-1.273,2.888-2.839,2.888
		c-0.077,0-0.146-0.025-0.217-0.044c-0.589,1.16-1.39,2.197-2.344,3.079c0.587,1.077,1.146,1.959,1.904,2.699
		c1.062,1.038,2.486,1.578,3.996,1.543c1.285-0.037,2.508-0.494,3.511-1.302C49.365,32.726,49.216,32.551,49.063,32.372z"/>
	<path fill="#ED8726" d="M43.751,24.038c0-0.255-0.083-0.496-0.224-0.691c-0.074,0.574-0.192,1.135-0.353,1.681
		C43.512,24.833,43.751,24.47,43.751,24.038z"/>
	<path fill="#412E21" d="M32.698,28.96c-2.121,0-3.846-1.726-3.846-3.847c0-0.481,0.39-0.872,0.872-0.872h5.951
		c0.481,0,0.872,0.39,0.872,0.872C36.546,27.234,34.82,28.96,32.698,28.96z M30.784,25.984c0.331,0.726,1.065,1.232,1.914,1.232
		c0.85,0,1.582-0.506,1.915-1.232H30.784z"/>
	<path fill="#412E21" d="M48.17,52.66H18.547c-0.475,0-0.861-0.385-0.861-0.861s0.385-0.861,0.861-0.861H48.17
		c0.475,0,0.861,0.385,0.861,0.861S48.645,52.66,48.17,52.66z"/>
	<path fill="#412E21" d="M15.29,47.077H5.673c-0.475,0-0.861-0.385-0.861-0.861s0.385-0.861,0.861-0.861h9.617
		c0.475,0,0.861,0.385,0.861,0.861S15.765,47.077,15.29,47.077z"/>
	<path fill="#412E21" d="M62.027,47.343H51.192c-0.481,0-0.872-0.39-0.872-0.872c0-0.481,0.39-0.872,0.872-0.872h10.834
		c0.481,0,0.872,0.39,0.872,0.872C62.899,46.953,62.508,47.343,62.027,47.343z"/>
	<path fill="#ED8726" d="M51.892,32.726c0.046-0.002,0.093-0.004,0.14-0.007c0.264-0.023,0.527-0.049,0.788-0.093
		c0.559-0.095,1.109-0.246,1.638-0.452c1.039-0.405,1.99-1.023,2.779-1.811c0.27-0.27,0.511-0.561,0.738-0.861
		c0.741-1.009,1.272-2.174,1.511-3.437c0.019-0.107,0.033-0.215,0.048-0.322c0.02-0.134,0.038-0.268,0.052-0.403
		c0.021-0.241,0.035-0.484,0.035-0.729v-4.27c-0.227-0.016-0.5-0.038-0.799-0.067c0.005,1.615-0.161,3.188-0.243,3.999
		c-0.41,4.029-3.621,7.277-7.572,7.764c0.111,0.137,0.215,0.278,0.326,0.415C51.495,32.651,51.655,32.729,51.892,32.726z"/>
	<g>
		<path fill="#ED8726" d="M35.162,30.784c3.956-1.085,6.718-4.711,6.718-8.818c0-0.464-0.035-0.926-0.104-1.382
			c-0.564,0.055-1.137,0.074-1.711,0.068c0.684,2.803-0.003,5.899-2.158,8.102c-1.186,1.213-2.641,1.995-4.169,2.356
			c0.098-0.006,0.195-0.022,0.293-0.031c0.083-0.045,0.169-0.087,0.267-0.103C34.59,30.926,34.879,30.862,35.162,30.784z"/>
		<g>
			<path fill="#412E21" d="M65.843,44.524c-0.491-1.897-1.578-5.276-1.623-5.419c-0.082-0.253-0.275-0.456-0.525-0.549
				c-2.467-0.925-6.016-2.29-6.983-2.727c-0.046-0.32-0.077-0.914-0.1-1.373c-0.025-0.478-0.057-0.983-0.101-1.467
				c0.679-0.408,1.312-0.894,1.886-1.468c0.61-0.61,1.137-1.295,1.566-2.039c0.141,0.028,0.285,0.042,0.432,0.042
				c1.897,0,3.584-2.352,3.584-4.206c0-0.966-0.326-1.837-0.919-2.463v-7.713c0-1.827-0.545-3.59-1.575-5.099
				c-0.256-0.373-0.767-0.468-1.138-0.214c-0.181,0.124-0.303,0.31-0.343,0.525c-0.04,0.215,0.005,0.433,0.129,0.614
				c0.843,1.235,1.289,2.679,1.289,4.175v6.823c-0.054-0.01-0.108-0.019-0.162-0.026v-3.621c0-0.451-0.367-0.819-0.819-0.819
				s-0.819,0.368-0.819,0.819v0.379l-0.075-0.005c-2.479-0.155-9.032-0.569-13.006-4.801c-0.356-1.326-0.865-2.574-1.495-3.732
				c0.543-1.444,1.592-2.601,2.996-3.274c1.506-0.721,3.191-0.784,4.746-0.175l3.927,1.535c0.699,0.273,1.349,0.649,1.934,1.117
				c0.351,0.281,0.867,0.225,1.15-0.127c0.136-0.17,0.199-0.384,0.175-0.602c-0.024-0.217-0.131-0.412-0.302-0.549
				c-0.713-0.572-1.507-1.031-2.361-1.365l-3.927-1.535c-1.981-0.775-4.13-0.696-6.05,0.223c-1.412,0.677-2.558,1.757-3.317,3.092
				c-2.609-3.665-6.603-6.021-11.081-6.021c-2.226,0-4.445,0.596-6.416,1.722c-1.904,1.087-3.597,2.679-4.897,4.601
				c-1.31,1.938-2.223,4.222-2.64,6.606c-0.248,1.411-0.278,2.835-0.307,4.213l-0.013,0.562c-0.015,0.568-0.04,1.137-0.083,1.705
				c-0.092,1.255-0.245,2.389-0.468,3.468c-0.529,2.559-1.386,4.517-2.62,5.984l-1.004,1.202c-0.287,0.343-0.267,0.848,0.045,1.168
				c1.505,1.539,3.492,2.316,5.462,2.316c1.836,0,3.658-0.676,5.052-2.038c0.344-0.336,0.351-0.888,0.015-1.233
				c-0.338-0.345-0.89-0.351-1.233-0.014c-2.02,1.973-5.222,2.042-7.465,0.276l0.463-0.553c1.424-1.694,2.403-3.903,2.993-6.753
				c0.238-1.153,0.401-2.361,0.5-3.692c0.044-0.596,0.072-1.192,0.086-1.79l0.013-0.568c0.028-1.312,0.057-2.669,0.282-3.95
				c0.375-2.144,1.193-4.194,2.367-5.93c1.15-1.703,2.642-3.108,4.317-4.064c0.346-0.198,0.705-0.363,1.066-0.522
				c1.424-0.629,2.95-0.971,4.485-0.971c6.843,0,12.418,6.352,12.48,14.188c-0.072,4.195,0.198,8.986,2.703,12.757
				c0.196,0.295,0.41,0.562,0.626,0.822c0.107,0.128,0.214,0.258,0.32,0.382c0.154,0.179,0.303,0.354,0.443,0.53
				c-0.008,0.006-0.017,0.011-0.025,0.017c-0.999,0.796-2.212,1.249-3.486,1.285c-1.51,0.035-2.934-0.505-3.996-1.543
				c-0.758-0.74-1.317-1.622-1.904-2.699c0.954-0.883,1.755-1.92,2.344-3.079c0.071,0.019,0.14,0.044,0.217,0.044
				c1.566,0,2.839-1.296,2.839-2.888c0-1.223-0.779-2.32-1.906-2.721c-0.035-0.595-0.1-1.179-0.223-1.704
				c-0.04-0.301-0.168-0.533-0.376-0.688c-0.187-0.139-0.427-0.2-0.659-0.165c-0.319,0.048-0.642,0.083-0.967,0.11
				c-0.637,0.051-1.283,0.058-1.929,0.022c-4.028-0.226-8.051-2.2-9.603-6.62c-0.159-0.454-0.658-0.692-1.112-0.533
				c-0.086,0.03-0.157,0.082-0.226,0.134c-0.296,0.222-0.437,0.609-0.308,0.977c1.922,5.473,6.996,7.757,11.88,7.804
				c0.575,0.005,1.147-0.013,1.711-0.068c0.069,0.456,0.104,0.918,0.104,1.382c0,4.106-2.762,7.733-6.718,8.818
				c-0.283,0.078-0.572,0.142-0.864,0.192c-0.098,0.017-0.184,0.058-0.267,0.103c-0.317,0.174-0.509,0.527-0.445,0.904
				c0.074,0.425,0.442,0.724,0.859,0.724c0.049,0,0.099-0.004,0.148-0.013c0.35-0.06,0.694-0.137,1.032-0.229
				c1.121-0.308,2.145-0.806,3.076-1.426c0.615,1.105,1.23,2.04,2.079,2.869c1.405,1.371,3.291,2.093,5.264,2.039
				c1.628-0.046,3.172-0.617,4.452-1.615c0.329,0.033,0.659,0.052,0.989,0.052c0.683,0,1.367-0.071,2.048-0.215l1.181-0.329
				c0.039-0.014,0.075-0.033,0.114-0.047c0.016,0.254,0.03,0.509,0.043,0.753c0.081,1.563,0.118,2.276,0.682,2.642
				c0.551,0.358,4.899,2.012,7.135,2.852c0.306,0.966,1.087,3.448,1.468,4.921c0.102,0.393,0.456,0.653,0.843,0.653
				c0.073,0,0.146-0.009,0.219-0.028C65.684,45.466,65.964,44.991,65.843,44.524z M60.979,27.008l0.017-0.096
				c0.146-0.712,0.231-1.465,0.259-2.301l0.004-0.078c0.021-0.406,0.034-0.697,0.033-0.907c0.548,0.185,1.047,0.7,1.047,1.69
				c0,0.875-0.73,2.101-1.525,2.463C60.872,27.578,60.924,27.321,60.979,27.008z M43.526,23.347
				c0.141,0.195,0.224,0.436,0.224,0.691c0,0.432-0.239,0.795-0.577,0.99C43.334,24.482,43.452,23.921,43.526,23.347z
				 M52.032,32.719c-0.022,0.002-0.043,0.006-0.065,0.008c-0.027,0.002-0.049-0.001-0.074-0.001
				c-0.237,0.003-0.397-0.075-0.56-0.275c-0.111-0.136-0.216-0.278-0.326-0.415c-0.362-0.448-0.727-0.895-1.069-1.358
				c-0.413-0.558-0.876-1.173-1.133-1.823c-0.574-1.186-0.954-2.459-1.203-3.75c-0.413-2.141-0.446-4.308-0.446-6.48
				c0.003-0.027,0.004-0.054,0.004-0.081v-0.157c0-0.015,0-0.029-0.001-0.044c-0.007-0.606-0.05-1.201-0.114-1.789
				c1.801,1.394,3.822,2.202,7.266,2.992c1.795,0.412,3.387,0.621,4.513,0.728c0.299,0.028,0.572,0.051,0.799,0.067v4.27
				c0,0.245-0.014,0.488-0.035,0.729c-0.013,0.136-0.032,0.27-0.052,0.403c-0.015,0.108-0.028,0.216-0.048,0.322
				c-0.225,1.251-0.741,2.42-1.511,3.437c-0.227,0.299-0.468,0.59-0.738,0.861C55.831,31.769,53.999,32.589,52.032,32.719z"/>
		</g>
	</g>
</g>
</svg>
