<?xml version="1.0" encoding="utf-8"?>
<!-- Generator: Adobe Illustrator 19.2.0, SVG Export Plug-In . SVG Version: 6.00 Build 0)  -->
<svg version="1.1" id="Layer_1" xmlns="http://www.w3.org/2000/svg" xmlns:xlink="http://www.w3.org/1999/xlink" x="0px" y="0px"
	 width="45.75px" height="47px" viewBox="0 0 45.75 47" enable-background="new 0 0 45.75 47" xml:space="preserve">
<g>
	<path fill="#412E21" d="M3.849,5.33"/>
	<path fill="#412E21" d="M35.334,1.525h-25.5c-1.871,0-3.653,0.587-5.153,1.698C4.246,3.544,4.154,4.161,4.476,4.597
		C4.799,5.031,5.415,5.124,5.85,4.801c1.159-0.858,2.537-1.312,3.983-1.312h25.5c3.694,0,6.701,3.006,6.701,6.702v16.725
		c0,3.695-3.007,6.701-6.701,6.701H24.556c-0.357,0-0.701,0.148-0.945,0.408l-8.657,9.204c-0.021,0.021-0.043,0.045-0.104,0.022
		c-0.059-0.022-0.059-0.059-0.059-0.088v-8.25c0-0.715-0.582-1.297-1.297-1.297h-3.66c-3.695,0-6.702-3.006-6.702-6.701L3.119,9.639
		c0-0.522-0.425-0.947-1.011-0.947c-0.522,0-0.947,0.425-0.947,0.947l0.007,17.277c0,4.778,3.888,8.665,8.666,8.665h2.993v7.583
		c0,0.85,0.51,1.602,1.3,1.914c0.246,0.098,0.502,0.146,0.763,0.146c0.563,0,1.108-0.236,1.497-0.648l8.458-8.995h10.49
		c4.778,0,8.665-3.887,8.665-8.665V10.191C43.999,5.413,40.112,1.525,35.334,1.525z"/>
	<path fill="#ED8726" d="M23.993,17.457c2.202-2.972,6.839-2.828,8.235,0.511c0.2,0.477-6.794,7.698-9.159,10.31
		c-0.705-0.756-0.484-0.252-1.633-1.27c-2.768-2.452-6.28-4.649-6.034-7.295C15.742,14.846,21.26,14.156,23.993,17.457z"/>
	<g>
		<path fill="#412E21" d="M23.001,28.546c-0.27,0-0.527-0.112-0.712-0.31c-0.655-0.703-1.651-1.582-2.705-2.513
			c-3.461-3.056-7.77-6.858-7.426-10.539c0.186-2.666,1.688-4.717,4.016-5.465c2.267-0.729,4.833-0.103,6.691,1.556
			c1.729-1.679,4.229-2.36,6.529-1.707c2.451,0.697,4.051,2.75,4.28,5.491c0.391,3.651-3.862,7.511-7.279,10.612
			c-1.043,0.946-2.027,1.841-2.674,2.554c-0.183,0.202-0.441,0.318-0.714,0.32C23.006,28.546,23.003,28.546,23.001,28.546z
			 M18.122,11.362c-0.458,0-0.914,0.068-1.353,0.209c-1.589,0.511-2.539,1.851-2.673,3.772c-0.253,2.718,3.809,6.304,6.775,8.921
			c0.765,0.676,1.5,1.325,2.12,1.919c0.612-0.604,1.34-1.265,2.098-1.952c2.928-2.657,6.937-6.296,6.649-8.987
			c-0.164-1.952-1.211-3.331-2.876-3.804c-1.888-0.537-3.966,0.208-5.182,1.848c-0.178,0.24-0.456,0.385-0.755,0.393
			c-0.302,0.014-0.585-0.122-0.775-0.352C21.108,12.072,19.602,11.362,18.122,11.362z"/>
	</g>
</g>
</svg>
