<?xml version="1.0" encoding="utf-8"?>
<!-- Generator: Adobe Illustrator 19.2.0, SVG Export Plug-In . SVG Version: 6.00 Build 0)  -->
<svg version="1.1" id="Layer_1" xmlns="http://www.w3.org/2000/svg" xmlns:xlink="http://www.w3.org/1999/xlink" x="0px" y="0px"
	 width="51.625px" height="54.773px" viewBox="0 0 51.625 54.773" enable-background="new 0 0 51.625 54.773" xml:space="preserve">
<g id="м">
	<path fill="#412E21" d="M26.154,30.761c-2.008,0-3.641-1.634-3.641-3.642c0-0.427,0.345-0.773,0.772-0.773h5.738
		c0.427,0,0.772,0.346,0.772,0.773C29.796,29.127,28.163,30.761,26.154,30.761z M24.205,27.892c0.309,0.775,1.066,1.324,1.949,1.324
		c0.884,0,1.641-0.549,1.949-1.324H24.205z"/>
	<path fill="#ED8726" d="M31.994,31.185c1.575-1.575,2.443-3.669,2.443-5.896v-4.364c-0.224-0.016-0.492-0.038-0.782-0.066
		c0.056,1.753-0.135,3.565-0.225,4.445c-0.45,4.42-4.395,7.868-8.911,7.526c-1.565-0.118-2.984-0.673-4.17-1.516
		c1.497,1.428,3.519,2.312,5.747,2.312C28.325,33.628,30.419,32.76,31.994,31.185z"/>
	<path fill="#ED8726" d="M33.446,9.628c-0.599-0.479-1.266-0.864-1.982-1.144l-4.039-1.579c-1.591-0.623-3.317-0.559-4.858,0.179
		c-1.542,0.738-2.673,2.043-3.185,3.673c-0.101,0.321-0.377,0.533-0.688,0.587c-0.054,0.622,0.04,1.263,0.328,1.912
		c0.163-0.018,0.33,0.001,0.485,0.078c0.097,0.048,0.182,0.113,0.254,0.192c4.088,4.451,11.927,5.436,14.676,5.647v-0.355
		c0-0.482,0.391-0.873,0.873-0.873c0.481,0,0.872,0.391,0.872,0.873v3.698c0.036,0.005,0.072,0.011,0.107,0.017V15.55
		c0-1.533-0.457-3.012-1.322-4.278c-0.261-0.383-0.168-0.898,0.195-1.178c-0.147-0.208-0.314-0.406-0.497-0.594
		C34.36,9.868,33.817,9.927,33.446,9.628z"/>
	<path fill="#ED8726" d="M27.865,37.131l0.001-1.912c-0.417,0.073-0.841,0.111-1.265,0.132c0.019,0.755,0.042,2.427,0.049,3.43
		C27.345,38.548,27.856,37.901,27.865,37.131z"/>
	<path fill="#ED8726" d="M22.857,38.466l-0.341,0.197l0.461,2.294l1.219-0.895C23.6,39.678,23.131,39.12,22.857,38.466z"/>
	<path fill="#ED8726" d="M27.999,40.063l1.219,0.895l0.46-2.294l-0.339-0.197C29.064,39.12,28.594,39.678,27.999,40.063z"/>
	<path fill="#412E21" d="M33.227,32.419c0.625-0.625,1.164-1.326,1.606-2.085c0.139,0.026,0.283,0.039,0.429,0.039
		c2.002,0,3.717-2.396,3.717-4.357c0-0.998-0.335-1.896-0.945-2.545V15.55c0-1.886-0.562-3.705-1.624-5.262
		c-0.272-0.397-0.815-0.5-1.214-0.228c-0.014,0.009-0.02,0.024-0.033,0.034c-0.363,0.28-0.456,0.795-0.195,1.178
		c0.865,1.266,1.322,2.745,1.322,4.278v6.983c-0.036-0.006-0.071-0.012-0.107-0.017v-3.698c0-0.482-0.391-0.873-0.872-0.873
		s-0.872,0.391-0.872,0.873v0.355c-2.749-0.211-10.588-1.196-14.676-5.647c-0.072-0.079-0.157-0.144-0.254-0.192
		c-0.154-0.077-0.322-0.096-0.485-0.078c-0.214,0.024-0.418,0.117-0.566,0.289c-1.383,1.604-2.221,3.601-2.404,5.699v-6.263
		c0-0.555,0.257-1.062,0.704-1.392c0.445-0.329,1.007-0.425,1.536-0.261c0.135,0.042,0.271,0.039,0.403,0.015
		c0.311-0.055,0.587-0.266,0.688-0.587c0.512-1.63,1.644-2.934,3.185-3.673c1.541-0.738,3.267-0.802,4.858-0.179l4.039,1.579
		c0.716,0.28,1.383,0.665,1.982,1.144c0.371,0.299,0.915,0.24,1.219-0.129c0.002-0.003,0.006-0.004,0.008-0.007
		c0.3-0.376,0.24-0.926-0.136-1.227c-0.736-0.59-1.556-1.064-2.436-1.408l-4.039-1.579c-2.048-0.802-4.266-0.718-6.248,0.231
		c-1.733,0.83-3.087,2.245-3.831,4c-0.794-0.046-1.602,0.187-2.264,0.675c-0.897,0.662-1.411,1.681-1.411,2.796v10.346
		c-0.705,0.656-1.091,1.606-1.091,2.69c0,1.961,1.715,4.357,3.717,4.357c0.147,0,0.293-0.013,0.435-0.04
		c1.179,2.035,3.02,3.59,5.217,4.409v1.865l-2.814,1.632c-0.416,0.241-0.558,0.776-0.318,1.193c0.232,0.403,0.801,0.548,1.193,0.317
		l0.277-0.161l0.612,3.055c0.06,0.294,0.262,0.534,0.54,0.641c0.272,0.107,0.594,0.066,0.833-0.11l2.318-1.701v3.296
		c0,0.481,0.391,0.872,0.872,0.872c0.482,0,0.873-0.391,0.873-0.872v-3.296l2.317,1.701c0.241,0.177,0.553,0.219,0.833,0.11
		c0.28-0.108,0.482-0.348,0.54-0.642l0.612-3.054l2.786,1.615l0.275,0.16l0.484,1.852c0.4-0.529,0.892-0.981,1.456-1.334
		l-0.343-1.312c-0.054-0.205-0.185-0.373-0.359-0.491c-0.018-0.012-0.029-0.031-0.048-0.042l-5.913-3.428v-1.862
		C30.972,34.242,32.188,33.46,33.227,32.419z M35.894,27.759l0.018-0.095c0.151-0.736,0.239-1.512,0.268-2.373l0.004-0.086
		c0.019-0.383,0.033-0.67,0.034-0.884c0.537,0.198,1.016,0.718,1.016,1.696c0,0.848-0.715,2.066-1.492,2.473
		C35.794,28.291,35.843,28.047,35.894,27.759z M14.96,26.017c0-1.001,0.502-1.521,1.054-1.709c0.009,1.06,0.063,2.256,0.312,3.383
		c0.065,0.296,0.142,0.582,0.232,0.856C15.752,28.211,14.96,26.909,14.96,26.017z M22.977,40.958l-0.461-2.294l0.341-0.197
		c0.274,0.653,0.743,1.211,1.338,1.596L22.977,40.958z M27.865,37.131c-0.008,0.77-0.52,1.417-1.216,1.65
		c-0.175,0.058-0.359,0.098-0.553,0.098c-0.974,0-1.767-0.793-1.767-1.768v-1.892c0.748,0.133,1.512,0.17,2.271,0.133
		c0.425-0.021,0.848-0.059,1.265-0.132L27.865,37.131z M29.677,38.664l-0.46,2.294l-1.219-0.895
		c0.596-0.385,1.065-0.943,1.339-1.596L29.677,38.664z M26.097,33.628c-2.228,0-4.25-0.883-5.747-2.312
		c-1.593-1.52-2.592-3.657-2.592-6.027v-5.165c0-1.662,0.51-3.315,1.443-4.688c2.298,2.137,5.591,3.709,9.793,4.673
		c1.858,0.426,3.501,0.641,4.66,0.75c0.29,0.027,0.558,0.05,0.782,0.065v4.364c0,2.227-0.868,4.321-2.443,5.896
		S28.325,33.628,26.097,33.628z"/>
	<path fill="#412E21" d="M18.019,39.516c-0.224-0.059-0.459-0.029-0.661,0.088l-1.331,0.772c-0.199,0.115-0.348,0.31-0.407,0.534
		l-1.04,3.979c-0.122,0.466,0.158,0.943,0.626,1.066c0.074,0.018,0.147,0.028,0.219,0.028c0.397,0,0.744-0.268,0.843-0.652
		l0.949-3.628l1.016-0.589c0.201-0.117,0.346-0.305,0.406-0.531c0.059-0.225,0.028-0.461-0.089-0.662
		C18.433,39.72,18.244,39.576,18.019,39.516z"/>
	<path fill="#412E21" d="M44.476,41.328c3.714-4.295,5.97-9.884,5.97-15.994c0-13.506-10.988-24.494-24.494-24.494
		c-13.506,0-24.494,10.988-24.494,24.494c0,13.506,10.988,24.494,24.494,24.494c2.384,0,4.68-0.365,6.86-1.004
		c0.888,2.985,3.654,5.17,6.923,5.17c3.984,0,7.226-3.241,7.226-7.226C46.961,44.598,45.995,42.654,44.476,41.328z M25.951,48.101
		c-12.554,0-22.767-10.213-22.767-22.767S13.398,2.567,25.951,2.567S48.718,12.78,48.718,25.334c0,5.751-2.15,11.004-5.68,15.015
		c-0.991-0.512-2.113-0.807-3.303-0.807c-3.984,0-7.226,3.241-7.226,7.226c0,0.114,0.012,0.226,0.017,0.339
		C30.441,47.739,28.24,48.101,25.951,48.101z M39.735,52.266c-3.032,0-5.498-2.467-5.498-5.498c0-3.032,2.467-5.498,5.498-5.498
		s5.498,2.467,5.498,5.498C45.233,49.8,42.767,52.266,39.735,52.266z"/>
	<path fill="#ED8726" d="M46.315,42.825c-0.422-0.427-1.113-0.43-1.541-0.009l-5.201,5.145l-1.92-1.92
		c-0.206-0.205-0.479-0.319-0.77-0.319c-0.291,0-0.564,0.113-0.77,0.319c-0.206,0.206-0.318,0.479-0.318,0.77
		c0,0.29,0.113,0.564,0.318,0.77l3.451,3.452l6.741-6.668c0.207-0.204,0.321-0.477,0.323-0.768
		C46.63,43.306,46.519,43.031,46.315,42.825z"/>
</g>
</svg>
