<?xml version="1.0" encoding="utf-8"?>
<!-- Generator: Adobe Illustrator 23.0.3, SVG Export Plug-In . SVG Version: 6.00 Build 0)  -->
<svg version="1.1" id="Layer_1" xmlns="http://www.w3.org/2000/svg" xmlns:xlink="http://www.w3.org/1999/xlink" x="0px" y="0px"
	 width="53.387px" height="55.226px" viewBox="0 0 53.387 55.226" enable-background="new 0 0 53.387 55.226" xml:space="preserve">
<g>
	<path fill="#ED8726" d="M6.274,52.26H5.612c-0.824,0-1.499-0.674-1.499-1.499V5.017c0-0.824,0.674-1.499,1.499-1.499h0.662
		c0.824,0,1.499,0.674,1.499,1.499v45.744C7.772,51.586,7.098,52.26,6.274,52.26z"/>
	<path fill="#ED8726" d="M44.32,19.974c1.379-2.684,3.804-4.187,5.417-3.358c1.613,0.829,1.802,3.676,0.423,6.36L44.32,19.974z"/>
	
		<rect x="38.925" y="19.315" transform="matrix(0.866 0.5 -0.5 0.866 20.4768 -16.1326)" fill="#ED8726" width="2.835" height="21.657"/>
	<g>
		<path fill="#412E21" d="M43.061,41.855c-0.507,0-0.919,0.412-0.919,0.918v7.198c0,0.571-0.465,1.035-1.035,1.035H5.542
			c-0.571,0-1.035-0.464-1.035-1.035V5.808c0-0.571,0.465-1.036,1.035-1.036h35.564c0.571,0,1.035,0.465,1.035,1.036v10.625
			c0,0.507,0.412,0.918,0.919,0.918s0.919-0.412,0.919-0.918V5.808c0-1.584-1.289-2.872-2.873-2.872H5.542
			c-1.584,0-2.873,1.288-2.873,2.872v44.163c0,1.584,1.289,2.872,2.873,2.872h35.564c1.584,0,2.873-1.288,2.873-2.872v-7.198
			C43.98,42.266,43.568,41.855,43.061,41.855z"/>
		<path fill="#412E21" d="M28.6,45.76h-5.276c-0.49,0-0.889,0.398-0.889,0.888c0,0.49,0.399,0.889,0.889,0.889H28.6
			c0.49,0,0.889-0.399,0.889-0.889C29.49,46.158,29.091,45.76,28.6,45.76z"/>
		<path fill="#412E21" d="M28.6,40.288H14.726c-0.49,0-0.888,0.399-0.888,0.889s0.399,0.889,0.888,0.889H28.6
			c0.49,0,0.889-0.399,0.889-0.889S29.091,40.288,28.6,40.288z"/>
		<path fill="#412E21" d="M28.6,34.817H14.726c-0.49,0-0.888,0.398-0.888,0.888c0,0.49,0.399,0.889,0.888,0.889H28.6
			c0.49,0,0.889-0.399,0.889-0.889C29.49,35.215,29.091,34.817,28.6,34.817z"/>
		<path fill="#412E21" d="M11.182,29.606c-0.155-0.156-0.384-0.245-0.63-0.245c-0.246,0-0.475,0.089-0.63,0.245
			c-0.165,0.166-0.259,0.396-0.259,0.628c0,0.234,0.095,0.463,0.261,0.628c0.158,0.158,0.387,0.25,0.629,0.25
			c0.242,0,0.471-0.091,0.628-0.25c0.167-0.165,0.262-0.395,0.262-0.628S11.348,29.771,11.182,29.606z"/>
		<path fill="#412E21" d="M11.198,35.095l-0.017-0.018c-0.156-0.156-0.385-0.245-0.628-0.245s-0.473,0.09-0.629,0.246
			c-0.165,0.165-0.26,0.393-0.26,0.627c0,0.234,0.095,0.464,0.261,0.629c0.157,0.158,0.387,0.25,0.628,0.25
			c0.242,0,0.471-0.091,0.628-0.25c0.167-0.166,0.262-0.396,0.262-0.629C11.443,35.481,11.354,35.259,11.198,35.095z"/>
		<path fill="#412E21" d="M10.556,40.313c-0.001,0-0.002,0-0.003,0c-0.25,0-0.48,0.086-0.631,0.236
			c-0.165,0.166-0.259,0.396-0.259,0.628s0.095,0.463,0.261,0.629c0.157,0.158,0.385,0.249,0.628,0.249s0.471-0.09,0.628-0.249
			c0.168-0.165,0.263-0.396,0.263-0.629s-0.095-0.463-0.262-0.628C11.033,40.4,10.805,40.314,10.556,40.313z"/>
		<path fill="#412E21" d="M28.6,29.345H14.726c-0.49,0-0.888,0.399-0.888,0.889c0,0.49,0.399,0.889,0.888,0.889H28.6
			c0.49,0,0.889-0.399,0.889-0.889C29.49,29.744,29.091,29.345,28.6,29.345z"/>
		<path fill="#412E21" d="M52.411,18.133l-0.002-0.008c-0.278-1.037-0.942-1.904-1.87-2.44c-0.922-0.53-2.03-0.673-3.047-0.4
			c-1.035,0.277-1.901,0.941-2.438,1.871L32.758,38.451c-0.06,0.106-0.099,0.222-0.113,0.347l-0.867,7.754
			c-0.038,0.351,0.135,0.692,0.441,0.869c0.135,0.075,0.289,0.113,0.443,0.113c0.189,0,0.377-0.056,0.527-0.168l6.283-4.626
			c0.098-0.073,0.179-0.164,0.242-0.271l12.295-21.296C52.543,20.246,52.686,19.167,52.411,18.133z M37.321,42.113l-3.548,2.613
			l0.488-4.381L37.321,42.113z M48.573,23.567l-9.954,17.241l-3.875-2.237l9.954-17.241L48.573,23.567z M50.469,20.282l-1.006,1.745
			l-3.875-2.238l1.006-1.744c0.3-0.517,0.783-0.887,1.359-1.042c0.575-0.155,1.178-0.074,1.697,0.223
			c0.517,0.299,0.887,0.781,1.042,1.359C50.848,19.16,50.768,19.763,50.469,20.282z"/>
		<path fill="#412E21" d="M22.545,7.651c-4.855,0-8.805,3.949-8.805,8.804s3.95,8.805,8.805,8.805s8.805-3.95,8.805-8.805
			S27.401,7.651,22.545,7.651z M29.599,16.455c0,3.889-3.164,7.054-7.054,7.054s-7.054-3.164-7.054-7.054
			c0-3.889,3.164-7.053,7.054-7.053S29.599,12.567,29.599,16.455z"/>
	</g>
	<path fill="#ED8726" d="M19.629,17.281h1.107c0.417,0.629,0.985,1.111,1.654,1.672c0.287,0.24,0.583,0.488,0.907,0.779l0.487,0.437
		l0.487-0.437c0.324-0.291,0.62-0.539,0.907-0.779c0.962-0.806,1.722-1.442,2.111-2.6l0.015-0.05
		c0.219-0.849,0.14-1.654-0.223-2.267c-0.284-0.479-0.73-0.817-1.258-0.951c-0.94-0.24-1.603,0.108-2.039,0.437
		c-0.436-0.329-1.098-0.676-2.038-0.437c-0.528,0.134-0.974,0.472-1.258,0.951c-0.301,0.509-0.404,1.152-0.305,1.841h-0.552v-2.913
		h-1.467v7.282h1.467V17.281z M21.74,14.777c0.088-0.148,0.21-0.243,0.364-0.282c0.439-0.112,0.667,0.062,1.033,0.379
		c0.067,0.058,0.131,0.113,0.192,0.162l0.454,0.361l0.454-0.361c0.061-0.049,0.125-0.104,0.192-0.162
		c0.366-0.317,0.595-0.491,1.033-0.379c0.154,0.039,0.277,0.134,0.364,0.282c0.159,0.268,0.185,0.682,0.072,1.136
		c-0.261,0.754-0.789,1.196-1.657,1.923c-0.144,0.12-0.297,0.249-0.459,0.387c-0.161-0.138-0.315-0.267-0.459-0.387
		c-0.868-0.727-1.396-1.169-1.657-1.922C21.555,15.459,21.581,15.046,21.74,14.777z"/>
</g>
</svg>
