<?xml version="1.0" encoding="UTF-8"?>
<svg xmlns="http://www.w3.org/2000/svg" xmlns:xlink="http://www.w3.org/1999/xlink" width="57pt" height="12pt" viewBox="0 0 57 12" version="1.1">
<g id="surface1">
<path style=" stroke:none;fill-rule:nonzero;fill:#f47920;fill-opacity:1;" d="M 11.496094 1.917969 L 11.496094 10.792969 C 11.511719 11.082031 11.410156 11.359375 11.214844 11.574219 C 11.011719 11.78125 10.730469 11.886719 10.441406 11.859375 C 10.175781 11.886719 9.914062 11.777344 9.742188 11.574219 C 9.535156 11.367188 9.433594 11.082031 9.460938 10.792969 L 9.460938 1.917969 C 9.445312 1.632812 9.546875 1.347656 9.742188 1.140625 C 9.921875 0.945312 10.179688 0.84375 10.441406 0.859375 C 11.144531 0.925781 11.496094 1.28125 11.496094 1.917969 Z M 11.496094 1.917969 "/>
<path style=" stroke:none;fill-rule:nonzero;fill:#f47920;fill-opacity:1;" d="M 15.988281 4.046875 C 17.019531 4 18.019531 4.417969 18.71875 5.191406 C 19.460938 5.914062 19.867188 6.917969 19.847656 7.957031 C 19.898438 9.003906 19.484375 10.019531 18.71875 10.726562 C 18.003906 11.476562 17.015625 11.890625 15.988281 11.871094 C 14.953125 11.917969 13.949219 11.5 13.25 10.726562 C 12.511719 10.003906 12.101562 9 12.121094 7.957031 C 12.074219 6.910156 12.488281 5.898438 13.25 5.191406 C 13.949219 4.417969 14.953125 4 15.988281 4.046875 Z M 15.988281 6.105469 C 15.507812 6.117188 15.050781 6.320312 14.722656 6.679688 C 14.371094 7.007812 14.167969 7.46875 14.160156 7.957031 C 14.179688 8.460938 14.378906 8.9375 14.722656 9.304688 C 15.050781 9.660156 15.507812 9.867188 15.988281 9.875 C 16.484375 9.855469 16.957031 9.652344 17.320312 9.304688 C 17.683594 8.953125 17.890625 8.464844 17.882812 7.957031 C 17.875 7.46875 17.671875 7.007812 17.320312 6.679688 C 16.957031 6.332031 16.484375 6.128906 15.988281 6.105469 Z M 15.988281 6.105469 "/>
<path style=" stroke:none;fill-rule:nonzero;fill:#f47920;fill-opacity:1;" d="M 22.4375 5.113281 L 22.4375 8.519531 C 22.429688 8.84375 22.558594 9.152344 22.785156 9.378906 C 23.015625 9.597656 23.316406 9.722656 23.632812 9.734375 C 23.953125 9.738281 24.257812 9.609375 24.480469 9.378906 C 24.695312 9.144531 24.824219 8.839844 24.832031 8.519531 L 24.832031 5.042969 C 24.816406 4.753906 24.917969 4.472656 25.113281 4.261719 C 25.316406 4.054688 25.597656 3.949219 25.882812 3.976562 C 26.167969 3.960938 26.449219 4.0625 26.65625 4.261719 C 26.863281 4.464844 26.964844 4.75 26.941406 5.042969 L 26.941406 8.519531 C 26.964844 9.398438 26.628906 10.246094 26.011719 10.859375 C 25.410156 11.5 24.574219 11.859375 23.699219 11.859375 C 22.835938 11.890625 21.996094 11.554688 21.386719 10.9375 C 20.773438 10.316406 20.441406 9.46875 20.472656 8.59375 L 20.472656 5.113281 C 20.460938 4.824219 20.5625 4.542969 20.753906 4.332031 C 20.9375 4.136719 21.191406 4.035156 21.457031 4.046875 C 21.742188 4.03125 22.019531 4.136719 22.226562 4.332031 C 22.371094 4.566406 22.441406 4.839844 22.4375 5.113281 Z M 22.4375 5.113281 "/>
<path style=" stroke:none;fill-rule:nonzero;fill:#f47920;fill-opacity:1;" d="M 31.410156 6.105469 C 30.929688 6.113281 30.472656 6.320312 30.148438 6.679688 C 29.78125 7.027344 29.578125 7.515625 29.582031 8.027344 C 29.589844 8.511719 29.796875 8.972656 30.148438 9.304688 C 30.472656 9.660156 30.929688 9.867188 31.410156 9.875 C 31.90625 9.855469 32.378906 9.652344 32.742188 9.304688 C 33.09375 8.976562 33.296875 8.511719 33.304688 8.027344 L 33.304688 1.917969 C 33.277344 1.648438 33.382812 1.382812 33.585938 1.207031 C 33.769531 1.011719 34.023438 0.910156 34.285156 0.921875 C 34.570312 0.90625 34.847656 1.011719 35.058594 1.207031 C 35.261719 1.414062 35.367188 1.699219 35.339844 1.992188 L 35.339844 8.023438 C 35.375 9.066406 34.960938 10.078125 34.210938 10.792969 C 33.496094 11.542969 32.503906 11.957031 31.476562 11.933594 C 30.445312 11.96875 29.449219 11.550781 28.742188 10.792969 C 28.003906 10.066406 27.59375 9.066406 27.613281 8.023438 C 27.566406 6.976562 27.980469 5.964844 28.742188 5.253906 C 29.457031 4.507812 30.449219 4.09375 31.476562 4.113281 C 31.761719 4.097656 32.039062 4.203125 32.25 4.398438 C 32.453125 4.601562 32.558594 4.890625 32.53125 5.179688 C 32.558594 5.449219 32.453125 5.710938 32.25 5.886719 C 31.980469 5.992188 31.695312 6.066406 31.410156 6.105469 Z M 31.410156 6.105469 "/>
<path style=" stroke:none;fill-rule:nonzero;fill:#f47920;fill-opacity:1;" d="M 45.644531 3.691406 C 45.621094 3.324219 45.472656 2.972656 45.222656 2.699219 C 44.957031 2.449219 44.601562 2.320312 44.242188 2.34375 C 43.640625 2.367188 43.167969 2.878906 43.1875 3.488281 L 43.1875 10.792969 C 43.214844 11.082031 43.109375 11.367188 42.90625 11.574219 C 42.699219 11.769531 42.417969 11.871094 42.132812 11.859375 C 41.847656 11.886719 41.5625 11.78125 41.363281 11.574219 C 41.167969 11.363281 41.066406 11.082031 41.082031 10.792969 L 41.082031 3.691406 C 41.089844 3.335938 40.9375 2.996094 40.660156 2.769531 C 40.429688 2.503906 40.097656 2.347656 39.75 2.34375 C 39.414062 2.34375 39.085938 2.46875 38.839844 2.699219 C 38.59375 2.941406 38.464844 3.277344 38.488281 3.621094 L 38.488281 10.722656 C 38.515625 11.011719 38.410156 11.296875 38.207031 11.503906 C 37.996094 11.699219 37.71875 11.804688 37.433594 11.789062 C 37.148438 11.816406 36.863281 11.710938 36.664062 11.503906 C 36.46875 11.292969 36.367188 11.011719 36.378906 10.722656 L 36.378906 3.621094 C 36.367188 2.660156 36.746094 1.734375 37.429688 1.066406 C 38.09375 0.371094 39.011719 -0.0117188 39.964844 0.00390625 C 40.808594 0.00390625 41.628906 0.308594 42.277344 0.859375 C 42.941406 0.285156 43.789062 -0.0195312 44.660156 0.00390625 C 45.550781 0.0625 46.371094 0.5 46.917969 1.207031 C 47.484375 1.90625 47.785156 2.789062 47.765625 3.691406 "/>
<path style=" stroke:none;fill-rule:nonzero;fill:#f47920;fill-opacity:1;" d="M 50.691406 0.355469 C 50.96875 0.609375 51.121094 0.972656 51.113281 1.351562 C 51.109375 1.726562 50.957031 2.082031 50.691406 2.34375 C 50.441406 2.625 50.082031 2.78125 49.710938 2.769531 C 49.339844 2.765625 48.984375 2.613281 48.726562 2.34375 C 48.507812 2.058594 48.386719 1.710938 48.378906 1.351562 C 48.382812 0.972656 48.539062 0.613281 48.8125 0.355469 C 49.046875 0.113281 49.375 -0.015625 49.710938 0.00390625 C 50.070312 -0.0195312 50.425781 0.105469 50.691406 0.355469 Z M 50.761719 4.617188 C 50.761719 3.90625 50.410156 3.472656 49.710938 3.472656 C 49.421875 3.445312 49.140625 3.550781 48.9375 3.757812 C 48.746094 3.96875 48.644531 4.25 48.65625 4.539062 L 48.65625 10.722656 C 48.628906 11.011719 48.734375 11.296875 48.9375 11.503906 C 49.148438 11.699219 49.425781 11.804688 49.710938 11.789062 C 49.996094 11.816406 50.277344 11.710938 50.480469 11.503906 C 50.675781 11.292969 50.777344 11.011719 50.761719 10.722656 Z M 50.761719 4.617188 "/>
<path style=" stroke:none;fill-rule:nonzero;fill:#f47920;fill-opacity:1;" d="M 53.917969 1.277344 L 53.917969 10.792969 C 53.941406 11.082031 53.839844 11.367188 53.632812 11.574219 C 53.425781 11.769531 53.148438 11.875 52.863281 11.859375 C 52.578125 11.886719 52.292969 11.78125 52.09375 11.574219 C 51.898438 11.363281 51.796875 11.082031 51.8125 10.792969 L 51.8125 1.277344 C 51.785156 0.988281 51.886719 0.703125 52.09375 0.5 C 52.300781 0.300781 52.578125 0.199219 52.863281 0.214844 C 53.566406 0.144531 53.917969 0.5 53.917969 1.277344 Z M 53.917969 1.277344 "/>
<path style=" stroke:none;fill-rule:nonzero;fill:#f47920;fill-opacity:1;" d="M 56.996094 1.277344 L 56.996094 10.792969 C 57.019531 11.082031 56.917969 11.367188 56.710938 11.574219 C 56.503906 11.769531 56.222656 11.871094 55.9375 11.859375 C 55.652344 11.886719 55.371094 11.78125 55.167969 11.574219 C 54.976562 11.359375 54.875 11.082031 54.886719 10.792969 L 54.886719 1.277344 C 54.859375 0.988281 54.964844 0.703125 55.167969 0.5 C 55.375 0.300781 55.65625 0.199219 55.9375 0.214844 C 56.644531 0.144531 56.996094 0.5 56.996094 1.277344 Z M 56.996094 1.277344 "/>
<path style=" stroke:none;fill-rule:nonzero;fill:#f47920;fill-opacity:1;" d="M 44.171875 0.144531 C 45.121094 0.132812 46.035156 0.515625 46.691406 1.207031 C 47.382812 1.878906 47.761719 2.8125 47.746094 3.777344 L 47.746094 10.859375 C 47.769531 11.148438 47.667969 11.433594 47.464844 11.636719 C 47.253906 11.835938 46.976562 11.9375 46.691406 11.921875 C 46.402344 11.949219 46.121094 11.847656 45.921875 11.636719 C 45.726562 11.425781 45.625 11.144531 45.636719 10.859375 L 45.636719 3.765625 C 45.640625 3.421875 45.515625 3.09375 45.285156 2.839844 C 44.863281 2.269531 44.585938 2.269531 44.15625 2.34375 "/>
<path style=" stroke:none;fill-rule:nonzero;fill:#f47920;fill-opacity:1;" d="M 6.941406 9.585938 C 6.5 9.789062 6.015625 9.886719 5.53125 9.871094 C 4.613281 9.890625 3.726562 9.53125 3.074219 8.878906 C 2.441406 8.210938 2.089844 7.320312 2.09375 6.394531 C 2.074219 5.464844 2.429688 4.570312 3.074219 3.910156 C 3.707031 3.199219 4.203125 3.054688 5.109375 2.917969 C 5.726562 2.859375 6.34375 2.929688 6.933594 3.128906 C 8.476562 3.839844 9.175781 2.269531 8.546875 1.699219 C 7.691406 1.082031 6.660156 0.761719 5.609375 0.78125 C 4.136719 0.761719 2.722656 1.355469 1.691406 2.417969 C 0.59375 3.433594 -0.0234375 4.882812 0 6.390625 C -0.0195312 7.882812 0.5625 9.320312 1.613281 10.367188 C 2.644531 11.433594 4.066406 12.023438 5.539062 12 C 6.414062 12 7.28125 11.804688 8.078125 11.429688 C 8.761719 10.792969 8.691406 9.300781 6.941406 9.585938 Z M 6.941406 9.585938 "/>
</g>
</svg>
