<?xml version="1.0" encoding="UTF-8"?><svg width="1303" height="84" viewBox="0 0 1303 84" xmlns="http://www.w3.org/2000/svg" xmlns:xlink="http://www.w3.org/1999/xlink"><svg width="44" height="31" viewBox="-10 -10 38 31" id="arrowDown" xmlns="http://www.w3.org/2000/svg"><path d="M9 11a1.22 1.22 0 0 1-.895-.398L.348 2.192a1.34 1.34 0 0 1 .07-1.79A1.212 1.212 0 0 1 2.137.398L9 7.84 15.863.398a1.212 1.212 0 0 1 1.719.004c.477.48.508 1.27.07 1.79l-7.757 8.41A1.22 1.22 0 0 1 9 11zm0 0" fill="#fff"/></svg><svg width="28" height="33" viewBox="-10 -10 28 33" id="arrowRight" x="44" xmlns="http://www.w3.org/2000/svg"><g fill="#fff"><path d="M7.676 6.5c0 .23-.098.453-.266.613l-5.62 5.328a.875.875 0 0 1-1.224-.023.84.84 0 0 1 .024-1.203L5.563 6.5.59 1.785A.843.843 0 0 1 .594.61.876.876 0 0 1 1.789.56L7.41 5.887c.168.16.266.383.266.613zm0 0"/><path d="M1.188 13c-.485 0-.922-.29-1.102-.734a1.157 1.157 0 0 1 .281-1.286l4.727-4.472L.367 2.016A1.152 1.152 0 0 1 .332.36C.551.136.852.003 1.164 0c.316-.004.621.113.848.324l5.62 5.328c.235.223.368.528.368.848 0 .316-.133.621-.367.844l-5.621 5.328c-.219.21-.516.328-.825.328zm0-12.36a.512.512 0 0 0-.375.165.514.514 0 0 0-.165.379c.004.14.063.273.168.37L6.031 6.5.816 11.445a.522.522 0 0 0-.015.75.552.552 0 0 0 .761.016l5.622-5.328a.512.512 0 0 0 .168-.383.512.512 0 0 0-.168-.383L1.562.79a.529.529 0 0 0-.375-.148zm0 0"/></g></svg><svg width="40" height="45" viewBox="-10 -10 40 45" id="cart" x="72" xmlns="http://www.w3.org/2000/svg"><path d="M19.664 6.734c-.21-.21-.5-.336-.809-.343H16v-.512C16 2.64 13.262 0 10.059 0H9.94C6.738 0 4 2.64 4 5.879v.512H1.145C.504 6.41 0 6.92 0 7.543v16.348C0 24.504.512 25 1.145 25h17.71c.633 0 1.145-.496 1.145-1.11V7.536c0-.3-.121-.586-.336-.8zM6.285 5.88c0-1.977 1.621-3.598 3.656-3.656h.118c2.035.058 3.656 1.68 3.656 3.656v.512h-7.43zm11.43 16.898H2.285V8.61H4v1.926c0 .613.512 1.113 1.145 1.113.628 0 1.14-.5 1.14-1.113V8.61h7.43v1.926c0 .613.512 1.113 1.14 1.113.633 0 1.145-.5 1.145-1.113V8.61h1.715zm0 0"/></svg><svg width="40" height="45" viewBox="-10 -10 40 45" id="carto" x="112" xmlns="http://www.w3.org/2000/svg"><path d="M19.664 6.734c-.21-.21-.5-.336-.809-.343H16v-.512C16 2.64 13.262 0 10.059 0H9.94C6.738 0 4 2.64 4 5.879v.512H1.145C.504 6.41 0 6.92 0 7.543v16.348C0 24.504.512 25 1.145 25h17.71c.633 0 1.145-.496 1.145-1.11V7.536c0-.3-.121-.586-.336-.8zM6.285 5.88c0-1.977 1.621-3.598 3.656-3.656h.118c2.035.058 3.656 1.68 3.656 3.656v.512h-7.43zm11.43 16.898H2.285V8.61H4v1.926c0 .613.512 1.113 1.145 1.113.628 0 1.14-.5 1.14-1.113V8.61h7.43v1.926c0 .613.512 1.113 1.14 1.113.633 0 1.145-.5 1.145-1.113V8.61h1.715zm0 0" fill="#ff7900"/></svg><svg width="40" height="45" viewBox="-10 -10 40 45" id="cartw" x="152" xmlns="http://www.w3.org/2000/svg"><path d="M19.664 6.734c-.21-.21-.5-.336-.809-.343H16v-.512C16 2.64 13.262 0 10.059 0H9.94C6.738 0 4 2.64 4 5.879v.512H1.145C.504 6.41 0 6.92 0 7.543v16.348C0 24.504.512 25 1.145 25h17.71c.633 0 1.145-.496 1.145-1.11V7.536c0-.3-.121-.586-.336-.8zM6.285 5.88c0-1.977 1.621-3.598 3.656-3.656h.118c2.035.058 3.656 1.68 3.656 3.656v.512h-7.43zm11.43 16.898H2.285V8.61H4v1.926c0 .613.512 1.113 1.145 1.113.628 0 1.14-.5 1.14-1.113V8.61h7.43v1.926c0 .613.512 1.113 1.14 1.113.633 0 1.145-.5 1.145-1.113V8.61h1.715zm0 0" fill="#fff"/></svg><svg width="88" height="60" viewBox="-10 -10 71 60" id="cond-1" x="192" xmlns="http://www.w3.org/2000/svg"><path d="M35.734 29.754h-.062c-2.297.969-3.871 0-5.149-.8-1.027-.645-1.718-1.04-2.644-.79h-.094c-.504.082-.7.633-1.027 2.238-.426 2.145-1.031 5.371-5.324 5.57h-.094c-4.117-.187-4.817-3.394-5.27-5.519-.308-1.52-.515-2.195-1.03-2.289h-.09c-.919-.242-1.606.145-2.637.79-1.266.792-2.84 1.769-5.149.8h-.059a5.7 5.7 0 0 1-.507-.281c1.925 4.75 8.082 8.27 15.445 8.476 8.777-.23 15.863-5.207 16.129-11.285a4.704 4.704 0 0 1-2.469 3.121zm0 0" fill="#ef8827"/><path d="M42.125 17.031c-.586-2.082-2.172-4.59-4.715-7.465-3.933-4.308-8.844-6.441-15.988-6.441-6.547 0-12.352 2.277-16.285 6.441C-1.277 16.367.414 20.48 1.945 21.97c.215.199.446.379.692.539v3.82c-.043 3.7 2.015 7.188 5.629 9.77A22.77 22.77 0 0 0 21.422 40c4.68.086 9.27-1.273 13.156-3.902 3.637-2.582 5.645-6.07 5.645-9.801V22.55a4.19 4.19 0 0 0 1.347-1.137 4.791 4.791 0 0 0 .543-4.371zm-35 12.723h.063c2.292.969 3.87 0 5.144-.8 1.031-.645 1.719-1.04 2.637-.79h.094c.542.094.75.77 1.027 2.29.453 2.081 1.125 5.331 5.273 5.519h.09c4.274-.2 4.902-3.426 5.324-5.57.309-1.606.504-2.157 1.028-2.239h.093c.926-.242 1.606.145 2.645.79 1.258.792 2.832 1.769 5.148.8h.063a4.704 4.704 0 0 0 2.469-3.121c-.278 6.246-7.688 11.297-16.778 11.297S5.066 33.016 4.652 26.828a4.624 4.624 0 0 0 2.473 2.926zm33.156-10.211a1.968 1.968 0 0 1-1.41 1.375c-1.758.55-2.059 2.289-2.293 3.695-.281 1.653-.527 2.707-1.71 3.309-1.184.605-2.06.105-3.274-.664a5.175 5.175 0 0 0-4.117-1.043c-1.946.332-2.329 2.281-2.637 3.851-.453 2.344-.863 3.79-3.395 3.914-2.43-.125-2.851-1.558-3.336-3.89-.332-1.582-.742-3.543-2.675-3.875a5.202 5.202 0 0 0-4.121 1.043c-1.235.77-2.004 1.187-3.274.664-1.266-.52-1.45-1.594-1.719-3.121-.226-1.313-.523-2.957-2.14-3.82a2.383 2.383 0 0 1-1.442-1.688c-.203-1.105 0-3.645 4.262-8.328 3.016-3.543 8.555-5.75 14.414-5.75 6.527 0 11.64 2.02 14.41 5.707.29.324 3.41 4.726.68 7.453-2.059 2.082-6.578 3.645-12.074 4.008-5.012.344-9.965-.352-12.293-1.727-2.325-1.375-3.766-3.27-3.766-5.207 0-1.933 1.336-3.758 3.766-5.203a16.787 16.787 0 0 1 15.441 0c1.434.844 2.227 1.902 2.227 2.996s-.793 2.156-2.227 3a10.51 10.51 0 0 1-9.52 0c-.792-.469-1.245-1.043-1.245-1.605 0-.563.453-1.133 1.246-1.602 1.511-.894 4.238-1.113 5.628-.062.25.16.415.43.434.73a.55.55 0 0 1-.34.395c-.472.238-1.8.375-2.152-.305a1.025 1.025 0 0 0-1.274-.27c-.433.23-.648.735-.515 1.207.957 1.856 3.469 1.887 4.836 1.188a2.503 2.503 0 0 0 1.441-2.082 2.876 2.876 0 0 0-1.222-2.54c-2.165-1.624-5.758-1.292-7.856-.062a4.005 4.005 0 0 0-2.246 3.364c.09 1.449.95 2.738 2.246 3.363a12.403 12.403 0 0 0 11.55 0c2.06-1.23 3.231-2.918 3.231-4.758 0-1.844-1.152-3.531-3.23-4.758a17.502 17.502 0 0 0-8.742-2.148c-3.043-.059-6.051.68-8.73 2.148-3.087 1.809-4.766 4.266-4.766 6.942 0 2.675 1.687 5.125 4.765 6.933 2.246 1.336 6.293 2.082 10.758 2.082.887 0 1.781 0 2.68-.093 6.07-.407 10.941-2.082 13.383-4.61a6.571 6.571 0 0 0 1.769-3.293c.504.934.676 2.008.492 3.051zm0 0" fill="#402e21"/><path d="M49.434 14.898c0 7.653-6.133 13.856-13.7 13.856-7.57 0-13.703-6.203-13.703-13.856 0-7.652 6.133-13.855 13.703-13.855 7.567 0 13.7 6.203 13.7 13.855zm0 0" fill="#fff"/><path d="M35.734 29.809c-8.144.003-14.75-6.668-14.754-14.903C20.977 6.672 27.574-.008 35.72-.012c8.144 0 14.746 6.676 14.746 14.91-.012 8.227-6.598 14.891-14.73 14.91zm0-27.727C28.727 2.078 23.043 7.82 23.04 14.906c0 7.086 5.68 12.832 12.688 12.828 7.007 0 12.683-5.75 12.68-12.836C48.397 7.824 42.73 2.09 35.733 2.082zm0 0" fill="#402e21"/><path d="M43.113 15.941H28.332c-.57 0-1.031-.468-1.031-1.043 0-.574.46-1.043 1.031-1.043h14.781c.57 0 1.032.47 1.032 1.043 0 .575-.461 1.043-1.032 1.043zm0 0" fill="#ef8827"/><path d="M35.734 23.406c-.57 0-1.03-.468-1.03-1.043V7.445c0-.578.46-1.043 1.03-1.043.567 0 1.028.465 1.028 1.043v14.918c0 .575-.461 1.043-1.028 1.043zm0 0" fill="#ef8827"/></svg><svg width="72" height="80" viewBox="-10 -10 59 65" id="cond-2" x="280" xmlns="http://www.w3.org/2000/svg"><path d="M31.043 11.516a2.488 2.488 0 0 1-2.5 2.48 2.49 2.49 0 0 1-2.5-2.48c0-1.368 1.121-2.477 2.5-2.477 1.383 0 2.5 1.11 2.5 2.477zm0 0M15.023 11.516a2.488 2.488 0 0 1-2.5 2.48 2.487 2.487 0 0 1-2.496-2.48 2.487 2.487 0 0 1 2.496-2.477c1.383 0 2.5 1.11 2.5 2.477zm0 0" fill="#ec8625"/><path d="M37.031 6.246a.88.88 0 0 0-.883-.832h-7.48C26.781 2.16 23.285.156 19.5.156a10.6 10.6 0 0 0-9.168 5.258h-7.48a.88.88 0 0 0-.883.832L.062 43.926a.883.883 0 0 0 .887.918h37.106a.883.883 0 0 0 .883-.918zm-8.695 4.426a.884.884 0 0 1-1.512.617.864.864 0 0 1-.187-.957.878.878 0 0 1 .824-.535.879.879 0 0 1 .875.875zM19.5 1.91c2.777 0 5.387 1.3 7.05 3.504H12.46A8.834 8.834 0 0 1 19.5 1.91zm-7.95 7.887a.877.877 0 1 1 .645 1.492.892.892 0 0 1-.968.195.879.879 0 0 1-.547-.812c0-.48.386-.867.87-.875zM1.888 43.082L3.69 7.168h5.825a10.407 10.407 0 0 0-.618 3.504c0 1.45 1.188 2.625 2.653 2.625 1.46 0 2.648-1.176 2.648-2.625a2.64 2.64 0 0 0-2.648-2.629c-.168 0-.332.02-.492.05.097-.316.214-.624.351-.925h16.184c.133.3.25.61.351.926a2.655 2.655 0 0 0-2.77 1.246 2.61 2.61 0 0 0 .24 3.004 2.667 2.667 0 0 0 2.933.8 2.626 2.626 0 0 0 1.754-2.46c.003-1.196-.2-2.387-.606-3.516h5.828l1.801 35.926zm0 0" fill="#3e2c1f"/><path d="M25.68 22.063H13.316a.886.886 0 0 0-.89.882c0 .485.398.883.89.883H25.68c.492 0 .89-.398.89-.883a.886.886 0 0 0-.89-.883zm0 0M25.68 25.563H13.316a.89.89 0 0 0-.804.425.86.86 0 0 0 0 .907.879.879 0 0 0 .804.421H25.68a.89.89 0 0 0 .808-.421.878.878 0 0 0 0-.907.9.9 0 0 0-.808-.425zm0 0M25.68 29.07H13.316a.889.889 0 0 0-.89.883c0 .488.398.883.89.883H25.68c.492 0 .89-.395.89-.883a.889.889 0 0 0-.89-.883zm0 0" fill="#ec8625"/></svg><svg width="60" height="84" viewBox="-10 -10 60 68" id="cond-3" x="352" xmlns="http://www.w3.org/2000/svg"><path d="M38.547 22v3.875l-2.367 1.934-7.621 1.906-5.715-1.031-1.895-2.438L20 24l.379-2.809 4.281 1.684L28.941 24l4.278-.656L36.739 22l1.808-1.46zm0 0" fill="#ec8625"/><path d="M28.559 29.75l-5.735-1.031-.012-.012-1.894-2.445-.953-2.258v-.008l.387-2.855 4.324 1.703 4.27 1.125 4.269-.657 3.508-1.34 1.859-1.507v5.426l-.012.011-2.375 1.942h-.008zm-5.696-1.098l5.696 1.028 7.601-1.903 2.352-1.918v-5.246l-1.762 1.422-3.516 1.344-4.297.656h-.007l-4.278-1.125-4.242-1.672-.375 2.758.95 2.234zm0 0"/><path d="M20 42.762V25.875l-2.844 1.934-4.668.875-2.949.75-4.281-.75-3.328-1.637-1.14-.707v16.015l2.378 2.625 4.469 2.06h4.281l3.422-.938 3.71-1.872zm0 0" fill="#ec8625"/><path d="M11.922 47.074h-4.3l-4.477-2.066v-.004L.754 42.37V26.277l1.195.743 3.32 1.628 4.27.75 2.938-.75 4.668-.875 2.89-1.964v16.964l-.96 1.485h-.009l-3.71 1.87zm-4.281-.07h4.27l3.425-.934 3.687-1.863.942-1.45V25.946l-2.793 1.899h-.008l-4.668.875-2.957.75h-.008l-4.289-.75-3.328-1.633-1.09-.676v15.934l2.363 2.605zm0 0M27.61 15.383a.946.946 0 0 0-.954.937c0 .516.426.938.953.938.524 0 .95-.422.95-.938a.945.945 0 0 0-.95-.937zm0 0" fill="#ec8625"/><path d="M27.61 17.293a.981.981 0 0 1-.989-.973c0-.539.442-.972.988-.972.543 0 .985.433.985.972a.98.98 0 0 1-.985.973zm0-1.875a.911.911 0 0 0-.919.902c0 .5.41.903.918.903a.91.91 0 0 0 .914-.903.905.905 0 0 0-.914-.902zm0 0M8.586 3.77a.943.943 0 0 0-.95.937c0 .516.426.938.95.938a.946.946 0 0 0 .953-.938.944.944 0 0 0-.953-.937zm0 0" fill="#ec8625"/><path d="M8.586 5.68a.98.98 0 0 1-.984-.973c0-.539.441-.973.984-.973.547 0 .988.434.988.973a.981.981 0 0 1-.988.973zm0-1.875a.91.91 0 0 0-.914.902c0 .5.41.902.918.902a.91.91 0 0 0 .914-.902.893.893 0 0 0-.27-.637.91.91 0 0 0-.648-.265zm0 0" fill="#ec8625"/><path d="M36.727 13.418c-1.946-1.148-4.504-1.781-7.215-1.781-3.008 0-6.375.816-8.563 2.75V6.578c0-1.844-1.152-3.539-3.246-4.773C15.762.656 13.2.023 10.488.023c-2.71 0-5.27.633-7.215 1.782C1.183 3.039.027 4.735.027 6.578v34.844c0 1.844 1.157 3.539 3.246 4.773 1.946 1.149 4.504 1.782 7.215 1.782 3.438 0 7.567-1.125 9.512-3.782 1.934 2.645 6.043 3.782 9.512 3.782 2.71 0 5.27-.633 7.215-1.782 2.09-1.234 3.246-2.93 3.246-4.773v-23.23c0-1.84-1.157-3.54-3.246-4.774zM19.05 41.422c0 2.535-3.922 4.68-8.563 4.68-4.64 0-8.558-2.145-8.558-4.68v-2c2.187 1.93 5.547 2.746 8.558 2.746 3.016 0 6.375-.813 8.563-2.746zm0-5.809c0 2.54-3.922 4.684-8.563 4.684-4.64 0-8.558-2.145-8.558-4.684v-2c2.187 1.934 5.547 2.75 8.558 2.75 3.016 0 6.375-.816 8.563-2.75zm0-5.804c0 2.535-3.922 4.68-8.563 4.68-4.64 0-8.558-2.145-8.558-4.68v-2c2.187 1.93 5.547 2.746 8.558 2.746 3.016 0 6.375-.813 8.563-2.746zm0-5.809c0 2.54-3.922 4.684-8.563 4.684-4.64 0-8.558-2.145-8.558-4.684v-2c2.187 1.93 5.547 2.75 8.558 2.75 3.016 0 6.375-.816 8.563-2.75zm0-5.809c0 2.54-3.922 4.684-8.563 4.684-4.64 0-8.558-2.145-8.558-4.684v-1.996c2.187 1.93 5.547 2.746 8.558 2.746 3.016 0 6.375-.812 8.563-2.746zm0-5.804c0 2.539-3.922 4.683-8.563 4.683-4.64 0-8.558-2.144-8.558-4.683v-2c2.187 1.93 5.547 2.75 8.558 2.75 2.711 0 5.274-.633 7.215-1.782.48-.28.93-.605 1.348-.968zm-8.563-1.125c-4.64 0-8.558-2.145-8.558-4.684 0-2.535 3.918-4.68 8.558-4.68s8.563 2.145 8.563 4.68c0 2.54-3.926 4.684-8.563 4.684zm27.582 30.16c0 2.535-3.918 4.68-8.558 4.68s-8.563-2.145-8.563-4.68v-2c2.188 1.93 5.547 2.746 8.563 2.746 3.011 0 6.37-.816 8.558-2.746zm0-5.809c0 2.54-3.918 4.684-8.558 4.684s-8.563-2.145-8.563-4.684v-2c2.188 1.934 5.547 2.75 8.563 2.75 3.011 0 6.37-.816 8.558-2.75zm0-5.804c0 2.535-3.918 4.68-8.558 4.68s-8.563-2.145-8.563-4.68v-2c2.188 1.93 5.547 2.746 8.563 2.746 3.011 0 6.37-.817 8.558-2.746zm0-5.809c0 2.54-3.918 4.684-8.558 4.684S20.949 26.539 20.949 24v-2c2.188 1.93 5.547 2.75 8.563 2.75 3.011 0 6.37-.816 8.558-2.75zm-8.558-1.125c-4.64 0-8.563-2.145-8.563-4.684 0-2.535 3.922-4.68 8.563-4.68 4.64 0 8.558 2.145 8.558 4.68 0 2.54-3.922 4.684-8.558 4.684zm0 0" fill="#3e2c1f"/><path d="M29.512 48c-1.82.004-3.625-.3-5.34-.902-1.832-.66-3.274-1.649-4.172-2.864-.898 1.22-2.348 2.211-4.184 2.871-1.71.594-3.511.899-5.328.895-2.715 0-5.281-.633-7.226-1.781C1.16 44.977.004 43.269.004 41.422V6.578c0-1.851 1.156-3.555 3.258-4.797C5.207.63 7.773 0 10.492 0c2.715 0 5.281.633 7.227 1.781C19.82 3.02 20.98 4.727 20.98 6.578v7.75c1.954-1.703 5.133-2.715 8.536-2.715 2.714 0 5.28.633 7.226 1.782C38.844 14.637 40 16.34 40 18.19v23.227c0 1.852-1.156 3.559-3.258 4.797C34.793 47.367 32.227 48 29.512 48zM20 44.156l.02.024c2.035 2.785 6.386 3.773 9.492 3.773 2.703 0 5.261-.629 7.199-1.781 2.09-1.23 3.234-2.922 3.234-4.754v-23.23c0-1.833-1.148-3.524-3.234-4.754-1.938-1.149-4.496-1.782-7.2-1.782-3.41 0-6.6 1.028-8.542 2.743l-.043.035V6.578c0-1.832-1.149-3.523-3.23-4.754C15.753.676 13.195.047 10.487.047c-2.703 0-5.261.629-7.199 1.781C1.2 3.055.051 4.746.051 6.578v34.844c0 1.832 1.148 3.523 3.234 4.754 1.938 1.148 4.496 1.781 7.203 1.781 3.106 0 7.453-.988 9.492-3.773zm9.512 1.969c-4.653 0-8.586-2.152-8.586-4.703v-2.055l.043.035c1.941 1.72 5.133 2.743 8.543 2.743 3.406 0 6.601-1.024 8.543-2.743l.039-.035v2.055c0 2.55-3.93 4.703-8.582 4.703zm-8.535-6.648v1.949c0 2.527 3.906 4.656 8.535 4.656 4.625 0 8.535-2.137 8.535-4.66v-1.95c-1.957 1.704-5.137 2.715-8.535 2.715a16.184 16.184 0 0 1-4.598-.648c-1.586-.473-2.91-1.168-3.937-2.066zm-10.489 6.648c-4.652 0-8.582-2.152-8.582-4.703v-2.055l.04.035c1.94 1.72 5.136 2.743 8.542 2.743 3.41 0 6.602-1.024 8.543-2.743l.043-.035v2.055c0 2.55-3.933 4.703-8.586 4.703zm-8.535-6.648v1.949c0 2.527 3.91 4.656 8.535 4.656 4.63 0 8.535-2.137 8.535-4.66v-1.95c-1.953 1.704-5.132 2.715-8.535 2.715a16.203 16.203 0 0 1-4.597-.648c-1.582-.473-2.907-1.168-3.938-2.066zm27.559.843c-4.653 0-8.586-2.156-8.586-4.707v-2.05l.043.035c1.941 1.715 5.133 2.742 8.543 2.742 3.406 0 6.601-1.028 8.543-2.742l.039-.035v2.05c0 2.551-3.93 4.707-8.582 4.707zm-8.535-6.648v1.945c0 2.528 3.906 4.66 8.535 4.66 4.625 0 8.535-2.136 8.535-4.664v-1.945c-1.957 1.703-5.137 2.715-8.535 2.715a16.187 16.187 0 0 1-4.598-.653c-1.586-.468-2.91-1.164-3.937-2.062zM10.488 40.32c-4.652 0-8.582-2.156-8.582-4.707v-2.05l.04.035c1.94 1.715 5.136 2.742 8.542 2.742 3.41 0 6.602-1.028 8.543-2.742l.043-.035v2.05c0 2.551-3.933 4.707-8.586 4.707zm-8.535-6.648v1.945c0 2.528 3.91 4.66 8.535 4.66 4.63 0 8.535-2.136 8.535-4.664v-1.945c-1.953 1.703-5.132 2.715-8.535 2.715a16.207 16.207 0 0 1-4.597-.653c-1.582-.468-2.907-1.164-3.938-2.062zm27.559.84c-4.653 0-8.586-2.153-8.586-4.703v-2.055l.043.035c1.941 1.719 5.133 2.742 8.543 2.742 3.406 0 6.601-1.023 8.543-2.742l.039-.035v2.055c0 2.55-3.93 4.703-8.582 4.703zm-8.535-6.649v1.95c0 2.527 3.906 4.656 8.535 4.656 4.625 0 8.535-2.137 8.535-4.66v-1.95c-1.957 1.703-5.137 2.715-8.535 2.715a16.324 16.324 0 0 1-4.598-.648c-1.586-.473-2.91-1.168-3.937-2.067zm-10.489 6.649c-4.652 0-8.582-2.153-8.582-4.703v-2.055l.04.035c1.94 1.719 5.136 2.742 8.542 2.742 3.41 0 6.602-1.023 8.543-2.742l.043-.035v2.055c0 2.55-3.933 4.703-8.586 4.703zm-8.535-6.649v1.95c0 2.527 3.91 4.656 8.535 4.656 4.63 0 8.535-2.137 8.535-4.66v-1.95c-1.953 1.703-5.132 2.715-8.535 2.715a16.344 16.344 0 0 1-4.597-.648c-1.582-.473-2.907-1.168-3.938-2.067zm27.559.844c-4.653 0-8.586-2.156-8.586-4.707v-2.05l.043.034c1.941 1.715 5.133 2.743 8.543 2.743 3.406 0 6.601-1.028 8.543-2.743l.039-.035V24c0 2.55-3.93 4.707-8.582 4.707zm-8.535-6.652v1.949c0 2.527 3.906 4.66 8.535 4.66 4.625 0 8.535-2.137 8.535-4.664v-1.945c-1.957 1.703-5.137 2.715-8.535 2.715a16.187 16.187 0 0 1-4.598-.653c-1.586-.469-2.91-1.164-3.937-2.062zm-10.489 6.652c-4.652 0-8.582-2.156-8.582-4.707v-2.05l.04.034c1.94 1.715 5.136 2.743 8.542 2.743 3.41 0 6.602-1.028 8.543-2.743l.043-.035V24c0 2.55-3.933 4.707-8.586 4.707zm-8.535-6.652v1.949c0 2.527 3.91 4.66 8.535 4.66 4.63 0 8.535-2.137 8.535-4.664v-1.945c-1.953 1.703-5.132 2.715-8.535 2.715a16.207 16.207 0 0 1-4.597-.653c-1.582-.469-2.907-1.164-3.938-2.062zm27.559.843c-4.653 0-8.586-2.152-8.586-4.707 0-2.55 3.933-4.703 8.586-4.703 4.652 0 8.582 2.153 8.582 4.703 0 2.555-3.93 4.707-8.582 4.707zm0-9.363c-4.63 0-8.535 2.133-8.535 4.656 0 2.528 3.906 4.66 8.535 4.66 4.625 0 8.535-2.132 8.535-4.66 0-2.523-3.91-4.656-8.535-4.656zm-19.024 9.363c-4.652 0-8.582-2.152-8.582-4.707v-2.05l.04.035c1.94 1.719 5.136 2.742 8.542 2.742 3.41 0 6.602-1.023 8.543-2.742l.043-.035v2.05c0 2.555-3.933 4.707-8.586 4.707zM1.953 16.25v1.945c0 2.532 3.91 4.66 8.535 4.66 4.63 0 8.535-2.136 8.535-4.664v-1.945c-1.953 1.703-5.132 2.715-8.535 2.715a16.344 16.344 0 0 1-4.597-.648c-1.582-.473-2.907-1.168-3.938-2.067zm8.535.844c-4.652 0-8.582-2.157-8.582-4.707v-2.051l.04.035c1.94 1.715 5.136 2.742 8.542 2.742 2.707 0 5.266-.633 7.203-1.781a8.571 8.571 0 0 0 1.34-.965l.043-.035v2.05c0 2.556-3.933 4.712-8.586 4.712zM1.953 10.44v1.95c0 2.527 3.91 4.66 8.535 4.66 4.63 0 8.535-2.137 8.535-4.664v-1.95a8.587 8.587 0 0 1-1.308.938c-1.945 1.148-4.512 1.781-7.227 1.781a16.187 16.187 0 0 1-4.597-.652c-1.582-.469-2.907-1.164-3.938-2.066zm8.535.844c-4.652 0-8.582-2.156-8.582-4.707 0-2.55 3.93-4.703 8.582-4.703 4.653 0 8.586 2.152 8.586 4.703 0 2.555-3.933 4.707-8.586 4.707zm0-9.363c-4.625 0-8.535 2.133-8.535 4.656 0 2.527 3.91 4.66 8.535 4.66 4.63 0 8.535-2.133 8.535-4.66 0-2.523-3.906-4.656-8.535-4.656zm0 0" fill="#3e2c1f"/><path d="M36.125 17.957c-.363-1.012-2.324-2.047-4.559-2.41a.95.95 0 0 0-1.093.773.933.933 0 0 0 .78 1.075c1.138.187 1.97.527 2.493.816-.781.41-2.203.922-4.234.922-2.344 0-3.82-.676-4.477-1.106a.937.937 0 0 0-.402-1.015.97.97 0 0 0-1.106.047 2.015 2.015 0 0 0-.582.636.91.91 0 0 0-.047.735c.387 1.082 2.903 2.574 6.614 2.574 3.77 0 6.172-1.535 6.566-2.317a.916.916 0 0 0 .047-.73zm0 0" fill="#ec8625"/><path d="M29.512 21.04c-3.727 0-6.258-1.509-6.649-2.599a.969.969 0 0 1 .051-.765 1.98 1.98 0 0 1 .59-.645.994.994 0 0 1 1.137-.054.965.965 0 0 1 .433 1.03c.524.34 1.965 1.087 4.438 1.087 2.082 0 3.48-.54 4.16-.883a7.674 7.674 0 0 0-2.426-.781.976.976 0 0 1-.8-1.117.987.987 0 0 1 1.124-.801c2.246.367 4.22 1.41 4.586 2.433.09.25.074.524-.047.758-.394.79-2.812 2.336-6.597 2.336zm-5.403-4.145a.936.936 0 0 0-.562.187c-.23.164-.426.379-.57.625a.89.89 0 0 0-.043.707c.378 1.07 2.882 2.55 6.578 2.55 3.754 0 6.144-1.523 6.535-2.296a.899.899 0 0 0 .043-.703c-.36-1-2.309-2.027-4.531-2.387a.914.914 0 0 0-1.04.742c-.081.489.25.95.743 1.035 1.273.207 2.117.606 2.504.82l.058.036-.058.027c-.664.344-2.094.922-4.254.922-2.524 0-3.985-.773-4.496-1.11l-.024-.01.008-.028a.89.89 0 0 0-.168-.774.917.917 0 0 0-.723-.347zm0 0M17.102 6.344c-.36-1.012-2.325-2.047-4.559-2.41a.949.949 0 0 0-1.094.773.936.936 0 0 0 .785 1.074c1.137.188 1.97.528 2.493.817-.782.41-2.204.922-4.239.922-2.343 0-3.816-.676-4.476-1.106a.929.929 0 0 0-.399-1.016.97.97 0 0 0-1.11.047 1.99 1.99 0 0 0-.577.633.935.935 0 0 0-.051.738c.39 1.079 2.902 2.575 6.613 2.575 3.77 0 6.176-1.536 6.57-2.317a.933.933 0 0 0 .044-.73zm0 0" fill="#ec8625"/><path d="M10.488 9.426c-3.726 0-6.254-1.508-6.644-2.598a.968.968 0 0 1 .047-.766c.148-.253.351-.476.593-.644a.995.995 0 0 1 1.133-.059.97.97 0 0 1 .438 1.036c.52.34 1.96 1.085 4.433 1.085 2.086 0 3.485-.539 4.164-.882a7.674 7.674 0 0 0-2.425-.782.98.98 0 0 1-.797-1.117.986.986 0 0 1 1.12-.8c2.247.363 4.216 1.41 4.587 2.433.09.25.07.52-.047.758-.399.789-2.813 2.336-6.602 2.336zM5.09 5.28a.911.911 0 0 0-.563.188c-.234.164-.43.375-.57.62a.901.901 0 0 0-.047.712c.383 1.07 2.887 2.55 6.582 2.55 3.754 0 6.145-1.523 6.535-2.296a.899.899 0 0 0 .043-.703c-.36-1-2.308-2.028-4.53-2.391a.918.918 0 0 0-1.04.746c-.082.488.25.95.742 1.035 1.266.211 2.113.606 2.504.824l.055.032-.055.03c-.668.345-2.094.923-4.254.923-2.527 0-3.988-.778-4.496-1.11l-.02-.011.004-.028a.885.885 0 0 0-.132-.73.922.922 0 0 0-.641-.383c-.039-.008-.078-.008-.117-.008zm0 0" fill="#ec8625"/></svg><svg width="76" height="76" viewBox="-10 -10 76 76" id="cond-4" x="412" xmlns="http://www.w3.org/2000/svg"><path d="M32.512 3.527h.558a3.648 3.648 0 0 1 3.653 3.649V8.75h-6.645V5.96a2.434 2.434 0 0 1 2.434-2.433zm0 0M39.922 15.313a1.094 1.094 0 1 0 .001 2.188 1.094 1.094 0 0 0-.001-2.189zm0 0M28.984 15.313a1.094 1.094 0 1 0 .002 2.188 1.094 1.094 0 0 0-.002-2.189zm0 0" fill="#ec8625"/><path d="M55.309 26.328a4.285 4.285 0 0 0-7.438.395c-.098.195-.195.379-.293.562V12.031a3.28 3.28 0 0 0-3.281-3.281h-3.281V6.562A6.562 6.562 0 0 0 34.453 0a6.564 6.564 0 0 0-6.562 6.563V8.75h-3.282a3.283 3.283 0 0 0-3.28 3.281V27.61a12.696 12.696 0 0 0-1.11-.047c-4.207 0-7.801 3.29-9.57 5.25-.086.098-1.461 1.63-2.333 3.114l-.261-.258a1.09 1.09 0 0 0-1.547 0L.32 41.852a1.094 1.094 0 0 0 0 1.547l12.313 12.28a1.092 1.092 0 0 0 1.543 0l6.187-6.16a1.1 1.1 0 0 0 .32-.773 1.1 1.1 0 0 0-.32-.773l-1.004-1c.75-1.063 2.66-1.91 4.012-1.91h14.766a9.785 9.785 0 0 0 5.297-1.532c3.992-2.562 9.605-6.738 12.257-13.343a4.147 4.147 0 0 0-.382-3.86zM30.079 6.563a4.375 4.375 0 0 1 8.75 0V8.75h-8.75zm-6.563 5.468c0-.605.492-1.094 1.093-1.094h3.282v1.094a1.094 1.094 0 0 0 2.187 0v-1.094h8.75v1.094a1.094 1.094 0 0 0 2.188 0v-1.094h3.28c.606 0 1.095.489 1.095 1.094v18.266c-.711.683-1.555 1.27-2.664 1.844a4.398 4.398 0 0 0-3.899-2.391H27.875c-.7 0-1.262-.297-2.043-.707a12.847 12.847 0 0 0-2.316-1.012zm-10.11 41.332L2.645 42.625l4.636-4.64 10.762 10.757zm40.258-23.992c-2.422 6.027-7.672 9.922-11.41 12.324a7.565 7.565 0 0 1-4.113 1.18H23.375c-1.91 0-4.277.992-5.566 2.54l-7.875-7.876c.867-1.781 5.402-7.785 10.293-7.785a9.606 9.606 0 0 1 1.976.191c1.094.235 1.86.64 2.61 1.032.898.472 1.824.964 3.062.964h10.953c1.211 0 2.188.977 2.188 2.188a2.186 2.186 0 0 1-2.188 2.187H27.875a1.094 1.094 0 0 0 0 2.188h10.953a4.377 4.377 0 0 0 4.375-4.156c1.785-.864 3.035-1.743 4.102-2.868.925-.984 1.73-2.18 2.527-3.78a2.103 2.103 0 0 1 3.648-.184c.36.55.43 1.242.184 1.855zm0 0" fill="#3e2c1f"/><path d="M13.469 47.266l-1.547-1.547a1.085 1.085 0 0 0-1.063-.297c-.382.098-.68.398-.78.781-.099.383.015.79.296 1.063l1.547 1.547c.43.414 1.113.406 1.535-.016a1.092 1.092 0 0 0 .012-1.531zm0 0" fill="#ec8625"/><path d="M9.078 40.504L4.805 44.78l8.601 8.582 4.637-4.617-8.566-8.566zm0 0" fill="#ec8625"/></svg><svg width="99" height="54" viewBox="-10 -10 99 54" id="corporate-1" x="488" xmlns="http://www.w3.org/2000/svg"><path d="M55.11 32.406a.919.919 0 0 0-1.169-.117.938.938 0 0 0-.34 1.137.918.918 0 0 0 1.036.554.93.93 0 0 0 .742-.914.947.947 0 0 0-.27-.66zm0 0M51.195 26.156H37.56a.929.929 0 0 0-.922.934c0 .515.414.933.922.933h13.64a.93.93 0 0 0 .926-.933.93.93 0 0 0-.926-.934zm0 0" fill="#ec8625"/><path d="M74.352.016H49.355a.93.93 0 0 0-.925.933.93.93 0 0 0 .925.934h13.903c.004 0 .004 0 .004.004v7.992c0 .148.035.293.101.426v.004c-.289.062-.566.171-.824.324l-4.98-2.371a2.795 2.795 0 0 0-2.907.304 2.91 2.91 0 0 0-1.12 2.332v5.172s-.005.004-.009.004h-20.87c-.56 0-1.016.457-1.016 1.028v12.226a4.69 4.69 0 0 0 1.355 3.3 4.612 4.612 0 0 0 3.274 1.368h14.293a.951.951 0 0 0 .957-.875.94.94 0 0 0-.25-.7.92.92 0 0 0-.672-.292H36.266c-1.532 0-2.778-1.254-2.778-2.8V17.944s0-.004.004-.004h20.09a2.834 2.834 0 0 0 1.938 2.168v.008l-1.625 2.82a.94.94 0 0 0 .062 1.04c.23.3.613.43.977.332l2.207-.598h.007l.59 2.23a.922.922 0 0 0 1.696.227l4.21-7.367h.008l5.278 9.476a.924.924 0 0 0 .941.47.943.943 0 0 0 .77-.716l.582-2.199s0-.004.007 0l2.207.59a.924.924 0 0 0 .973-.328.943.943 0 0 0 .07-1.035l-2.714-4.829v-.007a2.844 2.844 0 0 0 3.02-2.277h2.343c0-.005 0-.005.004 0v11.382c0 .742-.293 1.457-.817 1.98-.52.528-1.226.82-1.964.82h-9.235v-5a.953.953 0 0 0-.867-.968.916.916 0 0 0-.691.25.946.946 0 0 0-.293.684v5.039h-4.774a.951.951 0 0 0-.957.875.94.94 0 0 0 .25.699.913.913 0 0 0 .672.293h15.895c2.554 0 4.628-2.09 4.628-4.668V4.687c0-2.582-2.07-4.671-4.628-4.671zM55.785 18.18a1.021 1.021 0 0 1-.406-.828V10.84c0-.336.172-.649.453-.828a.959.959 0 0 1 .934-.059l4.53 2.156v.008a2.878 2.878 0 0 0-.171.98v1.997c.004.344.066.687.188 1.008v.007l-4.543 2.164a.944.944 0 0 1-.985-.093zm3.164 5.09l-.25-.934a.93.93 0 0 0-.426-.578.907.907 0 0 0-.71-.098l-.93.25v-.004l1.191-2.066 4.239-2.027.007.007-3.117 5.45zm5.477-7.192h-.461a.982.982 0 0 1-.977-.988v-1.988c0-.547.438-.989.977-.989h.46c.544 0 .981.442.981.989v1.988a.985.985 0 0 1-.98.988zm7.347 7.961l-.949-.258a.92.92 0 0 0-1.145.656l-.242.915h-.011l-4.188-7.52v-.004c.2-.062.39-.144.57-.246l3.188 1.52 2.777 4.93v.007zm1.223-6.687c.004.324-.148.636-.406.832a.961.961 0 0 1-.985.093l-4.53-2.16v-.008c.12-.324.183-.668.183-1.011v-2c0-.34-.059-.672-.172-.989v-.004l4.52-2.152c.32-.156.699-.121.984.09.262.195.41.508.406.832zm1.848-1.282v-5.172a2.91 2.91 0 0 0-1.121-2.332 2.795 2.795 0 0 0-2.907-.304l-4.968 2.367a2.773 2.773 0 0 0-.832-.324V10.3a.92.92 0 0 0 .101-.422V1.887c0-.004 0-.004.004-.004h9.23a2.747 2.747 0 0 1 1.97.82c.523.524.816 1.238.816 1.985V16.07l-.004.004h-2.285c-.004 0-.004-.004-.004-.004zm0 0" fill="#3e2c1f"/><path d="M1.766 2.324a1.023 1.023 0 0 1-.922-1.023c0-.528.398-.969.922-1.02h6.351c.559 0 1.012.461 1.012 1.028a.99.99 0 0 1-.258.68L5.973 5.292c2.8.32 3.652 2.281 3.652 4.406 0 2.746-1.648 4.328-4.883 4.328-2.062 0-3.691-1-4.547-2.222a1.086 1.086 0 0 1-.054-1.094c.183-.348.539-.566.93-.57.359 0 .617.14.952.52.676.78 1.43 1.362 2.72 1.362 1.784 0 2.62-.902 2.62-2.324 0-1.398-.578-2.406-2.363-2.406H3.77c-.618 0-1.07-.461-1.07-1.04a1.002 1.002 0 0 1 .257-.698l2.793-3.23zm0 0M21.813 7.016c0 4.808-1.649 7.035-5.18 7.035-3.574 0-5.2-2.227-5.2-7.035C11.43 2.226 13.056 0 16.634 0c3.531 0 5.18 2.227 5.18 7.016zm-2.266 0c0-3.489-.871-5.012-2.914-5.012-2.047 0-2.938 1.523-2.938 5.012 0 3.527.89 5.007 2.938 5.007 2.043 0 2.914-1.48 2.914-5.007zm0 0M33.938 7.016c0 4.808-1.649 7.035-5.18 7.035-3.57 0-5.2-2.227-5.2-7.035 0-4.79 1.626-7.016 5.2-7.016 3.531 0 5.18 2.227 5.18 7.016zm-2.262 0c0-3.489-.875-5.012-2.918-5.012s-2.942 1.523-2.942 5.012c0 3.527.895 5.007 2.938 5.007 2.047 0 2.922-1.48 2.922-5.007zm0 0M38.031 10.8h-.676a.461.461 0 0 1-.457-.46v-.442c0-.257.207-.46.457-.46h.676a.46.46 0 0 0 .453-.461v-.48a.458.458 0 0 0-.457-.462h-.675a.458.458 0 0 1-.454-.46v-.442c0-.254.204-.461.454-.461h.675a.456.456 0 0 0 .457-.461V.48a.46.46 0 0 1 .465-.46l2.957-.001c1.012 0 2.602.101 3.73.98.45.348.805.8 1.036 1.324.21.52.32 1.078.316 1.645 0 1.222-.496 2.324-1.23 2.984-1.196 1.063-3.203 1.082-3.559 1.082h-1.27a.458.458 0 0 0-.456.461v.48c0 .258.203.461.457.461h1.863c.254 0 .457.208.457.461v.442c0 .254-.203.46-.457.46H40.93a.458.458 0 0 0-.457.462v2.324c0 .258-.207.46-.457.46h-1.067a.456.456 0 0 1-.457-.46v-2.324a.458.458 0 0 0-.46-.46zm2.442-4.59c0 .259.203.462.457.462h1.289c.754 0 1.629-.238 2.105-.7.317-.3.672-.84.672-1.722 0-.742-.215-1.426-.89-1.906-.579-.399-1.41-.559-2.165-.559H40.93a.46.46 0 0 0-.457.457zm0 0" fill="#ec8625"/></svg><svg width="88" height="75" viewBox="-10 -10 71 75" id="corporate-2" x="587" xmlns="http://www.w3.org/2000/svg"><path d="M4.625 54.133h41.816c2.16 0 3.918-1.738 3.918-3.883 0-2.14-1.757-3.879-3.918-3.879h-2.28a.641.641 0 0 0-.645.637c0 .351.289.633.644.633h2.246a2.62 2.62 0 0 1 2.633 2.609 2.62 2.62 0 0 1-2.633 2.61H4.656c-1.453 0-2.633-1.169-2.633-2.61 0-1.441 1.18-2.61 2.633-2.61H6.91a.638.638 0 0 0 .645-.632.641.641 0 0 0-.645-.637H4.625C2.441 46.351.66 48.09.641 50.25c-.004 2.137 1.738 3.875 3.894 3.883zm0 0" fill="#ec8625"/><path d="M4.535 54.77a4.515 4.515 0 0 1-3.21-1.333A4.418 4.418 0 0 1 0 50.258c.02-2.5 2.07-4.515 4.594-4.519h2.312c.707 0 1.285.57 1.285 1.274 0 .703-.578 1.273-1.285 1.273h-2.25a1.984 1.984 0 0 0-1.992 1.973 1.989 1.989 0 0 0 1.992 1.972h41.75a1.981 1.981 0 0 0 1.992-1.972c0-1.09-.89-1.973-1.992-1.973H44.16c-.71 0-1.285-.57-1.285-1.273s.574-1.274 1.285-1.274h2.281c2.516 0 4.559 2.024 4.559 4.52 0 2.496-2.043 4.52-4.559 4.52H4.535zm.063-7.762c-1.817 0-3.297 1.449-3.313 3.25 0 1.781 1.453 3.226 3.25 3.238h.113c-1.808 0-3.273-1.453-3.273-3.246 0-1.79 1.465-3.242 3.273-3.242zm.058 6.488h41.785c1.809 0 3.274-1.453 3.274-3.246 0-1.79-1.465-3.242-3.274-3.242.868 0 1.7.34 2.313.949.613.61.957 1.434.953 2.293 0 1.793-1.46 3.242-3.266 3.246zm39.504-6.488zm0 0" fill="#ec8625"/><path d="M11.754 51.328c.3-.187.39-.582.2-.879a15.225 15.225 0 0 1-2.247-7.953c0-8.61 7.043-15.59 15.734-15.59 8.692 0 15.739 6.98 15.739 15.59a15.076 15.076 0 0 1-2.25 7.953c-.172.301-.09.684.195.89.098.052.207.075.32.063a.758.758 0 0 0 .578-.316 17.1 17.1 0 0 0 2.372-8.668c-.02-9.277-7.625-16.785-16.993-16.766-9.363.016-16.941 7.551-16.922 16.828a17.062 17.062 0 0 0 2.375 8.657c.207.277.594.36.899.191zm0 0" fill="#ec8625"/><path d="M11.414 52.05c-.426 0-.824-.198-1.078-.538l-.059-.051a17.682 17.682 0 0 1-2.441-8.98c0-9.614 7.86-17.415 17.566-17.434h.035c9.692 0 17.563 7.765 17.598 17.371a17.706 17.706 0 0 1-2.465 8.98 1.436 1.436 0 0 1-1.093.633 1.175 1.175 0 0 1-.641-.136l-.078-.047a1.31 1.31 0 0 1-.371-1.72 14.496 14.496 0 0 0 2.164-7.632c0-8.262-6.758-14.953-15.098-14.953-8.336 0-15.094 6.691-15.094 14.953 0 2.691.743 5.332 2.153 7.633.187.289.25.637.175.969a1.295 1.295 0 0 1-.574.797 1.361 1.361 0 0 1-.699.156zm-.031-1.269c-.168-.273-.32-.55-.469-.824.164.273.313.543.469.809zm0 0M24.602 22.566c.25.243.648.243.898 0l4.754-4.71c.281-.211.34-.61.129-.891a.65.65 0 0 0-1.028 0l-4.304 4.265-4.305-4.265a.646.646 0 0 0-.898.129.627.627 0 0 0 0 .761zm0 0" fill="#3e2c1f"/><path d="M25.05 23.379a1.273 1.273 0 0 1-.898-.356l-4.82-4.785a1.264 1.264 0 0 1 .121-1.664 1.299 1.299 0 0 1 1.68-.117l.07.059 3.856 3.816 3.851-3.785c.067-.082.14-.156.227-.219a1.285 1.285 0 0 1 1.797.258 1.259 1.259 0 0 1-.22 1.746l-4.718 4.684a1.292 1.292 0 0 1-.945.363zm0 0" fill="#3e2c1f"/><path d="M25.05 16.012c.712 0 1.286-.57 1.286-1.274 0-.703-.574-1.273-1.285-1.273s-1.285.57-1.285 1.273.574 1.274 1.285 1.274zm0 0" fill="#ec8625"/><path d="M25.05 16.648a1.916 1.916 0 0 1-1.925-1.91c0-1.054.86-1.91 1.926-1.91 1.062 0 1.926.856 1.926 1.91 0 1.055-.864 1.91-1.926 1.91zm0-2.546a.641.641 0 0 0-.644.636c0 .352.29.637.645.637a.638.638 0 1 0 0-1.273zm0 0M39.18 7.613c.18-.015.351-.058.515-.129.625-.25.926-.949.68-1.57l-.04-.082a1.287 1.287 0 0 0-1.585-.453 1.27 1.27 0 0 0-.727 1.469c.204.457.657.757 1.157.765zm0 0" fill="#ec8625"/><path d="M39.18 8.25a1.936 1.936 0 0 1-1.735-1.148L37.415 7a1.895 1.895 0 0 1 .48-1.754c.449-.469 1.109-.68 1.75-.562.5.097.94.39 1.226.808l.04.07c.023.043.042.09.062.133.187.453.187.961 0 1.414a1.84 1.84 0 0 1-1.02.985 2.02 2.02 0 0 1-.707.172zm-.563-1.605c.106.195.309.32.531.332.09-.012.18-.036.266-.07a.596.596 0 0 0 .34-.321.566.566 0 0 0 0-.438.65.65 0 0 0-.867-.133.63.63 0 0 0-.25.63zm0 0M25.758 5.895c.219.171.492.261.77.253a1.343 1.343 0 0 0 1.027-.507 1.262 1.262 0 0 0-.258-1.782 1.29 1.29 0 0 0-1.797.254 1.262 1.262 0 0 0 .258 1.782zm0 0" fill="#ec8625"/><path d="M26.516 6.785c-.414 0-.82-.137-1.153-.383a1.9 1.9 0 0 1-.379-2.672 1.94 1.94 0 0 1 2.696-.378 1.894 1.894 0 0 1 .39 2.668c-.367.472-.93.753-1.53.765zm0-2.547h-.09a.643.643 0 0 0-.426.25.635.635 0 0 0 .129.89.584.584 0 0 0 .375.122.688.688 0 0 0 .523-.27.63.63 0 0 0-.113-.863.657.657 0 0 0-.387-.129zm0 0M25.05 10.922c.712 0 1.286-.57 1.286-1.274 0-.703-.574-1.273-1.285-1.273s-1.285.57-1.285 1.273c0 .704.574 1.274 1.285 1.274zm0 0" fill="#ec8625"/><path d="M25.05 11.559a1.916 1.916 0 0 1-1.925-1.91c0-1.055.86-1.91 1.926-1.91 1.062 0 1.926.855 1.926 1.91 0 1.054-.864 1.91-1.926 1.91zm0-2.547a.641.641 0 0 0-.644.636c0 .352.29.637.645.637a.638.638 0 1 0 0-1.273zm0 0M30.703 3.414c.11.004.219-.02.32-.066.332-.075.622-.278.801-.567.184-.285.238-.629.164-.96a1.29 1.29 0 0 0-1.445-.938 1.276 1.276 0 0 0-1.082 1.336 1.283 1.283 0 0 0 1.242 1.195zm0 0" fill="#ec8625"/><path d="M30.727 4.047h-.051a1.923 1.923 0 0 1-1.774-1.43 1.905 1.905 0 0 1 .707-1.98A1.942 1.942 0 0 1 31.723.5c.445.25.761.672.886 1.164a1.904 1.904 0 0 1-1.379 2.29c-.16.062-.332.097-.503.093zm0-2.543a.577.577 0 0 0-.165 0 .635.635 0 0 0-.457.777c.07.27.313.465.598.477h.031l.13-.04a.662.662 0 0 0 .402-.28.63.63 0 0 0 .078-.481.635.635 0 0 0-.64-.465zm0 0M35.168 3.863c.184.07.379.114.578.13.48-.016.922-.282 1.156-.7a1.275 1.275 0 0 0-.566-1.715 1.3 1.3 0 0 0-1.734.574 1.276 1.276 0 0 0 .578 1.72zm0 0" fill="#ec8625"/><path d="M35.766 4.629a2.87 2.87 0 0 1-.836-.172h-.051a1.897 1.897 0 0 1-.836-2.598A1.937 1.937 0 0 1 35.91.83a1.929 1.929 0 0 1 1.68 1.312c.16.48.12 1.007-.117 1.457a2.022 2.022 0 0 1-1.707 1.03zm-.336-1.344c.113.04.234.063.355.07a.695.695 0 0 0 .55-.37.633.633 0 0 0-.288-.844.645.645 0 0 0-.918.777.68.68 0 0 0 .3.367zm0 0M28.902 34.363l-1.515-.476c-2.016-.63-4.164.472-4.817 2.46l-.828 2.59-1.508-.468a.648.648 0 0 0-.824.398c-.113.336.067.7.406.817l1.508.476-.691 2.156-1.524-.472a.67.67 0 0 0-.492.035.636.636 0 0 0 .074 1.176l1.508.476-.703 2.203a.66.66 0 0 0 .442.832.67.67 0 0 0 .84-.437l.687-2.223 3.086.977c.332.113.699-.067.812-.395v-.035a.598.598 0 0 0-.031-.484.647.647 0 0 0-.371-.324l-3.082-.973.691-2.156 3.918 1.234c1.934.61 4-.453 4.614-2.367l.168-.508c.574-1.89-.477-3.89-2.368-4.512zm.961 4.684a2.38 2.38 0 0 1-2.968 1.52l-3.934-1.235.805-2.59a2.51 2.51 0 0 1 1.261-1.476 2.543 2.543 0 0 1 1.95-.145l1.515.477a2.34 2.34 0 0 1 1.535 2.937zm0 0" fill="#ec8625"/><path d="M20.156 47.281c-.133 0-.265-.02-.39-.058a1.283 1.283 0 0 1-.774-.637 1.274 1.274 0 0 1-.094-.992l.512-1.598-.89-.285a1.315 1.315 0 0 1-.778-.637 1.26 1.26 0 0 1 .164-1.433 1.284 1.284 0 0 1 1.41-.36l.899.278.3-.95-.894-.289a1.284 1.284 0 0 1-.84-1.613 1.297 1.297 0 0 1 1.625-.832l.899.281.644-1.988c.758-2.32 3.266-3.605 5.617-2.875l1.52.477c2.254.718 3.508 3.101 2.812 5.347l-.175.516c-.73 2.226-3.133 3.457-5.387 2.762l-3.34-1.04-.305.942 2.47.785c.683.219 1.054.945.835 1.621a1.307 1.307 0 0 1-1.64.828l-2.446-.758-.496 1.602a1.269 1.269 0 0 1-1.258.906zm-1.238-4.812l2.113.695-.906 2.805.938-2.82 3.699 1.171-3.688-1.195 1.086-3.371 4.496 1.43c1.598.5 3.301-.375 3.809-1.954l.168-.515c.484-1.574-.395-3.238-1.973-3.746l-1.515-.48c-1.68-.52-3.473.398-4.016 2.058l-1.02 3.18-2.12-.637 2.113.695-1.086 3.363zm8.703-1.153c-.312 0-.621-.05-.914-.144l-4.555-1.426 1.028-3.184c.55-1.628 2.308-2.527 3.972-2.035l1.516.477c1.566.516 2.43 2.184 1.926 3.742l-.149.504a2.96 2.96 0 0 1-1.457 1.703c-.422.23-.89.356-1.367.363zm-3.855-2.398l3.316 1.043a1.722 1.722 0 0 0 2.156-1.098l.149-.5c.144-.43.105-.902-.102-1.308a1.744 1.744 0 0 0-1.023-.852l-1.516-.48a1.934 1.934 0 0 0-2.34 1.218zm0 0" fill="#ec8625"/></svg><svg width="76" height="76" viewBox="-10 -10 76 76" id="corporate-3" x="675" xmlns="http://www.w3.org/2000/svg"><path d="M14.52 41.41a21.155 21.155 0 0 0 22.328 14.153A21.165 21.165 0 0 0 55.55 36.874c1.094-9.836-4.774-19.117-14.133-22.34a21.424 21.424 0 0 0-7.39-10.105 21.133 21.133 0 0 0-22.895-1.41A21.137 21.137 0 0 0 .43 23.309 21.14 21.14 0 0 0 14.52 41.41zm39.37-6.87c.012 9.5-6.87 17.605-16.25 19.136-9.374 1.531-18.48-3.969-21.488-12.98a.88.88 0 0 0-.148-.45 19.387 19.387 0 0 1 24.312-24.195c.079.039.16.07.246.086a19.365 19.365 0 0 1 13.329 18.402zM7.704 7.733c6.79-6.8 17.54-7.586 25.25-1.847a19.763 19.763 0 0 1 6.34 8.062C27.93 11.301 16.57 18.363 13.922 29.727a20.578 20.578 0 0 0-.547 4.812 20.25 20.25 0 0 0 .535 4.723A19.402 19.402 0 0 1 2.418 25.137 19.392 19.392 0 0 1 7.695 7.71zm0 0" fill="#3e2c1f"/><path d="M34.54 56a21.5 21.5 0 0 1-20.267-14.348 21.632 21.632 0 0 1-10.058-7.476c-6.29-8.54-5.395-20.39 2.105-27.89 7.496-7.5 19.348-8.395 27.887-2.102a21.546 21.546 0 0 1 7.453 10.109c9.86 3.477 15.785 13.55 14.024 23.855C53.926 48.457 44.996 55.996 34.539 56zM21.534.617A20.834 20.834 0 0 0 2.242 13.484a20.833 20.833 0 0 0 2.473 20.328 20.978 20.978 0 0 0 9.902 7.31l.14.05.052.14A20.845 20.845 0 0 0 36.82 55.27c9.7-1.07 17.356-8.73 18.43-18.43a20.855 20.855 0 0 0-13.96-22.012l-.118-.047-.047-.14a20.934 20.934 0 0 0-7.285-9.965A20.681 20.681 0 0 0 21.535.617zm12.969 53.621a19.644 19.644 0 0 1-18.66-13.445v-.086c0-.102-.031-.2-.086-.281l-.043-.086a19.7 19.7 0 0 1 4.945-19.73 19.71 19.71 0 0 1 19.75-4.848c.074.031.149.058.227.078a19.622 19.622 0 0 1 13.574 18.7c.02 10.87-8.781 19.694-19.652 19.706zm-18.05-13.59a19.033 19.033 0 0 0 18.05 12.973 19.05 19.05 0 0 0 13.512-5.574 19.045 19.045 0 0 0 5.578-13.508 19.002 19.002 0 0 0-13.11-18.11 1.457 1.457 0 0 1-.285-.1 19.09 19.09 0 0 0-23.918 23.788c.098.16.16.34.172.531zm-2.114-.863l-.555-.242A19.698 19.698 0 0 1 2.133 25.207 19.703 19.703 0 0 1 7.473 7.52l.382-.383a19.767 19.767 0 0 1 25.25-1.5 20.012 20.012 0 0 1 6.45 8.187l.234.555-.617-.133c-11.18-2.566-22.328 4.383-24.95 15.55-.71 3.09-.71 6.306 0 9.395zM7.527 8.32a19.125 19.125 0 0 0-1.433 24.414 19.358 19.358 0 0 0 7.39 6.004 21.056 21.056 0 0 1-.414-4.199 21.395 21.395 0 0 1 7.867-16.594 21.396 21.396 0 0 1 17.829-4.394 19.48 19.48 0 0 0-6-7.39C25.16.565 14.613 1.35 7.918 8.007l-.383.379zm0 0" fill="#3e2c1f"/><path d="M28.426 26.29c3.23 0 5.148 1.847 5.148 4.577 0 4.703-7.742 6.516-7.742 8.473h6.824c.63 0 1.14.512 1.14 1.14 0 .63-.51 1.141-1.14 1.141h-8.492c-.629 0-1.14-.512-1.14-1.14 0-4.926 8.007-5.446 8.007-9.614 0-1.23-.914-2.347-2.605-2.347a2.649 2.649 0 0 0-2.543 1.609c-.203.433-.637.71-1.117.715a1.242 1.242 0 0 1-1.004-.57 1.224 1.224 0 0 1-.09-1.149c.715-1.625 2.297-2.836 4.754-2.836zm0 0M40.531 36.133l-3.43 5.086a1.26 1.26 0 0 1-1.07.578 1.292 1.292 0 0 1-1.293-1.293c-.008-.254.07-.504.223-.715l4.168-5.844-3.879-5.468a1.294 1.294 0 0 1 1.047-2.051c.418-.012.816.191 1.05.535l3.184 4.75 3.211-4.75c.23-.348.63-.55 1.047-.535.484 0 .93.273 1.148.707.223.43.184.949-.101 1.344l-3.879 5.468 4.168 5.844c.148.211.227.461.223.715 0 .715-.582 1.293-1.293 1.293a1.27 1.27 0 0 1-1.075-.578zm0 0" fill="#ec8625"/></svg><svg width="72" height="82" viewBox="-10 -10 72 82" id="corporate-4" x="751" xmlns="http://www.w3.org/2000/svg"><path d="M50.973 34.777H21.98l1.274-2.992a1.013 1.013 0 0 0-.547-1.328l-4.84-2.027a1.027 1.027 0 0 0-1.34.543l-2.824 6.636a5.569 5.569 0 0 0-2.781-2.535l-2.379-.992a1.022 1.022 0 0 0-.781-.004 1.01 1.01 0 0 0-.559.547l-1.781 4.172a5.514 5.514 0 0 0 .41 5.11 5.594 5.594 0 0 0-3.973 3.265L.082 49.355a1.016 1.016 0 0 0 .543 1.333l2.379 1a5.585 5.585 0 0 0 3.77.207L3.948 58.53c-.219.516.028 1.11.547 1.328l4.84 2.028a1.03 1.03 0 0 0 1.34-.543l9.011-21.18v18.723c0 1.703 1.391 3.082 3.106 3.082h26.105c1.715-.004 3.102-1.38 3.106-3.078V35.797a1.025 1.025 0 0 0-1.031-1.02zM7.316 37.59l1.38-3.242 1.425.601a3.519 3.519 0 0 1 1.895 4.621l-1.38 3.242-1.429-.605a3.514 3.514 0 0 1-1.89-4.617zm-.793 12.234a3.555 3.555 0 0 1-2.722-.015l-1.43-.606 1.375-3.242c.77-1.797 2.86-2.633 4.668-1.871l1.43.597-1.383 3.239a3.5 3.5 0 0 1-1.938 1.898zm2.665 9.793l-2.95-1.234 4.114-9.664 7.664-18.024 2.949 1.235zm28.656.317h-3.992V41.578c0-.562-.461-1.02-1.028-1.02-.566 0-1.023.458-1.023 1.02v18.356h-9.008c-.582 0-1.05-.47-1.055-1.047V36.812h16.098v23.122zm12.11-1.047c0 .578-.47 1.047-1.052 1.047h-9.015V36.813h10.062v22.074zm0 0" fill="#3e2c1f"/><path d="M40.133 4.328l-1.559-1.152.07-1.926a1.186 1.186 0 0 0-1.867-1l-1.586 1.113L33.363.7a1.19 1.19 0 0 0-1.222.254c-.328.309-.45.774-.317 1.2l.578 1.84-1.199 1.515a1.168 1.168 0 0 0-.137 1.238c.196.402.606.66 1.059.664l1.945.024 1.082 1.597c.25.375.692.57 1.141.512a1.18 1.18 0 0 0 .965-.79l.62-1.823 1.876-.528a1.174 1.174 0 0 0 .383-2.074zm-3.25.766c-.375.105-.676.39-.801.758l-.207.601-.355-.527a1.18 1.18 0 0 0-.977-.52l-.645-.011.399-.5a1.16 1.16 0 0 0 .2-1.075l-.192-.605.601.219c.367.136.782.082 1.098-.145l.527-.367-.023.633c-.016.39.16.757.476.988l.516.383zm0 0M36.316 21.71a56.82 56.82 0 0 0-1.453-8.874 1.022 1.022 0 0 0-1.238-.746c-.55.133-.89.683-.754 1.23a54.236 54.236 0 0 1 1.344 18.149c-.05.558.363 1.054.926 1.11h.097a1.029 1.029 0 0 0 1.02-.927c.312-3.304.332-6.632.058-9.941zm0 0M33.246 31.531a15.935 15.935 0 0 0-3.09-8.043c-2.918-3.902-6.828-5.398-8.902-5.937a1.027 1.027 0 0 0-1.242.726c-.145.535.175 1.09.718 1.239 1.813.476 5.235 1.78 7.782 5.183a13.917 13.917 0 0 1 2.695 7.016c.05.523.492.922 1.02.926h.097a1.02 1.02 0 0 0 .922-1.11zm0 0M50.656 19.117c-1.644.07-5.851.602-9.32 4.02a13.997 13.997 0 0 0-4.04 8.246 1.02 1.02 0 0 0 1.02 1.137c.52 0 .954-.387 1.016-.899a11.982 11.982 0 0 1 3.45-7.043c2.964-2.914 6.554-3.371 7.96-3.43a1.017 1.017 0 1 0-.086-2.031zm0 0" fill="#ec8625"/><path d="M28.535 9.348a3.658 3.658 0 0 0-4.375-.68 3.597 3.597 0 0 0-1.793 4.016 3.63 3.63 0 0 0 3.445 2.757h.09a3.64 3.64 0 0 0 3.34-2.187 3.583 3.583 0 0 0-.707-3.906zm-1.539 3.629a1.597 1.597 0 0 1-2.242-.055 1.562 1.562 0 0 1 .055-2.223 1.597 1.597 0 0 1 2.242.051 1.567 1.567 0 0 1-.059 2.227zm0 0M44.656 12.363a3.655 3.655 0 0 0-5.136-.117 3.586 3.586 0 0 0-.122 5.094 3.656 3.656 0 0 0 5.137.125 3.588 3.588 0 0 0 .121-5.102zm-1.539 3.63a1.597 1.597 0 0 1-2.242-.056 1.563 1.563 0 0 1 .059-2.222 1.588 1.588 0 0 1 2.238.055 1.563 1.563 0 0 1-.055 2.222zm0 0" fill="#3e2c1f"/></svg><svg width="85" height="84" viewBox="-10 -10 85 84" id="guest-1" x="823" xmlns="http://www.w3.org/2000/svg"><path d="M18.758 53.52c.484.265.824.726.926 1.27l1.324 6.855c.023.02.055.02.086 0h4.453c.023.02.055.02.082 0l.715-3.805a1.842 1.842 0 0 1 2.004-1.422c3.375.363 6.777.277 10.129-.246.957-.152 1.859.48 2.058 1.43l.785 4.043c.028.02.063.02.086 0h4.438c.031.02.07.02.097 0l1.426-7.254a1.743 1.743 0 0 1 .953-1.282 18.505 18.505 0 0 0 7.711-7.03 3.198 3.198 0 0 1 1.805-1.427l3-.77a6.961 6.961 0 0 1-3.867-.655c-2.117-1.04-2.617-3.278-3.516-5.145a11.698 11.698 0 0 0-6.558-5.578 48.395 48.395 0 0 0-11.934-3.219 47.357 47.357 0 0 0-7.328-.43 25.481 25.481 0 0 0-12.801 2.938 12.612 12.612 0 0 0-5.02 5.535v.938a16.353 16.353 0 0 0 8.946 15.254zm0 0" fill="#ed8b2d"/><path d="M62.805 33.832l-2.664-.86a.808.808 0 0 1-.496-.511 17.508 17.508 0 0 0-2.56-5.063c-.468-.664-.98-1.289-1.538-1.878.387-1.727.57-3.489.55-5.262 0-2.535-.577-4.047-1.648-4.606-.594-.312-2.203-1.156-10.765 2.77a4.133 4.133 0 0 0-.485.265c-.457-.109-.926-.238-1.422-.34.578-1.437.907-2.968.965-4.519a1.264 1.264 0 0 0-.336-.922 1.28 1.28 0 0 0-.886-.418 1.219 1.219 0 0 0-.91.328c-.258.23-.415.555-.426.899a10.646 10.646 0 0 1-6.871 9.492 27.8 27.8 0 0 0-7.512 0 10.648 10.648 0 0 1-6.942-9.742 10.655 10.655 0 0 1 6.47-10.067A10.615 10.615 0 0 1 37.05 5.703a10.05 10.05 0 0 1 1.98 2.75 1.284 1.284 0 1 0 2.29-1.164 12.727 12.727 0 0 0-2.462-3.41 13.175 13.175 0 0 0-13.047-4.05 13.214 13.214 0 0 0-9.644 9.69 13.253 13.253 0 0 0 4.082 13.063c.531.527 1.098 1 1.71 1.426l-1.05.328c-.496.16-.844.61-.883 1.129a1.298 1.298 0 0 0 .707 1.238c.301.16.66.184.98.07a24.987 24.987 0 0 1 15.74 0 1.298 1.298 0 0 0 1.616-.812 1.385 1.385 0 0 0-.07-.984 1.317 1.317 0 0 0-.734-.641l-1.055-.328c.61-.426 1.18-.899 1.703-1.426a13.278 13.278 0 0 0 1.566-1.879l1.141.27 1.063.273h.257c.352.16.762.125 1.082-.09a17.512 17.512 0 0 1 3.957-1.883l.395-.156a29.382 29.382 0 0 1 3.117-1.027 6.679 6.679 0 0 1 1.524-.254h.144c.438 1.617.504 3.312.195 4.96v.384c-.03.48-.101.96-.214 1.43a2.6 2.6 0 0 1-.172.468c-.145.34-.235.703-.254 1.07.039.415.281.782.656.965l.2.149c.238.21.511.43.742.668.273.285.527.597.75.925.957 1.301 1.699 2.743 2.187 4.282a3.326 3.326 0 0 0 2.152 2.175l2.66.86c.524.191.891.664.942 1.223l-.656 3.683-.086.578a5.142 5.142 0 0 1-.227 1.172 1.312 1.312 0 0 1-.812.8l-3.442.88a3.275 3.275 0 0 0-1.808 1.43 18.511 18.511 0 0 1-7.707 7.027c-.508.25-.86.73-.953 1.281l-1.426 7.262a.116.116 0 0 1-.102 0H41.32c-.027.015-.062.015-.082 0l-.77-4.008a1.831 1.831 0 0 0-2.066-1.43 38.67 38.67 0 0 1-10.097.192 1.851 1.851 0 0 0-2.008 1.422l-.621 3.96a.076.076 0 0 1-.09 0h-4.492c-.032.02-.063.02-.086 0l-1.324-6.855a1.83 1.83 0 0 0-.926-1.27 16.35 16.35 0 0 1-9.02-15.253c-.07-3.164.703-6.29 2.235-9.051a16.134 16.134 0 0 1 6-5.88 1.28 1.28 0 1 0-1.281-2.219A18.286 18.286 0 0 0 7.66 33.45a5.177 5.177 0 0 0-.21-.66 4.2 4.2 0 0 0-3.118-2.695 2.852 2.852 0 0 0-2.773 1.273 2.849 2.849 0 0 0-.512 3.063 4.893 4.893 0 0 0 3.441 2.168 4.265 4.265 0 0 1-3.129 1.566 1.343 1.343 0 0 0-1.293 1.328c0 .707.559 1.293 1.266 1.328a6.372 6.372 0 0 0 5.293-2.851c.21-.285.395-.586.55-.899v1.157a19.85 19.85 0 0 0 2.848 10.601 19.28 19.28 0 0 0 7.215 6.774l1.32 6.53a2.663 2.663 0 0 0 2.606 2.153h4.45c1.269 0 2.355-.902 2.59-2.152l.6-3.149c3.13.297 6.282.239 9.4-.172l.628 3.32a2.657 2.657 0 0 0 2.488 2.153h4.438a2.64 2.64 0 0 0 2.672-2.152l1.308-6.914a20.856 20.856 0 0 0 8.426-7.86.719.719 0 0 1 .367-.312l3.43-.871a3.902 3.902 0 0 0 2.488-2.45c.14-.468.235-.94.285-1.425 0-.23 0-.453.102-.684l.273-1.695c.032-.246.079-.492.137-.73a6.624 6.624 0 0 0 .258-1.637 3.883 3.883 0 0 0-2.7-3.723zm-59.442-.539c.043-.164.121-.309.227-.43.191-.23.3-.23.387-.23.523.183.93.605 1.097 1.129.043.105.082.218.117.328a3.518 3.518 0 0 1-1.828-.797zm0 0" fill="#433124"/><path d="M13.637 35.64c-.742 0-1.336.606-1.336 1.34.015 6.657 3.965 12.68 10.054 15.329a1.36 1.36 0 0 0 1.754-.723 1.345 1.345 0 0 0-.71-1.758 14 14 0 0 1-8.41-12.832 1.432 1.432 0 0 0-1.352-1.355zm0 0" fill="#433124"/><path d="M25.996 14.258h1.426c.61.832 1.336 1.562 2.16 2.183l1.184 1.008.629.57.64-.57c.41-.367.805-.695 1.18-1.008a7.464 7.464 0 0 0 2.742-3.394v-.074a3.954 3.954 0 0 0-.254-2.996 2.761 2.761 0 0 0-1.637-1.239 3.018 3.018 0 0 0-2.664.57 2.967 2.967 0 0 0-2.66-.57 2.763 2.763 0 0 0-1.648 1.239 3.745 3.745 0 0 0-.395 2.41h-.71V8.629h-1.91v9.508h1.917zm2.746-3.281a.738.738 0 0 1 .473-.356c.582-.156.879 0 1.422.484.078.082.168.149.254.22l.586.468.523-.387.246-.21c.484-.419.777-.645 1.352-.489a.733.733 0 0 1 .468.36c.2.445.235.953.098 1.421A5.896 5.896 0 0 1 32 15l-.598.496L30.81 15a6.01 6.01 0 0 1-2.16-2.512 2.084 2.084 0 0 1 .093-1.496zm0 0" fill="#ed8b2d"/></svg><svg width="66" height="60" viewBox="-10 -10 66 60" id="guest-2" x="908" xmlns="http://www.w3.org/2000/svg"><path d="M41.95 12.898a1.14 1.14 0 0 1-1.126-.968 1.197 1.197 0 0 1 .196-.89c.18-.259.453-.43.757-.481l2.797-.524a1.154 1.154 0 0 1 1.324.969 1.174 1.174 0 0 1-.953 1.351l-2.797.524a.678.678 0 0 1-.199.02zm0 0M38.14 7.652c-.261 0-.515-.093-.722-.261a1.183 1.183 0 0 1-.172-1.649l1.785-2.254c.25-.347.668-.527 1.09-.468.422.062.774.355.922.757.145.407.062.864-.219 1.188L39.04 7.219a1.125 1.125 0 0 1-.898.433zm0 0M42.762 21.09a1.134 1.134 0 0 1-.719-.266l-2.211-1.816a1.17 1.17 0 0 1-.457-1.11c.059-.43.344-.789.742-.937a1.144 1.144 0 0 1 1.164.223L43.496 19c.379.313.524.84.36 1.309a1.164 1.164 0 0 1-1.094.78zm0 0" fill="#433124"/><path d="M13.27 12.434l2.652 11.656a46.48 46.48 0 0 1 6.383-.438c.754 0 1.496.047 2.242.078L21.09 8.984a47.107 47.107 0 0 1-7.82 3.45zm0 0M12.293 27.383a.987.987 0 0 0-.14-.145l-1.727.399 6.383 10.05 1.668-.386a1.165 1.165 0 0 0-.094-.254zm0 0" fill="#ed8b2d"/><path d="M39.746 12.363c-.637-2.793-3.176-4.699-5.984-4.496L32.359 1.68A2.152 2.152 0 0 0 30.922.094a2.105 2.105 0 0 0-2.074.469 45.164 45.164 0 0 1-17.172 9.996l-6.004 1.437c-1.504.352-2.54 1.762-2.442 3.332l-1.07.215c-.695.16-1.293.61-1.66 1.23a2.788 2.788 0 0 0-.332 2.043l1.23 5.41c.336 1.446 1.758 2.34 3.176 2l1.078-.253a3.173 3.173 0 0 0 2.262 1.945l7.063 11.102c.39.609 1.058.972 1.773.972.156.012.313.012.469 0l4.351-1.031a2.107 2.107 0 0 0 1.489-1.285 2.17 2.17 0 0 0-.192-1.98l-5.945-9.352a44.393 44.393 0 0 1 18.129 1.535c.355.086.722.086 1.078 0 1.14-.29 1.844-1.457 1.574-2.625l-1.402-6.176c2.613-1.07 4.074-3.918 3.445-6.715zM4.07 24.02a.398.398 0 0 1-.476-.31l-1.23-5.41a.406.406 0 0 1 .054-.3.362.362 0 0 1 .25-.184l1.031-.246 1.41 6.207zm4.332 1.652a.959.959 0 0 1-.668-.688L5.5 15.336a.995.995 0 0 1 .117-.7.958.958 0 0 1 .57-.406l4.915-1.156 2.593 11.442-4.96 1.168a.735.735 0 0 1-.333-.012zm12.47 11.062l-2.395.567-1.668.386-6.383-10.05 1.726-.438 2.328-.554zm3.675-12.976c-.746 0-1.488-.078-2.242-.078-2.137.004-4.27.148-6.383.437L13.27 12.461a46.91 46.91 0 0 0 7.82-3.477 47.716 47.716 0 0 0 9.172-6.574l5.246 23.164a47.208 47.208 0 0 0-10.961-1.816zm11.086 1.992zm.152-8.945l-1.508-6.664c1.578.05 2.922 1.175 3.278 2.742.351 1.562-.375 3.176-1.77 3.922zm0 0" fill="#433124"/></svg><svg width="96" height="79" viewBox="-10 -10 77 79" id="guest-3" x="974" xmlns="http://www.w3.org/2000/svg"><path d="M14.262 35.023C15.395 23.09 25.996 14.34 37.926 15.488c.898.094 1.793.239 2.676.434a18.654 18.654 0 0 0-34.68 5.195A18.654 18.654 0 0 0 14.5 40.738a21.713 21.713 0 0 1-.238-5.715zm0 0" fill="#ee8826"/><path d="M37.5 53.438c-10.219-.102-18.418-8.473-18.313-18.688a18.84 18.84 0 0 1 2.926-10.102 18.739 18.739 0 0 0-4.863 12.653c-.098 10.219 8.105 18.578 18.328 18.676a18.22 18.22 0 0 0 15.399-8.575A18.127 18.127 0 0 1 37.5 53.437zm0 0" fill="#ee8826"/><path d="M57.05 32.66a20.089 20.089 0 0 0-.362-1.523 21.87 21.87 0 0 0-.836-2.371 1.631 1.631 0 0 0-.883-.891 1.629 1.629 0 0 0-1.242 0 1.483 1.483 0 0 0-.29.203 1.588 1.588 0 0 0-.585 1.945c.273.66.507 1.34.699 2.028.125.426.222.86.324 1.25.375 1.812.465 3.672.285 5.511-.82 8.747-7.7 15.696-16.433 16.598-8.743.899-16.899-4.492-19.489-12.887A18.425 18.425 0 0 1 42.14 19.75a18.198 18.198 0 0 1 6.032 3.64c.57.497 1.406.536 2.016.087.105-.059.203-.125.285-.215a1.618 1.618 0 0 0-.114-2.285 21.235 21.235 0 0 0-7.644-4.43C40.238 6.437 30.922-.488 20.527.059 10.125.609 1.594 8.48.2 18.797c-1.39 10.32 4.758 20.168 14.64 23.453A21.651 21.651 0 0 0 33.75 58.613a19.3 19.3 0 0 0 2.125.16c11.156-.023 20.469-8.515 21.527-19.625a21.302 21.302 0 0 0-.351-6.488zM3.3 19.914a18.413 18.413 0 0 1 35.715-4.273 17.45 17.45 0 0 0-1.128-.153c-11.914-1.12-22.492 7.621-23.625 19.535a21.84 21.84 0 0 0 0 3.575A18.523 18.523 0 0 1 3.34 19.914zm0 0" fill="#402d20"/><path d="M30.176 38.703h2.41a17.424 17.424 0 0 0 3.664 3.645c.625.527 1.25 1.074 1.973 1.715l1.066.953 1.063-.953c.71-.641 1.347-1.188 1.972-1.715 2.114-1.746 3.75-3.133 4.614-5.672v-.098a6.5 6.5 0 0 0-.489-5 4.5 4.5 0 0 0-2.699-2.043 5.007 5.007 0 0 0-4.45.965 5.017 5.017 0 0 0-4.452-.965 4.5 4.5 0 0 0-2.746 2.09 6.281 6.281 0 0 0-.664 4.016h-1.25v-6.364H26.96v15.899h3.215zm4.597-5.465c.172-.308.461-.527.805-.613.961-.25 1.45.14 2.25.828.145.121.281.25.422.344l.988.805.989-.805c.132-.094.273-.223.421-.344.801-.687 1.25-1.078 2.25-.828.344.086.633.305.805.613.363.785.418 1.676.16 2.5-.578 1.637-1.722 2.602-3.625 4.188l-1 .851-1-.851c-1.902-1.586-3.05-2.5-3.613-4.188a3.418 3.418 0 0 1 .148-2.5zm0 0" fill="#ee8826"/></svg><svg width="72" height="72" viewBox="-10 -10 59 59" id="guest-5" x="1070" xmlns="http://www.w3.org/2000/svg"><path d="M20.566 7.309a.916.916 0 0 0 .188.07c.144.016.289.016.433 0h6.125c.079.012.16.012.239 0a2.788 2.788 0 0 0 1.976-2.262 2.389 2.389 0 0 0 0-.472 2.914 2.914 0 0 0-.207-1.11 2.578 2.578 0 0 0-.562-.887 2.536 2.536 0 0 0-1.848-.832c-.43.032-.848.153-1.226.356l-.387.187c-.57.313-1.121.664-1.649 1.047-.539.395-1.054.813-1.55 1.258-.45.387-.871.809-1.254 1.262l-.219.258a1.71 1.71 0 0 0-.383.742.307.307 0 0 0 .137.285zm0 0M9.402 4.633a2.834 2.834 0 0 0 2.055 2.738c.078.008.152.008.23 0h6.126c.144.012.289.012.433 0 .133-.023.262-.07.375-.14.426-.286-.266-.989-.465-1.286a11.2 11.2 0 0 0-1.254-1.293 16.153 16.153 0 0 0-3.242-2.3 3.67 3.67 0 0 0-1.57-.536 2.713 2.713 0 0 0-2.688 2.817zm0 0M16.516 10.176v3.554a7.904 7.904 0 0 1 5.93 0v-3.554a.854.854 0 0 0-.852-.84h-4.227a.854.854 0 0 0-.851.84zm0 0M16.516 28.508v7.824c.007.465.386.84.851.84h4.266a.854.854 0 0 0 .851-.84v-7.824a7.904 7.904 0 0 1-5.93 0zm0 0" fill="#ed8b2d"/><path d="M37.773 7.516h-7.457a4.53 4.53 0 0 0 1.098-2.961 4.524 4.524 0 0 0-1.3-3.22A4.508 4.508 0 0 0 26.91 0c-1.62 0-5.129 2.145-7.074 4.336a.749.749 0 0 1-.375.219.749.749 0 0 1-.375-.22C17.18 2.146 13.672 0 12.09 0c-1.2 0-2.352.48-3.2 1.332a4.516 4.516 0 0 0-1.304 3.211c0 1.09.387 2.14 1.098 2.965H1.227a.987.987 0 0 0-.989.988v8.82c0 .547.442.989.989.989h1.32v19.687a.99.99 0 0 0 .988.988h31.91a.986.986 0 0 0 .985-.988V20.746v-2.383h1.343a.987.987 0 0 0 .989-.988V8.523a.972.972 0 0 0-.282-.71 1.003 1.003 0 0 0-.707-.297zM13.848 18.383a6.53 6.53 0 0 1 2.687-2.793 6.3 6.3 0 0 1 5.93 0 6.465 6.465 0 0 1 2.687 2.793c1.137 2.27.793 5-.87 6.914a6.628 6.628 0 0 1-1.798 1.375 6.3 6.3 0 0 1-5.93 0 6.548 6.548 0 0 1-1.816-1.473 6.255 6.255 0 0 1-.867-6.914zm22.257-9.04c.465 0 .84.38.84.84v5.551a.837.837 0 0 1-.226.575.813.813 0 0 1-.574.238H26.012a7.987 7.987 0 0 0-1.711-1.73v-4.633c0-.461.375-.84.84-.84zm-15.48-3.128l.219-.29a11.2 11.2 0 0 1 1.254-1.292 19.613 19.613 0 0 1 1.55-1.227c.54-.383 1.106-.734 1.692-1.047l.383-.187c.367-.2.77-.32 1.187-.356.711 0 1.395.297 1.875.82.25.255.442.56.563.891.14.352.21.727.207 1.106.015.156.015.316 0 .472a2.783 2.783 0 0 1-1.973 2.266c-.082.008-.16.008-.238 0h-6.125c-.145.012-.29.012-.434 0a1.33 1.33 0 0 1-.187-.07l-.188-.07a.299.299 0 0 1-.168-.317c.07-.262.203-.5.383-.7zm-1.273 3.12h2.28c.466 0 .845.376.852.84v3.555a7.904 7.904 0 0 0-5.93 0v-3.554a.854.854 0 0 1 .852-.84zM12.09 1.817a3.703 3.703 0 0 1 1.613.543 16.257 16.257 0 0 1 3.238 2.305c.438.387.844.809 1.215 1.262.2.25.89.988.465 1.285a.986.986 0 0 1-.375.137c-.144.015-.289.015-.433 0h-6.125a.812.812 0 0 1-.239 0 2.824 2.824 0 0 1-2.047-2.715 2.713 2.713 0 0 1 2.688-2.816zM2.055 10.184c0-.223.09-.438.25-.598a.855.855 0 0 1 .597-.242H13.86c.465 0 .84.379.84.84v4.632a7.91 7.91 0 0 0-1.71 1.77H2.854a.813.813 0 0 1-.574-.238.834.834 0 0 1-.226-.57zm12.644 26.148c0 .465-.375.84-.84.84H5.176a.839.839 0 0 1-.84-.84V19.184c0-.465.375-.84.84-.84h6.914a7.932 7.932 0 0 0-.512 2.777 7.994 7.994 0 0 0 3.172 6.352zm7.785-7.824v7.824a.854.854 0 0 1-.851.84h-4.266a.854.854 0 0 1-.851-.84v-7.824c1.902.77 4.027.77 5.93 0zm12.141 7.824c0 .465-.379.84-.84.84h-8.644a.839.839 0 0 1-.84-.84v-8.89a7.989 7.989 0 0 0 3.172-6.352 7.915 7.915 0 0 0-.516-2.774h6.867c.465 0 .84.375.84.836zm0 0" fill="#433124"/><path d="M16.871 21.86h.988a7.112 7.112 0 0 0 1.493 1.511c.257.219.523.438.82.703l.433.395.438-.395c.293-.265.562-.484.816-.703a5.221 5.221 0 0 0 1.907-2.34v-.05a2.694 2.694 0 0 0-.196-2.044 1.87 1.87 0 0 0-1.136-.851 2.06 2.06 0 0 0-1.836.387 2.067 2.067 0 0 0-1.84-.387c-.477.125-.883.43-1.133.852a2.555 2.555 0 0 0-.277 1.66h-.496V17.98h-1.305v6.56h1.324zm1.906-2.25a.582.582 0 0 1 .328-.258c.395-.098.602.058.93.347l.176.149.406.324.403-.324.18-.149c.323-.289.534-.445.929-.347a.562.562 0 0 1 .324.257c.145.309.168.66.07.989a4.125 4.125 0 0 1-1.492 1.726l-.414.348-.414-.348a4.098 4.098 0 0 1-1.492-1.726 1.413 1.413 0 0 1 .066-.989zm0 0" fill="#ed8b2d"/></svg><svg width="52" height="52" viewBox="-10 -10 44 44" id="info" x="1142" xmlns="http://www.w3.org/2000/svg"><g fill="#ff7900"><path d="M20.484 3.516C15.777-1.054 8.277-1 3.641 3.64-1 8.277-1.055 15.777 3.516 20.484c4.707 4.57 12.207 4.516 16.843-.125 4.641-4.636 4.696-12.136.125-16.843zM12 22.063C6.453 22.063 1.937 17.547 1.937 12 1.938 6.453 6.454 1.937 12 1.937c5.547 0 10.063 4.516 10.063 10.063 0 5.547-4.516 10.063-10.063 10.063zm0 0"/><path d="M12 11.031a.969.969 0 0 0-.969.969v4.414a.969.969 0 1 0 1.938 0V12a.969.969 0 0 0-.969-.969zm0 0M12.688 6.902a.97.97 0 1 0-.5 1.637.971.971 0 0 0 .5-1.637zm0 0"/></g></svg><svg width="39" height="34" viewBox="-10 -10 39 34" id="mail" x="1194" xmlns="http://www.w3.org/2000/svg"><g fill="#ff7900"><path d="M18.367.21H.633a.386.386 0 0 0-.305.118.4.4 0 0 0-.117.309v12.726a.4.4 0 0 0 .117.309.386.386 0 0 0 .305.117h17.734a.386.386 0 0 0 .305-.117.4.4 0 0 0 .117-.309V.637a.4.4 0 0 0-.117-.309.386.386 0 0 0-.305-.117zm-.422 11.712L12.707 6.66l-.59.594 5.66 5.684H1.223l5.66-5.684-.59-.594-5.238 5.262V1.062h16.89zm0 0"/><path d="M18.367 14H.633a.603.603 0 0 1-.453-.18.606.606 0 0 1-.18-.457V.637A.612.612 0 0 1 .633 0h17.734a.603.603 0 0 1 .453.18.606.606 0 0 1 .18.457v12.726a.606.606 0 0 1-.18.457.603.603 0 0 1-.453.18zM.633.426A.182.182 0 0 0 .477.48a.178.178 0 0 0-.055.157v12.726a.178.178 0 0 0 .055.157.182.182 0 0 0 .156.054h17.734a.182.182 0 0 0 .156-.054.178.178 0 0 0 .055-.157V.637a.178.178 0 0 0-.055-.157.182.182 0 0 0-.156-.054zm17.652 12.726H.715l5.867-5.898-.289-.293-5.45 5.473V.848h17.313v11.586L12.707 6.96l-.289.293zm-16.55-.425h15.53L11.82 7.254l.887-.89 5.027 5.042V1.273H1.266v10.133l5.027-5.043.887.89zm0 0"/><path d="M17.102 1.063L9.5 8.694 1.898 1.062h-.843v.336l8.148 8.188a.42.42 0 0 0 .594 0l8.148-8.188v-.335zm0 0"/><path d="M9.5 9.926a.597.597 0 0 1-.441-.168L.844 1.488v-.64h1.144L9.5 8.395 17.012.848h1.144v.64l-8.215 8.27a.597.597 0 0 1-.441.168zM1.266 1.312l8.086 8.126c.039.042.093.066.148.066.055 0 .11-.024.148-.066l8.086-8.126v-.039h-.547L9.5 9 1.812 1.273h-.546zm0 0"/></g></svg><svg width="34" height="34" viewBox="-10 -10 34 34" id="phone" x="1233" xmlns="http://www.w3.org/2000/svg"><path d="M13.61 1.79l-.032-.032L11.906.3A1.158 1.158 0 0 0 11.012 0a1.298 1.298 0 0 0-.852.422L8.516 2.5a1.18 1.18 0 0 0 .03 1.633.357.357 0 0 0 .095.078l.84.562c-.067.29-.504 1.133-2.04 2.668-1.53 1.536-2.375 1.973-2.668 2.04l-.558-.84c-.024-.036-.05-.067-.078-.098a1.18 1.18 0 0 0-1.633-.027L.43 10.156c-.016.016-.035.031-.055.051-.465.465-.504 1.242-.07 1.7l1.453 1.671.031.031c.29.286.719.391 1.191.391.852 0 1.84-.336 2.352-.54a14.643 14.643 0 0 0 4.871-3.265 14.742 14.742 0 0 0 3.266-4.87c.304-.794.945-2.731.14-3.536zM9.32 9.32c-2.879 2.88-6.11 3.664-6.66 3.399l-1.406-1.621 2.027-1.61.547.82.035.047c.188.23.469.368.766.38.3.015 1.219.062 3.691-2.415.614-.61 2.477-2.472 2.414-3.691a1.049 1.049 0 0 0-.379-.77l-.867-.578 1.606-2.035 1.625 1.414c.265.55-.516 3.781-3.399 6.66zm0 0" fill="#ff7900"/></svg><svg width="36" height="34" viewBox="-10 -10 36 34" id="plane" x="1267" xmlns="http://www.w3.org/2000/svg"><g fill="#ff7900"><path d="M.148 7a.767.767 0 0 0 .543.7l5.754 1.76.211 4.02a.403.403 0 0 0 .395.375c.113 0 .222-.05.297-.132l2.035-2.286 2.883 2.024c.125.09.277.14.433.14a.776.776 0 0 0 .754-.624L15.848.62a.393.393 0 0 0-.137-.383.382.382 0 0 0-.395-.062L.61 6.238A.784.784 0 0 0 .15 7zm7.239 5.484l-.13-2.535L8.73 10.98zm5.3.309l-5.25-3.68 7.364-7.215zm1.305-11.211L6.715 8.711.969 6.953zm0 0"/><path d="M7.05 14a.545.545 0 0 1-.54-.512L6.31 9.574.649 7.84a.909.909 0 0 1-.645-.828.928.928 0 0 1 .543-.907H.55L15.258.04a.541.541 0 0 1 .73.61l-2.394 12.355a.926.926 0 0 1-.895.742.899.899 0 0 1-.515-.164l-2.782-1.95-1.949 2.188a.518.518 0 0 1-.402.18zM.665 6.371A.639.639 0 0 0 .73 7.56l5.852 1.793.219 4.12a.26.26 0 0 0 .168.223h.004c.027.012.05.016.078.016a.25.25 0 0 0 .187-.086l2.121-2.379 2.989 2.094a.599.599 0 0 0 .351.113.63.63 0 0 0 .614-.508L15.707.59a.251.251 0 0 0-.086-.238.228.228 0 0 0-.25-.04zm12.121 6.668L7.211 9.13l7.816-7.66zm-5.12-3.945l4.925 3.453 1.98-10.219zm-.403 3.75L7.098 9.66l1.851 1.297zm.156-2.606l.098 1.887.996-1.117zm-.664-1.363L.535 6.973 14.63 1.16zM1.398 6.934l5.278 1.613L13.356 2zm0 0"/></g></svg></svg>