<?xml version="1.0" encoding="UTF-8"?><svg width="1319" height="84" viewBox="0 0 1319 84" xmlns="http://www.w3.org/2000/svg" xmlns:xlink="http://www.w3.org/1999/xlink"><svg width="44" height="31" viewBox="-10 -10 38 31" id="arrowDown" xmlns="http://www.w3.org/2000/svg"><path d="M9 11a1.22 1.22 0 0 1-.895-.398L.348 2.192a1.34 1.34 0 0 1 .07-1.79A1.212 1.212 0 0 1 2.137.398L9 7.84 15.863.398a1.212 1.212 0 0 1 1.719.004c.477.48.508 1.27.07 1.79l-7.757 8.41A1.22 1.22 0 0 1 9 11zm0 0" fill="#fff"/></svg><svg width="28" height="33" viewBox="-10 -10 28 33" id="arrowRight" x="44" xmlns="http://www.w3.org/2000/svg"><g fill="#fff"><path d="M7.676 6.5c0 .23-.098.453-.266.613l-5.62 5.328a.875.875 0 0 1-1.224-.023.84.84 0 0 1 .024-1.203L5.563 6.5.59 1.785A.843.843 0 0 1 .594.61.876.876 0 0 1 1.789.56L7.41 5.887c.168.16.266.383.266.613zm0 0"/><path d="M1.188 13c-.485 0-.922-.29-1.102-.734a1.157 1.157 0 0 1 .281-1.286l4.727-4.472L.367 2.016A1.152 1.152 0 0 1 .332.36C.551.136.852.003 1.164 0c.316-.004.621.113.848.324l5.62 5.328c.235.223.368.528.368.848 0 .316-.133.621-.367.844l-5.621 5.328c-.219.21-.516.328-.825.328zm0-12.36a.512.512 0 0 0-.375.165.514.514 0 0 0-.165.379c.004.14.063.273.168.37L6.031 6.5.816 11.445a.522.522 0 0 0-.015.75.552.552 0 0 0 .761.016l5.622-5.328a.512.512 0 0 0 .168-.383.512.512 0 0 0-.168-.383L1.562.79a.529.529 0 0 0-.375-.148zm0 0"/></g></svg><svg width="40" height="45" viewBox="-10 -10 40 45" id="cart" x="72" xmlns="http://www.w3.org/2000/svg"><path d="M19.664 6.734c-.21-.21-.5-.336-.809-.343H16v-.512C16 2.64 13.262 0 10.059 0H9.94C6.738 0 4 2.64 4 5.879v.512H1.145C.504 6.41 0 6.92 0 7.543v16.348C0 24.504.512 25 1.145 25h17.71c.633 0 1.145-.496 1.145-1.11V7.536c0-.3-.121-.586-.336-.8zM6.285 5.88c0-1.977 1.621-3.598 3.656-3.656h.118c2.035.058 3.656 1.68 3.656 3.656v.512h-7.43zm11.43 16.898H2.285V8.61H4v1.926c0 .613.512 1.113 1.145 1.113.628 0 1.14-.5 1.14-1.113V8.61h7.43v1.926c0 .613.512 1.113 1.14 1.113.633 0 1.145-.5 1.145-1.113V8.61h1.715zm0 0"/></svg><svg width="40" height="45" viewBox="-10 -10 40 45" id="carto" x="112" xmlns="http://www.w3.org/2000/svg"><path d="M19.664 6.734c-.21-.21-.5-.336-.809-.343H16v-.512C16 2.64 13.262 0 10.059 0H9.94C6.738 0 4 2.64 4 5.879v.512H1.145C.504 6.41 0 6.92 0 7.543v16.348C0 24.504.512 25 1.145 25h17.71c.633 0 1.145-.496 1.145-1.11V7.536c0-.3-.121-.586-.336-.8zM6.285 5.88c0-1.977 1.621-3.598 3.656-3.656h.118c2.035.058 3.656 1.68 3.656 3.656v.512h-7.43zm11.43 16.898H2.285V8.61H4v1.926c0 .613.512 1.113 1.145 1.113.628 0 1.14-.5 1.14-1.113V8.61h7.43v1.926c0 .613.512 1.113 1.14 1.113.633 0 1.145-.5 1.145-1.113V8.61h1.715zm0 0" fill="#ff7900"/></svg><svg width="40" height="45" viewBox="-10 -10 40 45" id="cartw" x="152" xmlns="http://www.w3.org/2000/svg"><path d="M19.664 6.734c-.21-.21-.5-.336-.809-.343H16v-.512C16 2.64 13.262 0 10.059 0H9.94C6.738 0 4 2.64 4 5.879v.512H1.145C.504 6.41 0 6.92 0 7.543v16.348C0 24.504.512 25 1.145 25h17.71c.633 0 1.145-.496 1.145-1.11V7.536c0-.3-.121-.586-.336-.8zM6.285 5.88c0-1.977 1.621-3.598 3.656-3.656h.118c2.035.058 3.656 1.68 3.656 3.656v.512h-7.43zm11.43 16.898H2.285V8.61H4v1.926c0 .613.512 1.113 1.145 1.113.628 0 1.14-.5 1.14-1.113V8.61h7.43v1.926c0 .613.512 1.113 1.14 1.113.633 0 1.145-.5 1.145-1.113V8.61h1.715zm0 0" fill="#fff"/></svg><svg width="88" height="60" viewBox="-10 -10 71 60" id="cond-1" x="192" xmlns="http://www.w3.org/2000/svg"><path d="M35.734 29.754h-.062c-2.297.969-3.871 0-5.149-.8-1.027-.645-1.718-1.04-2.644-.79h-.094c-.504.082-.7.633-1.027 2.238-.426 2.145-1.031 5.371-5.324 5.57h-.094c-4.117-.187-4.817-3.394-5.27-5.519-.308-1.52-.515-2.195-1.03-2.289h-.09c-.919-.242-1.606.145-2.637.79-1.266.792-2.84 1.769-5.149.8h-.059a5.7 5.7 0 0 1-.507-.281c1.925 4.75 8.082 8.27 15.445 8.476 8.777-.23 15.863-5.207 16.129-11.285a4.704 4.704 0 0 1-2.469 3.121zm0 0" fill="#ef8827"/><path d="M42.125 17.031c-.586-2.082-2.172-4.59-4.715-7.465-3.933-4.308-8.844-6.441-15.988-6.441-6.547 0-12.352 2.277-16.285 6.441C-1.277 16.367.414 20.48 1.945 21.97c.215.199.446.379.692.539v3.82c-.043 3.7 2.015 7.188 5.629 9.77A22.77 22.77 0 0 0 21.422 40c4.68.086 9.27-1.273 13.156-3.902 3.637-2.582 5.645-6.07 5.645-9.801V22.55a4.19 4.19 0 0 0 1.347-1.137 4.791 4.791 0 0 0 .543-4.371zm-35 12.723h.063c2.292.969 3.87 0 5.144-.8 1.031-.645 1.719-1.04 2.637-.79h.094c.542.094.75.77 1.027 2.29.453 2.081 1.125 5.331 5.273 5.519h.09c4.274-.2 4.902-3.426 5.324-5.57.309-1.606.504-2.157 1.028-2.239h.093c.926-.242 1.606.145 2.645.79 1.258.792 2.832 1.769 5.148.8h.063a4.704 4.704 0 0 0 2.469-3.121c-.278 6.246-7.688 11.297-16.778 11.297S5.066 33.016 4.652 26.828a4.624 4.624 0 0 0 2.473 2.926zm33.156-10.211a1.968 1.968 0 0 1-1.41 1.375c-1.758.55-2.059 2.289-2.293 3.695-.281 1.653-.527 2.707-1.71 3.309-1.184.605-2.06.105-3.274-.664a5.175 5.175 0 0 0-4.117-1.043c-1.946.332-2.329 2.281-2.637 3.851-.453 2.344-.863 3.79-3.395 3.914-2.43-.125-2.851-1.558-3.336-3.89-.332-1.582-.742-3.543-2.675-3.875a5.202 5.202 0 0 0-4.121 1.043c-1.235.77-2.004 1.187-3.274.664-1.266-.52-1.45-1.594-1.719-3.121-.226-1.313-.523-2.957-2.14-3.82a2.383 2.383 0 0 1-1.442-1.688c-.203-1.105 0-3.645 4.262-8.328 3.016-3.543 8.555-5.75 14.414-5.75 6.527 0 11.64 2.02 14.41 5.707.29.324 3.41 4.726.68 7.453-2.059 2.082-6.578 3.645-12.074 4.008-5.012.344-9.965-.352-12.293-1.727-2.325-1.375-3.766-3.27-3.766-5.207 0-1.933 1.336-3.758 3.766-5.203a16.787 16.787 0 0 1 15.441 0c1.434.844 2.227 1.902 2.227 2.996s-.793 2.156-2.227 3a10.51 10.51 0 0 1-9.52 0c-.792-.469-1.245-1.043-1.245-1.605 0-.563.453-1.133 1.246-1.602 1.511-.894 4.238-1.113 5.628-.062.25.16.415.43.434.73a.55.55 0 0 1-.34.395c-.472.238-1.8.375-2.152-.305a1.025 1.025 0 0 0-1.274-.27c-.433.23-.648.735-.515 1.207.957 1.856 3.469 1.887 4.836 1.188a2.503 2.503 0 0 0 1.441-2.082 2.876 2.876 0 0 0-1.222-2.54c-2.165-1.624-5.758-1.292-7.856-.062a4.005 4.005 0 0 0-2.246 3.364c.09 1.449.95 2.738 2.246 3.363a12.403 12.403 0 0 0 11.55 0c2.06-1.23 3.231-2.918 3.231-4.758 0-1.844-1.152-3.531-3.23-4.758a17.502 17.502 0 0 0-8.742-2.148c-3.043-.059-6.051.68-8.73 2.148-3.087 1.809-4.766 4.266-4.766 6.942 0 2.675 1.687 5.125 4.765 6.933 2.246 1.336 6.293 2.082 10.758 2.082.887 0 1.781 0 2.68-.093 6.07-.407 10.941-2.082 13.383-4.61a6.571 6.571 0 0 0 1.769-3.293c.504.934.676 2.008.492 3.051zm0 0" fill="#402e21"/><path d="M49.434 14.898c0 7.653-6.133 13.856-13.7 13.856-7.57 0-13.703-6.203-13.703-13.856 0-7.652 6.133-13.855 13.703-13.855 7.567 0 13.7 6.203 13.7 13.855zm0 0" fill="#fff"/><path d="M35.734 29.809c-8.144.003-14.75-6.668-14.754-14.903C20.977 6.672 27.574-.008 35.72-.012c8.144 0 14.746 6.676 14.746 14.91-.012 8.227-6.598 14.891-14.73 14.91zm0-27.727C28.727 2.078 23.043 7.82 23.04 14.906c0 7.086 5.68 12.832 12.688 12.828 7.007 0 12.683-5.75 12.68-12.836C48.397 7.824 42.73 2.09 35.733 2.082zm0 0" fill="#402e21"/><path d="M43.113 15.941H28.332c-.57 0-1.031-.468-1.031-1.043 0-.574.46-1.043 1.031-1.043h14.781c.57 0 1.032.47 1.032 1.043 0 .575-.461 1.043-1.032 1.043zm0 0" fill="#ef8827"/><path d="M35.734 23.406c-.57 0-1.03-.468-1.03-1.043V7.445c0-.578.46-1.043 1.03-1.043.567 0 1.028.465 1.028 1.043v14.918c0 .575-.461 1.043-1.028 1.043zm0 0" fill="#ef8827"/></svg><svg width="72" height="80" viewBox="-10 -10 59 65" id="cond-2" x="280" xmlns="http://www.w3.org/2000/svg"><path d="M31.043 11.516a2.488 2.488 0 0 1-2.5 2.48 2.49 2.49 0 0 1-2.5-2.48c0-1.368 1.121-2.477 2.5-2.477 1.383 0 2.5 1.11 2.5 2.477zm0 0M15.023 11.516a2.488 2.488 0 0 1-2.5 2.48 2.487 2.487 0 0 1-2.496-2.48 2.487 2.487 0 0 1 2.496-2.477c1.383 0 2.5 1.11 2.5 2.477zm0 0" fill="#ec8625"/><path d="M37.031 6.246a.88.88 0 0 0-.883-.832h-7.48C26.781 2.16 23.285.156 19.5.156a10.6 10.6 0 0 0-9.168 5.258h-7.48a.88.88 0 0 0-.883.832L.062 43.926a.883.883 0 0 0 .887.918h37.106a.883.883 0 0 0 .883-.918zm-8.695 4.426a.884.884 0 0 1-1.512.617.864.864 0 0 1-.187-.957.878.878 0 0 1 .824-.535.879.879 0 0 1 .875.875zM19.5 1.91c2.777 0 5.387 1.3 7.05 3.504H12.46A8.834 8.834 0 0 1 19.5 1.91zm-7.95 7.887a.877.877 0 1 1 .645 1.492.892.892 0 0 1-.968.195.879.879 0 0 1-.547-.812c0-.48.386-.867.87-.875zM1.888 43.082L3.69 7.168h5.825a10.407 10.407 0 0 0-.618 3.504c0 1.45 1.188 2.625 2.653 2.625 1.46 0 2.648-1.176 2.648-2.625a2.64 2.64 0 0 0-2.648-2.629c-.168 0-.332.02-.492.05.097-.316.214-.624.351-.925h16.184c.133.3.25.61.351.926a2.655 2.655 0 0 0-2.77 1.246 2.61 2.61 0 0 0 .24 3.004 2.667 2.667 0 0 0 2.933.8 2.626 2.626 0 0 0 1.754-2.46c.003-1.196-.2-2.387-.606-3.516h5.828l1.801 35.926zm0 0" fill="#3e2c1f"/><path d="M25.68 22.063H13.316a.886.886 0 0 0-.89.882c0 .485.398.883.89.883H25.68c.492 0 .89-.398.89-.883a.886.886 0 0 0-.89-.883zm0 0M25.68 25.563H13.316a.89.89 0 0 0-.804.425.86.86 0 0 0 0 .907.879.879 0 0 0 .804.421H25.68a.89.89 0 0 0 .808-.421.878.878 0 0 0 0-.907.9.9 0 0 0-.808-.425zm0 0M25.68 29.07H13.316a.889.889 0 0 0-.89.883c0 .488.398.883.89.883H25.68c.492 0 .89-.395.89-.883a.889.889 0 0 0-.89-.883zm0 0" fill="#ec8625"/></svg><svg width="60" height="84" viewBox="-10 -10 60 68" id="cond-3" x="352" xmlns="http://www.w3.org/2000/svg"><path d="M38.547 22v3.875l-2.367 1.934-7.621 1.906-5.715-1.031-1.895-2.438L20 24l.379-2.809 4.281 1.684L28.941 24l4.278-.656L36.739 22l1.808-1.46zm0 0" fill="#ec8625"/><path d="M28.559 29.75l-5.735-1.031-.012-.012-1.894-2.445-.953-2.258v-.008l.387-2.855 4.324 1.703 4.27 1.125 4.269-.657 3.508-1.34 1.859-1.507v5.426l-.012.011-2.375 1.942h-.008zm-5.696-1.098l5.696 1.028 7.601-1.903 2.352-1.918v-5.246l-1.762 1.422-3.516 1.344-4.297.656h-.007l-4.278-1.125-4.242-1.672-.375 2.758.95 2.234zm0 0"/><path d="M20 42.762V25.875l-2.844 1.934-4.668.875-2.949.75-4.281-.75-3.328-1.637-1.14-.707v16.015l2.378 2.625 4.469 2.06h4.281l3.422-.938 3.71-1.872zm0 0" fill="#ec8625"/><path d="M11.922 47.074h-4.3l-4.477-2.066v-.004L.754 42.37V26.277l1.195.743 3.32 1.628 4.27.75 2.938-.75 4.668-.875 2.89-1.964v16.964l-.96 1.485h-.009l-3.71 1.87zm-4.281-.07h4.27l3.425-.934 3.687-1.863.942-1.45V25.946l-2.793 1.899h-.008l-4.668.875-2.957.75h-.008l-4.289-.75-3.328-1.633-1.09-.676v15.934l2.363 2.605zm0 0M27.61 15.383a.946.946 0 0 0-.954.937c0 .516.426.938.953.938.524 0 .95-.422.95-.938a.945.945 0 0 0-.95-.937zm0 0" fill="#ec8625"/><path d="M27.61 17.293a.981.981 0 0 1-.989-.973c0-.539.442-.972.988-.972.543 0 .985.433.985.972a.98.98 0 0 1-.985.973zm0-1.875a.911.911 0 0 0-.919.902c0 .5.41.903.918.903a.91.91 0 0 0 .914-.903.905.905 0 0 0-.914-.902zm0 0M8.586 3.77a.943.943 0 0 0-.95.937c0 .516.426.938.95.938a.946.946 0 0 0 .953-.938.944.944 0 0 0-.953-.937zm0 0" fill="#ec8625"/><path d="M8.586 5.68a.98.98 0 0 1-.984-.973c0-.539.441-.973.984-.973.547 0 .988.434.988.973a.981.981 0 0 1-.988.973zm0-1.875a.91.91 0 0 0-.914.902c0 .5.41.902.918.902a.91.91 0 0 0 .914-.902.893.893 0 0 0-.27-.637.91.91 0 0 0-.648-.265zm0 0" fill="#ec8625"/><path d="M36.727 13.418c-1.946-1.148-4.504-1.781-7.215-1.781-3.008 0-6.375.816-8.563 2.75V6.578c0-1.844-1.152-3.539-3.246-4.773C15.762.656 13.2.023 10.488.023c-2.71 0-5.27.633-7.215 1.782C1.183 3.039.027 4.735.027 6.578v34.844c0 1.844 1.157 3.539 3.246 4.773 1.946 1.149 4.504 1.782 7.215 1.782 3.438 0 7.567-1.125 9.512-3.782 1.934 2.645 6.043 3.782 9.512 3.782 2.71 0 5.27-.633 7.215-1.782 2.09-1.234 3.246-2.93 3.246-4.773v-23.23c0-1.84-1.157-3.54-3.246-4.774zM19.05 41.422c0 2.535-3.922 4.68-8.563 4.68-4.64 0-8.558-2.145-8.558-4.68v-2c2.187 1.93 5.547 2.746 8.558 2.746 3.016 0 6.375-.813 8.563-2.746zm0-5.809c0 2.54-3.922 4.684-8.563 4.684-4.64 0-8.558-2.145-8.558-4.684v-2c2.187 1.934 5.547 2.75 8.558 2.75 3.016 0 6.375-.816 8.563-2.75zm0-5.804c0 2.535-3.922 4.68-8.563 4.68-4.64 0-8.558-2.145-8.558-4.68v-2c2.187 1.93 5.547 2.746 8.558 2.746 3.016 0 6.375-.813 8.563-2.746zm0-5.809c0 2.54-3.922 4.684-8.563 4.684-4.64 0-8.558-2.145-8.558-4.684v-2c2.187 1.93 5.547 2.75 8.558 2.75 3.016 0 6.375-.816 8.563-2.75zm0-5.809c0 2.54-3.922 4.684-8.563 4.684-4.64 0-8.558-2.145-8.558-4.684v-1.996c2.187 1.93 5.547 2.746 8.558 2.746 3.016 0 6.375-.812 8.563-2.746zm0-5.804c0 2.539-3.922 4.683-8.563 4.683-4.64 0-8.558-2.144-8.558-4.683v-2c2.187 1.93 5.547 2.75 8.558 2.75 2.711 0 5.274-.633 7.215-1.782.48-.28.93-.605 1.348-.968zm-8.563-1.125c-4.64 0-8.558-2.145-8.558-4.684 0-2.535 3.918-4.68 8.558-4.68s8.563 2.145 8.563 4.68c0 2.54-3.926 4.684-8.563 4.684zm27.582 30.16c0 2.535-3.918 4.68-8.558 4.68s-8.563-2.145-8.563-4.68v-2c2.188 1.93 5.547 2.746 8.563 2.746 3.011 0 6.37-.816 8.558-2.746zm0-5.809c0 2.54-3.918 4.684-8.558 4.684s-8.563-2.145-8.563-4.684v-2c2.188 1.934 5.547 2.75 8.563 2.75 3.011 0 6.37-.816 8.558-2.75zm0-5.804c0 2.535-3.918 4.68-8.558 4.68s-8.563-2.145-8.563-4.68v-2c2.188 1.93 5.547 2.746 8.563 2.746 3.011 0 6.37-.817 8.558-2.746zm0-5.809c0 2.54-3.918 4.684-8.558 4.684S20.949 26.539 20.949 24v-2c2.188 1.93 5.547 2.75 8.563 2.75 3.011 0 6.37-.816 8.558-2.75zm-8.558-1.125c-4.64 0-8.563-2.145-8.563-4.684 0-2.535 3.922-4.68 8.563-4.68 4.64 0 8.558 2.145 8.558 4.68 0 2.54-3.922 4.684-8.558 4.684zm0 0" fill="#3e2c1f"/><path d="M29.512 48c-1.82.004-3.625-.3-5.34-.902-1.832-.66-3.274-1.649-4.172-2.864-.898 1.22-2.348 2.211-4.184 2.871-1.71.594-3.511.899-5.328.895-2.715 0-5.281-.633-7.226-1.781C1.16 44.977.004 43.269.004 41.422V6.578c0-1.851 1.156-3.555 3.258-4.797C5.207.63 7.773 0 10.492 0c2.715 0 5.281.633 7.227 1.781C19.82 3.02 20.98 4.727 20.98 6.578v7.75c1.954-1.703 5.133-2.715 8.536-2.715 2.714 0 5.28.633 7.226 1.782C38.844 14.637 40 16.34 40 18.19v23.227c0 1.852-1.156 3.559-3.258 4.797C34.793 47.367 32.227 48 29.512 48zM20 44.156l.02.024c2.035 2.785 6.386 3.773 9.492 3.773 2.703 0 5.261-.629 7.199-1.781 2.09-1.23 3.234-2.922 3.234-4.754v-23.23c0-1.833-1.148-3.524-3.234-4.754-1.938-1.149-4.496-1.782-7.2-1.782-3.41 0-6.6 1.028-8.542 2.743l-.043.035V6.578c0-1.832-1.149-3.523-3.23-4.754C15.753.676 13.195.047 10.487.047c-2.703 0-5.261.629-7.199 1.781C1.2 3.055.051 4.746.051 6.578v34.844c0 1.832 1.148 3.523 3.234 4.754 1.938 1.148 4.496 1.781 7.203 1.781 3.106 0 7.453-.988 9.492-3.773zm9.512 1.969c-4.653 0-8.586-2.152-8.586-4.703v-2.055l.043.035c1.941 1.72 5.133 2.743 8.543 2.743 3.406 0 6.601-1.024 8.543-2.743l.039-.035v2.055c0 2.55-3.93 4.703-8.582 4.703zm-8.535-6.648v1.949c0 2.527 3.906 4.656 8.535 4.656 4.625 0 8.535-2.137 8.535-4.66v-1.95c-1.957 1.704-5.137 2.715-8.535 2.715a16.184 16.184 0 0 1-4.598-.648c-1.586-.473-2.91-1.168-3.937-2.066zm-10.489 6.648c-4.652 0-8.582-2.152-8.582-4.703v-2.055l.04.035c1.94 1.72 5.136 2.743 8.542 2.743 3.41 0 6.602-1.024 8.543-2.743l.043-.035v2.055c0 2.55-3.933 4.703-8.586 4.703zm-8.535-6.648v1.949c0 2.527 3.91 4.656 8.535 4.656 4.63 0 8.535-2.137 8.535-4.66v-1.95c-1.953 1.704-5.132 2.715-8.535 2.715a16.203 16.203 0 0 1-4.597-.648c-1.582-.473-2.907-1.168-3.938-2.066zm27.559.843c-4.653 0-8.586-2.156-8.586-4.707v-2.05l.043.035c1.941 1.715 5.133 2.742 8.543 2.742 3.406 0 6.601-1.028 8.543-2.742l.039-.035v2.05c0 2.551-3.93 4.707-8.582 4.707zm-8.535-6.648v1.945c0 2.528 3.906 4.66 8.535 4.66 4.625 0 8.535-2.136 8.535-4.664v-1.945c-1.957 1.703-5.137 2.715-8.535 2.715a16.187 16.187 0 0 1-4.598-.653c-1.586-.468-2.91-1.164-3.937-2.062zM10.488 40.32c-4.652 0-8.582-2.156-8.582-4.707v-2.05l.04.035c1.94 1.715 5.136 2.742 8.542 2.742 3.41 0 6.602-1.028 8.543-2.742l.043-.035v2.05c0 2.551-3.933 4.707-8.586 4.707zm-8.535-6.648v1.945c0 2.528 3.91 4.66 8.535 4.66 4.63 0 8.535-2.136 8.535-4.664v-1.945c-1.953 1.703-5.132 2.715-8.535 2.715a16.207 16.207 0 0 1-4.597-.653c-1.582-.468-2.907-1.164-3.938-2.062zm27.559.84c-4.653 0-8.586-2.153-8.586-4.703v-2.055l.043.035c1.941 1.719 5.133 2.742 8.543 2.742 3.406 0 6.601-1.023 8.543-2.742l.039-.035v2.055c0 2.55-3.93 4.703-8.582 4.703zm-8.535-6.649v1.95c0 2.527 3.906 4.656 8.535 4.656 4.625 0 8.535-2.137 8.535-4.66v-1.95c-1.957 1.703-5.137 2.715-8.535 2.715a16.324 16.324 0 0 1-4.598-.648c-1.586-.473-2.91-1.168-3.937-2.067zm-10.489 6.649c-4.652 0-8.582-2.153-8.582-4.703v-2.055l.04.035c1.94 1.719 5.136 2.742 8.542 2.742 3.41 0 6.602-1.023 8.543-2.742l.043-.035v2.055c0 2.55-3.933 4.703-8.586 4.703zm-8.535-6.649v1.95c0 2.527 3.91 4.656 8.535 4.656 4.63 0 8.535-2.137 8.535-4.66v-1.95c-1.953 1.703-5.132 2.715-8.535 2.715a16.344 16.344 0 0 1-4.597-.648c-1.582-.473-2.907-1.168-3.938-2.067zm27.559.844c-4.653 0-8.586-2.156-8.586-4.707v-2.05l.043.034c1.941 1.715 5.133 2.743 8.543 2.743 3.406 0 6.601-1.028 8.543-2.743l.039-.035V24c0 2.55-3.93 4.707-8.582 4.707zm-8.535-6.652v1.949c0 2.527 3.906 4.66 8.535 4.66 4.625 0 8.535-2.137 8.535-4.664v-1.945c-1.957 1.703-5.137 2.715-8.535 2.715a16.187 16.187 0 0 1-4.598-.653c-1.586-.469-2.91-1.164-3.937-2.062zm-10.489 6.652c-4.652 0-8.582-2.156-8.582-4.707v-2.05l.04.034c1.94 1.715 5.136 2.743 8.542 2.743 3.41 0 6.602-1.028 8.543-2.743l.043-.035V24c0 2.55-3.933 4.707-8.586 4.707zm-8.535-6.652v1.949c0 2.527 3.91 4.66 8.535 4.66 4.63 0 8.535-2.137 8.535-4.664v-1.945c-1.953 1.703-5.132 2.715-8.535 2.715a16.207 16.207 0 0 1-4.597-.653c-1.582-.469-2.907-1.164-3.938-2.062zm27.559.843c-4.653 0-8.586-2.152-8.586-4.707 0-2.55 3.933-4.703 8.586-4.703 4.652 0 8.582 2.153 8.582 4.703 0 2.555-3.93 4.707-8.582 4.707zm0-9.363c-4.63 0-8.535 2.133-8.535 4.656 0 2.528 3.906 4.66 8.535 4.66 4.625 0 8.535-2.132 8.535-4.66 0-2.523-3.91-4.656-8.535-4.656zm-19.024 9.363c-4.652 0-8.582-2.152-8.582-4.707v-2.05l.04.035c1.94 1.719 5.136 2.742 8.542 2.742 3.41 0 6.602-1.023 8.543-2.742l.043-.035v2.05c0 2.555-3.933 4.707-8.586 4.707zM1.953 16.25v1.945c0 2.532 3.91 4.66 8.535 4.66 4.63 0 8.535-2.136 8.535-4.664v-1.945c-1.953 1.703-5.132 2.715-8.535 2.715a16.344 16.344 0 0 1-4.597-.648c-1.582-.473-2.907-1.168-3.938-2.067zm8.535.844c-4.652 0-8.582-2.157-8.582-4.707v-2.051l.04.035c1.94 1.715 5.136 2.742 8.542 2.742 2.707 0 5.266-.633 7.203-1.781a8.571 8.571 0 0 0 1.34-.965l.043-.035v2.05c0 2.556-3.933 4.712-8.586 4.712zM1.953 10.44v1.95c0 2.527 3.91 4.66 8.535 4.66 4.63 0 8.535-2.137 8.535-4.664v-1.95a8.587 8.587 0 0 1-1.308.938c-1.945 1.148-4.512 1.781-7.227 1.781a16.187 16.187 0 0 1-4.597-.652c-1.582-.469-2.907-1.164-3.938-2.066zm8.535.844c-4.652 0-8.582-2.156-8.582-4.707 0-2.55 3.93-4.703 8.582-4.703 4.653 0 8.586 2.152 8.586 4.703 0 2.555-3.933 4.707-8.586 4.707zm0-9.363c-4.625 0-8.535 2.133-8.535 4.656 0 2.527 3.91 4.66 8.535 4.66 4.63 0 8.535-2.133 8.535-4.66 0-2.523-3.906-4.656-8.535-4.656zm0 0" fill="#3e2c1f"/><path d="M36.125 17.957c-.363-1.012-2.324-2.047-4.559-2.41a.95.95 0 0 0-1.093.773.933.933 0 0 0 .78 1.075c1.138.187 1.97.527 2.493.816-.781.41-2.203.922-4.234.922-2.344 0-3.82-.676-4.477-1.106a.937.937 0 0 0-.402-1.015.97.97 0 0 0-1.106.047 2.015 2.015 0 0 0-.582.636.91.91 0 0 0-.047.735c.387 1.082 2.903 2.574 6.614 2.574 3.77 0 6.172-1.535 6.566-2.317a.916.916 0 0 0 .047-.73zm0 0" fill="#ec8625"/><path d="M29.512 21.04c-3.727 0-6.258-1.509-6.649-2.599a.969.969 0 0 1 .051-.765 1.98 1.98 0 0 1 .59-.645.994.994 0 0 1 1.137-.054.965.965 0 0 1 .433 1.03c.524.34 1.965 1.087 4.438 1.087 2.082 0 3.48-.54 4.16-.883a7.674 7.674 0 0 0-2.426-.781.976.976 0 0 1-.8-1.117.987.987 0 0 1 1.124-.801c2.246.367 4.22 1.41 4.586 2.433.09.25.074.524-.047.758-.394.79-2.812 2.336-6.597 2.336zm-5.403-4.145a.936.936 0 0 0-.562.187c-.23.164-.426.379-.57.625a.89.89 0 0 0-.043.707c.378 1.07 2.882 2.55 6.578 2.55 3.754 0 6.144-1.523 6.535-2.296a.899.899 0 0 0 .043-.703c-.36-1-2.309-2.027-4.531-2.387a.914.914 0 0 0-1.04.742c-.081.489.25.95.743 1.035 1.273.207 2.117.606 2.504.82l.058.036-.058.027c-.664.344-2.094.922-4.254.922-2.524 0-3.985-.773-4.496-1.11l-.024-.01.008-.028a.89.89 0 0 0-.168-.774.917.917 0 0 0-.723-.347zm0 0M17.102 6.344c-.36-1.012-2.325-2.047-4.559-2.41a.949.949 0 0 0-1.094.773.936.936 0 0 0 .785 1.074c1.137.188 1.97.528 2.493.817-.782.41-2.204.922-4.239.922-2.343 0-3.816-.676-4.476-1.106a.929.929 0 0 0-.399-1.016.97.97 0 0 0-1.11.047 1.99 1.99 0 0 0-.577.633.935.935 0 0 0-.051.738c.39 1.079 2.902 2.575 6.613 2.575 3.77 0 6.176-1.536 6.57-2.317a.933.933 0 0 0 .044-.73zm0 0" fill="#ec8625"/><path d="M10.488 9.426c-3.726 0-6.254-1.508-6.644-2.598a.968.968 0 0 1 .047-.766c.148-.253.351-.476.593-.644a.995.995 0 0 1 1.133-.059.97.97 0 0 1 .438 1.036c.52.34 1.96 1.085 4.433 1.085 2.086 0 3.485-.539 4.164-.882a7.674 7.674 0 0 0-2.425-.782.98.98 0 0 1-.797-1.117.986.986 0 0 1 1.12-.8c2.247.363 4.216 1.41 4.587 2.433.09.25.07.52-.047.758-.399.789-2.813 2.336-6.602 2.336zM5.09 5.28a.911.911 0 0 0-.563.188c-.234.164-.43.375-.57.62a.901.901 0 0 0-.047.712c.383 1.07 2.887 2.55 6.582 2.55 3.754 0 6.145-1.523 6.535-2.296a.899.899 0 0 0 .043-.703c-.36-1-2.308-2.028-4.53-2.391a.918.918 0 0 0-1.04.746c-.082.488.25.95.742 1.035 1.266.211 2.113.606 2.504.824l.055.032-.055.03c-.668.345-2.094.923-4.254.923-2.527 0-3.988-.778-4.496-1.11l-.02-.011.004-.028a.885.885 0 0 0-.132-.73.922.922 0 0 0-.641-.383c-.039-.008-.078-.008-.117-.008zm0 0" fill="#ec8625"/></svg><svg width="76" height="76" viewBox="-10 -10 76 76" id="cond-4" x="412" xmlns="http://www.w3.org/2000/svg"><path d="M32.512 3.527h.558a3.648 3.648 0 0 1 3.653 3.649V8.75h-6.645V5.96a2.434 2.434 0 0 1 2.434-2.433zm0 0M39.922 15.313a1.094 1.094 0 1 0 .001 2.188 1.094 1.094 0 0 0-.001-2.189zm0 0M28.984 15.313a1.094 1.094 0 1 0 .002 2.188 1.094 1.094 0 0 0-.002-2.189zm0 0" fill="#ec8625"/><path d="M55.309 26.328a4.285 4.285 0 0 0-7.438.395c-.098.195-.195.379-.293.562V12.031a3.28 3.28 0 0 0-3.281-3.281h-3.281V6.562A6.562 6.562 0 0 0 34.453 0a6.564 6.564 0 0 0-6.562 6.563V8.75h-3.282a3.283 3.283 0 0 0-3.28 3.281V27.61a12.696 12.696 0 0 0-1.11-.047c-4.207 0-7.801 3.29-9.57 5.25-.086.098-1.461 1.63-2.333 3.114l-.261-.258a1.09 1.09 0 0 0-1.547 0L.32 41.852a1.094 1.094 0 0 0 0 1.547l12.313 12.28a1.092 1.092 0 0 0 1.543 0l6.187-6.16a1.1 1.1 0 0 0 .32-.773 1.1 1.1 0 0 0-.32-.773l-1.004-1c.75-1.063 2.66-1.91 4.012-1.91h14.766a9.785 9.785 0 0 0 5.297-1.532c3.992-2.562 9.605-6.738 12.257-13.343a4.147 4.147 0 0 0-.382-3.86zM30.079 6.563a4.375 4.375 0 0 1 8.75 0V8.75h-8.75zm-6.563 5.468c0-.605.492-1.094 1.093-1.094h3.282v1.094a1.094 1.094 0 0 0 2.187 0v-1.094h8.75v1.094a1.094 1.094 0 0 0 2.188 0v-1.094h3.28c.606 0 1.095.489 1.095 1.094v18.266c-.711.683-1.555 1.27-2.664 1.844a4.398 4.398 0 0 0-3.899-2.391H27.875c-.7 0-1.262-.297-2.043-.707a12.847 12.847 0 0 0-2.316-1.012zm-10.11 41.332L2.645 42.625l4.636-4.64 10.762 10.757zm40.258-23.992c-2.422 6.027-7.672 9.922-11.41 12.324a7.565 7.565 0 0 1-4.113 1.18H23.375c-1.91 0-4.277.992-5.566 2.54l-7.875-7.876c.867-1.781 5.402-7.785 10.293-7.785a9.606 9.606 0 0 1 1.976.191c1.094.235 1.86.64 2.61 1.032.898.472 1.824.964 3.062.964h10.953c1.211 0 2.188.977 2.188 2.188a2.186 2.186 0 0 1-2.188 2.187H27.875a1.094 1.094 0 0 0 0 2.188h10.953a4.377 4.377 0 0 0 4.375-4.156c1.785-.864 3.035-1.743 4.102-2.868.925-.984 1.73-2.18 2.527-3.78a2.103 2.103 0 0 1 3.648-.184c.36.55.43 1.242.184 1.855zm0 0" fill="#3e2c1f"/><path d="M13.469 47.266l-1.547-1.547a1.085 1.085 0 0 0-1.063-.297c-.382.098-.68.398-.78.781-.099.383.015.79.296 1.063l1.547 1.547c.43.414 1.113.406 1.535-.016a1.092 1.092 0 0 0 .012-1.531zm0 0" fill="#ec8625"/><path d="M9.078 40.504L4.805 44.78l8.601 8.582 4.637-4.617-8.566-8.566zm0 0" fill="#ec8625"/></svg><svg width="99" height="54" viewBox="-10 -10 99 54" id="corporate-1" x="488" xmlns="http://www.w3.org/2000/svg"><path d="M55.11 32.406a.919.919 0 0 0-1.169-.117.938.938 0 0 0-.34 1.137.918.918 0 0 0 1.036.554.93.93 0 0 0 .742-.914.947.947 0 0 0-.27-.66zm0 0M51.195 26.156H37.56a.929.929 0 0 0-.922.934c0 .515.414.933.922.933h13.64a.93.93 0 0 0 .926-.933.93.93 0 0 0-.926-.934zm0 0" fill="#ec8625"/><path d="M74.352.016H49.355a.93.93 0 0 0-.925.933.93.93 0 0 0 .925.934h13.903c.004 0 .004 0 .004.004v7.992c0 .148.035.293.101.426v.004c-.289.062-.566.171-.824.324l-4.98-2.371a2.795 2.795 0 0 0-2.907.304 2.91 2.91 0 0 0-1.12 2.332v5.172s-.005.004-.009.004h-20.87c-.56 0-1.016.457-1.016 1.028v12.226a4.69 4.69 0 0 0 1.355 3.3 4.612 4.612 0 0 0 3.274 1.368h14.293a.951.951 0 0 0 .957-.875.94.94 0 0 0-.25-.7.92.92 0 0 0-.672-.292H36.266c-1.532 0-2.778-1.254-2.778-2.8V17.944s0-.004.004-.004h20.09a2.834 2.834 0 0 0 1.938 2.168v.008l-1.625 2.82a.94.94 0 0 0 .062 1.04c.23.3.613.43.977.332l2.207-.598h.007l.59 2.23a.922.922 0 0 0 1.696.227l4.21-7.367h.008l5.278 9.476a.924.924 0 0 0 .941.47.943.943 0 0 0 .77-.716l.582-2.199s0-.004.007 0l2.207.59a.924.924 0 0 0 .973-.328.943.943 0 0 0 .07-1.035l-2.714-4.829v-.007a2.844 2.844 0 0 0 3.02-2.277h2.343c0-.005 0-.005.004 0v11.382c0 .742-.293 1.457-.817 1.98-.52.528-1.226.82-1.964.82h-9.235v-5a.953.953 0 0 0-.867-.968.916.916 0 0 0-.691.25.946.946 0 0 0-.293.684v5.039h-4.774a.951.951 0 0 0-.957.875.94.94 0 0 0 .25.699.913.913 0 0 0 .672.293h15.895c2.554 0 4.628-2.09 4.628-4.668V4.687c0-2.582-2.07-4.671-4.628-4.671zM55.785 18.18a1.021 1.021 0 0 1-.406-.828V10.84c0-.336.172-.649.453-.828a.959.959 0 0 1 .934-.059l4.53 2.156v.008a2.878 2.878 0 0 0-.171.98v1.997c.004.344.066.687.188 1.008v.007l-4.543 2.164a.944.944 0 0 1-.985-.093zm3.164 5.09l-.25-.934a.93.93 0 0 0-.426-.578.907.907 0 0 0-.71-.098l-.93.25v-.004l1.191-2.066 4.239-2.027.007.007-3.117 5.45zm5.477-7.192h-.461a.982.982 0 0 1-.977-.988v-1.988c0-.547.438-.989.977-.989h.46c.544 0 .981.442.981.989v1.988a.985.985 0 0 1-.98.988zm7.347 7.961l-.949-.258a.92.92 0 0 0-1.145.656l-.242.915h-.011l-4.188-7.52v-.004c.2-.062.39-.144.57-.246l3.188 1.52 2.777 4.93v.007zm1.223-6.687c.004.324-.148.636-.406.832a.961.961 0 0 1-.985.093l-4.53-2.16v-.008c.12-.324.183-.668.183-1.011v-2c0-.34-.059-.672-.172-.989v-.004l4.52-2.152c.32-.156.699-.121.984.09.262.195.41.508.406.832zm1.848-1.282v-5.172a2.91 2.91 0 0 0-1.121-2.332 2.795 2.795 0 0 0-2.907-.304l-4.968 2.367a2.773 2.773 0 0 0-.832-.324V10.3a.92.92 0 0 0 .101-.422V1.887c0-.004 0-.004.004-.004h9.23a2.747 2.747 0 0 1 1.97.82c.523.524.816 1.238.816 1.985V16.07l-.004.004h-2.285c-.004 0-.004-.004-.004-.004zm0 0" fill="#3e2c1f"/><path d="M1.766 2.324a1.023 1.023 0 0 1-.922-1.023c0-.528.398-.969.922-1.02h6.351c.559 0 1.012.461 1.012 1.028a.99.99 0 0 1-.258.68L5.973 5.292c2.8.32 3.652 2.281 3.652 4.406 0 2.746-1.648 4.328-4.883 4.328-2.062 0-3.691-1-4.547-2.222a1.086 1.086 0 0 1-.054-1.094c.183-.348.539-.566.93-.57.359 0 .617.14.952.52.676.78 1.43 1.362 2.72 1.362 1.784 0 2.62-.902 2.62-2.324 0-1.398-.578-2.406-2.363-2.406H3.77c-.618 0-1.07-.461-1.07-1.04a1.002 1.002 0 0 1 .257-.698l2.793-3.23zm0 0M21.813 7.016c0 4.808-1.649 7.035-5.18 7.035-3.574 0-5.2-2.227-5.2-7.035C11.43 2.226 13.056 0 16.634 0c3.531 0 5.18 2.227 5.18 7.016zm-2.266 0c0-3.489-.871-5.012-2.914-5.012-2.047 0-2.938 1.523-2.938 5.012 0 3.527.89 5.007 2.938 5.007 2.043 0 2.914-1.48 2.914-5.007zm0 0M33.938 7.016c0 4.808-1.649 7.035-5.18 7.035-3.57 0-5.2-2.227-5.2-7.035 0-4.79 1.626-7.016 5.2-7.016 3.531 0 5.18 2.227 5.18 7.016zm-2.262 0c0-3.489-.875-5.012-2.918-5.012s-2.942 1.523-2.942 5.012c0 3.527.895 5.007 2.938 5.007 2.047 0 2.922-1.48 2.922-5.007zm0 0M38.031 10.8h-.676a.461.461 0 0 1-.457-.46v-.442c0-.257.207-.46.457-.46h.676a.46.46 0 0 0 .453-.461v-.48a.458.458 0 0 0-.457-.462h-.675a.458.458 0 0 1-.454-.46v-.442c0-.254.204-.461.454-.461h.675a.456.456 0 0 0 .457-.461V.48a.46.46 0 0 1 .465-.46l2.957-.001c1.012 0 2.602.101 3.73.98.45.348.805.8 1.036 1.324.21.52.32 1.078.316 1.645 0 1.222-.496 2.324-1.23 2.984-1.196 1.063-3.203 1.082-3.559 1.082h-1.27a.458.458 0 0 0-.456.461v.48c0 .258.203.461.457.461h1.863c.254 0 .457.208.457.461v.442c0 .254-.203.46-.457.46H40.93a.458.458 0 0 0-.457.462v2.324c0 .258-.207.46-.457.46h-1.067a.456.456 0 0 1-.457-.46v-2.324a.458.458 0 0 0-.46-.46zm2.442-4.59c0 .259.203.462.457.462h1.289c.754 0 1.629-.238 2.105-.7.317-.3.672-.84.672-1.722 0-.742-.215-1.426-.89-1.906-.579-.399-1.41-.559-2.165-.559H40.93a.46.46 0 0 0-.457.457zm0 0" fill="#ec8625"/></svg><svg width="88" height="75" viewBox="-10 -10 71 75" id="corporate-2" x="587" xmlns="http://www.w3.org/2000/svg"><path d="M4.625 54.133h41.816c2.16 0 3.918-1.738 3.918-3.883 0-2.14-1.757-3.879-3.918-3.879h-2.28a.641.641 0 0 0-.645.637c0 .351.289.633.644.633h2.246a2.62 2.62 0 0 1 2.633 2.609 2.62 2.62 0 0 1-2.633 2.61H4.656c-1.453 0-2.633-1.169-2.633-2.61 0-1.441 1.18-2.61 2.633-2.61H6.91a.638.638 0 0 0 .645-.632.641.641 0 0 0-.645-.637H4.625C2.441 46.351.66 48.09.641 50.25c-.004 2.137 1.738 3.875 3.894 3.883zm0 0" fill="#ec8625"/><path d="M4.535 54.77a4.515 4.515 0 0 1-3.21-1.333A4.418 4.418 0 0 1 0 50.258c.02-2.5 2.07-4.515 4.594-4.519h2.312c.707 0 1.285.57 1.285 1.274 0 .703-.578 1.273-1.285 1.273h-2.25a1.984 1.984 0 0 0-1.992 1.973 1.989 1.989 0 0 0 1.992 1.972h41.75a1.981 1.981 0 0 0 1.992-1.972c0-1.09-.89-1.973-1.992-1.973H44.16c-.71 0-1.285-.57-1.285-1.273s.574-1.274 1.285-1.274h2.281c2.516 0 4.559 2.024 4.559 4.52 0 2.496-2.043 4.52-4.559 4.52H4.535zm.063-7.762c-1.817 0-3.297 1.449-3.313 3.25 0 1.781 1.453 3.226 3.25 3.238h.113c-1.808 0-3.273-1.453-3.273-3.246 0-1.79 1.465-3.242 3.273-3.242zm.058 6.488h41.785c1.809 0 3.274-1.453 3.274-3.246 0-1.79-1.465-3.242-3.274-3.242.868 0 1.7.34 2.313.949.613.61.957 1.434.953 2.293 0 1.793-1.46 3.242-3.266 3.246zm39.504-6.488zm0 0" fill="#ec8625"/><path d="M11.754 51.328c.3-.187.39-.582.2-.879a15.225 15.225 0 0 1-2.247-7.953c0-8.61 7.043-15.59 15.734-15.59 8.692 0 15.739 6.98 15.739 15.59a15.076 15.076 0 0 1-2.25 7.953c-.172.301-.09.684.195.89.098.052.207.075.32.063a.758.758 0 0 0 .578-.316 17.1 17.1 0 0 0 2.372-8.668c-.02-9.277-7.625-16.785-16.993-16.766-9.363.016-16.941 7.551-16.922 16.828a17.062 17.062 0 0 0 2.375 8.657c.207.277.594.36.899.191zm0 0" fill="#ec8625"/><path d="M11.414 52.05c-.426 0-.824-.198-1.078-.538l-.059-.051a17.682 17.682 0 0 1-2.441-8.98c0-9.614 7.86-17.415 17.566-17.434h.035c9.692 0 17.563 7.765 17.598 17.371a17.706 17.706 0 0 1-2.465 8.98 1.436 1.436 0 0 1-1.093.633 1.175 1.175 0 0 1-.641-.136l-.078-.047a1.31 1.31 0 0 1-.371-1.72 14.496 14.496 0 0 0 2.164-7.632c0-8.262-6.758-14.953-15.098-14.953-8.336 0-15.094 6.691-15.094 14.953 0 2.691.743 5.332 2.153 7.633.187.289.25.637.175.969a1.295 1.295 0 0 1-.574.797 1.361 1.361 0 0 1-.699.156zm-.031-1.269c-.168-.273-.32-.55-.469-.824.164.273.313.543.469.809zm0 0M24.602 22.566c.25.243.648.243.898 0l4.754-4.71c.281-.211.34-.61.129-.891a.65.65 0 0 0-1.028 0l-4.304 4.265-4.305-4.265a.646.646 0 0 0-.898.129.627.627 0 0 0 0 .761zm0 0" fill="#3e2c1f"/><path d="M25.05 23.379a1.273 1.273 0 0 1-.898-.356l-4.82-4.785a1.264 1.264 0 0 1 .121-1.664 1.299 1.299 0 0 1 1.68-.117l.07.059 3.856 3.816 3.851-3.785c.067-.082.14-.156.227-.219a1.285 1.285 0 0 1 1.797.258 1.259 1.259 0 0 1-.22 1.746l-4.718 4.684a1.292 1.292 0 0 1-.945.363zm0 0" fill="#3e2c1f"/><path d="M25.05 16.012c.712 0 1.286-.57 1.286-1.274 0-.703-.574-1.273-1.285-1.273s-1.285.57-1.285 1.273.574 1.274 1.285 1.274zm0 0" fill="#ec8625"/><path d="M25.05 16.648a1.916 1.916 0 0 1-1.925-1.91c0-1.054.86-1.91 1.926-1.91 1.062 0 1.926.856 1.926 1.91 0 1.055-.864 1.91-1.926 1.91zm0-2.546a.641.641 0 0 0-.644.636c0 .352.29.637.645.637a.638.638 0 1 0 0-1.273zm0 0M39.18 7.613c.18-.015.351-.058.515-.129.625-.25.926-.949.68-1.57l-.04-.082a1.287 1.287 0 0 0-1.585-.453 1.27 1.27 0 0 0-.727 1.469c.204.457.657.757 1.157.765zm0 0" fill="#ec8625"/><path d="M39.18 8.25a1.936 1.936 0 0 1-1.735-1.148L37.415 7a1.895 1.895 0 0 1 .48-1.754c.449-.469 1.109-.68 1.75-.562.5.097.94.39 1.226.808l.04.07c.023.043.042.09.062.133.187.453.187.961 0 1.414a1.84 1.84 0 0 1-1.02.985 2.02 2.02 0 0 1-.707.172zm-.563-1.605c.106.195.309.32.531.332.09-.012.18-.036.266-.07a.596.596 0 0 0 .34-.321.566.566 0 0 0 0-.438.65.65 0 0 0-.867-.133.63.63 0 0 0-.25.63zm0 0M25.758 5.895c.219.171.492.261.77.253a1.343 1.343 0 0 0 1.027-.507 1.262 1.262 0 0 0-.258-1.782 1.29 1.29 0 0 0-1.797.254 1.262 1.262 0 0 0 .258 1.782zm0 0" fill="#ec8625"/><path d="M26.516 6.785c-.414 0-.82-.137-1.153-.383a1.9 1.9 0 0 1-.379-2.672 1.94 1.94 0 0 1 2.696-.378 1.894 1.894 0 0 1 .39 2.668c-.367.472-.93.753-1.53.765zm0-2.547h-.09a.643.643 0 0 0-.426.25.635.635 0 0 0 .129.89.584.584 0 0 0 .375.122.688.688 0 0 0 .523-.27.63.63 0 0 0-.113-.863.657.657 0 0 0-.387-.129zm0 0M25.05 10.922c.712 0 1.286-.57 1.286-1.274 0-.703-.574-1.273-1.285-1.273s-1.285.57-1.285 1.273c0 .704.574 1.274 1.285 1.274zm0 0" fill="#ec8625"/><path d="M25.05 11.559a1.916 1.916 0 0 1-1.925-1.91c0-1.055.86-1.91 1.926-1.91 1.062 0 1.926.855 1.926 1.91 0 1.054-.864 1.91-1.926 1.91zm0-2.547a.641.641 0 0 0-.644.636c0 .352.29.637.645.637a.638.638 0 1 0 0-1.273zm0 0M30.703 3.414c.11.004.219-.02.32-.066.332-.075.622-.278.801-.567.184-.285.238-.629.164-.96a1.29 1.29 0 0 0-1.445-.938 1.276 1.276 0 0 0-1.082 1.336 1.283 1.283 0 0 0 1.242 1.195zm0 0" fill="#ec8625"/><path d="M30.727 4.047h-.051a1.923 1.923 0 0 1-1.774-1.43 1.905 1.905 0 0 1 .707-1.98A1.942 1.942 0 0 1 31.723.5c.445.25.761.672.886 1.164a1.904 1.904 0 0 1-1.379 2.29c-.16.062-.332.097-.503.093zm0-2.543a.577.577 0 0 0-.165 0 .635.635 0 0 0-.457.777c.07.27.313.465.598.477h.031l.13-.04a.662.662 0 0 0 .402-.28.63.63 0 0 0 .078-.481.635.635 0 0 0-.64-.465zm0 0M35.168 3.863c.184.07.379.114.578.13.48-.016.922-.282 1.156-.7a1.275 1.275 0 0 0-.566-1.715 1.3 1.3 0 0 0-1.734.574 1.276 1.276 0 0 0 .578 1.72zm0 0" fill="#ec8625"/><path d="M35.766 4.629a2.87 2.87 0 0 1-.836-.172h-.051a1.897 1.897 0 0 1-.836-2.598A1.937 1.937 0 0 1 35.91.83a1.929 1.929 0 0 1 1.68 1.312c.16.48.12 1.007-.117 1.457a2.022 2.022 0 0 1-1.707 1.03zm-.336-1.344c.113.04.234.063.355.07a.695.695 0 0 0 .55-.37.633.633 0 0 0-.288-.844.645.645 0 0 0-.918.777.68.68 0 0 0 .3.367zm0 0M28.902 34.363l-1.515-.476c-2.016-.63-4.164.472-4.817 2.46l-.828 2.59-1.508-.468a.648.648 0 0 0-.824.398c-.113.336.067.7.406.817l1.508.476-.691 2.156-1.524-.472a.67.67 0 0 0-.492.035.636.636 0 0 0 .074 1.176l1.508.476-.703 2.203a.66.66 0 0 0 .442.832.67.67 0 0 0 .84-.437l.687-2.223 3.086.977c.332.113.699-.067.812-.395v-.035a.598.598 0 0 0-.031-.484.647.647 0 0 0-.371-.324l-3.082-.973.691-2.156 3.918 1.234c1.934.61 4-.453 4.614-2.367l.168-.508c.574-1.89-.477-3.89-2.368-4.512zm.961 4.684a2.38 2.38 0 0 1-2.968 1.52l-3.934-1.235.805-2.59a2.51 2.51 0 0 1 1.261-1.476 2.543 2.543 0 0 1 1.95-.145l1.515.477a2.34 2.34 0 0 1 1.535 2.937zm0 0" fill="#ec8625"/><path d="M20.156 47.281c-.133 0-.265-.02-.39-.058a1.283 1.283 0 0 1-.774-.637 1.274 1.274 0 0 1-.094-.992l.512-1.598-.89-.285a1.315 1.315 0 0 1-.778-.637 1.26 1.26 0 0 1 .164-1.433 1.284 1.284 0 0 1 1.41-.36l.899.278.3-.95-.894-.289a1.284 1.284 0 0 1-.84-1.613 1.297 1.297 0 0 1 1.625-.832l.899.281.644-1.988c.758-2.32 3.266-3.605 5.617-2.875l1.52.477c2.254.718 3.508 3.101 2.812 5.347l-.175.516c-.73 2.226-3.133 3.457-5.387 2.762l-3.34-1.04-.305.942 2.47.785c.683.219 1.054.945.835 1.621a1.307 1.307 0 0 1-1.64.828l-2.446-.758-.496 1.602a1.269 1.269 0 0 1-1.258.906zm-1.238-4.812l2.113.695-.906 2.805.938-2.82 3.699 1.171-3.688-1.195 1.086-3.371 4.496 1.43c1.598.5 3.301-.375 3.809-1.954l.168-.515c.484-1.574-.395-3.238-1.973-3.746l-1.515-.48c-1.68-.52-3.473.398-4.016 2.058l-1.02 3.18-2.12-.637 2.113.695-1.086 3.363zm8.703-1.153c-.312 0-.621-.05-.914-.144l-4.555-1.426 1.028-3.184c.55-1.628 2.308-2.527 3.972-2.035l1.516.477c1.566.516 2.43 2.184 1.926 3.742l-.149.504a2.96 2.96 0 0 1-1.457 1.703c-.422.23-.89.356-1.367.363zm-3.855-2.398l3.316 1.043a1.722 1.722 0 0 0 2.156-1.098l.149-.5c.144-.43.105-.902-.102-1.308a1.744 1.744 0 0 0-1.023-.852l-1.516-.48a1.934 1.934 0 0 0-2.34 1.218zm0 0" fill="#ec8625"/></svg><svg width="76" height="76" viewBox="-10 -10 76 76" id="corporate-3" x="675" xmlns="http://www.w3.org/2000/svg"><path d="M14.52 41.41a21.155 21.155 0 0 0 22.328 14.153A21.165 21.165 0 0 0 55.55 36.874c1.094-9.836-4.774-19.117-14.133-22.34a21.424 21.424 0 0 0-7.39-10.105 21.133 21.133 0 0 0-22.895-1.41A21.137 21.137 0 0 0 .43 23.309 21.14 21.14 0 0 0 14.52 41.41zm39.37-6.87c.012 9.5-6.87 17.605-16.25 19.136-9.374 1.531-18.48-3.969-21.488-12.98a.88.88 0 0 0-.148-.45 19.387 19.387 0 0 1 24.312-24.195c.079.039.16.07.246.086a19.365 19.365 0 0 1 13.329 18.402zM7.704 7.733c6.79-6.8 17.54-7.586 25.25-1.847a19.763 19.763 0 0 1 6.34 8.062C27.93 11.301 16.57 18.363 13.922 29.727a20.578 20.578 0 0 0-.547 4.812 20.25 20.25 0 0 0 .535 4.723A19.402 19.402 0 0 1 2.418 25.137 19.392 19.392 0 0 1 7.695 7.71zm0 0" fill="#3e2c1f"/><path d="M34.54 56a21.5 21.5 0 0 1-20.267-14.348 21.632 21.632 0 0 1-10.058-7.476c-6.29-8.54-5.395-20.39 2.105-27.89 7.496-7.5 19.348-8.395 27.887-2.102a21.546 21.546 0 0 1 7.453 10.109c9.86 3.477 15.785 13.55 14.024 23.855C53.926 48.457 44.996 55.996 34.539 56zM21.534.617A20.834 20.834 0 0 0 2.242 13.484a20.833 20.833 0 0 0 2.473 20.328 20.978 20.978 0 0 0 9.902 7.31l.14.05.052.14A20.845 20.845 0 0 0 36.82 55.27c9.7-1.07 17.356-8.73 18.43-18.43a20.855 20.855 0 0 0-13.96-22.012l-.118-.047-.047-.14a20.934 20.934 0 0 0-7.285-9.965A20.681 20.681 0 0 0 21.535.617zm12.969 53.621a19.644 19.644 0 0 1-18.66-13.445v-.086c0-.102-.031-.2-.086-.281l-.043-.086a19.7 19.7 0 0 1 4.945-19.73 19.71 19.71 0 0 1 19.75-4.848c.074.031.149.058.227.078a19.622 19.622 0 0 1 13.574 18.7c.02 10.87-8.781 19.694-19.652 19.706zm-18.05-13.59a19.033 19.033 0 0 0 18.05 12.973 19.05 19.05 0 0 0 13.512-5.574 19.045 19.045 0 0 0 5.578-13.508 19.002 19.002 0 0 0-13.11-18.11 1.457 1.457 0 0 1-.285-.1 19.09 19.09 0 0 0-23.918 23.788c.098.16.16.34.172.531zm-2.114-.863l-.555-.242A19.698 19.698 0 0 1 2.133 25.207 19.703 19.703 0 0 1 7.473 7.52l.382-.383a19.767 19.767 0 0 1 25.25-1.5 20.012 20.012 0 0 1 6.45 8.187l.234.555-.617-.133c-11.18-2.566-22.328 4.383-24.95 15.55-.71 3.09-.71 6.306 0 9.395zM7.527 8.32a19.125 19.125 0 0 0-1.433 24.414 19.358 19.358 0 0 0 7.39 6.004 21.056 21.056 0 0 1-.414-4.199 21.395 21.395 0 0 1 7.867-16.594 21.396 21.396 0 0 1 17.829-4.394 19.48 19.48 0 0 0-6-7.39C25.16.565 14.613 1.35 7.918 8.007l-.383.379zm0 0" fill="#3e2c1f"/><path d="M28.426 26.29c3.23 0 5.148 1.847 5.148 4.577 0 4.703-7.742 6.516-7.742 8.473h6.824c.63 0 1.14.512 1.14 1.14 0 .63-.51 1.141-1.14 1.141h-8.492c-.629 0-1.14-.512-1.14-1.14 0-4.926 8.007-5.446 8.007-9.614 0-1.23-.914-2.347-2.605-2.347a2.649 2.649 0 0 0-2.543 1.609c-.203.433-.637.71-1.117.715a1.242 1.242 0 0 1-1.004-.57 1.224 1.224 0 0 1-.09-1.149c.715-1.625 2.297-2.836 4.754-2.836zm0 0M40.531 36.133l-3.43 5.086a1.26 1.26 0 0 1-1.07.578 1.292 1.292 0 0 1-1.293-1.293c-.008-.254.07-.504.223-.715l4.168-5.844-3.879-5.468a1.294 1.294 0 0 1 1.047-2.051c.418-.012.816.191 1.05.535l3.184 4.75 3.211-4.75c.23-.348.63-.55 1.047-.535.484 0 .93.273 1.148.707.223.43.184.949-.101 1.344l-3.879 5.468 4.168 5.844c.148.211.227.461.223.715 0 .715-.582 1.293-1.293 1.293a1.27 1.27 0 0 1-1.075-.578zm0 0" fill="#ec8625"/></svg><svg width="72" height="82" viewBox="-10 -10 72 82" id="corporate-4" x="751" xmlns="http://www.w3.org/2000/svg"><path d="M50.973 34.777H21.98l1.274-2.992a1.013 1.013 0 0 0-.547-1.328l-4.84-2.027a1.027 1.027 0 0 0-1.34.543l-2.824 6.636a5.569 5.569 0 0 0-2.781-2.535l-2.379-.992a1.022 1.022 0 0 0-.781-.004 1.01 1.01 0 0 0-.559.547l-1.781 4.172a5.514 5.514 0 0 0 .41 5.11 5.594 5.594 0 0 0-3.973 3.265L.082 49.355a1.016 1.016 0 0 0 .543 1.333l2.379 1a5.585 5.585 0 0 0 3.77.207L3.948 58.53c-.219.516.028 1.11.547 1.328l4.84 2.028a1.03 1.03 0 0 0 1.34-.543l9.011-21.18v18.723c0 1.703 1.391 3.082 3.106 3.082h26.105c1.715-.004 3.102-1.38 3.106-3.078V35.797a1.025 1.025 0 0 0-1.031-1.02zM7.316 37.59l1.38-3.242 1.425.601a3.519 3.519 0 0 1 1.895 4.621l-1.38 3.242-1.429-.605a3.514 3.514 0 0 1-1.89-4.617zm-.793 12.234a3.555 3.555 0 0 1-2.722-.015l-1.43-.606 1.375-3.242c.77-1.797 2.86-2.633 4.668-1.871l1.43.597-1.383 3.239a3.5 3.5 0 0 1-1.938 1.898zm2.665 9.793l-2.95-1.234 4.114-9.664 7.664-18.024 2.949 1.235zm28.656.317h-3.992V41.578c0-.562-.461-1.02-1.028-1.02-.566 0-1.023.458-1.023 1.02v18.356h-9.008c-.582 0-1.05-.47-1.055-1.047V36.812h16.098v23.122zm12.11-1.047c0 .578-.47 1.047-1.052 1.047h-9.015V36.813h10.062v22.074zm0 0" fill="#3e2c1f"/><path d="M40.133 4.328l-1.559-1.152.07-1.926a1.186 1.186 0 0 0-1.867-1l-1.586 1.113L33.363.7a1.19 1.19 0 0 0-1.222.254c-.328.309-.45.774-.317 1.2l.578 1.84-1.199 1.515a1.168 1.168 0 0 0-.137 1.238c.196.402.606.66 1.059.664l1.945.024 1.082 1.597c.25.375.692.57 1.141.512a1.18 1.18 0 0 0 .965-.79l.62-1.823 1.876-.528a1.174 1.174 0 0 0 .383-2.074zm-3.25.766c-.375.105-.676.39-.801.758l-.207.601-.355-.527a1.18 1.18 0 0 0-.977-.52l-.645-.011.399-.5a1.16 1.16 0 0 0 .2-1.075l-.192-.605.601.219c.367.136.782.082 1.098-.145l.527-.367-.023.633c-.016.39.16.757.476.988l.516.383zm0 0M36.316 21.71a56.82 56.82 0 0 0-1.453-8.874 1.022 1.022 0 0 0-1.238-.746c-.55.133-.89.683-.754 1.23a54.236 54.236 0 0 1 1.344 18.149c-.05.558.363 1.054.926 1.11h.097a1.029 1.029 0 0 0 1.02-.927c.312-3.304.332-6.632.058-9.941zm0 0M33.246 31.531a15.935 15.935 0 0 0-3.09-8.043c-2.918-3.902-6.828-5.398-8.902-5.937a1.027 1.027 0 0 0-1.242.726c-.145.535.175 1.09.718 1.239 1.813.476 5.235 1.78 7.782 5.183a13.917 13.917 0 0 1 2.695 7.016c.05.523.492.922 1.02.926h.097a1.02 1.02 0 0 0 .922-1.11zm0 0M50.656 19.117c-1.644.07-5.851.602-9.32 4.02a13.997 13.997 0 0 0-4.04 8.246 1.02 1.02 0 0 0 1.02 1.137c.52 0 .954-.387 1.016-.899a11.982 11.982 0 0 1 3.45-7.043c2.964-2.914 6.554-3.371 7.96-3.43a1.017 1.017 0 1 0-.086-2.031zm0 0" fill="#ec8625"/><path d="M28.535 9.348a3.658 3.658 0 0 0-4.375-.68 3.597 3.597 0 0 0-1.793 4.016 3.63 3.63 0 0 0 3.445 2.757h.09a3.64 3.64 0 0 0 3.34-2.187 3.583 3.583 0 0 0-.707-3.906zm-1.539 3.629a1.597 1.597 0 0 1-2.242-.055 1.562 1.562 0 0 1 .055-2.223 1.597 1.597 0 0 1 2.242.051 1.567 1.567 0 0 1-.059 2.227zm0 0M44.656 12.363a3.655 3.655 0 0 0-5.136-.117 3.586 3.586 0 0 0-.122 5.094 3.656 3.656 0 0 0 5.137.125 3.588 3.588 0 0 0 .121-5.102zm-1.539 3.63a1.597 1.597 0 0 1-2.242-.056 1.563 1.563 0 0 1 .059-2.222 1.588 1.588 0 0 1 2.238.055 1.563 1.563 0 0 1-.055 2.222zm0 0" fill="#3e2c1f"/></svg><svg width="66" height="66" viewBox="-10 -10 66 66" id="guest-1" x="823" xmlns="http://www.w3.org/2000/svg"><path d="M43.352 22.984l-2.051-.257a14.208 14.208 0 0 0-2.633-4.157l1.504-6.386a.89.89 0 0 0-.164-.75.893.893 0 0 0-.696-.336h-.195a6.08 6.08 0 0 0-5.644 3.886 13.9 13.9 0 0 0-1.934-.613.885.885 0 0 0-1.063 1.117.877.877 0 0 0 .657.602c2.21.52 4.23 1.644 5.836 3.246.058.086.129.16.215.219a12.258 12.258 0 0 1 2.652 4.285.89.89 0 0 0 .719.574l2.578.32c.402.051.703.395.703.801v4.453c0 .407-.3.746-.703.801l-2.387.297a.88.88 0 0 0-.73.613 12.263 12.263 0 0 1-3.891 5.781.883.883 0 0 0-.32.68v4.883a.794.794 0 0 1-.793.793H29.89a.797.797 0 0 1-.797-.793v-1.86a.882.882 0 0 0-.883-.882h-7.414a.882.882 0 0 0-.883.883v1.859a.794.794 0 0 1-.797.793h-5.12a.794.794 0 0 1-.794-.793v-3.445a.874.874 0 0 0-.46-.774 12.276 12.276 0 0 1-6.43-10.793c0-6.765 5.503-12.273 12.273-12.273h1.102a.882.882 0 1 0 0-1.766h-1.106c-6.555 0-12.074 4.516-13.61 10.598h-.644a2.163 2.163 0 1 1 0-4.324.884.884 0 0 0 .883-.883.884.884 0 0 0-.883-.883 3.928 3.928 0 1 0 0 7.855h.32a14.03 14.03 0 0 0 6.786 13.754v2.934a2.557 2.557 0 0 0 2.558 2.559h5.121a2.56 2.56 0 0 0 2.563-2.559v-.977h5.648v.977a2.56 2.56 0 0 0 2.563 2.559h5.12a2.557 2.557 0 0 0 2.56-2.559V38.57a13.988 13.988 0 0 0 3.945-5.8l1.84-.23a2.576 2.576 0 0 0 2.253-2.552v-4.453a2.582 2.582 0 0 0-2.253-2.55zm-6.168-5.82a14.546 14.546 0 0 0-2.106-1.426 4.321 4.321 0 0 1 3.098-2.77zm0 0" fill="#402e21"/><path d="M35.008 46h-5.121a2.957 2.957 0 0 1-2.957-2.957v-.578h-4.856v.578A2.96 2.96 0 0 1 19.114 46h-5.118a2.963 2.963 0 0 1-2.96-2.957v-2.707a14.44 14.44 0 0 1-6.829-13.582 4.327 4.327 0 0 1 .121-8.652c.707 0 1.277.574 1.277 1.28 0 .708-.57 1.282-1.277 1.282-.976 0-1.77.79-1.77 1.766a1.77 1.77 0 0 0 1.77 1.765h.34a14.533 14.533 0 0 1 4.98-7.496 14.271 14.271 0 0 1 8.934-3.101h1.105a1.279 1.279 0 1 1 0 2.559h-1.105c-6.547 0-11.871 5.327-11.871 11.874 0 4.356 2.383 8.364 6.215 10.442.414.222.672.652.672 1.125v3.441c0 .219.175.398.398.398h5.117c.223 0 .399-.18.399-.398v-1.855c0-.707.574-1.282 1.281-1.282h7.418c.703 0 1.277.575 1.277 1.282v1.859c0 .219.18.395.399.398h5.12a.403.403 0 0 0 .4-.398v-4.879c0-.383.167-.746.46-.988a11.874 11.874 0 0 0 3.766-5.594c.148-.48.562-.824 1.058-.89l2.383-.297a.41.41 0 0 0 .36-.407v-4.453a.405.405 0 0 0-.36-.402l-2.566-.324a1.273 1.273 0 0 1-1.043-.832 11.844 11.844 0 0 0-2.543-4.125 1.24 1.24 0 0 1-.254-.262 11.823 11.823 0 0 0-5.621-3.117 1.285 1.285 0 0 1-.945-.875 1.293 1.293 0 0 1 .296-1.258c.32-.332.793-.473 1.239-.36.55.133 1.093.293 1.62.489a6.497 6.497 0 0 1 5.864-3.774h.2c.39 0 .757.18 1 .489.242.308.331.707.242 1.09l-1.461 6.183a14.492 14.492 0 0 1 2.476 3.906l1.82.227A2.972 2.972 0 0 1 46 25.535v4.453a2.976 2.976 0 0 1-2.602 2.946l-1.593.199a14.49 14.49 0 0 1-3.84 5.613v4.297A2.96 2.96 0 0 1 35.008 46zm-13.73-4.332h6.445v1.375c0 1.195.968 2.16 2.164 2.164h5.12a2.171 2.171 0 0 0 2.165-2.164v-4.652l.133-.121a13.691 13.691 0 0 0 3.84-5.633l.082-.23 2.078-.266a2.175 2.175 0 0 0 1.902-2.153v-4.453a2.182 2.182 0 0 0-1.906-2.156l-2.281-.285-.09-.215a13.578 13.578 0 0 0-2.559-4.04l-.14-.155 1.554-6.594a.47.47 0 0 0-.094-.41.48.48 0 0 0-.379-.188h-.19a5.698 5.698 0 0 0-5.282 3.633l-.14.375-.376-.148a13.748 13.748 0 0 0-1.875-.594.485.485 0 1 0-.222.945c2.277.54 4.363 1.7 6.02 3.356l.026.027.02.027c.035.047.074.09.117.121l.031.024.028.027a12.7 12.7 0 0 1 2.738 4.422.47.47 0 0 0 .395.316l2.574.325a1.205 1.205 0 0 1 1.058 1.187v4.453c0 .606-.453 1.117-1.054 1.196l-2.383.296a.485.485 0 0 0-.402.336 12.642 12.642 0 0 1-4.02 5.973.497.497 0 0 0-.176.375v4.879c0 .656-.535 1.191-1.191 1.191h-5.121a1.194 1.194 0 0 1-1.192-1.191v-1.86a.488.488 0 0 0-.484-.488h-7.418a.485.485 0 0 0-.484.489v1.859a1.197 1.197 0 0 1-1.196 1.191h-5.117c-.66 0-1.191-.535-1.195-1.191v-3.445a.485.485 0 0 0-.25-.426 12.67 12.67 0 0 1-6.637-11.14c0-6.985 5.684-12.669 12.668-12.669h1.105c.27 0 .489-.218.489-.484a.488.488 0 0 0-.488-.488h-1.106a13.627 13.627 0 0 0-13.223 10.3l-.078.301h-.953a2.56 2.56 0 0 1 0-5.121.487.487 0 0 0 0-.973 3.53 3.53 0 1 0 0 7.063h.766l-.051.441a13.64 13.64 0 0 0 6.594 13.364l.195.117v3.16c0 1.191.969 2.16 2.16 2.164h5.121a2.166 2.166 0 0 0 2.164-2.164zm16.148-23.793l-.492-.402a13.958 13.958 0 0 0-2.047-1.387l-.293-.16.11-.317a4.725 4.725 0 0 1 3.382-3.027l.621-.145zm-1.852-2.309c.473.274.926.579 1.367.903l.684-2.907a3.95 3.95 0 0 0-2.05 2.004zm0 0" fill="#402e21"/><path d="M35.543 22.816a.882.882 0 0 0-1.438.965c.16.387.575.61.989.528a.883.883 0 0 0 .449-1.493zm0 0" fill="#ec8726"/><path d="M34.918 24.59a1.148 1.148 0 1 1 1.063-.71c-.18.429-.598.71-1.063.71zm0-1.766a.617.617 0 0 0-.234 1.188.616.616 0 1 0 .234-1.188zm0 0" fill="#ec8726"/><path d="M26.29 5.547a.882.882 0 0 0-.884.883v3.504a.882.882 0 1 0 1.766 0V6.43a.882.882 0 0 0-.883-.883zm0 0" fill="#433124"/><path d="M26.29 11.215a1.285 1.285 0 0 1-1.282-1.281V6.43a1.279 1.279 0 1 1 2.559 0v3.504c0 .707-.57 1.277-1.278 1.28zm0-5.27a.49.49 0 0 0-.49.485v3.504a.487.487 0 1 0 .973 0V6.43a.487.487 0 0 0-.484-.485zm0 0M26.914 2.602a.885.885 0 1 0-.453 1.492.883.883 0 0 0 .453-1.492zm0 0" fill="#433124"/><path d="M26.29 4.508c-.583 0-1.087-.39-1.24-.95a1.287 1.287 0 0 1 .598-1.44 1.288 1.288 0 0 1 1.547.202c.364.368.473.918.274 1.395-.196.48-.664.793-1.18.793zm0-1.766a.482.482 0 0 0-.47.36.486.486 0 1 0 .469-.36zm0 0M19.113.398a.884.884 0 0 0-.883.883v1.5a.884.884 0 0 0 1.77 0v-1.5a.885.885 0 0 0-.887-.883zm0 0" fill="#433124"/><path d="M19.113 4.063a1.281 1.281 0 0 1-1.277-1.282v-1.5a1.279 1.279 0 1 1 2.559 0v1.5c0 .707-.575 1.281-1.282 1.281zm0-3.27a.49.49 0 0 0-.484.488v1.5a.485.485 0 1 0 .973 0v-1.5a.491.491 0 0 0-.489-.488zm0 0" fill="#433124"/><path d="M10.457 28.031a.882.882 0 1 0-1.766 0v.047a.883.883 0 0 0 .883.875h.004a.88.88 0 0 0 .879-.887zm0 0" fill="#ee933c"/><path d="M9.582 29.219a1.146 1.146 0 0 1-1.156-1.14v-.052a1.15 1.15 0 0 1 1.148-1.148 1.15 1.15 0 0 1 1.149 1.148v.035a1.148 1.148 0 0 1-1.141 1.157zm-.008-1.809a.62.62 0 0 0-.617.621v.047a.617.617 0 1 0 1.234-.012v-.035a.618.618 0 0 0-.617-.621zm0 0M14.363 34.977a8.196 8.196 0 0 1-3.37-4.04.885.885 0 0 0-1.141-.511.885.885 0 0 0-.508 1.14 9.937 9.937 0 0 0 4.105 4.918.882.882 0 1 0 .914-1.507zm0 0" fill="#ee933c"/><path d="M13.906 36.879a1.15 1.15 0 0 1-.597-.168 10.228 10.228 0 0 1-4.215-5.047 1.15 1.15 0 0 1 .66-1.484 1.15 1.15 0 0 1 1.484.66 7.915 7.915 0 0 0 3.266 3.91c.441.27.648.797.512 1.293a1.15 1.15 0 0 1-1.11.836zm-3.738-6.242a.617.617 0 0 0-.578.84 9.677 9.677 0 0 0 3.996 4.785.618.618 0 1 0 .64-1.059 8.456 8.456 0 0 1-3.48-4.172.622.622 0 0 0-.578-.398zm0 0M19.113 4.64a3.708 3.708 0 0 0 0 7.415c2.051 0 3.711-1.66 3.711-3.707a3.708 3.708 0 0 0-3.71-3.707zm0 5.65a1.941 1.941 0 1 1 0-3.884 1.942 1.942 0 1 1 0 3.883zm0 0" fill="#ee933c"/><path d="M19.113 12.32a3.974 3.974 0 1 1 .002-7.947 3.974 3.974 0 0 1-.002 7.947zm0-7.414a3.442 3.442 0 0 0-3.441 3.442 3.445 3.445 0 0 0 3.441 3.445 3.446 3.446 0 0 0 3.446-3.445 3.448 3.448 0 0 0-3.446-3.442zm0 5.649a2.207 2.207 0 0 1 0-4.414 2.208 2.208 0 1 1 0 4.414zm0-3.883a1.679 1.679 0 1 0 1.68 1.676c0-.926-.75-1.676-1.68-1.676zm0 0M29.27 19.828h-.797a3.704 3.704 0 0 0-.746-4.762 3.706 3.706 0 0 0-5.567 4.762h-4.37a.884.884 0 0 0-.884.883c0 .488.399.883.883.883h11.48a.882.882 0 1 0 0-1.766zm-3.954 0a1.941 1.941 0 0 1-1.941-1.941 1.942 1.942 0 1 1 1.941 1.941zm0 0" fill="#ee933c"/><path d="M29.27 21.86H17.79a1.147 1.147 0 0 1-1.145-1.15c0-.632.511-1.148 1.144-1.148h3.93a3.976 3.976 0 0 1 1.136-4.796 3.979 3.979 0 0 1 4.93 0 3.976 3.976 0 0 1 1.137 4.796h.351a1.15 1.15 0 0 1 1.149 1.149 1.15 1.15 0 0 1-1.149 1.148zm-11.48-1.766a.618.618 0 0 0-.618.617c0 .34.277.617.617.617h11.48c.34 0 .618-.277.618-.617a.618.618 0 0 0-.617-.617H28l.254-.407a3.445 3.445 0 0 0-5.172-4.422 3.44 3.44 0 0 0-.691 4.422l.25.407zm7.526 0a2.207 2.207 0 1 1 0-4.415 2.207 2.207 0 0 1 0 4.415zm0-3.887c-.925 0-1.675.75-1.675 1.68 0 .925.75 1.675 1.675 1.675a1.679 1.679 0 1 0 0-3.355zm0 0" fill="#ee933c"/></svg><svg width="67" height="80" viewBox="-10 -10 67 65" id="guest-2" x="889" xmlns="http://www.w3.org/2000/svg"><path d="M36.797 23.527L27.176 6.47l-2.344 2.773a1.913 1.913 0 0 0-.21 2.176l7.776 13.75 4.09-.598zm0 0M12.672 28.57a.92.92 0 0 0 .324-1.254.905.905 0 0 0-1.238-.336.925.925 0 0 0 .219 1.688.905.905 0 0 0 .695-.098zm0 0" fill="#e78325"/><path d="M12.219 28.91a1.126 1.126 0 0 1-1.117-1.203c.03-.539.437-.977.968-1.05a1.116 1.116 0 0 1 1.203.757 1.136 1.136 0 0 1-.496 1.344 1.12 1.12 0 0 1-.558.152zm0-1.84a.701.701 0 0 0-.676.524.723.723 0 0 0 .25.75.711.711 0 0 0 .781.05.718.718 0 0 0 .324-.8.702.702 0 0 0-.68-.524zm0 0" fill="#e78325"/><path d="M8.945 34.922l4.59 8.02a3.611 3.611 0 0 0 4.84 1.136c1.66-.969 2.293-3.07 1.45-4.808l-2.727-4.782 2.363-1.383a.919.919 0 0 0 .43-.562.94.94 0 0 0-.094-.703l-1.184-2.07 17.422-3.457a2.737 2.737 0 0 0 2.25-1.442 2.8 2.8 0 0 0-.035-2.695l-3.023-5.293 1.933-2.957c.188-.29.2-.664.028-.969l-1.82-3.184a.911.911 0 0 0-.837-.46l-3.5.214-3.363-5.879A2.712 2.712 0 0 0 25.34 2.27h-.035a2.702 2.702 0 0 0-2.297 1.265l-11.89 15.313-7.723 4.511c-2.891 1.688-4 5.352-2.543 8.387 1.457 3.04 4.992 4.422 8.093 3.168zm9.305 5.273c.34.57.352 1.282.023 1.864a1.813 1.813 0 0 1-1.59.93 1.813 1.813 0 0 1-1.581-.95l-4.551-7.98 3.152-1.84zm-2.063-7.297l-.91-1.59 1.578-.921.91 1.593zm17.887-21.714l1.25 2.203-1.105 1.718-2.168-3.796zM24.527 4.55a.907.907 0 0 1 1.567.02l10.578 18.534a.917.917 0 0 1-.762 1.372 3.616 3.616 0 0 0-.5.085L24.215 4.962c.234-.305.265-.332.312-.41zm-1.52 1.972l10.516 18.422-15.87 3.149-4.829-8.453zM2.642 31.243c-1.254-2.204-.508-5.016 1.668-6.286l7.093-4.14 4.551 7.968-7.098 4.133c-2.175 1.27-4.953.52-6.214-1.676zm0 0" fill="#433124"/><path d="M16.691 45a3.83 3.83 0 0 1-3.336-1.953l-4.492-7.871c-3.008 1.113-6.367-.114-7.98-2.91-1.813-3.18-.735-7.246 2.41-9.086l7.687-4.489 11.86-15.28a2.92 2.92 0 0 1 2.465-1.352h.039a2.892 2.892 0 0 1 2.504 1.476l3.293 5.766 3.37-.211c.426-.031.833.191 1.044.562l1.82 3.188c.21.37.2.832-.035 1.191l-1.867 2.864 2.957 5.183c.508.89.523 1.985.043 2.895a2.936 2.936 0 0 1-2.41 1.558l-3.262.645-13.864 2.746 1.043 1.816a1.132 1.132 0 0 1-.418 1.543l-2.18 1.266 2.626 4.601c.691 1.204.699 2.688.015 3.895A3.847 3.847 0 0 1 16.691 45zM9.04 34.66l4.668 8.176a3.403 3.403 0 0 0 4.684 1.27c1.64-.958 2.203-3.079 1.257-4.739l-2.835-4.957 2.542-1.476a.72.72 0 0 0 .258-.98l-1.328-2.321.29-.055 14.148-2.808 3.304-.653a2.52 2.52 0 0 0 2.075-1.332 2.573 2.573 0 0 0-.032-2.488l-3.09-5.414 2.004-3.07a.713.713 0 0 0 .024-.747l-1.82-3.187a.711.711 0 0 0-.653-.352l-3.629.211-3.418-5.996a2.504 2.504 0 0 0-2.152-1.265h-.031c-.86 0-1.66.441-2.121 1.175L11.27 19.016l-7.762 4.53C.562 25.27-.445 29.075 1.254 32.056c1.539 2.672 4.777 3.808 7.617 2.672zm7.652 8.5a2.035 2.035 0 0 1-1.762-1.027l-4.663-8.16 3.507-2.043 3.461 6.066c.77 1.352 1.043 1.836 1.141 2.004l.05.082.02.035.075.137a2.076 2.076 0 0 1-.133 1.953 2.022 2.022 0 0 1-1.696.953zm-5.84-9.023l4.446 7.785a1.594 1.594 0 0 0 2.105.453 1.633 1.633 0 0 0 .668-2.07l-.078-.14-.11-.192-4.253-7.465zm-4.261-.375c-2.164.015-4.063-1.45-4.625-3.563a4.837 4.837 0 0 1 2.238-5.426l7.274-4.246 4.757 8.336-7.277 4.246a4.683 4.683 0 0 1-2.367.653zm4.73-12.66L4.41 25.14c-2.074 1.21-2.785 3.898-1.586 5.996 1.2 2.093 3.848 2.816 5.926 1.605l6.91-4.043zm4.801 12.074l-1.125-1.946 1.934-1.132 1.12 1.96zm-.55-1.805l.706 1.234 1.211-.71-.699-1.227zm1.98-3.047l-4.977-8.699L23.031 6.152l10.817 18.946zm-4.477-8.668l4.684 8.2 15.437-3.063L22.973 6.895zm22.227 5.149l-.07-.13-11.27-19.73.086-.113.18-.23c.043-.051.082-.106.12-.16a1.107 1.107 0 0 1 1.922.023L36.856 23c.192.348.192.77 0 1.113-.195.344-.55.563-.94.575a1.095 1.095 0 0 0-.227.035l-.239.05zM24.469 4.98l11.054 19.356.09-.02c.098-.023.2-.039.301-.043a.708.708 0 0 0 .59-1.054L25.91 4.676a.682.682 0 0 0-.598-.356.666.666 0 0 0-.605.34 2.04 2.04 0 0 1-.148.211 1.127 1.127 0 0 0-.09.11zm9.726 10.528l-2.504-4.39 2.504-.15 1.387 2.427zM32.391 11.5l1.828 3.207.863-1.328-1.129-1.973zm0 0" fill="#433124"/><path d="M9.855 29.156a.905.905 0 0 0-1.254-.336l-1.574.918a.905.905 0 0 1-1.242-.336.904.904 0 0 0-1.242-.34.927.927 0 0 0-.336 1.258 2.715 2.715 0 0 0 3.73 1.012l1.575-.918a.932.932 0 0 0 .343-1.258zm0 0" fill="#e78325"/><path d="M6.586 31.914a2.942 2.942 0 0 1-2.55-1.48 1.132 1.132 0 0 1-.016-1.145c.199-.36.574-.578.98-.574.406.004.777.23.973.59a.699.699 0 0 0 .957.258l1.574-.918c.258-.153.562-.192.851-.114.286.078.532.266.68.528a1.137 1.137 0 0 1-.418 1.543l-1.574.921a2.94 2.94 0 0 1-1.457.391zm-1.578-2.762a.683.683 0 0 0-.348.094.715.715 0 0 0-.258.969 2.51 2.51 0 0 0 3.446.933l1.574-.918a.71.71 0 0 0 .258-.969.701.701 0 0 0-.961-.261l-1.574.922a1.106 1.106 0 0 1-.848.113 1.135 1.135 0 0 1-.68-.527.684.684 0 0 0-.61-.356zm0 0M45.438 4.238l-5.07 2.852a.924.924 0 0 0-.352 1.25.905.905 0 0 0 1.238.36l5.066-2.856a.923.923 0 0 0 .352-1.25.897.897 0 0 0-1.234-.356zm0 0" fill="#e78325"/><path d="M40.813 9.023a1.128 1.128 0 0 1-1.113-1c-.052-.457.175-.898.57-1.117l5.066-2.855a1.11 1.11 0 0 1 1.52.441c.148.258.183.57.097.856-.078.289-.27.535-.527.68l-5.07 2.855c-.169.094-.352.14-.544.14zm5.066-4.691a.702.702 0 0 0-.34.09l-5.062 2.851a.715.715 0 0 0-.024 1.235.695.695 0 0 0 .707.004l5.07-2.852a.71.71 0 1 0-.352-1.328zm0 0M44.906 13.766l-3.515-.954a.904.904 0 0 0-.891.227.926.926 0 0 0 .422 1.55l3.52.954a.91.91 0 0 0 1.117-.652.92.92 0 0 0-.649-1.125zm0 0" fill="#e78325"/><path d="M44.672 15.785c-.098 0-.195-.012-.29-.039l-3.515-.953a1.13 1.13 0 0 1-.793-1.383c.16-.605.774-.965 1.371-.8l3.516.953c.543.144.894.675.82 1.242a1.12 1.12 0 0 1-1.11.98zm-3.516-2.793a.707.707 0 0 0-.699.617.705.705 0 0 0 .52.778l3.515.953a.693.693 0 0 0 .735-.254.724.724 0 0 0 .05-.79.703.703 0 0 0-.418-.327l-3.511-.95a.648.648 0 0 0-.192-.027zm0 0M36.074.895l-.941 3.554a.924.924 0 0 0 .222.903c.23.238.57.328.891.242a.917.917 0 0 0 .64-.668l.946-3.555a.923.923 0 0 0-.648-1.11.907.907 0 0 0-1.11.634zm0 0" fill="#e78325"/><path d="M36.008 5.816c-.098 0-.196-.011-.29-.035a1.137 1.137 0 0 1-.788-1.386L35.87.844c.078-.29.266-.54.524-.688.253-.152.562-.191.847-.113.594.164.95.781.79 1.387l-.942 3.55a1.123 1.123 0 0 1-1.082.836zm.941-5.394a.683.683 0 0 0-.347.094.722.722 0 0 0-.329.421l-.941 3.56a.707.707 0 0 0 .496.866.7.7 0 0 0 .86-.5l.94-3.558A.716.716 0 0 0 37.5.699a.68.68 0 0 0-.55-.277zm0 0" fill="#e78325"/></svg><svg width="66" height="66" viewBox="-10 -10 66 66" id="guest-3" x="956" xmlns="http://www.w3.org/2000/svg"><path d="M30.453 20.344h-1.738a4.217 4.217 0 0 0-2.973 1.226 4.205 4.205 0 0 0-1.23 2.97v3h-1.73a.719.719 0 0 0 0 1.437h1.73v2.507h-1.73a.716.716 0 1 0 0 1.434h1.73v2.55a.723.723 0 1 0 1.441 0v-2.55h3.543a.716.716 0 0 0 0-1.434h-3.543v-2.507h4.5a4.02 4.02 0 0 0 4.024-4.02v-.594A4.02 4.02 0 0 0 33.3 21.52a4.037 4.037 0 0 0-2.848-1.176zm2.582 4.61a2.564 2.564 0 0 1-.754 1.827 2.568 2.568 0 0 1-1.828.758h-4.5v-3a2.753 2.753 0 0 1 .805-1.96 2.742 2.742 0 0 1 1.957-.817h1.738a2.584 2.584 0 0 1 2.582 2.59zm0 0" fill="#e78325"/><path d="M25.227 36.93a1.486 1.486 0 0 1-1.461-1.485V33.66h-.989c-.804 0-1.46-.652-1.46-1.46a1.46 1.46 0 0 1 1.46-1.458h.989V29.72h-.989c-.804 0-1.46-.657-1.46-1.461 0-.805.656-1.461 1.46-1.461h.989v-2.258a4.945 4.945 0 0 1 4.949-4.945h1.738a4.765 4.765 0 0 1 4.766 4.758v.597a4.77 4.77 0 0 1-4.766 4.758h-3.742v1.023h2.797a1.459 1.459 0 1 1 0 2.918H26.71v1.813a1.485 1.485 0 0 1-1.484 1.469zm1.484-10.133h3.758c.488 0 .957-.192 1.304-.54.344-.347.536-.816.536-1.304v-.59a1.838 1.838 0 0 0-1.84-1.843h-1.754a2.019 2.019 0 0 0-2.004 2.02zm0 0M15.566 18.473a.738.738 0 0 1-.726-.75V8.41l-1.926.602a.631.631 0 0 1-.226.043.769.769 0 0 1-.723-.528.752.752 0 0 1 .496-.945l2.871-.91c.23-.07.48-.031.68.105.191.141.304.364.312.602v10.344a.74.74 0 0 1-.758.75zm0 0" fill="#e78325"/><path d="M15.566 19.215c-.82 0-1.484-.664-1.484-1.485V9.398l-.941.297a1.493 1.493 0 1 1-.914-2.843l2.902-.903c.453-.144.95-.066 1.336.211.383.281.61.73.61 1.203v10.36c.003.398-.157.78-.442 1.062a1.471 1.471 0 0 1-1.067.43zm0-11.82V17.73 7.38l-2.921.906zm0 0" fill="#e78325"/><path d="M12.203 33.781a16.988 16.988 0 0 0 17.934 11.367 16.991 16.991 0 0 0 3.672-32.95 17.154 17.154 0 0 0-5.938-8.116c-6.758-4.98-16.14-4.27-22.074 1.664a16.982 16.982 0 0 0-1.668 22.078 17.154 17.154 0 0 0 8.074 5.957zm31.621-5.52a15.552 15.552 0 0 1-30.304 4.95.803.803 0 0 0-.122-.363 15.563 15.563 0 0 1 3.899-15.61 15.57 15.57 0 0 1 15.625-3.824.861.861 0 0 0 .2.07 15.548 15.548 0 0 1 10.702 14.778zM6.727 6.739c5.453-5.465 14.09-6.093 20.28-1.484a15.821 15.821 0 0 1 5.095 6.473A16.97 16.97 0 0 0 11.71 32.055a15.69 15.69 0 0 1-6.473-5.078A15.514 15.514 0 0 1 6.723 6.738zm0 0" fill="#3e2c1f"/><path d="M28.27 46a17.732 17.732 0 0 1-16.653-11.637 17.887 17.887 0 0 1-8.125-6.09A17.51 17.51 0 0 1 0 17.746C.012 7.953 7.945.012 17.742 0a17.583 17.583 0 0 1 10.551 3.488 17.81 17.81 0 0 1 6.094 8.13A17.743 17.743 0 0 1 45.719 31.37 17.733 17.733 0 0 1 28.269 46zM14.246 33.027a14.896 14.896 0 0 0 3.559 5.711c5.843 5.383 14.894 5.2 20.511-.422 5.621-5.617 5.805-14.668.422-20.511a14.895 14.895 0 0 0-5.804-3.586 1.283 1.283 0 0 1-.286-.094 14.98 14.98 0 0 0-4.378-.656 14.837 14.837 0 0 0-14.188 19.054c.082.157.14.325.164.504zm-1.52.153l-.003-.04zM7.287 7.262a14.776 14.776 0 0 0-1.43 19.289 15.083 15.083 0 0 0 4.886 4.226 17.719 17.719 0 0 1 17.551-20.23c.84 0 1.68.062 2.512.18a15.054 15.054 0 0 0-4.23-4.875C20.68 1.477 12.468 2.09 7.284 7.285zm25.925 5.441zm0 0" fill="#3e2c1f"/></svg><svg width="64" height="64" viewBox="-10 -10 64 64" id="guest-4" x="1022" xmlns="http://www.w3.org/2000/svg"><path d="M40.293 17.363a2.919 2.919 0 0 0 .727-2.968 2.864 2.864 0 0 0-2.31-1.97l-9.476-1.398a.564.564 0 0 1-.43-.316l-4.241-8.707A2.85 2.85 0 0 0 22 .39a2.859 2.859 0 0 0-2.563 1.613L15.2 10.71a.57.57 0 0 1-.43.316l-9.476 1.399a2.864 2.864 0 0 0-2.309 1.969 2.925 2.925 0 0 0 .723 2.968l6.86 6.778a.586.586 0 0 1 .163.515l-1.62 9.57a2.923 2.923 0 0 0 1.136 2.837 2.83 2.83 0 0 0 3.012.218l8.476-4.52a.58.58 0 0 1 .532 0l8.48 4.52c.961.512 2.129.43 3.012-.218a2.913 2.913 0 0 0 1.133-2.836l-1.618-9.57a.575.575 0 0 1 .164-.516zm-9.273 7.688l1.617 9.57a.583.583 0 0 1-.227.566.568.568 0 0 1-.601.043l-8.477-4.52a2.815 2.815 0 0 0-2.66 0l-8.48 4.517a.56.56 0 0 1-.602-.043.584.584 0 0 1-.227-.567l1.621-9.566a2.93 2.93 0 0 0-.824-2.567L5.3 15.711a.584.584 0 0 1 .317-.988l9.477-1.399a2.848 2.848 0 0 0 2.152-1.582l4.246-8.71a.573.573 0 0 1 .512-.325c.219 0 .418.125.516.324l4.238 8.707a2.849 2.849 0 0 0 2.148 1.582l9.48 1.399c.216.031.391.183.462.394a.596.596 0 0 1-.145.594L31.84 22.48a2.935 2.935 0 0 0-.82 2.57zm0 0" fill="#3e2c1f"/><path d="M11.926 38c-.957 0-1.86-.43-2.473-1.172a3.307 3.307 0 0 1-.719-2.668l1.621-9.57a.201.201 0 0 0-.054-.172l-6.86-6.773a3.315 3.315 0 0 1-.82-3.364 3.249 3.249 0 0 1 2.613-2.234l9.477-1.399a.184.184 0 0 0 .144-.105l4.239-8.707A3.24 3.24 0 0 1 21.996.008c1.234 0 2.36.71 2.906 1.828l4.239 8.707a.184.184 0 0 0 .144.105l9.477 1.399a3.244 3.244 0 0 1 2.613 2.234 3.307 3.307 0 0 1-.82 3.364l-6.86 6.773a.214.214 0 0 0-.054.172l1.62 9.57c.16.953-.1 1.93-.714 2.668A3.215 3.215 0 0 1 32.078 38a3.175 3.175 0 0 1-1.508-.379l-8.48-4.516a.177.177 0 0 0-.176 0l-8.48 4.516c-.465.25-.985.379-1.508.379zM22 32.309c.156 0 .305.039.445.109l8.477 4.52c.355.19.754.289 1.156.292a2.483 2.483 0 0 0 1.89-.898 2.545 2.545 0 0 0 .548-2.039l-1.621-9.574a.977.977 0 0 1 .273-.856l6.86-6.777a2.53 2.53 0 0 0 .628-2.574 2.49 2.49 0 0 0-2-1.707l-9.48-1.39a.96.96 0 0 1-.715-.528l-4.238-8.711A2.48 2.48 0 0 0 22 .777a2.47 2.47 0 0 0-2.219 1.399l-4.242 8.707a.95.95 0 0 1-.715.527L5.348 12.81a2.483 2.483 0 0 0-2 1.707c-.29.91-.047 1.906.625 2.574l6.863 6.773a.996.996 0 0 1 .273.86l-1.625 9.566a2.53 2.53 0 0 0 .989 2.457 2.441 2.441 0 0 0 2.605.191l8.48-4.519a.97.97 0 0 1 .442-.11zm10.078 3.375a.931.931 0 0 1-.445-.114l-8.48-4.515a2.434 2.434 0 0 0-2.305 0L12.37 35.57a.943.943 0 0 1-1.004-.07.97.97 0 0 1-.379-.945l1.621-9.575a2.523 2.523 0 0 0-.714-2.218l-6.86-6.778a.974.974 0 0 1-.238-.988.945.945 0 0 1 .766-.656l9.48-1.399a2.48 2.48 0 0 0 1.86-1.37l4.238-8.708a.949.949 0 0 1 .855-.539c.363 0 .692.207.852.54l4.246 8.702a2.462 2.462 0 0 0 1.863 1.371l9.477 1.399c.359.05.656.309.77.656a.98.98 0 0 1-.243.988l-6.86 6.778a2.543 2.543 0 0 0-.71 2.222l1.62 9.57a.98.98 0 0 1-.206.786.942.942 0 0 1-.727.348zM22 29.992c.523 0 1.043.13 1.508.375l8.476 4.52c.067.035.141.027.2-.016a.196.196 0 0 0 .078-.187l-1.617-9.57a3.315 3.315 0 0 1 .93-2.907l6.859-6.773a.181.181 0 0 0 .046-.2.162.162 0 0 0-.148-.132l-9.477-1.399a3.226 3.226 0 0 1-2.437-1.793l-4.25-8.707A.185.185 0 0 0 22 3.098c-.07 0-.137.039-.168.105L17.59 11.91a3.235 3.235 0 0 1-2.438 1.793l-9.48 1.399a.167.167 0 0 0-.152.128.18.18 0 0 0 .046.2l6.86 6.777a3.289 3.289 0 0 1 .93 2.902l-1.618 9.575c-.011.07.02.144.078.187.059.043.133.05.2.016l8.476-4.52A3.229 3.229 0 0 1 22 29.992zm0 0" fill="#3e2c1f"/><path d="M35.352 2.004a1.137 1.137 0 0 0-1.598.258l-1.211 1.687a1.165 1.165 0 0 0-.14 1.168 1.137 1.137 0 0 0 1.988.196l1.214-1.692a1.174 1.174 0 0 0-.253-1.617zm0 0" fill="#ed8b2d"/><path d="M33.465 6.137a1.483 1.483 0 0 1-1.32-.82 1.528 1.528 0 0 1 .125-1.567l1.21-1.688a1.475 1.475 0 0 1 2.07-.332c.66.489.805 1.426.325 2.094l-1.21 1.692c-.278.39-.724.62-1.2.62zm1.215-4.008a.791.791 0 0 0-.653.332l-1.21 1.695a.819.819 0 0 0 .175 1.137.8.8 0 0 0 1.125-.18l1.215-1.691a.828.828 0 0 0-.18-1.14.785.785 0 0 0-.472-.153zm0 0M11.453 3.95l-1.215-1.696a1.132 1.132 0 0 0-1.058-.52c-.418.04-.785.309-.95.704-.164.39-.101.843.16 1.18l1.215 1.69a1.137 1.137 0 0 0 2.008-.18c.164-.39.106-.843-.16-1.179zm0 0" fill="#ed8b2d"/><path d="M10.531 6.129c-.476 0-.922-.23-1.199-.617L8.117 3.816a1.518 1.518 0 0 1 .328-2.097 1.475 1.475 0 0 1 2.07.332l1.212 1.695a1.52 1.52 0 0 1 .125 1.563c-.254.503-.766.82-1.32.82zM9.316 2.12a.803.803 0 0 0-.718.445.827.827 0 0 0 .066.848L9.88 5.105a.802.802 0 0 0 1.445-.352.819.819 0 0 0-.144-.605L9.969 2.457a.805.805 0 0 0-.653-.336zm0 0M4.531 26.383a1.14 1.14 0 0 0-1.437-.746l-1.965.648a1.16 1.16 0 0 0-.707 1.45c.191.6.82.933 1.414.753L3.8 27.84c.597-.2.926-.852.73-1.457zm0 0" fill="#ed8b2d"/><path d="M1.48 28.887c-.726 0-1.347-.54-1.46-1.266a1.507 1.507 0 0 1 1.003-1.664l1.965-.648a1.478 1.478 0 0 1 1.867.96c.25.79-.175 1.637-.953 1.895l-1.96.645c-.149.05-.305.078-.462.078zm1.965-2.965a.782.782 0 0 0-.25.043l-1.96.644a.823.823 0 0 0-.548.903.805.805 0 0 0 1.043.648l1.965-.644a.815.815 0 0 0 .516-1.032.803.803 0 0 0-.762-.562zm0 0M22 39.242a1.145 1.145 0 0 0-1.14 1.16v2.094A1.15 1.15 0 0 0 22 43.61a1.15 1.15 0 0 0 1.14-1.113v-2.094a1.148 1.148 0 0 0-1.14-1.16zm0 0" fill="#ed8b2d"/><path d="M22 43.996a1.497 1.497 0 0 1-1.48-1.504v-2.09c.027-.808.68-1.449 1.48-1.449.797 0 1.453.64 1.48 1.45v2.093a1.496 1.496 0 0 1-1.48 1.5zm0-4.41a.809.809 0 0 0-.805.816v2.09c.02.438.375.778.805.778.43 0 .785-.34.805-.778v-2.09c0-.449-.36-.816-.805-.816zm0 0M42.871 26.285l-1.96-.644a1.14 1.14 0 0 0-1.419.75 1.168 1.168 0 0 0 .711 1.453l1.961.644c.602.2 1.246-.133 1.441-.742a1.162 1.162 0 0 0-.734-1.46zm0 0" fill="#ed8b2d"/><path d="M42.52 28.89c-.157 0-.31-.027-.458-.074l-1.964-.648a1.492 1.492 0 0 1-1.016-1.113 1.516 1.516 0 0 1 .465-1.446c.398-.359.96-.472 1.469-.297l1.96.649a1.498 1.498 0 0 1 1.004 1.66 1.492 1.492 0 0 1-1.46 1.27zm-1.961-2.964a.806.806 0 0 0-.797.687.815.815 0 0 0 .547.903l1.96.648a.808.808 0 0 0 1.016-.523.816.816 0 0 0-.52-1.028l-1.96-.648a.755.755 0 0 0-.246-.04zm0 0" fill="#ed8b2d"/></svg><svg width="72" height="64" viewBox="-10 -10 59 64" id="guest-5" x="1086" xmlns="http://www.w3.org/2000/svg"><path d="M13.063 5.672c0 2.351-1.926 4.258-4.305 4.258-2.375 0-4.305-1.907-4.305-4.258 0-2.352 1.93-4.262 4.305-4.262 2.379 0 4.305 1.91 4.305 4.262zm0 0M12.547 11.266H35.02v13.457H12.547zm0 0" fill="#ed8b2d"/><path d="M37.738 9.965h-5.144a6.322 6.322 0 0 0 2.062-3.938c.106-.87.016-1.683-.258-2.351-.988-2.41-4.183-3.79-7.277-3.13-.027.005-.05.013-.074.02-1.832.563-3.797 2.418-5.84 5.52A38.02 38.02 0 0 0 19.5 8.94a39.393 39.393 0 0 0-1.707-2.855c-2.047-3.102-4.012-4.957-5.84-5.52a.52.52 0 0 0-.074-.02 7.365 7.365 0 0 0-4.602.49.843.843 0 0 0-.414 1.124c.2.426.711.61 1.14.41a5.714 5.714 0 0 1 3.477-.375c2.48.797 5.235 5.145 6.637 7.77h-7.27a4.858 4.858 0 0 1-4.41-2.762.86.86 0 0 0-1.136-.414.845.845 0 0 0-.418 1.125 6.393 6.393 0 0 0 1.523 2.05H1.258a.85.85 0 0 0-.852.845v8.73a.85.85 0 0 0 .852.844h.949v22.39a.85.85 0 0 0 .856.844h32.874a.85.85 0 0 0 .852-.844V20.387h.95a.847.847 0 0 0 .85-.844v-8.73a.826.826 0 0 0-.245-.598.857.857 0 0 0-.606-.25zM27.52 2.195c2.253-.46 4.62.485 5.293 2.121.167.403.214.926.144 1.512-.285 2.363-2.352 4.137-4.805 4.137h-7.27c1.403-2.625 4.153-6.973 6.638-7.77zM2.117 18.691v-7.027h10.43v7.027zm20.934 23.235H3.92v-21.54h10.313v15.602c0 .469.383.848.86.848a.851.851 0 0 0 .855-.848V20.387h7.102zm1.687-23.235H14.262v-7.027h10.476zm10.34 23.235H24.766v-21.54h10.312zm1.809-23.235H26.453v-7.027h10.434zm0 0" fill="#433124"/><path d="M35.938 44H3.066c-.687 0-1.242-.55-1.242-1.227V20.766h-.566A1.231 1.231 0 0 1 .02 19.539v-8.727c0-.675.554-1.226 1.238-1.226h4.246a6.615 6.615 0 0 1-.973-1.512 1.213 1.213 0 0 1 .106-1.23 1.25 1.25 0 0 1 1.133-.52 1.24 1.24 0 0 1 1.015.723 4.476 4.476 0 0 0 4.063 2.539h6.625c-1.707-3.066-4.106-6.367-6.09-7.024a5.313 5.313 0 0 0-3.215.352c-.621.29-1.36.023-1.652-.59A1.223 1.223 0 0 1 7.113.691a7.736 7.736 0 0 1 4.852-.515c.035.004.07.015.105.023 1.918.594 3.953 2.5 6.051 5.68a36.79 36.79 0 0 1 1.383 2.27c.45-.794.914-1.555 1.387-2.27C22.98 2.703 25.016.793 26.93.203c.039-.012.074-.023.11-.027 3.273-.696 6.66.777 7.718 3.36.297.726.394 1.6.281 2.538a6.66 6.66 0 0 1-1.543 3.512h4.242c.684 0 1.239.55 1.239 1.226v8.727c0 .676-.555 1.227-1.239 1.227h-.566v22.007c0 .676-.55 1.223-1.234 1.227zM1.258 10.348a.47.47 0 0 0-.473.464v8.727c0 .258.215.469.473.469h1.336v22.765c0 .258.21.465.472.465h32.871a.467.467 0 0 0 .47-.465V20.008h1.331c.262 0 .473-.211.473-.469v-8.727a.468.468 0 0 0-.473-.464h-6.136l.738-.664a5.946 5.946 0 0 0 1.937-3.7c.098-.808.016-1.554-.23-2.164C33.125 1.574 30.12.297 27.199.918l-.043.012c-1.734.53-3.629 2.34-5.625 5.363a37.313 37.313 0 0 0-1.691 2.828l-.34.625-.344-.625c-.539-.996-1.11-1.95-1.687-2.828-1.996-3.023-3.89-4.828-5.633-5.367l-.04-.008a6.985 6.985 0 0 0-4.355.46.467.467 0 0 0 .043.864.477.477 0 0 0 .36-.015 6.11 6.11 0 0 1 3.718-.403l.04.008c2.925.941 5.984 6.328 6.851 7.957l.297.559h-7.902c-2.04.004-3.899-1.16-4.762-2.985a.49.49 0 0 0-.39-.285.48.48 0 0 0-.438.203.465.465 0 0 0-.031.477A5.93 5.93 0 0 0 6.66 9.684l.738.664zm33.82 31.957H24.383V20.008h11.082v21.918h-.387zm-9.93-.762h9.547V20.77h-9.547zm-1.714.762H3.535V20.008h11.082v15.98a.474.474 0 0 0 .95 0v-15.98h7.867zm-19.13-.762h18.364V20.77h-6.336v15.218c0 .68-.555 1.23-1.238 1.23-.688 0-1.242-.55-1.242-1.23V20.766H4.305zM37.27 19.07H26.066v-7.789H37.27zm-10.434-.758H36.5v-6.269h-9.664zm-1.715.758H13.88v-7.789H25.12zm-10.476-.758h9.71v-6.269h-9.71zm-1.711.758H1.73v-7.789h11.204zM2.5 18.312h9.664v-6.269H2.5zm25.652-7.964h-7.906l.3-.559c.864-1.629 3.923-7.008 6.852-7.957l.043-.008a6.124 6.124 0 0 1 3.461.285c1.098.442 1.903 1.172 2.266 2.059.191.46.25 1.05.172 1.7-.313 2.554-2.54 4.48-5.188 4.48zm-6.625-.762h6.625c2.258 0 4.16-1.637 4.422-3.805.067-.523.024-.98-.117-1.324-.598-1.465-2.77-2.312-4.84-1.894-1.988.656-4.387 3.957-6.094 7.023zm0 0" fill="#433124"/><path d="M15.95 39.379a.855.855 0 0 1-.86.851.853.853 0 0 1-.86-.851c0-.469.383-.852.86-.852.473 0 .86.383.86.852zm0 0" fill="#433124"/><path d="M15.09 40.61c-.688 0-1.246-.551-1.246-1.231s.558-1.23 1.246-1.23c.687 0 1.242.55 1.242 1.23 0 .68-.555 1.23-1.242 1.23zm0-1.7a.474.474 0 0 0-.477.469c0 .262.215.473.477.473s.476-.211.476-.473a.474.474 0 0 0-.476-.469zm0 0M6.258 4.246a.858.858 0 0 1-.86.852.858.858 0 0 1-.859-.852.852.852 0 0 1 .856-.851.84.84 0 0 1 .609.246c.164.16.254.379.254.605zm0 0" fill="#433124"/><path d="M5.395 5.477a1.241 1.241 0 0 1-1.243-1.235c.004-.68.563-1.23 1.246-1.23.688 0 1.247.554 1.243 1.234 0 .68-.559 1.23-1.246 1.23zm0-1.704a.475.475 0 0 0-.477.473c0 .258.215.469.477.469.261 0 .476-.211.476-.469a.475.475 0 0 0-.476-.473zm0 0" fill="#433124"/></svg><svg width="52" height="52" viewBox="-10 -10 44 44" id="info" x="1158" xmlns="http://www.w3.org/2000/svg"><g fill="#ff7900"><path d="M20.484 3.516C15.777-1.054 8.277-1 3.641 3.64-1 8.277-1.055 15.777 3.516 20.484c4.707 4.57 12.207 4.516 16.843-.125 4.641-4.636 4.696-12.136.125-16.843zM12 22.063C6.453 22.063 1.937 17.547 1.937 12 1.938 6.453 6.454 1.937 12 1.937c5.547 0 10.063 4.516 10.063 10.063 0 5.547-4.516 10.063-10.063 10.063zm0 0"/><path d="M12 11.031a.969.969 0 0 0-.969.969v4.414a.969.969 0 1 0 1.938 0V12a.969.969 0 0 0-.969-.969zm0 0M12.688 6.902a.97.97 0 1 0-.5 1.637.971.971 0 0 0 .5-1.637zm0 0"/></g></svg><svg width="39" height="34" viewBox="-10 -10 39 34" id="mail" x="1210" xmlns="http://www.w3.org/2000/svg"><g fill="#ff7900"><path d="M18.367.21H.633a.386.386 0 0 0-.305.118.4.4 0 0 0-.117.309v12.726a.4.4 0 0 0 .117.309.386.386 0 0 0 .305.117h17.734a.386.386 0 0 0 .305-.117.4.4 0 0 0 .117-.309V.637a.4.4 0 0 0-.117-.309.386.386 0 0 0-.305-.117zm-.422 11.712L12.707 6.66l-.59.594 5.66 5.684H1.223l5.66-5.684-.59-.594-5.238 5.262V1.062h16.89zm0 0"/><path d="M18.367 14H.633a.603.603 0 0 1-.453-.18.606.606 0 0 1-.18-.457V.637A.612.612 0 0 1 .633 0h17.734a.603.603 0 0 1 .453.18.606.606 0 0 1 .18.457v12.726a.606.606 0 0 1-.18.457.603.603 0 0 1-.453.18zM.633.426A.182.182 0 0 0 .477.48a.178.178 0 0 0-.055.157v12.726a.178.178 0 0 0 .055.157.182.182 0 0 0 .156.054h17.734a.182.182 0 0 0 .156-.054.178.178 0 0 0 .055-.157V.637a.178.178 0 0 0-.055-.157.182.182 0 0 0-.156-.054zm17.652 12.726H.715l5.867-5.898-.289-.293-5.45 5.473V.848h17.313v11.586L12.707 6.96l-.289.293zm-16.55-.425h15.53L11.82 7.254l.887-.89 5.027 5.042V1.273H1.266v10.133l5.027-5.043.887.89zm0 0"/><path d="M17.102 1.063L9.5 8.694 1.898 1.062h-.843v.336l8.148 8.188a.42.42 0 0 0 .594 0l8.148-8.188v-.335zm0 0"/><path d="M9.5 9.926a.597.597 0 0 1-.441-.168L.844 1.488v-.64h1.144L9.5 8.395 17.012.848h1.144v.64l-8.215 8.27a.597.597 0 0 1-.441.168zM1.266 1.312l8.086 8.126c.039.042.093.066.148.066.055 0 .11-.024.148-.066l8.086-8.126v-.039h-.547L9.5 9 1.812 1.273h-.546zm0 0"/></g></svg><svg width="34" height="34" viewBox="-10 -10 34 34" id="phone" x="1249" xmlns="http://www.w3.org/2000/svg"><path d="M13.61 1.79l-.032-.032L11.906.3A1.158 1.158 0 0 0 11.012 0a1.298 1.298 0 0 0-.852.422L8.516 2.5a1.18 1.18 0 0 0 .03 1.633.357.357 0 0 0 .095.078l.84.562c-.067.29-.504 1.133-2.04 2.668-1.53 1.536-2.375 1.973-2.668 2.04l-.558-.84c-.024-.036-.05-.067-.078-.098a1.18 1.18 0 0 0-1.633-.027L.43 10.156c-.016.016-.035.031-.055.051-.465.465-.504 1.242-.07 1.7l1.453 1.671.031.031c.29.286.719.391 1.191.391.852 0 1.84-.336 2.352-.54a14.643 14.643 0 0 0 4.871-3.265 14.742 14.742 0 0 0 3.266-4.87c.304-.794.945-2.731.14-3.536zM9.32 9.32c-2.879 2.88-6.11 3.664-6.66 3.399l-1.406-1.621 2.027-1.61.547.82.035.047c.188.23.469.368.766.38.3.015 1.219.062 3.691-2.415.614-.61 2.477-2.472 2.414-3.691a1.049 1.049 0 0 0-.379-.77l-.867-.578 1.606-2.035 1.625 1.414c.265.55-.516 3.781-3.399 6.66zm0 0" fill="#ff7900"/></svg><svg width="36" height="34" viewBox="-10 -10 36 34" id="plane" x="1283" xmlns="http://www.w3.org/2000/svg"><g fill="#ff7900"><path d="M.148 7a.767.767 0 0 0 .543.7l5.754 1.76.211 4.02a.403.403 0 0 0 .395.375c.113 0 .222-.05.297-.132l2.035-2.286 2.883 2.024c.125.09.277.14.433.14a.776.776 0 0 0 .754-.624L15.848.62a.393.393 0 0 0-.137-.383.382.382 0 0 0-.395-.062L.61 6.238A.784.784 0 0 0 .15 7zm7.239 5.484l-.13-2.535L8.73 10.98zm5.3.309l-5.25-3.68 7.364-7.215zm1.305-11.211L6.715 8.711.969 6.953zm0 0"/><path d="M7.05 14a.545.545 0 0 1-.54-.512L6.31 9.574.649 7.84a.909.909 0 0 1-.645-.828.928.928 0 0 1 .543-.907H.55L15.258.04a.541.541 0 0 1 .73.61l-2.394 12.355a.926.926 0 0 1-.895.742.899.899 0 0 1-.515-.164l-2.782-1.95-1.949 2.188a.518.518 0 0 1-.402.18zM.665 6.371A.639.639 0 0 0 .73 7.56l5.852 1.793.219 4.12a.26.26 0 0 0 .168.223h.004c.027.012.05.016.078.016a.25.25 0 0 0 .187-.086l2.121-2.379 2.989 2.094a.599.599 0 0 0 .351.113.63.63 0 0 0 .614-.508L15.707.59a.251.251 0 0 0-.086-.238.228.228 0 0 0-.25-.04zm12.121 6.668L7.211 9.13l7.816-7.66zm-5.12-3.945l4.925 3.453 1.98-10.219zm-.403 3.75L7.098 9.66l1.851 1.297zm.156-2.606l.098 1.887.996-1.117zm-.664-1.363L.535 6.973 14.63 1.16zM1.398 6.934l5.278 1.613L13.356 2zm0 0"/></g></svg></svg>